<svg width="152" height="153" viewBox="0 0 152 153" fill="none" xmlns="http://www.w3.org/2000/svg">
<g clip-path="url(#clip0_1_10399)">
<g opacity="0.204">
<path d="M76 130.5C106.1 130.5 130.5 106.1 130.5 76C130.5 45.9005 106.1 21.5 76 21.5C45.9005 21.5 21.5 45.9005 21.5 76C21.5 106.1 45.9005 130.5 76 130.5Z" stroke="white"/>
</g>
<path d="M114.243 56.318C111.203 50.442 106.859 45.3393 101.544 41.4C101.359 41.2611 101.149 41.1601 100.925 41.1029C100.701 41.0457 100.468 41.0333 100.24 41.0666C100.011 41.0999 99.7914 41.1781 99.5932 41.2967C99.3949 41.4154 99.2221 41.5721 99.0847 41.7578C98.9474 41.9436 98.8481 42.1547 98.7928 42.379C98.7374 42.6033 98.727 42.8364 98.7622 43.0647C98.7973 43.2931 98.8774 43.5122 98.9976 43.7094C99.1179 43.9067 99.2761 44.0782 99.463 44.214C104.346 47.8316 108.337 52.5176 111.132 57.914C114.025 63.5025 115.525 69.7072 115.504 76C115.504 83.8124 113.187 91.4493 108.847 97.945C104.507 104.441 98.3376 109.504 91.12 112.493C83.9023 115.483 75.9601 116.265 68.2979 114.741C60.6356 113.217 53.5974 109.455 48.0732 103.931C42.5491 98.4065 38.7871 91.3683 37.2629 83.7061C35.7388 76.0438 36.5211 68.1017 39.5107 60.884C42.5004 53.6663 47.5632 47.4973 54.0589 43.1569C60.5547 38.8166 68.1916 36.5 76.004 36.5C76.4681 36.5 76.9132 36.3156 77.2414 35.9874C77.5696 35.6592 77.754 35.2141 77.754 34.75C77.754 34.2859 77.5696 33.8408 77.2414 33.5126C76.9132 33.1844 76.4681 33 76.004 33C66.6342 33.0054 57.523 36.0729 50.0579 41.7354C42.5927 47.3979 37.1828 55.345 34.652 64.3665C32.1212 73.388 32.6082 82.9894 36.0388 91.7085C39.4694 100.428 45.6557 107.787 53.6555 112.665C61.6552 117.543 71.0301 119.673 80.3523 118.73C89.6745 117.787 98.4331 113.824 105.294 107.443C112.156 101.062 116.743 92.6135 118.359 83.3841C119.975 74.1547 118.529 64.6502 114.243 56.318Z" fill="white"/>
<path d="M64.9798 56.0105C64.7107 56.1634 64.487 56.385 64.3314 56.6525C64.1757 56.92 64.0938 57.224 64.0938 57.5335V95.9775C64.1153 96.4271 64.309 96.8512 64.6348 97.1619C64.9607 97.4725 65.3936 97.6458 65.8438 97.6458C66.2939 97.6458 66.7268 97.4725 67.0527 97.1619C67.3785 96.8512 67.5722 96.4271 67.5938 95.9775V60.6145L93.5298 76.0545L74.4577 88.3425C74.2644 88.4672 74.0975 88.6288 73.9666 88.8181C73.8357 89.0074 73.7433 89.2206 73.6948 89.4455C73.6463 89.6704 73.6425 89.9028 73.6838 90.1291C73.725 90.3555 73.8105 90.5716 73.9352 90.765C74.06 90.9583 74.2216 91.1252 74.4109 91.2561C74.6001 91.3871 74.8133 91.4794 75.0383 91.5279C75.2632 91.5764 75.4955 91.5802 75.7219 91.5389C75.9483 91.4977 76.1644 91.4122 76.3577 91.2875L97.8067 77.4675C98.0575 77.3059 98.2628 77.0829 98.4032 76.8198C98.5436 76.5566 98.6146 76.2619 98.6093 75.9637C98.6039 75.6655 98.5226 75.3735 98.3729 75.1155C98.2232 74.8575 98.0101 74.642 97.7538 74.4895L66.7417 56.0275C66.4757 55.8692 66.1725 55.7843 65.863 55.7813C65.5535 55.7783 65.2488 55.8574 64.9798 56.0105Z" fill="white"/>
<g opacity="0.099">
<path d="M76 152.5C117.697 152.5 151.5 118.474 151.5 76.5C151.5 34.5264 117.697 0.5 76 0.5C34.3025 0.5 0.5 34.5264 0.5 76.5C0.5 118.474 34.3025 152.5 76 152.5Z" stroke="white"/>
</g>
</g>
<defs>
<clipPath id="clip0_1_10399">
<rect width="152" height="153" fill="white"/>
</clipPath>
</defs>
</svg>
