<?xml version="1.0" standalone="no"?>
<!DOCTYPE svg PUBLIC "-//W3C//DTD SVG 1.1//EN" "http://www.w3.org/Graphics/SVG/1.1/DTD/svg11.dtd" >
<svg xmlns="http://www.w3.org/2000/svg" xmlns:xlink="http://www.w3.org/1999/xlink" version="1.1">
<metadata>
Created by FontForge 20190801 at Wed Feb 27 04:52:32 2019
 By www-data
</metadata>
<defs>
<font id="AUTHENTICSans150" horiz-adv-x="638" >
  <font-face 
    font-family="AUTHENTICSans150"
    font-weight="700"
    font-stretch="normal"
    units-per-em="1000"
    panose-1="0 0 0 0 0 0 0 0 0 0"
    ascent="776"
    descent="-224"
    x-height="539"
    cap-height="752"
    bbox="-68 -299 933 1013"
    underline-thickness="0"
    underline-position="0"
    unicode-range="U+0020-1F12F"
  />
<missing-glyph horiz-adv-x="500" 
d="M50 -224v980h400v-980h-400zM100 -174h300v880h-300v-880z" />
    <glyph glyph-name=".notdef" horiz-adv-x="500" 
d="M50 -224v980h400v-980h-400zM100 -174h300v880h-300v-880z" />
    <glyph glyph-name=".null" horiz-adv-x="0" 
 />
    <glyph glyph-name="nonmarkingreturn" horiz-adv-x="333" 
 />
    <glyph glyph-name="space" unicode=" " horiz-adv-x="300" 
 />
    <glyph glyph-name="exclam" unicode="!" horiz-adv-x="388" 
d="M136 227l-31 505h182l-31 -505h-120zM195 -12q-41 0 -69.5 29t-28.5 69t28.5 69t69.5 29t69.5 -29t28.5 -69t-28.5 -69t-69.5 -29z" />
    <glyph glyph-name="quotedbl" unicode="&#x22;" horiz-adv-x="438" 
d="M50 484l-10 268h146l-10 -268h-126zM262 484l-10 268h146l-10 -268h-126z" />
    <glyph glyph-name="numbersign" unicode="#" horiz-adv-x="760" 
d="M140 0l24 161h-103l17 134h106l17 109h-110l18 135h111q33 210 34 218h136l-33 -218h87l33 218h137l-34 -218h119l-20 -135h-119l-16 -109h123l-17 -134h-126l-25 -161h-137l26 161h-87l-26 -161h-135zM319 295h88l17 109h-87z" />
    <glyph glyph-name="dollar" unicode="$" horiz-adv-x="672" 
d="M264 -119v102q-96 16 -147 74.5t-51 149.5l134 35q-1 -79 64 -109v192q-189 71 -189 224q0 81 50.5 129.5t138.5 61.5v86h136v-87q83 -13 125.5 -64t54.5 -139l-135 -34q-2 65 -45 88v-159q116 -43 160.5 -102t44.5 -133q0 -87 -55 -143.5t-150 -70.5v-101h-136zM264 481
v114q-54 -11 -54 -51q0 -37 54 -63zM400 129q69 18 69 69q0 22 -13.5 41.5t-55.5 39.5v-150z" />
    <glyph glyph-name="percent" unicode="%" horiz-adv-x="986" 
d="M231 361q-79 0 -127 55t-48 138t48 138t127 55t127 -55t48 -138t-48 -138t-127 -55zM321 -12l-119 78l458 681l120 -76zM231 493q41 0 41 61t-41 61t-41 -61t41 -61zM758 -12q-79 0 -127 55t-48 138t48 138t127 55t127 -55t48 -138t-48 -138t-127 -55zM758 120
q41 0 41 61t-41 61t-41 -61t41 -61z" />
    <glyph glyph-name="ampersand" unicode="&#x26;" horiz-adv-x="777" 
d="M307 -15q-106 0 -176 60t-70 157q0 125 129 210q-73 110 -73 190q0 72 59 122t145 50q85 0 144.5 -51.5t59.5 -129.5q0 -46 -26.5 -90t-54.5 -68.5t-70 -54.5q78 -78 142 -134q51 79 54 159h142q-11 -148 -87 -251q97 -72 106 -79l-107 -87q-25 18 -91 72
q-98 -75 -226 -75zM295 480q30 21 44.5 32t29 30.5t14.5 38.5q0 24 -17.5 40t-44.5 16t-44 -17t-17 -45q0 -46 35 -95zM310 131q54 0 107 24q-95 91 -146 152q-67 -53 -67 -98q0 -34 28 -56t78 -22z" />
    <glyph glyph-name="quotesingle" unicode="'" horiz-adv-x="226" 
d="M50 484l-10 268h146l-10 -268h-126z" />
    <glyph glyph-name="parenleft" unicode="(" horiz-adv-x="418" 
d="M252 -203q-183 205 -183 508q0 300 183 510l123 -26q-153 -213 -153 -484t153 -483z" />
    <glyph glyph-name="parenright" unicode=")" horiz-adv-x="419" 
d="M166 -203l-123 25q155 211 155 483t-155 484l123 26q184 -209 184 -510q0 -302 -184 -508z" />
    <glyph glyph-name="asterisk" unicode="*" horiz-adv-x="610" 
d="M256 352l-125 89l72 84l-113 21l46 144l101 -47l-14 114h164l-14 -114l101 47l46 -144l-113 -21l72 -84l-125 -89l-49 105z" />
    <glyph glyph-name="plus" unicode="+" horiz-adv-x="714" 
d="M292 65v228h-231v134h231v228h129v-228h232v-134h-232v-228h-129z" />
    <glyph glyph-name="comma" unicode="," horiz-adv-x="397" 
d="M178 -166l-58 70q38 23 55 41t28 43q-45 -4 -76.5 23.5t-31.5 71.5q0 42 29 71t72 29q51 0 78 -42t27 -104q0 -127 -123 -203z" />
    <glyph glyph-name="hyphen" unicode="-" horiz-adv-x="394" 
d="M75 268v138h244v-138h-244z" />
    <glyph glyph-name="period" unicode="." horiz-adv-x="389" 
d="M195 -12q-41 0 -69.5 29t-28.5 69t28.5 69t69.5 29t69.5 -29t28.5 -69t-28.5 -69t-69.5 -29z" />
    <glyph glyph-name="slash" unicode="/" horiz-adv-x="495" 
d="M159 -94l-127 29l315 870l125 -29z" />
    <glyph glyph-name="zero" unicode="0" horiz-adv-x="598" 
d="M299 -14q-126 0 -190 97t-64 280q0 185 64 282t190 97t190 -97t64 -282q0 -183 -64 -280t-190 -97zM299 132q103 0 103 231q0 233 -103 233t-103 -233q0 -231 103 -231z" />
    <glyph glyph-name="one" unicode="1" horiz-adv-x="445" 
d="M212 0v499q-77 -58 -182 -61v151q73 4 124.5 47t69.5 109h136v-745h-148z" />
    <glyph glyph-name="two" unicode="2" horiz-adv-x="596" 
d="M43 0q9 108 46 190.5t132 154.5q91 69 123 109.5t32 77.5q0 73 -80 73q-98 0 -104 -113l-150 32q12 106 79.5 167t176.5 61q110 0 170.5 -60.5t60.5 -155.5q0 -57 -31.5 -117t-124.5 -131q-99 -75 -131 -136h292v-152h-491z" />
    <glyph glyph-name="three" unicode="3" horiz-adv-x="584" 
d="M281 -14q-211 0 -258 207l153 24q18 -88 102 -88q47 0 74 24.5t27 66.5q0 41 -25.5 66.5t-68.5 25.5h-74v144h77q27 0 44.5 19t17.5 48q0 33 -22 55.5t-55 22.5q-31 0 -54.5 -20.5t-28.5 -50.5l-149 20q18 95 79 146t158 51q104 0 163.5 -55.5t59.5 -152.5
q0 -106 -66 -149q45 -18 71 -66t26 -114q0 -103 -67.5 -163.5t-183.5 -60.5z" />
    <glyph glyph-name="four" unicode="4" horiz-adv-x="598" 
d="M347 0v145h-307v123l341 473h114v-451h68v-145h-68v-145h-148zM218 290h129v175z" />
    <glyph glyph-name="five" unicode="5" horiz-adv-x="597" 
d="M295 -14q-91 0 -156.5 45t-93.5 136l149 36q27 -70 103 -70q48 0 75.5 29.5t27.5 78.5q0 52 -31 82t-75 30q-65 0 -105 -74l-117 64l25 394h410v-145h-276l-7 -103q48 12 86 12q106 0 174 -71t68 -183q0 -114 -68 -187.5t-189 -73.5z" />
    <glyph glyph-name="six" unicode="6" horiz-adv-x="622" 
d="M324 -14q-135 0 -207 96t-72 273q0 186 76.5 289t216.5 103q173 0 226 -169l-143 -34q-22 57 -81 57q-51 0 -89 -40t-48 -136q24 16 39.5 25t44.5 17t61 8q100 0 167 -66t67 -172q0 -114 -71 -182.5t-187 -68.5zM330 133q43 0 71 28t28 71t-27.5 68t-72.5 25
q-70 0 -116 -67q7 -56 38.5 -90.5t78.5 -34.5z" />
    <glyph glyph-name="seven" unicode="7" horiz-adv-x="553" 
d="M118 0q11 177 60 315.5t151 280.5h-289v145h503v-103q-69 -81 -107.5 -135t-77.5 -130t-58.5 -165.5t-26.5 -207.5h-155z" />
    <glyph glyph-name="eight" unicode="8" horiz-adv-x="606" 
d="M303 -12q-112 0 -182.5 65t-70.5 170q0 122 90 176q-68 41 -68 143q0 90 64.5 147t166.5 57t166.5 -57t64.5 -147q0 -102 -68 -143q90 -54 90 -176q0 -105 -70.5 -170t-182.5 -65zM303 469q35 0 57 17t22 45q0 29 -23 49t-56 20t-56 -20t-23 -49q0 -28 22 -45t57 -17z
M303 135q46 0 74 27t28 69q0 43 -28.5 68.5t-73.5 25.5t-73.5 -25.5t-28.5 -68.5q0 -42 28 -69t74 -27z" />
    <glyph glyph-name="nine" unicode="9" horiz-adv-x="622" 
d="M284 -12q-173 0 -226 169l143 34q22 -57 81 -57q51 0 89 40t48 136q-24 -16 -39.5 -25t-44.5 -17t-61 -8q-100 0 -167 66t-67 172q0 114 71 182.5t187 68.5q135 0 207 -96t72 -273q0 -186 -76.5 -289t-216.5 -103zM293 410q70 0 116 67q-7 56 -38.5 90.5t-78.5 34.5
q-43 0 -71 -28t-28 -71t27.5 -68t72.5 -25z" />
    <glyph glyph-name="colon" unicode=":" horiz-adv-x="389" 
d="M195 365q-41 0 -69.5 28.5t-28.5 69.5t28.5 69.5t69.5 28.5t69.5 -28.5t28.5 -69.5t-28.5 -69.5t-69.5 -28.5zM195 -12q-41 0 -69.5 29t-28.5 69t28.5 69t69.5 29t69.5 -29t28.5 -69t-28.5 -69t-69.5 -29z" />
    <glyph glyph-name="semicolon" unicode=";" horiz-adv-x="394" 
d="M195 365q-41 0 -69.5 28.5t-28.5 69.5t28.5 69.5t69.5 28.5t69.5 -28.5t28.5 -69.5t-28.5 -69.5t-69.5 -28.5zM178 -166l-58 70q38 23 55 41t28 43q-45 -4 -76.5 23.5t-31.5 71.5q0 42 29 71t72 29q51 0 78 -42t27 -104q0 -127 -123 -203z" />
    <glyph glyph-name="less" unicode="&#x3c;" horiz-adv-x="726" 
d="M566 50l-454 277v49l454 277l47 -129l-308 -173l308 -172z" />
    <glyph glyph-name="equal" unicode="=" horiz-adv-x="734" 
d="M121 400v135h493v-135h-493zM121 186v133h493v-133h-493z" />
    <glyph glyph-name="greater" unicode="&#x3e;" horiz-adv-x="726" 
d="M160 50l-47 130l307 172l-307 172l47 129l454 -277v-49z" />
    <glyph glyph-name="question" unicode="?" horiz-adv-x="574" 
d="M194 210q-4 60 12 108t42.5 77.5t53.5 54.5t46.5 51t19.5 54q0 54 -74 54q-45 0 -69 -19.5t-24 -53.5h-145q2 98 66.5 156.5t173.5 58.5q106 0 164 -51t58 -133q0 -44 -19 -79.5t-44.5 -61t-51 -52.5t-41 -68.5t-10.5 -95.5h-158zM273 -12q-41 0 -69.5 29t-28.5 69
t28.5 69t69.5 29t69.5 -29t28.5 -69t-28.5 -69t-69.5 -29z" />
    <glyph glyph-name="at" unicode="@" horiz-adv-x="964" 
d="M501 -65q-199 0 -319.5 118.5t-120.5 301.5q0 182 126.5 305t318.5 123q166 0 281.5 -99.5t115.5 -236.5q0 -120 -83 -208.5t-206 -88.5q-83 0 -125 34q-50 -29 -93 -29q-58 0 -100 45.5t-42 116.5q0 95 63.5 179.5t147.5 84.5q61 0 85 -34l4 11h131l-57 -191
q-12 -40 -4.5 -59t36.5 -19q51 0 80 47t29 104q0 86 -77 150t-189 64q-131 0 -219.5 -87t-88.5 -215q0 -125 82.5 -206.5t219.5 -81.5q154 0 239 91l99 -84q-50 -64 -138 -100t-196 -36zM421 291q27 0 51.5 38.5t24.5 78.5q0 35 -22 35q-25 0 -52 -37.5t-27 -79.5
q0 -35 25 -35z" />
    <glyph glyph-name="A" unicode="A" horiz-adv-x="767" 
d="M7 0l294 752h166l292 -752h-156l-71 187h-294l-73 -187h-158zM294 335h182l-91 236z" />
    <glyph glyph-name="B" unicode="B" horiz-adv-x="704" 
d="M63 0v752h305q125 0 192.5 -52t67.5 -149q0 -109 -75 -153q50 -19 78.5 -64.5t28.5 -105.5q0 -100 -77.5 -164t-199.5 -64h-320zM213 469h135q131 0 131 67t-131 67h-135v-134zM213 150h171q64 0 93.5 20.5t29.5 65.5t-29.5 65.5t-93.5 20.5h-171v-172z" />
    <glyph glyph-name="C" unicode="C" horiz-adv-x="798" 
d="M409 -19q-163 0 -267 107.5t-104 277.5q0 173 109 288.5t273 115.5q112 0 199 -56.5t131 -158.5l-155 -51q-59 114 -177 114q-98 0 -160.5 -70t-62.5 -178q0 -105 59.5 -171.5t153.5 -66.5q68 0 119.5 34t76.5 98l150 -35q-44 -119 -133 -183.5t-212 -64.5z" />
    <glyph glyph-name="D" unicode="D" horiz-adv-x="728" 
d="M63 0v752h265q172 0 264.5 -99t92.5 -273q0 -172 -93 -276t-264 -104h-265zM213 149h98q107 0 164.5 58.5t57.5 172.5q0 223 -222 223h-98v-454z" />
    <glyph glyph-name="E" unicode="E" horiz-adv-x="639" 
d="M63 0v752h524v-149h-374v-142h341v-149h-341v-162h383v-150h-533z" />
    <glyph glyph-name="F" unicode="F" horiz-adv-x="604" 
d="M63 0v752h518v-149h-368v-142h320v-149h-320v-312h-150z" />
    <glyph glyph-name="G" unicode="G" horiz-adv-x="757" 
d="M366 -19q-143 0 -235.5 108t-92.5 278q0 171 94.5 287t254.5 116q110 0 188.5 -57.5t115.5 -159.5l-149 -35q-43 101 -153 101q-92 0 -145 -71t-53 -180q0 -110 53.5 -173.5t135.5 -63.5q55 0 100.5 31.5t65.5 95.5h-148v149h301v-407h-136l-9 59q-70 -78 -188 -78z" />
    <glyph glyph-name="H" unicode="H" horiz-adv-x="716" 
d="M63 0v752h150v-294h290v294h150v-752h-150v310h-290v-310h-150z" />
    <glyph glyph-name="I" unicode="I" horiz-adv-x="309" 
d="M78 0v752h152v-752h-152z" />
    <glyph glyph-name="J" unicode="J" horiz-adv-x="608" 
d="M278 -19q-106 0 -176 60t-84 174l147 17q17 -101 114 -101q51 0 83.5 30.5t32.5 93.5v497h150v-494q0 -132 -73.5 -204.5t-193.5 -72.5z" />
    <glyph glyph-name="K" unicode="K" horiz-adv-x="744" 
d="M63 0v752h151v-275l291 275h209l-315 -300l340 -452h-189l-261 347l-75 -71v-276h-151z" />
    <glyph glyph-name="L" unicode="L" horiz-adv-x="612" 
d="M63 0v752h151v-602h373v-150h-524z" />
    <glyph glyph-name="M" unicode="M" horiz-adv-x="846" 
d="M63 0v752h144l218 -547l214 547h144v-752h-150v348l-136 -348h-144l-140 351v-351h-150z" />
    <glyph glyph-name="N" unicode="N" horiz-adv-x="724" 
d="M63 0v752h140l307 -475v475h150v-752h-138l-308 476v-476h-151z" />
    <glyph glyph-name="O" unicode="O" horiz-adv-x="812" 
d="M408 -19q-162 0 -266 111t-104 281t102.5 283.5t267.5 113.5q164 0 265.5 -113.5t101.5 -283.5t-103 -281t-264 -111zM408 130q91 0 151 68.5t60 175.5t-57.5 176.5t-153.5 69.5t-154 -70t-58 -176q0 -107 60 -175.5t152 -68.5z" />
    <glyph glyph-name="P" unicode="P" horiz-adv-x="641" 
d="M63 0v752h305q111 0 176 -66t65 -163q0 -98 -66 -164.5t-175 -66.5h-154v-292h-151zM214 441h153q40 0 64.5 22.5t24.5 59.5t-24 58.5t-65 21.5h-153v-162z" />
    <glyph glyph-name="Q" unicode="Q" horiz-adv-x="812" 
d="M408 -19q-162 0 -266 111t-104 281t102.5 283.5t267.5 113.5q164 0 265.5 -113.5t101.5 -283.5q0 -145 -77 -249q49 -51 71 -75l-102 -100q-33 36 -76 79q-83 -47 -183 -47zM408 130q36 0 68 12q-40 39 -94 87l100 101q51 -44 103 -95q34 60 34 139q0 107 -57.5 176.5
t-153.5 69.5t-154 -70t-58 -176q0 -107 60 -175.5t152 -68.5z" />
    <glyph glyph-name="R" unicode="R" horiz-adv-x="678" 
d="M63 0v752h312q110 0 175.5 -61.5t65.5 -154.5q0 -64 -33 -113t-96 -75q33 -19 52 -56t26 -76.5t25 -101t45 -114.5h-167q-15 22 -31 81t-29 110t-43.5 92t-74.5 41h-77v-324h-150zM213 473h160q41 0 66 18.5t25 48.5q0 28 -24.5 45.5t-66.5 17.5h-160v-130z" />
    <glyph glyph-name="S" unicode="S" horiz-adv-x="691" 
d="M355 -19q-129 0 -208.5 60t-98.5 173l147 34q27 -120 155 -120q61 0 100.5 22.5t39.5 57.5q0 32 -39.5 58.5t-126.5 52.5q-136 40 -201.5 100t-65.5 145q0 95 75 150.5t205 55.5q233 0 288 -203l-157 -34q-15 46 -48 67t-91 21q-54 0 -85.5 -16t-31.5 -46
q0 -27 34.5 -48.5t126.5 -50.5q137 -44 203.5 -106.5t66.5 -149.5q0 -101 -79 -162t-209 -61z" />
    <glyph glyph-name="T" unicode="T" horiz-adv-x="626" 
d="M238 0v603h-228v149h606v-149h-228v-603h-150z" />
    <glyph glyph-name="U" unicode="U" horiz-adv-x="712" 
d="M353 -19q-133 0 -211.5 75.5t-78.5 220.5v475h151v-477q0 -144 139 -144q68 0 106 35.5t38 107.5v478h151v-476q0 -144 -80 -219.5t-215 -75.5z" />
    <glyph glyph-name="V" unicode="V" horiz-adv-x="659" 
d="M283 0l-273 752h158l162 -456l161 456h158l-271 -752h-95z" />
    <glyph glyph-name="W" unicode="W" horiz-adv-x="937" 
d="M210 0l-200 752h155l109 -435l122 435h146l124 -433l107 433h154l-200 -752h-118l-138 493l-142 -493h-119z" />
    <glyph glyph-name="X" unicode="X" horiz-adv-x="740" 
d="M10 0l268 389l-249 363h183l160 -232l156 232h184l-250 -364l268 -388h-185l-173 257l-176 -257h-186z" />
    <glyph glyph-name="Y" unicode="Y" horiz-adv-x="685" 
d="M267 0v359l-262 393h171l166 -254l169 254h168l-261 -392v-360h-151z" />
    <glyph glyph-name="Z" unicode="Z" horiz-adv-x="661" 
d="M48 0v88l339 515h-333v149h559v-94l-337 -508h337v-150h-565z" />
    <glyph glyph-name="bracketleft" unicode="[" horiz-adv-x="379" 
d="M78 -153v1004h264v-131h-130v-741h130v-132h-264z" />
    <glyph glyph-name="bracketright" unicode="]" horiz-adv-x="382" 
d="M40 -153v132h129v741h-129v131h265v-1004h-265z" />
    <glyph glyph-name="underscore" unicode="_" horiz-adv-x="562" 
d="M26 -170v135h511v-135h-511z" />
    <glyph glyph-name="grave" unicode="`" horiz-adv-x="274" 
d="M177 600l-147 117l93 93l121 -143z" />
    <glyph glyph-name="a" unicode="a" horiz-adv-x="588" 
d="M244 -12q-87 0 -141.5 43t-54.5 112q0 57 37 98.5t101 57.5q102 26 137.5 41.5t35.5 34.5q0 31 -55 31q-75 0 -100 -72l-137 52q26 78 88.5 120.5t149.5 42.5q99 0 155.5 -55t56.5 -150v-184q0 -23 15.5 -33t37.5 -3v-127q-30 -9 -60 -9q-73 0 -110 45q-59 -45 -156 -45z
M260 116q67 0 108 38v76q-36 -16 -84 -27.5t-67.5 -20.5t-19.5 -29q0 -37 63 -37z" />
    <glyph glyph-name="b" unicode="b" horiz-adv-x="593" 
d="M330 -12q-79 0 -117 57v-45h-152v756h152v-249q46 43 117 43q97 0 162.5 -79.5t65.5 -201.5q0 -123 -64.5 -202t-163.5 -79zM310 137q41 0 68.5 37t27.5 93t-27.5 93t-68.5 37t-68.5 -37t-27.5 -93t27.5 -93t68.5 -37z" />
    <glyph glyph-name="c" unicode="c" horiz-adv-x="546" 
d="M286 -12q-114 0 -182.5 77.5t-68.5 205.5q0 122 68 200t175 78q81 0 141.5 -47t88.5 -130l-147 -37q-25 65 -78 65q-43 0 -69.5 -36t-26.5 -93q0 -58 27.5 -96t70.5 -38q31 0 53 21.5t30 58.5l143 -37q-23 -94 -82 -143t-143 -49z" />
    <glyph glyph-name="d" unicode="d" horiz-adv-x="592" 
d="M262 -12q-99 0 -163.5 79t-64.5 202q0 122 65.5 201.5t162.5 79.5q71 0 117 -43v249h152v-756h-152v45q-38 -57 -117 -57zM282 137q41 0 68.5 37t27.5 93t-27.5 93t-68.5 37t-68.5 -37t-27.5 -93t27.5 -93t68.5 -37z" />
    <glyph glyph-name="e" unicode="e" horiz-adv-x="575" 
d="M302 -12q-121 0 -194 77t-73 205q0 125 71 202t186 77t181.5 -79t66.5 -215v-43h-352q26 -76 115 -76q77 0 115 55l115 -77q-88 -126 -231 -126zM194 331h190q-4 31 -29 51t-61 20q-35 0 -62.5 -19.5t-37.5 -51.5z" />
    <glyph glyph-name="f" unicode="f" horiz-adv-x="367" 
d="M100 0v384h-69v146h69v94q0 141 161 141q41 0 79 -9v-143q-22 6 -42 6q-29 0 -39 -13.5t-10 -43.5v-32h86v-146h-86v-384h-149z" />
    <glyph glyph-name="g" unicode="g" horiz-adv-x="592" 
d="M283 -233q-170 0 -233 149l138 60q34 -61 100 -61q40 0 67.5 24.5t27.5 65.5v66q-47 -44 -120 -44q-97 0 -162.5 74t-65.5 187q0 114 64.5 187.5t162.5 73.5q80 0 118 -57v48h152v-533q0 -111 -70 -175.5t-179 -64.5zM283 180q41 0 68.5 31t27.5 79q0 47 -27.5 78.5
t-68.5 31.5t-68.5 -31.5t-27.5 -78.5q0 -48 27.5 -79t68.5 -31z" />
    <glyph glyph-name="h" unicode="h" 
d="M59 1v755h151v-274q69 67 157 67q89 0 149 -59t60 -156v-333h-150v291q0 49 -25 77.5t-66 28.5q-38 0 -73 -26t-52 -81v-290h-151z" />
    <glyph glyph-name="i" unicode="i" horiz-adv-x="300" 
d="M150 614q-38 0 -64 26t-26 64t26 64t64 26t64 -26t26 -64t-26 -64t-64 -26zM75 0v540h150v-540h-150z" />
    <glyph glyph-name="j" unicode="j" horiz-adv-x="394" 
d="M244 614q-38 0 -64 26t-26 64t26 64t64 26t64 -26t26 -64t-26 -64t-64 -26zM163 -233q-67 0 -135 28v151q59 -20 88 -20q28 0 40.5 17t12.5 57v540h150v-578q0 -195 -156 -195z" />
    <glyph glyph-name="k" unicode="k" horiz-adv-x="585" 
d="M61 0v756h151v-354l143 138h203l-199 -199l214 -341h-171l-149 234l-41 -43v-191h-151z" />
    <glyph glyph-name="l" unicode="l" horiz-adv-x="282" 
d="M66 0v756h150v-756h-150z" />
    <glyph glyph-name="m" unicode="m" horiz-adv-x="949" 
d="M61 0v540h151v-56q52 65 133 65q96 0 147 -98q69 98 182 98q90 0 149 -53t59 -137v-359h-150v285q0 55 -20.5 86t-54.5 31q-35 0 -66 -32t-44 -84v-286h-150v283q0 57 -20 88t-55 31t-66 -31.5t-44 -84.5v-286h-151z" />
    <glyph glyph-name="n" unicode="n" 
d="M61 1v539h151v-58q69 67 157 67q89 0 149 -59t60 -156v-333h-150v291q0 49 -25 77.5t-66 28.5q-38 0 -73 -26t-52 -81v-290h-151z" />
    <glyph glyph-name="o" unicode="o" horiz-adv-x="609" 
d="M304 -12q-117 0 -196.5 80t-79.5 200t79.5 200.5t196.5 80.5t196.5 -80.5t79.5 -200.5t-79.5 -200t-196.5 -80zM304 135q51 0 86.5 38.5t35.5 94.5q0 55 -35.5 93.5t-86.5 38.5t-86.5 -38.5t-35.5 -93.5q0 -56 35.5 -94.5t86.5 -38.5z" />
    <glyph glyph-name="p" unicode="p" horiz-adv-x="593" 
d="M61 -224v764h152v-48q38 57 117 57q99 0 163.5 -79t64.5 -202q0 -122 -65.5 -201.5t-162.5 -79.5q-71 0 -117 43v-254h-152zM310 140q41 0 68.5 37t27.5 93t-27.5 93t-68.5 37t-68.5 -37t-27.5 -93t27.5 -93t68.5 -37z" />
    <glyph glyph-name="q" unicode="q" horiz-adv-x="592" 
d="M380 -224v254q-46 -43 -117 -43q-97 0 -162.5 79.5t-65.5 201.5q0 123 64.5 202t163.5 79q79 0 117 -57v48h152v-764h-152zM283 140q41 0 68.5 37t27.5 93t-27.5 93t-68.5 37t-68.5 -37t-27.5 -93t27.5 -93t68.5 -37z" />
    <glyph glyph-name="r" unicode="r" horiz-adv-x="406" 
d="M61 0v540h150v-75q63 85 180 79v-173q-92 0 -136 -39t-44 -121v-211h-150z" />
    <glyph glyph-name="s" unicode="s" horiz-adv-x="541" 
d="M274 -12q-190 0 -242 153l131 45q30 -69 114 -69q28 0 46 8t18 21q0 27 -103 65q-98 37 -145 81.5t-47 102.5q0 70 59 113t154 43q184 0 239 -163l-136 -40q-25 68 -102 68q-63 0 -63 -33q0 -15 19 -26.5t73 -29.5q106 -36 152 -77.5t46 -101.5q0 -74 -57.5 -117
t-155.5 -43z" />
    <glyph glyph-name="t" unicode="t" horiz-adv-x="430" 
d="M323 -12q-104 0 -149.5 44.5t-45.5 146.5v214h-88v147h88v151h150v-151h107v-147h-107v-171q0 -49 12.5 -66.5t36.5 -17.5h63v-146q-40 -4 -67 -4z" />
    <glyph glyph-name="u" unicode="u" 
d="M267 -12q-94 0 -150 63t-56 170v318h150v-291q0 -50 25 -78.5t66 -28.5q38 0 73 26t52 82v290h151v-539h-151v58q-72 -70 -160 -70z" />
    <glyph glyph-name="v" unicode="v" horiz-adv-x="560" 
d="M226 0l-211 540h157l109 -288l109 288h155l-210 -540h-109z" />
    <glyph glyph-name="w" unicode="w" horiz-adv-x="823" 
d="M193 0l-173 540h154l78 -271l82 271h154l82 -271l78 271h155l-173 -540h-119l-98 320l-101 -320h-119z" />
    <glyph glyph-name="x" unicode="x" horiz-adv-x="639" 
d="M18 0l206 271l-198 269h194l101 -137l101 137h193l-199 -269l206 -271h-193l-108 143l-108 -143h-195z" />
    <glyph glyph-name="y" unicode="y" horiz-adv-x="528" 
d="M19 -233v150q64 3 94 18.5t44 53.5l34 90l-176 461h157l95 -250l90 250h156l-226 -609q-37 -100 -89 -132t-179 -32z" />
    <glyph glyph-name="z" unicode="z" horiz-adv-x="504" 
d="M43 0v114l202 274h-198v152h414v-120l-199 -270h199v-150h-418z" />
    <glyph glyph-name="braceleft" unicode="{" horiz-adv-x="404" 
d="M266 -163q-117 0 -117 138v247q0 77 -62 77h-21v86h21q62 0 62 77v247q0 138 117 138q79 0 113 -9v-138q-56 9 -73.5 -1t-17.5 -43v-202q0 -37 -18.5 -67t-47.5 -45q29 -15 47.5 -45t18.5 -67v-202q0 -33 17.5 -43t73.5 -1v-138q-34 -9 -113 -9z" />
    <glyph glyph-name="bar" unicode="|" horiz-adv-x="295" 
d="M82 -204v1020h130v-1020h-130z" />
    <glyph glyph-name="braceright" unicode="}" horiz-adv-x="405" 
d="M138 -163q-79 0 -113 9v138q56 -9 73.5 1t17.5 43v202q0 37 18.5 67t47.5 45q-29 15 -47.5 45t-18.5 67v202q0 33 -17.5 43t-73.5 1v138q34 9 113 9q117 0 117 -138v-247q0 -77 62 -77h21v-86h-21q-62 0 -62 -77v-247q0 -138 -117 -138z" />
    <glyph glyph-name="asciitilde" unicode="~" horiz-adv-x="581" 
d="M140 235l-110 52q46 141 163 141q46 0 94.5 -27.5t75.5 -27.5q28 0 49.5 15.5t29.5 41.5l109 -52q-46 -141 -163 -141q-46 0 -95 27.5t-76 27.5q-28 0 -48.5 -16t-28.5 -41z" />
    <glyph glyph-name="exclamdown" unicode="&#xa1;" horiz-adv-x="388" 
d="M193 549q41 0 69.5 -28.5t28.5 -69.5t-28.5 -69.5t-69.5 -28.5t-69.5 28.5t-28.5 69.5t28.5 69.5t69.5 28.5zM252 310l31 -505h-182l31 505h120z" />
    <glyph glyph-name="dieresis" unicode="&#xa8;" horiz-adv-x="470" 
d="M120 624q-38 0 -64 26t-26 64t26 64t64 26t64 -26t26 -64t-26 -64t-64 -26zM350 624q-38 0 -64 26t-26 64t26 64t64 26t64 -26t26 -64t-26 -64t-64 -26z" />
    <glyph glyph-name="copyright" unicode="&#xa9;" horiz-adv-x="866" 
d="M433 -19q-163 0 -279 116t-116 279q0 162 116 278t279 116t279 -116t116 -278q0 -163 -116 -279t-279 -116zM433 100q113 0 194 81t81 195q0 113 -81 194t-194 81t-194 -81t-81 -194q0 -114 81 -195t194 -81zM429 151q-85 0 -137.5 61t-52.5 162q0 100 54 163t142 63
q63 0 109.5 -34.5t66.5 -94.5l-127 -41q-7 15 -11.5 22.5t-13 13.5t-20.5 6q-28 0 -46 -25.5t-18 -68.5q0 -42 18 -70.5t44 -28.5q31 0 49 62l127 -40q-16 -68 -65 -109t-119 -41z" />
    <glyph glyph-name="acute" unicode="&#xb4;" horiz-adv-x="274" 
d="M97 600l-67 67l121 143l93 -93z" />
    <glyph glyph-name="cedilla" unicode="&#xb8;" horiz-adv-x="304" 
d="M124 -294q-41 0 -94 15v104q33 -10 63 -10q57 0 57 30q0 20 -28.5 31t-76.5 10v146h127v-57q47 -6 73.5 -39t26.5 -86q0 -62 -35.5 -103t-112.5 -41z" />
    <glyph glyph-name="questiondown" unicode="&#xbf;" horiz-adv-x="574" 
d="M301 549q41 0 69.5 -28.5t28.5 -69.5t-28.5 -69.5t-69.5 -28.5t-69.5 28.5t-28.5 69.5t28.5 69.5t69.5 28.5zM380 327q4 -60 -12 -108t-42.5 -77.5t-53.5 -54.5t-46.5 -51t-19.5 -54q0 -54 74 -54q45 0 69 19.5t24 53.5h145q-2 -98 -66.5 -156.5t-173.5 -58.5
q-106 0 -164 51t-58 133q0 44 19 79.5t44.5 61t51 52.5t41 68.5t10.5 95.5h158z" />
    <glyph glyph-name="Agrave" unicode="&#xc0;" horiz-adv-x="767" 
d="M388 803l-147 117l93 93l121 -143zM7 0l294 752h166l292 -752h-156l-71 187h-294l-73 -187h-158zM294 335h182l-91 236z" />
    <glyph glyph-name="Aacute" unicode="&#xc1;" horiz-adv-x="767" 
d="M385 803l-67 67l121 143l93 -93zM7 0l294 752h166l292 -752h-156l-71 187h-294l-73 -187h-158zM294 335h182l-91 236z" />
    <glyph glyph-name="Atilde" unicode="&#xc3;" horiz-adv-x="767" 
d="M454 786q-36 0 -69 25t-45 25q-16 0 -25.5 -13.5t-9.5 -33.5h-143q0 79 46 131.5t109 52.5q28 0 50.5 -12.5t38.5 -25t28 -12.5q15 0 24 13t9 34h138q0 -78 -45 -131t-106 -53zM7 0l294 752h166l292 -752h-156l-71 187h-294l-73 -187h-158zM294 335h182l-91 236z" />
    <glyph glyph-name="Adieresis" unicode="&#xc4;" horiz-adv-x="767" 
d="M268 769q-38 0 -64 26.5t-26 63.5t26 63.5t64 26.5t64 -26.5t26 -63.5t-26 -63.5t-64 -26.5zM498 769q-38 0 -64 26.5t-26 63.5t26 63.5t64 26.5t64 -26.5t26 -63.5t-26 -63.5t-64 -26.5zM7 0l294 752h166l292 -752h-156l-71 187h-294l-73 -187h-158zM294 335h182
l-91 236z" />
    <glyph glyph-name="Ccedilla" unicode="&#xc7;" horiz-adv-x="798" 
d="M419 -299q-41 0 -94 15v104q33 -10 63 -10q57 0 57 30q0 20 -28.5 31t-76.5 10v106q-136 22 -219 125t-83 254q0 173 109 288.5t273 115.5q112 0 199 -56.5t131 -158.5l-155 -51q-59 114 -177 114q-98 0 -160.5 -70t-62.5 -178q0 -105 59.5 -171.5t153.5 -66.5
q68 0 119.5 34t76.5 98l150 -35q-38 -104 -112 -167t-175 -77v-15q47 -6 73.5 -39t26.5 -86q0 -62 -35.5 -103t-112.5 -41z" />
    <glyph glyph-name="Egrave" unicode="&#xc8;" horiz-adv-x="639" 
d="M348 803l-147 117l93 93l121 -143zM63 0v752h524v-149h-374v-142h341v-149h-341v-162h383v-150h-533z" />
    <glyph glyph-name="Eacute" unicode="&#xc9;" horiz-adv-x="639" 
d="M332 803l-67 67l121 143l93 -93zM63 0v752h524v-149h-374v-142h341v-149h-341v-162h383v-150h-533z" />
    <glyph glyph-name="Edieresis" unicode="&#xcb;" horiz-adv-x="639" 
d="M214 769q-38 0 -64 26.5t-26 63.5t26 63.5t64 26.5t64 -26.5t26 -63.5t-26 -63.5t-64 -26.5zM444 769q-38 0 -64 26.5t-26 63.5t26 63.5t64 26.5t64 -26.5t26 -63.5t-26 -63.5t-64 -26.5zM63 0v752h524v-149h-374v-142h341v-149h-341v-162h383v-150h-533z" />
    <glyph glyph-name="Igrave" unicode="&#xcc;" horiz-adv-x="309" 
d="M153 803l-147 117l93 93l121 -143zM78 0v752h152v-752h-152z" />
    <glyph glyph-name="Iacute" unicode="&#xcd;" horiz-adv-x="271" 
d="M155 803l-67 67l121 143l93 -93zM78 0v752h152v-752h-152z" />
    <glyph glyph-name="Idieresis" unicode="&#xcf;" horiz-adv-x="335" 
d="M39 769q-37 0 -63.5 26.5t-26.5 63.5t26.5 63.5t63.5 26.5t63.5 -26.5t26.5 -63.5t-26.5 -63.5t-63.5 -26.5zM269 769q-37 0 -63.5 26.5t-26.5 63.5t26.5 63.5t63.5 26.5t63.5 -26.5t26.5 -63.5t-26.5 -63.5t-63.5 -26.5zM78 0v752h152v-752h-152z" />
    <glyph glyph-name="Ntilde" unicode="&#xd1;" horiz-adv-x="724" 
d="M438 786q-36 0 -69 25t-45 25q-16 0 -25.5 -13.5t-9.5 -33.5h-143q0 79 46 131.5t109 52.5q28 0 50.5 -12.5t38.5 -25t28 -12.5q15 0 24 13t9 34h138q0 -78 -45 -131t-106 -53zM63 0v752h140l307 -475v475h150v-752h-138l-308 476v-476h-151z" />
    <glyph glyph-name="Ograve" unicode="&#xd2;" horiz-adv-x="812" 
d="M413 803l-147 117l93 93l121 -143zM408 -19q-162 0 -266 111t-104 281t102.5 283.5t267.5 113.5q164 0 265.5 -113.5t101.5 -283.5t-103 -281t-264 -111zM408 130q91 0 151 68.5t60 175.5t-57.5 176.5t-153.5 69.5t-154 -70t-58 -176q0 -107 60 -175.5t152 -68.5z" />
    <glyph glyph-name="Oacute" unicode="&#xd3;" horiz-adv-x="812" 
d="M409 803l-67 67l121 143l93 -93zM408 -19q-162 0 -266 111t-104 281t102.5 283.5t267.5 113.5q164 0 265.5 -113.5t101.5 -283.5t-103 -281t-264 -111zM408 130q91 0 151 68.5t60 175.5t-57.5 176.5t-153.5 69.5t-154 -70t-58 -176q0 -107 60 -175.5t152 -68.5z" />
    <glyph glyph-name="Otilde" unicode="&#xd5;" horiz-adv-x="812" 
d="M477 786q-27 0 -49 12.5t-37.5 25t-27.5 12.5q-16 0 -25.5 -13.5t-9.5 -33.5h-143q0 79 46 131.5t109 52.5q28 0 50.5 -12.5t38.5 -25t28 -12.5q15 0 24 13t9 34h138q0 -78 -45 -131t-106 -53zM408 -19q-162 0 -266 111t-104 281t102.5 283.5t267.5 113.5
q164 0 265.5 -113.5t101.5 -283.5t-103 -281t-264 -111zM408 130q91 0 151 68.5t60 175.5t-57.5 176.5t-153.5 69.5t-154 -70t-58 -176q0 -107 60 -175.5t152 -68.5z" />
    <glyph glyph-name="Odieresis" unicode="&#xd6;" horiz-adv-x="812" 
d="M291 769q-37 0 -63.5 26.5t-26.5 63.5t26.5 63.5t63.5 26.5t63.5 -26.5t26.5 -63.5t-26.5 -63.5t-63.5 -26.5zM521 769q-37 0 -63.5 26.5t-26.5 63.5t26.5 63.5t63.5 26.5t63.5 -26.5t26.5 -63.5t-26.5 -63.5t-63.5 -26.5zM408 -19q-162 0 -266 111t-104 281t102.5 283.5
t267.5 113.5q164 0 265.5 -113.5t101.5 -283.5t-103 -281t-264 -111zM408 130q91 0 151 68.5t60 175.5t-57.5 176.5t-153.5 69.5t-154 -70t-58 -176q0 -107 60 -175.5t152 -68.5z" />
    <glyph glyph-name="Oslash" unicode="&#xd8;" horiz-adv-x="812" 
d="M107 -17l-93 93l80 80q-56 95 -56 217q0 170 102.5 283.5t267.5 113.5q129 0 225 -75l72 72l93 -93l-79 -79q56 -98 56 -222q0 -170 -103 -281t-264 -111q-130 0 -227 76zM196 374q0 -52 16 -100l311 311q-51 35 -115 35q-96 0 -154 -70t-58 -176zM408 130q91 0 151 68.5
t60 175.5q0 56 -17 104l-311 -311q51 -37 117 -37z" />
    <glyph glyph-name="Ugrave" unicode="&#xd9;" horiz-adv-x="712" 
d="M373 803l-147 117l93 93l121 -143zM353 -19q-133 0 -211.5 75.5t-78.5 220.5v475h151v-477q0 -144 139 -144q68 0 106 35.5t38 107.5v478h151v-476q0 -144 -80 -219.5t-215 -75.5z" />
    <glyph glyph-name="Uacute" unicode="&#xda;" horiz-adv-x="712" 
d="M357 803l-67 67l121 143l93 -93zM353 -19q-133 0 -211.5 75.5t-78.5 220.5v475h151v-477q0 -144 139 -144q68 0 106 35.5t38 107.5v478h151v-476q0 -144 -80 -219.5t-215 -75.5z" />
    <glyph glyph-name="Udieresis" unicode="&#xdc;" horiz-adv-x="712" 
d="M240 769q-38 0 -64 26.5t-26 63.5t26 63.5t64 26.5t64 -26.5t26 -63.5t-26 -63.5t-64 -26.5zM470 769q-38 0 -64 26.5t-26 63.5t26 63.5t64 26.5t64 -26.5t26 -63.5t-26 -63.5t-64 -26.5zM353 -19q-133 0 -211.5 75.5t-78.5 220.5v475h151v-477q0 -144 139 -144
q68 0 106 35.5t38 107.5v478h151v-476q0 -144 -80 -219.5t-215 -75.5z" />
    <glyph glyph-name="Yacute" unicode="&#xdd;" horiz-adv-x="695" 
d="M355 803l-67 67l121 143l93 -93zM277 0v359l-262 393h171l166 -254l169 254h168l-261 -392v-360h-151z" />
    <glyph glyph-name="agrave" unicode="&#xe0;" horiz-adv-x="588" 
d="M311 600l-147 117l93 93l121 -143zM244 -12q-87 0 -141.5 43t-54.5 112q0 57 37 98.5t101 57.5q102 26 137.5 41.5t35.5 34.5q0 31 -55 31q-75 0 -100 -72l-137 52q26 78 88.5 120.5t149.5 42.5q99 0 155.5 -55t56.5 -150v-184q0 -23 15.5 -33t37.5 -3v-127
q-30 -9 -60 -9q-73 0 -110 45q-59 -45 -156 -45zM260 116q67 0 108 38v76q-36 -16 -84 -27.5t-67.5 -20.5t-19.5 -29q0 -37 63 -37z" />
    <glyph glyph-name="aacute" unicode="&#xe1;" horiz-adv-x="588" 
d="M292 600l-67 67l121 143l93 -93zM244 -12q-87 0 -141.5 43t-54.5 112q0 57 37 98.5t101 57.5q102 26 137.5 41.5t35.5 34.5q0 31 -55 31q-75 0 -100 -72l-137 52q26 78 88.5 120.5t149.5 42.5q99 0 155.5 -55t56.5 -150v-184q0 -23 15.5 -33t37.5 -3v-127q-30 -9 -60 -9
q-73 0 -110 45q-59 -45 -156 -45zM260 116q67 0 108 38v76q-36 -16 -84 -27.5t-67.5 -20.5t-19.5 -29q0 -37 63 -37z" />
    <glyph glyph-name="atilde" unicode="&#xe3;" horiz-adv-x="588" 
d="M371 600q-27 0 -49 12.5t-37.5 25t-27.5 12.5q-16 0 -25.5 -13.5t-9.5 -33.5h-143q0 79 46 131.5t109 52.5q28 0 50.5 -12.5t38.5 -25t28 -12.5q15 0 24 13t9 34h138q0 -78 -45 -131t-106 -53zM244 -12q-87 0 -141.5 43t-54.5 112q0 57 37 98.5t101 57.5
q102 26 137.5 41.5t35.5 34.5q0 31 -55 31q-75 0 -100 -72l-137 52q26 78 88.5 120.5t149.5 42.5q99 0 155.5 -55t56.5 -150v-184q0 -23 15.5 -33t37.5 -3v-127q-30 -9 -60 -9q-73 0 -110 45q-59 -45 -156 -45zM260 116q67 0 108 38v76q-36 -16 -84 -27.5t-67.5 -20.5
t-19.5 -29q0 -37 63 -37z" />
    <glyph glyph-name="adieresis" unicode="&#xe4;" horiz-adv-x="588" 
d="M194 624q-38 0 -64 26t-26 64t26 64t64 26t64 -26t26 -64t-26 -64t-64 -26zM424 624q-38 0 -64 26t-26 64t26 64t64 26t64 -26t26 -64t-26 -64t-64 -26zM244 -12q-87 0 -141.5 43t-54.5 112q0 57 37 98.5t101 57.5q102 26 137.5 41.5t35.5 34.5q0 31 -55 31
q-75 0 -100 -72l-137 52q26 78 88.5 120.5t149.5 42.5q99 0 155.5 -55t56.5 -150v-184q0 -23 15.5 -33t37.5 -3v-127q-30 -9 -60 -9q-73 0 -110 45q-59 -45 -156 -45zM260 116q67 0 108 38v76q-36 -16 -84 -27.5t-67.5 -20.5t-19.5 -29q0 -37 63 -37z" />
    <glyph glyph-name="ccedilla" unicode="&#xe7;" horiz-adv-x="546" 
d="M289 -294q-41 0 -94 15v104q33 -10 63 -10q57 0 57 30q0 20 -28.5 31t-76.5 10v112q-82 24 -128.5 96t-46.5 177q0 122 68 200t175 78q81 0 141.5 -47t88.5 -130l-147 -37q-25 65 -78 65q-43 0 -69.5 -36t-26.5 -93q0 -58 27.5 -96t70.5 -38q31 0 53 21.5t30 58.5
l143 -37q-38 -158 -174 -187v-18q47 -6 73.5 -39t26.5 -86q0 -62 -35.5 -103t-112.5 -41z" />
    <glyph glyph-name="egrave" unicode="&#xe8;" horiz-adv-x="575" 
d="M304 600l-147 117l93 93l121 -143zM302 -12q-121 0 -194 77t-73 205q0 125 71 202t186 77t181.5 -79t66.5 -215v-43h-352q26 -76 115 -76q77 0 115 55l115 -77q-88 -126 -231 -126zM194 331h190q-4 31 -29 51t-61 20q-35 0 -62.5 -19.5t-37.5 -51.5z" />
    <glyph glyph-name="eacute" unicode="&#xe9;" horiz-adv-x="575" 
d="M277 600l-67 67l121 143l93 -93zM302 -12q-121 0 -194 77t-73 205q0 125 71 202t186 77t181.5 -79t66.5 -215v-43h-352q26 -76 115 -76q77 0 115 55l115 -77q-88 -126 -231 -126zM194 331h190q-4 31 -29 51t-61 20q-35 0 -62.5 -19.5t-37.5 -51.5z" />
    <glyph glyph-name="edieresis" unicode="&#xeb;" horiz-adv-x="575" 
d="M177 624q-37 0 -63.5 26t-26.5 64t26.5 64t63.5 26t63.5 -26t26.5 -64t-26.5 -64t-63.5 -26zM407 624q-37 0 -63.5 26t-26.5 64t26.5 64t63.5 26t63.5 -26t26.5 -64t-26.5 -64t-63.5 -26zM302 -12q-121 0 -194 77t-73 205q0 125 71 202t186 77t181.5 -79t66.5 -215v-43
h-352q26 -76 115 -76q77 0 115 55l115 -77q-88 -126 -231 -126zM194 331h190q-4 31 -29 51t-61 20q-35 0 -62.5 -19.5t-37.5 -51.5z" />
    <glyph glyph-name="igrave" unicode="&#xec;" horiz-adv-x="305" 
d="M154 600l-147 117l93 93l121 -143zM78 0v540h150v-540h-150z" />
    <glyph glyph-name="iacute" unicode="&#xed;" horiz-adv-x="268" 
d="M154 600l-67 67l121 143l93 -93zM78 0v540h150v-540h-150z" />
    <glyph glyph-name="idieresis" unicode="&#xef;" horiz-adv-x="332" 
d="M39 624q-37 0 -63.5 26t-26.5 64t26.5 64t63.5 26t63.5 -26t26.5 -64t-26.5 -64t-63.5 -26zM269 624q-37 0 -63.5 26t-26.5 64t26.5 64t63.5 26t63.5 -26t26.5 -64t-26.5 -64t-63.5 -26zM79 0v540h150v-540h-150z" />
    <glyph glyph-name="ntilde" unicode="&#xf1;" horiz-adv-x="640" 
d="M397 600q-27 0 -49 12.5t-37.5 25t-27.5 12.5q-16 0 -25.5 -13.5t-9.5 -33.5h-143q0 79 46 131.5t109 52.5q28 0 50.5 -12.5t38.5 -25t28 -12.5q15 0 24 13t9 34h138q0 -78 -45 -131t-106 -53zM63 1v539h151v-58q69 67 157 67q89 0 149 -59t60 -156v-333h-150v291
q0 49 -25 77.5t-66 28.5q-38 0 -73 -26t-52 -81v-290h-151z" />
    <glyph glyph-name="ograve" unicode="&#xf2;" horiz-adv-x="609" 
d="M324 600l-147 117l93 93l121 -143zM304 -12q-117 0 -196.5 80t-79.5 200t79.5 200.5t196.5 80.5t196.5 -80.5t79.5 -200.5t-79.5 -200t-196.5 -80zM304 135q51 0 86.5 38.5t35.5 94.5q0 55 -35.5 93.5t-86.5 38.5t-86.5 -38.5t-35.5 -93.5q0 -56 35.5 -94.5t86.5 -38.5z
" />
    <glyph glyph-name="oacute" unicode="&#xf3;" horiz-adv-x="609" 
d="M311 600l-67 67l121 143l93 -93zM304 -12q-117 0 -196.5 80t-79.5 200t79.5 200.5t196.5 80.5t196.5 -80.5t79.5 -200.5t-79.5 -200t-196.5 -80zM304 135q51 0 86.5 38.5t35.5 94.5q0 55 -35.5 93.5t-86.5 38.5t-86.5 -38.5t-35.5 -93.5q0 -56 35.5 -94.5t86.5 -38.5z
" />
    <glyph glyph-name="otilde" unicode="&#xf5;" horiz-adv-x="609" 
d="M375 600q-27 0 -49 12.5t-37.5 25t-27.5 12.5q-16 0 -25.5 -13.5t-9.5 -33.5h-143q0 79 46 131.5t109 52.5q28 0 50.5 -12.5t38.5 -25t28 -12.5q15 0 24 13t9 34h138q0 -78 -45 -131t-106 -53zM304 -12q-117 0 -196.5 80t-79.5 200t79.5 200.5t196.5 80.5t196.5 -80.5
t79.5 -200.5t-79.5 -200t-196.5 -80zM304 135q51 0 86.5 38.5t35.5 94.5q0 55 -35.5 93.5t-86.5 38.5t-86.5 -38.5t-35.5 -93.5q0 -56 35.5 -94.5t86.5 -38.5z" />
    <glyph glyph-name="odieresis" unicode="&#xf6;" horiz-adv-x="609" 
d="M189 624q-37 0 -63.5 26t-26.5 64t26.5 64t63.5 26t63.5 -26t26.5 -64t-26.5 -64t-63.5 -26zM419 624q-37 0 -63.5 26t-26.5 64t26.5 64t63.5 26t63.5 -26t26.5 -64t-26.5 -64t-63.5 -26zM304 -12q-117 0 -196.5 80t-79.5 200t79.5 200.5t196.5 80.5t196.5 -80.5
t79.5 -200.5t-79.5 -200t-196.5 -80zM304 135q51 0 86.5 38.5t35.5 94.5q0 55 -35.5 93.5t-86.5 38.5t-86.5 -38.5t-35.5 -93.5q0 -56 35.5 -94.5t86.5 -38.5z" />
    <glyph glyph-name="oslash" unicode="&#xf8;" horiz-adv-x="609" 
d="M93 -27l-83 84l59 59q-41 68 -41 152q0 120 79.5 200.5t196.5 80.5q84 0 153 -44l56 56l84 -84l-58 -58q41 -68 41 -151q0 -120 -79.5 -200t-196.5 -80q-84 0 -152 44zM182 268q0 -20 4 -35l159 160q-23 7 -41 7q-51 0 -86.5 -38.5t-35.5 -93.5zM304 135q51 0 86.5 38.5
t35.5 94.5q0 19 -4 34l-159 -159q21 -8 41 -8z" />
    <glyph glyph-name="ugrave" unicode="&#xf9;" 
d="M359 600l-147 117l93 93l121 -143zM267 -12q-94 0 -150 63t-56 170v318h150v-291q0 -50 25 -78.5t66 -28.5q38 0 73 26t52 82v290h151v-539h-151v58q-72 -70 -160 -70z" />
    <glyph glyph-name="uacute" unicode="&#xfa;" 
d="M297 600l-67 67l121 143l93 -93zM267 -12q-94 0 -150 63t-56 170v318h150v-291q0 -50 25 -78.5t66 -28.5q38 0 73 26t52 82v290h151v-539h-151v58q-72 -70 -160 -70z" />
    <glyph glyph-name="udieresis" unicode="&#xfc;" 
d="M204 624q-38 0 -64 26t-26 64t26 64t64 26t64 -26t26 -64t-26 -64t-64 -26zM434 624q-38 0 -64 26t-26 64t26 64t64 26t64 -26t26 -64t-26 -64t-64 -26zM267 -12q-94 0 -150 63t-56 170v318h150v-291q0 -50 25 -78.5t66 -28.5q38 0 73 26t52 82v290h151v-539h-151v58
q-72 -70 -160 -70z" />
    <glyph glyph-name="yacute" unicode="&#xfd;" horiz-adv-x="528" 
d="M267 600l-67 67l121 143l93 -93zM19 -233v150q64 3 94 18.5t44 53.5l34 90l-176 461h157l95 -250l90 250h156l-226 -609q-37 -100 -89 -132t-179 -32z" />
    <glyph glyph-name="ydieresis" unicode="&#xff;" horiz-adv-x="528" 
d="M151 624q-37 0 -63.5 26t-26.5 64t26.5 64t63.5 26t63.5 -26t26.5 -64t-26.5 -64t-63.5 -26zM381 624q-37 0 -63.5 26t-26.5 64t26.5 64t63.5 26t63.5 -26t26.5 -64t-26.5 -64t-63.5 -26zM19 -233v150q64 3 94 18.5t44 53.5l34 90l-176 461h157l95 -250l90 250h156
l-226 -609q-37 -100 -89 -132t-179 -32z" />
    <glyph glyph-name="Itilde" unicode="&#x128;" horiz-adv-x="309" 
d="M225 786q-27 0 -49 12.5t-37.5 25t-27.5 12.5q-16 0 -25.5 -13.5t-9.5 -33.5h-143q0 79 46 131.5t109 52.5q28 0 50.5 -12.5t38.5 -25t28 -12.5q15 0 24 13t9 34h138q0 -78 -45 -131t-106 -53zM78 0v752h152v-752h-152z" />
    <glyph glyph-name="itilde" unicode="&#x129;" horiz-adv-x="306" 
d="M224 600q-36 0 -69 25t-45 25q-16 0 -25.5 -13.5t-9.5 -33.5h-143q0 79 46 131.5t109 52.5q28 0 50.5 -12.5t38.5 -25t28 -12.5q15 0 24 13t9 34h138q0 -78 -45 -131t-106 -53zM78 0v540h150v-540h-150z" />
    <glyph glyph-name="dotlessi" unicode="&#x131;" horiz-adv-x="306" 
d="M78 0v540h150v-540h-150z" />
    <glyph glyph-name="IJ" unicode="&#x132;" horiz-adv-x="854" 
d="M78 0v752h152v-752h-152zM539 -19q-106 0 -176 60t-84 174l147 17q17 -101 114 -101q51 0 83.5 30.5t32.5 93.5v497h150v-494q0 -132 -73.5 -204.5t-193.5 -72.5z" />
    <glyph glyph-name="ij" unicode="&#x133;" horiz-adv-x="579" 
d="M150 614q-38 0 -64 26t-26 64t26 64t64 26t64 -26t26 -64t-26 -64t-64 -26zM429 614q-37 0 -63.5 26t-26.5 64t26.5 64t63.5 26t63.5 -26t26.5 -64t-26.5 -64t-63.5 -26zM75 0v540h150v-540h-150zM348 -233q-67 0 -135 28v151q59 -20 88 -20q28 0 40.5 17t12.5 57v540
h150v-578q0 -195 -156 -195z" />
    <glyph glyph-name="Nacute" unicode="&#x143;" horiz-adv-x="724" 
d="M351 803l-67 67l121 143l93 -93zM63 0v752h140l307 -475v475h150v-752h-138l-308 476v-476h-151z" />
    <glyph glyph-name="nacute" unicode="&#x144;" 
d="M297 600l-67 67l121 143l93 -93zM61 1v539h151v-58q69 67 157 67q89 0 149 -59t60 -156v-333h-150v291q0 49 -25 77.5t-66 28.5q-38 0 -73 -26t-52 -81v-290h-151z" />
    <glyph glyph-name="Utilde" unicode="&#x168;" horiz-adv-x="712" 
d="M426 786q-27 0 -49 12.5t-37.5 25t-27.5 12.5q-16 0 -25.5 -13.5t-9.5 -33.5h-143q0 79 46 131.5t109 52.5q28 0 50.5 -12.5t38.5 -25t28 -12.5q15 0 24 13t9 34h138q0 -78 -45 -131t-106 -53zM353 -19q-133 0 -211.5 75.5t-78.5 220.5v475h151v-477q0 -144 139 -144
q68 0 106 35.5t38 107.5v478h151v-476q0 -144 -80 -219.5t-215 -75.5z" />
    <glyph glyph-name="utilde" unicode="&#x169;" 
d="M390 600q-35 0 -68.5 25t-45.5 25q-16 0 -25.5 -13.5t-9.5 -33.5h-143q0 79 46 131.5t109 52.5q28 0 50.5 -12.5t38.5 -25t28 -12.5q15 0 24 13t9 34h138q0 -78 -45 -131t-106 -53zM267 -12q-94 0 -150 63t-56 170v318h150v-291q0 -50 25 -78.5t66 -28.5q38 0 73 26
t52 82v290h151v-539h-151v58q-72 -70 -160 -70z" />
    <glyph glyph-name="Ydieresis" unicode="&#x178;" horiz-adv-x="695" 
d="M237 769q-37 0 -63.5 26.5t-26.5 63.5t26.5 63.5t63.5 26.5t63.5 -26.5t26.5 -63.5t-26.5 -63.5t-63.5 -26.5zM467 769q-37 0 -63.5 26.5t-26.5 63.5t26.5 63.5t63.5 26.5t63.5 -26.5t26.5 -63.5t-26.5 -63.5t-63.5 -26.5zM277 0v359l-262 393h171l166 -254l169 254h168
l-261 -392v-360h-151z" />
    <glyph glyph-name="dotlessj" unicode="&#x237;" horiz-adv-x="394" 
d="M163 -233q-67 0 -135 28v151q59 -20 88 -20q28 0 40.5 17t12.5 57v540h150v-578q0 -195 -156 -195z" />
    <glyph glyph-name="tilde" unicode="&#x2dc;" horiz-adv-x="503" 
d="M322 600q-36 0 -69 25t-45 25q-16 0 -25.5 -13.5t-9.5 -33.5h-143q0 79 46 131.5t109 52.5q28 0 50.5 -12.5t38.5 -25t28 -12.5q15 0 24 13t9 34h138q0 -78 -45 -131t-106 -53z" />
    <glyph glyph-name="Ygrave" unicode="&#x1ef2;" horiz-adv-x="695" 
d="M342 803l-147 117l93 93l121 -143zM277 0v359l-262 393h171l166 -254l169 254h168l-261 -392v-360h-151z" />
    <glyph glyph-name="ygrave" unicode="&#x1ef3;" horiz-adv-x="528" 
d="M270 600l-147 117l93 93l121 -143zM19 -233v150q64 3 94 18.5t44 53.5l34 90l-176 461h157l95 -250l90 250h156l-226 -609q-37 -100 -89 -132t-179 -32z" />
    <glyph glyph-name="endash" unicode="&#x2013;" horiz-adv-x="626" 
d="M75 269v137h476v-137h-476z" />
    <glyph glyph-name="emdash" unicode="&#x2014;" horiz-adv-x="983" 
d="M75 269v137h833v-137h-833z" />
    <glyph glyph-name="quoteleft" unicode="&#x2018;" horiz-adv-x="276" 
d="M163 792l58 -70q-38 -23 -55 -41t-28 -43q45 4 76.5 -23.5t31.5 -71.5q0 -42 -29 -71t-72 -29q-51 0 -78 42t-27 104q0 127 123 203z" />
    <glyph glyph-name="quoteright" unicode="&#x2019;" horiz-adv-x="276" 
d="M113 485l-58 70q38 23 55 41t28 43q-45 -4 -76.5 23.5t-31.5 71.5q0 42 29 71t72 29q51 0 78 -42t27 -104q0 -127 -123 -203z" />
    <glyph glyph-name="quotedblleft" unicode="&#x201c;" horiz-adv-x="508" 
d="M395 792l58 -70q-38 -23 -55 -41t-28 -43q45 4 76.5 -23.5t31.5 -71.5q0 -42 -29 -71t-72 -29q-51 0 -78 42t-27 104q0 127 123 203zM163 792l58 -70q-38 -23 -55 -41t-28 -43q45 4 76.5 -23.5t31.5 -71.5q0 -42 -29 -71t-72 -29q-51 0 -78 42t-27 104q0 127 123 203z
" />
    <glyph glyph-name="quotedblright" unicode="&#x201d;" horiz-adv-x="508" 
d="M113 485l-58 70q38 23 55 41t28 43q-45 -4 -76.5 23.5t-31.5 71.5q0 42 29 71t72 29q51 0 78 -42t27 -104q0 -127 -123 -203zM345 485l-58 70q38 23 55 41t28 43q-45 -4 -76.5 23.5t-31.5 71.5q0 42 29 71t72 29q51 0 78 -42t27 -104q0 -127 -123 -203z" />
    <glyph glyph-name="bullet" unicode="&#x2022;" horiz-adv-x="423" 
d="M211 200q-50 0 -85 35t-35 84q0 50 35 85.5t85 35.5t85 -35.5t35 -85.5q0 -49 -35 -84t-85 -35z" />
    <glyph glyph-name="ellipsis" unicode="&#x2026;" horiz-adv-x="783" 
d="M143 -12q-41 0 -69.5 29t-28.5 69t28.5 69t69.5 29t69.5 -29t28.5 -69t-28.5 -69t-69.5 -29zM391 -12q-41 0 -69.5 29t-28.5 69t28.5 69t69.5 29t69.5 -29t28.5 -69t-28.5 -69t-69.5 -29zM639 -12q-41 0 -69.5 29t-28.5 69t28.5 69t69.5 29t69.5 -29t28.5 -69t-28.5 -69
t-69.5 -29z" />
    <glyph glyph-name="copyleft" unicode="&#x1f12f;" horiz-adv-x="866" 
d="M433 -19q-163 0 -279 116t-116 279q0 162 116 278t279 116t279 -116t116 -278q0 -163 -116 -279t-279 -116zM433 100q113 0 194 81t81 195q0 113 -81 194t-194 81t-194 -81t-81 -194q0 -114 81 -195t194 -81zM437 151q-70 0 -119 41t-65 109l127 40q18 -62 49 -62
q26 0 44 28.5t18 70.5q0 43 -18 68.5t-46 25.5q-17 0 -26 -10t-19 -32l-127 41q20 60 66.5 94.5t109.5 34.5q88 0 142 -63t54 -163q0 -101 -52.5 -162t-137.5 -61z" />
  </font>
</defs>
</svg>
