<?xml version="1.0" standalone="no"?>
<!DOCTYPE svg PUBLIC "-//W3C//DTD SVG 1.1//EN" "http://www.w3.org/Graphics/SVG/1.1/DTD/svg11.dtd" >
<svg xmlns="http://www.w3.org/2000/svg" xmlns:xlink="http://www.w3.org/1999/xlink" version="1.1">
<metadata>
Created by FontForge 20190801 at Wed Feb  7 10:05:11 2018
 By www-data
Copyright (c) 2018 Sometype Mono Project Authors (https://github.com/dharmatype/Sometype-Mono)
</metadata>
<defs>
<font id="SometypeMonoRegular" horiz-adv-x="580" >
  <font-face 
    font-family="SometypeMonoRegular"
    font-weight="400"
    font-stretch="normal"
    units-per-em="1000"
    panose-1="2 11 5 9 2 2 3 3 2 4"
    ascent="750"
    descent="-250"
    x-height="470"
    cap-height="650"
    bbox="-560 -293 653 923"
    underline-thickness="60"
    underline-position="-105"
    unicode-range="U+000D-F8FF"
  />
<missing-glyph 
d="M290 -12l-280 367l280 367l280 -367zM242 280h47q-3 12 -3 20q0 19 23 25l16 4q68 17 68 76q0 83 -111 83q-66 0 -116 -40l31 -45q35 31 87 31q51 0 51 -30q0 -12 -7.5 -17.5t-29.5 -12.5l-16 -5q-46 -14 -46 -55q0 -14 6 -34zM270 163q17 0 28 11t11 27q0 17 -11.5 28
t-27.5 11t-27 -11t-11 -28t11 -27.5t27 -10.5z" />
    <glyph glyph-name=".notdef" 
d="M290 -12l-280 367l280 367l280 -367zM242 280h47q-3 12 -3 20q0 19 23 25l16 4q68 17 68 76q0 83 -111 83q-66 0 -116 -40l31 -45q35 31 87 31q51 0 51 -30q0 -12 -7.5 -17.5t-29.5 -12.5l-16 -5q-46 -14 -46 -55q0 -14 6 -34zM270 163q17 0 28 11t11 27q0 17 -11.5 28
t-27.5 11t-27 -11t-11 -28t11 -27.5t27 -10.5z" />
    <glyph glyph-name=".null" horiz-adv-x="0" 
 />
    <glyph glyph-name="nonmarkingreturn" horiz-adv-x="333" 
 />
    <glyph glyph-name="CR" unicode="&#xd;" 
 />
    <glyph glyph-name="space" unicode=" " 
 />
    <glyph glyph-name="exclam" unicode="!" 
d="M282 218l-55 388v44h126v-44l-55 -388h-16zM290 -12q-28 0 -48.5 20t-20.5 49t20.5 49t48.5 20t48.5 -20t20.5 -49t-20.5 -49t-48.5 -20z" />
    <glyph glyph-name="quotedbl" unicode="&#x22;" 
d="M152 374l-33 276h110l-33 -276h-44zM384 374l-33 276h110l-33 -276h-44z" />
    <glyph glyph-name="numbersign" unicode="#" 
d="M109 0l30 174h-118l10 58h119l32 186h-119l10 58h119l27 154h61l-27 -154h127l27 154h61l-27 -154h118l-10 -58h-118l-32 -186h118l-10 -58h-119l-30 -174h-61l30 174h-127l-30 -174h-61zM211 232h127l32 186h-127z" />
    <glyph glyph-name="dollar" unicode="$" 
d="M257 -82l8 101q-126 6 -207 74l39 60q68 -56 169 -62v196l-38 5q-151 19 -151 151q0 73 49.5 117t138.5 50l-8 102h76l-8 -102q100 -8 172 -57l-36 -62q-64 42 -137 48v-188l40 -5q151 -19 151 -151q0 -75 -49.5 -121t-140.5 -53l8 -103h-76zM266 359v181
q-55 -4 -84.5 -28.5t-29.5 -65.5q0 -74 97 -85zM324 92q116 11 116 100q0 73 -98 85l-18 2v-187z" />
    <glyph glyph-name="percent" unicode="%" 
d="M155 342q-62 0 -97.5 40.5t-35.5 109.5t35.5 109.5t97.5 40.5t97.5 -40.5t35.5 -109.5t-35.5 -109.5t-97.5 -40.5zM361 364l-35 31l183 239l56 -48zM155 398q68 0 68 94t-68 94t-68 -94t68 -94zM425 -12q-62 0 -97.5 40.5t-35.5 109.5t35.5 109.5t97.5 40.5t97.5 -40.5
t35.5 -109.5t-35.5 -109.5t-97.5 -40.5zM71 -4l-56 48l204 222l35 -31zM425 44q68 0 68 94t-68 94t-68 -94t68 -94z" />
    <glyph glyph-name="ampersand" unicode="&#x26;" 
d="M213 -12q-83 0 -133 48.5t-50 130.5q0 116 117 181v1q-38 46 -54 81t-16 75q0 72 46 114.5t124 42.5q75 0 119 -40t44 -110q0 -56 -32 -96t-105 -75l-13 -6v-2l134 -148q37 66 72 166l60 -25q-46 -121 -90 -187l126 -139h-98l-72 79q-72 -91 -179 -91zM216 382l35 17
q89 43 89 111q0 40 -24.5 62.5t-67.5 22.5q-46 0 -72 -24t-26 -67q0 -29 14.5 -55t51.5 -67zM219 56q74 0 132 68l-161 177q-86 -42 -86 -130q0 -53 31 -84t84 -31z" />
    <glyph glyph-name="quotesingle" unicode="'" 
d="M268 324l-38 326h120l-38 -326h-44z" />
    <glyph glyph-name="parenleft" unicode="(" 
d="M453 -222q-149 37 -235 163t-86 309t86 309t235 163v-63q-117 -36 -182 -143t-65 -266t65 -266t182 -143v-63z" />
    <glyph glyph-name="parenright" unicode=")" 
d="M127 -222v63q117 36 182 143t65 266t-65 266t-182 143v63q149 -37 235 -163t86 -309t-86 -309t-235 -163z" />
    <glyph glyph-name="asterisk" unicode="*" 
d="M252 25l13 207l-173 -115l-38 66l186 92l-186 92l38 66l173 -115l-13 207h76l-13 -207l173 115l38 -66l-186 -92l186 -92l-38 -66l-173 115l13 -207h-76z" />
    <glyph glyph-name="plus" unicode="+" 
d="M257 35v207h-207v66h207v207h66v-207h207v-66h-207v-207h-66z" />
    <glyph glyph-name="comma" unicode="," 
d="M194 -189l-12 49q99 25 115 135q-10 -2 -15 -2q-28 0 -47.5 20.5t-19.5 50.5q0 31 20.5 52.5t52.5 21.5q34 0 55.5 -23.5t21.5 -75.5q0 -73 -44 -139.5t-127 -88.5z" />
    <glyph glyph-name="hyphen" unicode="-" 
d="M90 242v66h400v-66h-400z" />
    <glyph glyph-name="period" unicode="." 
d="M290 -12q-31 0 -53 22t-22 53q0 30 22 52.5t53 22.5t53 -22.5t22 -52.5q0 -31 -22 -53t-53 -22z" />
    <glyph glyph-name="slash" unicode="/" 
d="M60 -60l384 770h76l-384 -770h-76z" />
    <glyph glyph-name="zero" unicode="0" 
d="M290 -12q-115 0 -176 84t-61 243t61 243t176 84t176 -84t61 -243t-61 -243t-176 -84zM138 204l281 289q-41 79 -129 79q-162 0 -162 -257q0 -65 10 -111zM290 58q162 0 162 257q0 65 -10 111l-281 -289q41 -79 129 -79z" />
    <glyph glyph-name="one" unicode="1" 
d="M65 0v68h190v442l-148 -114l-33 44l205 196h50v-568h190v-68h-454z" />
    <glyph glyph-name="two" unicode="2" 
d="M76 0v64q0 117 43 180.5t141 91.5l79 22q47 13 69 36.5t22 65.5q0 55 -36 83.5t-103 28.5q-98 0 -176 -68l-37 60q92 78 211 78q102 0 159 -48.5t57 -136.5q0 -66 -35 -107t-112 -63l-79 -22q-71 -20 -99.5 -63t-29.5 -134h355v-68h-429z" />
    <glyph glyph-name="three" unicode="3" 
d="M73 -12l-1 68q195 0 278.5 33t83.5 109q0 50 -35.5 69.5t-110.5 19.5h-115v68h79q157 0 157 114q0 50 -34.5 76.5t-99.5 26.5q-95 0 -172 -57l-35 60q91 67 210 67q98 0 152 -42.5t54 -121.5q0 -99 -83 -139v-2q108 -25 108 -142q0 -111 -100 -158.5t-336 -48.5z" />
    <glyph glyph-name="four" unicode="4" 
d="M357 0v147h-321v56l256 427h81l-248 -415h232v226l74 40v-266h115v-68h-115v-147h-74z" />
    <glyph glyph-name="five" unicode="5" 
d="M69 -12l-1 68q192 0 276.5 36t84.5 118q0 98 -125 98q-84 0 -155 -41l-59 26l38 337h351v-68h-291l-24 -219q72 35 154 35q91 0 138.5 -43.5t47.5 -126.5q0 -116 -101.5 -167.5t-333.5 -52.5z" />
    <glyph glyph-name="six" unicode="6" 
d="M301 -12q-111 0 -174 76t-63 214q0 174 104 267t307 97l3 -68q-161 -5 -244.5 -67t-93.5 -185h2q79 74 177 74q91 0 146 -54.5t55 -143.5q0 -94 -60.5 -152t-158.5 -58zM303 58q63 0 102.5 37.5t39.5 100.5q0 60 -37 95.5t-101 35.5q-99 0 -168 -87q5 -85 48 -133.5
t116 -48.5z" />
    <glyph glyph-name="seven" unicode="7" 
d="M165 0q67 317 272 560h-372v70h449v-78q-107 -125 -170.5 -258t-92.5 -294h-86z" />
    <glyph glyph-name="eight" unicode="8" 
d="M290 -12q-114 0 -176 45.5t-62 129.5q0 51 27.5 91t91.5 78v2q-94 47 -94 140q0 79 57.5 123.5t155.5 44.5q99 0 156 -44.5t57 -122.5q0 -90 -95 -153v-2q61 -24 90.5 -60t29.5 -94q0 -86 -61.5 -132t-176.5 -46zM337 348q91 51 91 123q0 101 -138 101q-64 0 -101 -24.5
t-37 -69.5q0 -57 77 -88zM290 58q75 0 119 28t44 80q0 56 -76 86l-135 53q-115 -60 -115 -137q0 -52 43 -81t120 -29z" />
    <glyph glyph-name="nine" unicode="9" 
d="M105 -12l-3 68q161 5 244.5 67t93.5 185h-2q-79 -74 -177 -74q-91 0 -146 54.5t-55 143.5q0 94 60.5 152t158.5 58q111 0 174 -76t63 -214q0 -174 -104 -267t-307 -97zM273 303q99 0 168 87q-5 85 -48 133.5t-116 48.5q-63 0 -102.5 -37.5t-39.5 -100.5q0 -60 37 -95.5
t101 -35.5z" />
    <glyph glyph-name="colon" unicode=":" 
d="M290 332q-31 0 -53 22t-22 53q0 30 22 52.5t53 22.5t53 -22.5t22 -52.5q0 -31 -22 -53t-53 -22zM290 -12q-31 0 -53 22t-22 53q0 30 22 52.5t53 22.5t53 -22.5t22 -52.5q0 -31 -22 -53t-53 -22z" />
    <glyph glyph-name="semicolon" unicode=";" 
d="M290 332q-31 0 -53 22t-22 53q0 30 22 52.5t53 22.5t53 -22.5t22 -52.5q0 -31 -22 -53t-53 -22zM194 -189l-12 49q99 25 115 135q-10 -2 -15 -2q-28 0 -47.5 20.5t-19.5 50.5q0 31 20.5 52.5t52.5 21.5q34 0 55.5 -23.5t21.5 -75.5q0 -73 -44 -139.5t-127 -88.5z" />
    <glyph glyph-name="less" unicode="&#x3c;" 
d="M490 0l-410 245v60l410 245v-78l-330 -197l330 -197v-78z" />
    <glyph glyph-name="equal" unicode="=" 
d="M60 347v66h460v-66h-460zM60 137v66h460v-66h-460z" />
    <glyph glyph-name="greater" unicode="&#x3e;" 
d="M90 0v78l330 197l-330 197v78l410 -245v-60z" />
    <glyph glyph-name="question" unicode="?" 
d="M215 218q-9 36 -9 64q0 88 85 109l55 14q48 12 67.5 31.5t19.5 56.5q0 99 -140 99q-108 0 -192 -68l-38 59q99 79 227 79q106 0 162 -43t56 -126q0 -63 -33 -100t-104 -55l-55 -14q-43 -10 -43 -53q0 -22 7 -53h-65zM251 -12q-29 0 -49 20t-20 49t20 49t49 20t49 -20
t20 -49t-20 -49t-49 -20z" />
    <glyph glyph-name="at" unicode="@" 
d="M322 -46q-142 0 -217.5 92t-75.5 261t75.5 262t217.5 93q108 0 164 -54.5t56 -156.5v-282h-53l-9 53q-65 -65 -147 -65q-68 0 -107 39t-39 104q0 70 45 106.5t122 36.5h117v8q0 145 -148 145q-107 0 -164 -75t-57 -213q0 -140 59 -214t164 -74q77 0 142 42l25 -61
q-75 -47 -170 -47zM345 225q72 0 126 56v101h-109q-102 0 -102 -82q0 -75 85 -75z" />
    <glyph glyph-name="A" unicode="A" 
d="M29 0l217 650h88l217 -650h-78l-59 180h-252l-59 -180h-74zM185 250h206l-103 314z" />
    <glyph glyph-name="B" unicode="B" 
d="M86 0v650h226q193 0 193 -166q0 -111 -91 -143v-2q109 -29 109 -159q0 -180 -197 -180h-240zM160 369h132q74 0 106 25.5t32 82.5q0 55 -28.5 79t-96.5 24h-145v-211zM160 70h157q68 0 99 26.5t31 85.5q0 62 -34 90t-109 28h-144v-230z" />
    <glyph glyph-name="C" unicode="C" 
d="M332 -12q-129 0 -197 86.5t-68 250.5t68 250.5t197 86.5q99 0 176 -64l-40 -61q-61 54 -136 54q-189 0 -189 -266t189 -266q83 0 151 68l43 -58q-84 -81 -194 -81z" />
    <glyph glyph-name="D" unicode="D" 
d="M82 0v650h160q283 0 283 -325t-279 -325h-164zM156 70h80q110 0 161.5 61.5t51.5 193.5t-51.5 193.5t-161.5 61.5h-80v-510z" />
    <glyph glyph-name="E" unicode="E" 
d="M108 0v650h402v-70h-328v-214h280v-70h-280v-226h328v-70h-402z" />
    <glyph glyph-name="F" unicode="F" 
d="M112 0v650h402v-70h-328v-218h280v-70h-280v-292h-74z" />
    <glyph glyph-name="G" unicode="G" 
d="M305 -12q-118 0 -183.5 89t-65.5 248q0 164 68 250.5t197 86.5q99 0 176 -64l-40 -61q-61 54 -136 54q-189 0 -189 -266t184 -266q71 0 124 50v179h-133v70h207v-358h-47l-8 51q-66 -63 -154 -63z" />
    <glyph glyph-name="H" unicode="H" 
d="M75 0v650h74v-284h282v284h74v-650h-74v296h-282v-296h-74z" />
    <glyph glyph-name="I" unicode="I" 
d="M82 0v70h171v510h-171v70h416v-70h-171v-510h171v-70h-416z" />
    <glyph glyph-name="J" unicode="J" 
d="M266 -12q-116 0 -201 79l43 58q67 -66 155 -66q67 0 104 36.5t37 104.5v380h-229v70h303v-457q0 -98 -55 -151.5t-157 -53.5z" />
    <glyph glyph-name="K" unicode="K" 
d="M81 0v650h74v-336l294 336h93l-228 -257l233 -393h-86l-198 334l-108 -121v-213h-74z" />
    <glyph glyph-name="L" unicode="L" 
d="M112 0v650h74v-580h328v-70h-402z" />
    <glyph glyph-name="M" unicode="M" 
d="M66 0v650h101l122 -405l122 405h103v-650h-72v551l-127 -419h-54l-127 419v-551h-68z" />
    <glyph glyph-name="N" unicode="N" 
d="M75 0v650h94l266 -514v514h70v-650h-76l-284 549v-549h-70z" />
    <glyph glyph-name="O" unicode="O" 
d="M290 -12q-120 0 -181.5 85.5t-61.5 251.5t61.5 251.5t181.5 85.5t181.5 -85.5t61.5 -251.5t-61.5 -251.5t-181.5 -85.5zM290 59q167 0 167 266t-167 266t-167 -266t167 -266z" />
    <glyph glyph-name="P" unicode="P" 
d="M90 0v650h236q201 0 201 -186t-201 -186h-162v-278h-74zM164 348h152q72 0 103.5 27t31.5 89t-31.5 89t-103.5 27h-152v-232z" />
    <glyph glyph-name="Q" unicode="Q" 
d="M437 -222q-83 0 -127.5 48.5t-44.5 138.5v24q-218 18 -218 336q0 166 61.5 251.5t181.5 85.5t181.5 -85.5t61.5 -251.5q0 -300 -194 -333v-19q0 -126 102 -126q53 0 99 27l20 -63q-57 -33 -123 -33zM290 59q167 0 167 266t-167 266t-167 -266t167 -266z" />
    <glyph glyph-name="R" unicode="R" 
d="M87 0v650h231q196 0 196 -181q0 -159 -154 -179l173 -290h-86l-170 288h-116v-288h-74zM161 358h148q69 0 99 26t30 85t-30 85t-99 26h-148v-222z" />
    <glyph glyph-name="S" unicode="S" 
d="M281 -12q-137 0 -226 84l41 59q75 -72 187 -72q74 0 113 31.5t39 91.5q0 45 -22.5 69.5t-74.5 36.5l-105 24q-151 34 -151 167q0 85 58.5 134t159.5 49q115 0 201 -68l-38 -60q-72 57 -165 57q-67 0 -104 -28.5t-37 -80.5q0 -41 23 -64t74 -35l105 -24q77 -17 114 -59
t37 -115q0 -93 -60 -145t-169 -52z" />
    <glyph glyph-name="T" unicode="T" 
d="M253 0v580h-216v70h506v-70h-216v-580h-74z" />
    <glyph glyph-name="U" unicode="U" 
d="M290 -12q-103 0 -159 55.5t-56 157.5v449h74v-439q0 -152 142 -152t142 152v439h72v-449q0 -102 -56 -157.5t-159 -55.5z" />
    <glyph glyph-name="V" unicode="V" 
d="M246 0l-207 650h78l175 -559l175 559h74l-207 -650h-88z" />
    <glyph glyph-name="W" unicode="W" 
d="M112 0l-103 650h73l82 -532l90 463h76l90 -463l82 532h69l-103 -650h-86l-91 469l-91 -469h-88z" />
    <glyph glyph-name="X" unicode="X" 
d="M53 0l195 332l-190 318h87l149 -257l147 257h81l-189 -323l194 -327h-87l-154 266l-152 -266h-81z" />
    <glyph glyph-name="Y" unicode="Y" 
d="M253 0v280l-219 370h87l171 -297l173 297h81l-219 -370v-280h-74z" />
    <glyph glyph-name="Z" unicode="Z" 
d="M72 0v58l339 522h-323v70h418v-58l-338 -522h338v-70h-434z" />
    <glyph glyph-name="bracketleft" unicode="[" 
d="M154 -210v920h315v-62h-243v-796h243v-62h-315z" />
    <glyph glyph-name="backslash" unicode="\" 
d="M444 -60l-384 770h76l384 -770h-76z" />
    <glyph glyph-name="bracketright" unicode="]" 
d="M111 -210v62h243v796h-243v62h315v-920h-315z" />
    <glyph glyph-name="asciicircum" unicode="^" 
d="M50 275l208 361h64l208 -361h-76l-164 287l-164 -287h-76z" />
    <glyph glyph-name="underscore" unicode="_" 
d="M0 -138v66h580v-66h-580z" />
    <glyph glyph-name="grave" unicode="`" 
d="M325 554l-161 147l59 52l144 -163z" />
    <glyph glyph-name="a" unicode="a" 
d="M246 -12q-86 0 -133 39t-47 110q0 137 176 137h180v20q0 65 -30.5 92.5t-103.5 27.5q-94 0 -170 -41l-23 63q86 46 196 46q106 0 154.5 -42.5t48.5 -134.5v-305h-54l-9 50q-81 -62 -185 -62zM256 56q94 0 166 54v100h-182q-100 0 -100 -73q0 -81 116 -81z" />
    <glyph glyph-name="b" unicode="b" 
d="M316 -12q-91 0 -173 62l-8 -50h-54v710h72v-283q78 55 163 55q94 0 150 -67t56 -180t-56 -180t-150 -67zM304 56q67 0 105.5 48t38.5 131t-38.5 131t-105.5 48q-80 0 -151 -53v-252q71 -53 151 -53z" />
    <glyph glyph-name="c" unicode="c" 
d="M328 -12q-116 0 -183 66t-67 181t67 181t183 66q93 0 172 -49l-28 -60q-67 41 -144 41q-84 0 -130 -46.5t-46 -132.5t46 -132.5t130 -46.5q81 0 157 49l30 -58q-84 -59 -187 -59z" />
    <glyph glyph-name="d" unicode="d" 
d="M264 -12q-94 0 -150 67t-56 180t56 180t150 67q85 0 163 -55v283h72v-710h-54l-8 50q-82 -62 -173 -62zM276 56q80 0 151 53v252q-71 53 -151 53q-67 0 -105.5 -48t-38.5 -131t38.5 -131t105.5 -48z" />
    <glyph glyph-name="e" unicode="e" 
d="M317 -12q-121 0 -190.5 66t-69.5 181q0 113 65.5 180t174.5 67q105 0 166 -62.5t61 -168.5q0 -27 -2 -41h-390q7 -74 55 -114t132 -40t159 49l31 -59q-87 -58 -192 -58zM134 274h317q-7 66 -47.5 103t-107.5 37t-109.5 -37t-52.5 -103z" />
    <glyph glyph-name="f" unicode="f" 
d="M232 0v404h-155v66h155v75q0 177 184 177q76 0 139 -32l-19 -64q-56 28 -114 28q-118 0 -118 -120v-64h200v-66h-200v-404h-72z" />
    <glyph glyph-name="g" unicode="g" 
d="M275 -222q-104 0 -190 46l26 63q74 -41 162 -41q154 0 154 140v67q-78 -55 -163 -55q-94 0 -150 66.5t-56 175.5t56 175.5t150 66.5q91 0 173 -62l8 50h54v-493q0 -95 -57 -147t-167 -52zM276 66q80 0 151 53v242q-71 53 -151 53q-67 0 -105.5 -47.5t-38.5 -126.5
t38.5 -126.5t105.5 -47.5z" />
    <glyph glyph-name="h" unicode="h" 
d="M89 0v710h72v-283q76 55 168 55q168 0 168 -177v-305h-72v294q0 63 -26 91.5t-82 28.5q-84 0 -156 -53v-361h-72z" />
    <glyph glyph-name="i" unicode="i" 
d="M280 584q-28 0 -48.5 20t-20.5 49t20.5 49t48.5 20t48.5 -20t20.5 -49t-20.5 -49t-48.5 -20zM254 0v404h-200v66h272v-404h200v-66h-272z" />
    <glyph glyph-name="j" unicode="j" 
d="M359 584q-29 0 -49 20t-20 49t20 49t49 20t49 -20t20 -49t-20 -49t-49 -20zM219 -222q-93 0 -170 45l25 63q65 -40 139 -40q58 0 89 31.5t31 90.5v436h-199v66h271v-513q0 -86 -48.5 -132.5t-137.5 -46.5z" />
    <glyph glyph-name="k" unicode="k" 
d="M97 0v710h72v-480l268 240h98l-206 -183l211 -287h-90l-176 239l-105 -94v-145h-72z" />
    <glyph glyph-name="l" unicode="l" 
d="M406 -12q-175 0 -175 177v479h-200v66h272v-534q0 -63 26 -91.5t82 -28.5q62 0 118 30l20 -64q-65 -34 -143 -34z" />
    <glyph glyph-name="m" unicode="m" 
d="M54 0v470h49l7 -39q53 51 114 51q64 0 89 -51q53 51 114 51q47 0 74.5 -29.5t27.5 -81.5v-371h-69v363q0 55 -50 55q-46 0 -84 -38v-380h-69v363q0 55 -50 55q-46 0 -84 -38v-380h-69z" />
    <glyph glyph-name="n" unicode="n" 
d="M89 0v470h54l8 -50q82 62 178 62q168 0 168 -177v-305h-72v294q0 63 -26 91.5t-82 28.5q-84 0 -156 -53v-361h-72z" />
    <glyph glyph-name="o" unicode="o" 
d="M290 -12q-107 0 -172.5 68t-65.5 179t65.5 179t172.5 68t172.5 -68t65.5 -179t-65.5 -179t-172.5 -68zM290 56q76 0 120 48t44 131t-44 131t-120 48t-120 -48t-44 -131t44 -131t120 -48z" />
    <glyph glyph-name="p" unicode="p" 
d="M81 -210v680h54l8 -50q82 62 173 62q94 0 150 -67t56 -180t-56 -180t-150 -67q-85 0 -163 55v-253h-72zM304 56q67 0 105.5 48t38.5 131t-38.5 131t-105.5 48q-80 0 -151 -53v-252q71 -53 151 -53z" />
    <glyph glyph-name="q" unicode="q" 
d="M427 -210v253q-78 -55 -163 -55q-94 0 -150 67t-56 180t56 180t150 67q91 0 173 -62l8 50h54v-680h-72zM276 56q80 0 151 53v252q-71 53 -151 53q-67 0 -105.5 -48t-38.5 -131t38.5 -131t105.5 -48z" />
    <glyph glyph-name="r" unicode="r" 
d="M124 0v470h58l10 -82q82 94 201 94q66 0 106 -28l-27 -65q-37 24 -85 24q-113 0 -191 -107v-306h-72z" />
    <glyph glyph-name="s" unicode="s" 
d="M289 -12q-123 0 -220 58l29 61q88 -51 194 -51q135 0 135 78q0 29 -18 42.5t-63 19.5l-114 16q-74 11 -107 39.5t-33 84.5q0 70 51.5 108t144.5 38q105 0 198 -48l-26 -62q-79 42 -174 42q-121 0 -121 -73q0 -28 18 -41t63 -19l114 -16q74 -11 107 -40t33 -86
q0 -73 -54.5 -112t-156.5 -39z" />
    <glyph glyph-name="t" unicode="t" 
d="M382 -12q-175 0 -175 177v239h-155v66h155v152l72 40v-192h200v-66h-200v-228q0 -63 26 -91.5t82 -28.5q62 0 118 30l20 -64q-65 -34 -143 -34z" />
    <glyph glyph-name="u" unicode="u" 
d="M251 -12q-168 0 -168 177v305h72v-294q0 -63 26 -91.5t82 -28.5q84 0 156 53v361h72v-470h-54l-8 50q-82 -62 -178 -62z" />
    <glyph glyph-name="v" unicode="v" 
d="M247 0l-190 470h78l157 -395l157 395h74l-190 -470h-86z" />
    <glyph glyph-name="w" unicode="w" 
d="M124 0l-109 470h71l86 -382l85 333h70l85 -333l86 382h67l-109 -470h-82l-83 329l-84 -329h-83z" />
    <glyph glyph-name="x" unicode="x" 
d="M58 0l185 241l-180 229h91l142 -181l137 181h84l-180 -234l185 -236h-91l-147 187l-142 -187h-84z" />
    <glyph glyph-name="y" unicode="y" 
d="M128 -222q-66 0 -117 31l26 61q41 -24 87 -24q43 0 68.5 21.5t47.5 77.5l18 45l-201 480h79l159 -387l154 387h74l-221 -555q-30 -76 -68.5 -106.5t-105.5 -30.5z" />
    <glyph glyph-name="z" unicode="z" 
d="M81 0v56l311 348h-301v66h406v-56l-311 -348h311v-66h-416z" />
    <glyph glyph-name="braceleft" unicode="{" 
d="M425 -210q-100 0 -146.5 44t-46.5 135q0 35 5 73q5 37 5 66q0 59 -23.5 85t-77.5 26h-55v62h55q54 0 77.5 26t23.5 85q0 29 -5 66q-5 38 -5 73q0 91 46.5 135t146.5 44h66v-62h-47q-73 0 -106.5 -29t-33.5 -93q0 -28 5 -65q5 -38 5 -70q0 -114 -88 -139v-4
q88 -25 88 -139q0 -32 -5 -70q-5 -37 -5 -65q0 -64 33.5 -93t106.5 -29h47v-62h-66z" />
    <glyph glyph-name="bar" unicode="|" 
d="M254 -250v1000h72v-1000h-72z" />
    <glyph glyph-name="braceright" unicode="}" 
d="M89 -210v62h47q73 0 106.5 29t33.5 93q0 28 -5 65q-5 38 -5 70q0 114 88 139v4q-88 25 -88 139q0 32 5 70q5 37 5 65q0 64 -33.5 93t-106.5 29h-47v62h66q100 0 146.5 -44t46.5 -135q0 -35 -5 -73q-5 -37 -5 -66q0 -59 23.5 -85t77.5 -26h55v-62h-55q-54 0 -77.5 -26
t-23.5 -85q0 -29 5 -66q5 -38 5 -73q0 -91 -46.5 -135t-146.5 -44h-66z" />
    <glyph glyph-name="asciitilde" unicode="~" 
d="M116 170l-66 3q4 108 38.5 155.5t95.5 47.5q37 0 67 -20.5t64 -56.5q19 -20 29 -29.5t25.5 -18.5t29.5 -9q31 0 46.5 31.5t18.5 106.5l66 -3q-4 -108 -38.5 -155.5t-95.5 -47.5q-37 0 -67 20.5t-64 56.5q-19 20 -29 29.5t-25.5 18.5t-29.5 9q-31 0 -46.5 -31.5
t-18.5 -106.5z" />
    <glyph glyph-name="uni00A0" unicode="&#xa0;" 
 />
    <glyph glyph-name="exclamdown" unicode="&#xa1;" 
d="M290 482q28 0 48.5 -20t20.5 -49t-20.5 -49t-48.5 -20t-48.5 20t-20.5 49t20.5 49t48.5 20zM298 252l55 -388v-44h-126v44l55 388h16z" />
    <glyph glyph-name="cent" unicode="&#xa2;" 
d="M285 -35l7 101q-107 9 -166.5 74.5t-59.5 174.5t59.5 174.5t166.5 74.5l-7 101h76l-7 -101q80 -6 151 -46l-29 -64q-58 34 -122 40v-358q71 7 134 47l33 -61q-80 -50 -167 -56l7 -101h-76zM292 137v356q-74 -8 -112.5 -53.5t-38.5 -124.5t38.5 -124.5t112.5 -53.5z" />
    <glyph glyph-name="sterling" unicode="&#xa3;" 
d="M67 0v76q115 58 115 163q0 20 -5 42h-110v68h82q-29 64 -29 118q0 81 58 128t160 47q95 0 170 -46l-27 -66q-65 42 -145 42q-68 0 -104.5 -28t-36.5 -80q0 -15 4 -31.5t8 -26t14 -30t13 -27.5h224v-68h-204q3 -16 3 -35q0 -112 -96 -178h351v-68h-445z" />
    <glyph glyph-name="currency" unicode="&#xa4;" 
d="M93 64l-54 54l108 97q-30 44 -30 100t30 100l-108 97l54 54l97 -108q44 30 100 30t100 -30l97 108l54 -54l-108 -97q30 -44 30 -100t-30 -100l108 -97l-54 -54l-97 108q-44 -30 -100 -30t-100 30zM290 210q45 0 72.5 29t27.5 76t-27.5 76t-72.5 29t-72.5 -29t-27.5 -76
t27.5 -76t72.5 -29z" />
    <glyph glyph-name="yen" unicode="&#xa5;" 
d="M250 0v119h-186v64h186v90h-186v64h177l-200 293h89l160 -236l160 236h89l-200 -293h171v-64h-186v-90h186v-64h-186v-119h-74z" />
    <glyph glyph-name="brokenbar" unicode="&#xa6;" 
d="M254 400v350h72v-350h-72zM254 -250v350h72v-350h-72z" />
    <glyph glyph-name="section" unicode="&#xa7;" 
d="M287 -130q-110 0 -201 57l32 59q73 -49 169 -49q136 0 136 85q0 60 -87 74l-127 21q-74 12 -109 45t-35 90q0 95 93 132v2q-75 35 -75 120q0 75 54 115.5t154 40.5q110 0 201 -57l-32 -59q-73 49 -169 49q-136 0 -136 -85q0 -60 88 -74l127 -21q73 -12 108 -45t35 -90
q0 -95 -92 -132v-2q74 -35 74 -120q0 -75 -54 -115.5t-154 -40.5zM313 172q61 4 94 29t33 69q0 32 -21 50.5t-67 25.5l-86 14q-62 -4 -95 -29.5t-33 -68.5q0 -32 21 -50.5t68 -25.5z" />
    <glyph glyph-name="dieresis" unicode="&#xa8;" 
d="M182 587q-28 0 -47 19t-19 47t19 47t47 19t47 -19t19 -47t-19 -47t-47 -19zM398 587q-28 0 -47 19t-19 47t19 47t47 19t47 -19t19 -47t-19 -47t-47 -19z" />
    <glyph glyph-name="copyright" unicode="&#xa9;" 
d="M290 18q-124 0 -198 83.5t-74 223.5t74 223.5t198 83.5t198 -83.5t74 -223.5t-74 -223.5t-198 -83.5zM290 70q100 0 158 68t58 187t-58 187t-158 68t-158 -68t-58 -187t58 -187t158 -68zM293 159q-68 0 -105.5 43.5t-37.5 122.5t37.5 122.5t105.5 43.5q59 0 100 -38
l-29 -44q-31 28 -70 28q-88 0 -88 -112t88 -112q43 0 77 35l32 -42q-46 -47 -110 -47z" />
    <glyph glyph-name="ordfeminine" unicode="&#xaa;" 
d="M257 275q-67 0 -104.5 30.5t-37.5 86.5q0 109 139 109h137v13q0 48 -23 68.5t-77 20.5q-74 0 -133 -32l-21 54q70 37 158 37q83 0 121.5 -33.5t38.5 -106.5v-238h-48l-7 38q-63 -47 -143 -47zM267 334q71 0 124 37v76h-137q-73 0 -73 -54q0 -59 86 -59zM115 113v60h340
v-60h-340z" />
    <glyph glyph-name="guillemotleft" unicode="&#xab;" 
d="M237 57l-162 151v54l162 151l32 -31l-109 -147l109 -147zM472 57l-162 151v54l162 151l32 -31l-109 -147l109 -147z" />
    <glyph glyph-name="logicalnot" unicode="&#xac;" 
d="M444 75v232h-394v66h460v-298h-66z" />
    <glyph glyph-name="uni00AD" unicode="&#xad;" 
d="M90 242v66h400v-66h-400z" />
    <glyph glyph-name="registered" unicode="&#xae;" 
d="M290 18q-124 0 -198 83.5t-74 223.5t74 223.5t198 83.5t198 -83.5t74 -223.5t-74 -223.5t-198 -83.5zM290 70q100 0 158 68t58 187t-58 187t-158 68t-158 -68t-58 -187t58 -187t158 -68zM182 166v319h124q104 0 104 -99q0 -74 -60 -94l73 -126h-64l-67 120h-55v-120h-55z
M237 338h61q31 0 44 11t13 37q0 25 -13 36t-44 11h-61v-95z" />
    <glyph glyph-name="macron" unicode="&#xaf;" 
d="M155 620v66h270v-66h-270z" />
    <glyph glyph-name="degree" unicode="&#xb0;" 
d="M290 402q-69 0 -114.5 45.5t-45.5 114.5t45.5 114.5t114.5 45.5t114.5 -45.5t45.5 -114.5t-45.5 -114.5t-114.5 -45.5zM290 468q40 0 66 26.5t26 67.5t-26 67.5t-66 26.5t-66 -26.5t-26 -67.5t26 -67.5t66 -26.5z" />
    <glyph glyph-name="plusminus" unicode="&#xb1;" 
d="M257 131v192h-197v66h197v192h66v-192h197v-66h-197v-192h-66zM60 0v66h460v-66h-460z" />
    <glyph glyph-name="uni00B2" unicode="&#xb2;" 
d="M111 306v53q0 85 35 130.5t116 64.5l66 16q69 16 69 63q0 69 -107 69q-81 0 -144 -47l-36 56q77 57 178 57q87 0 134 -35.5t47 -101.5q0 -50 -29.5 -81t-94.5 -47l-64 -16q-53 -14 -74 -38.5t-24 -77.5h286v-65h-358z" />
    <glyph glyph-name="uni00B3" unicode="&#xb3;" 
d="M108 294l-2 65q157 0 224.5 20.5t67.5 68.5q0 28 -24.5 41t-78.5 13h-107v64h69q122 0 122 70q0 66 -104 66q-78 0 -139 -40l-33 58q73 48 174 48q84 0 129 -31.5t45 -89.5q0 -70 -67 -97v-2q86 -18 86 -103q0 -82 -83 -116.5t-279 -34.5z" />
    <glyph glyph-name="acute" unicode="&#xb4;" 
d="M255 554l-42 36l144 163l59 -52z" />
    <glyph glyph-name="uni00B5" unicode="&#xb5;" 
d="M86 -210v680h72v-294q0 -63 26 -91.5t82 -28.5q84 0 156 53v361h72v-470h-54l-8 50q-82 -62 -178 -62q-76 0 -110 46l14 -193v-51h-72z" />
    <glyph glyph-name="paragraph" unicode="&#xb6;" 
d="M264 -120v384h-21q-201 0 -201 193t201 193h261v-770h-70v700h-100v-700h-70z" />
    <glyph glyph-name="periodcentered" unicode="&#xb7;" 
d="M290 205q-31 0 -53 22t-22 53q0 30 22 52.5t53 22.5t53 -22.5t22 -52.5q0 -31 -22 -53t-53 -22z" />
    <glyph glyph-name="cedilla" unicode="&#xb8;" 
d="M277 -222q-53 0 -102 21l14 50q41 -19 89 -19q55 0 55 33q0 14 -11 20t-38 6h-53l39 111h49l-25 -70h8q93 0 93 -69q0 -83 -118 -83z" />
    <glyph glyph-name="uni00B9" unicode="&#xb9;" 
d="M109 306v65h151v286l-128 -70l-29 48l180 127h49v-391h151v-65h-374z" />
    <glyph glyph-name="ordmasculine" unicode="&#xba;" 
d="M290 275q-85 0 -136.5 53.5t-51.5 140.5t51.5 140t136.5 53t136.5 -53t51.5 -140t-51.5 -140.5t-136.5 -53.5zM290 335q57 0 89.5 36t32.5 98t-32.5 97.5t-89.5 35.5t-89.5 -35.5t-32.5 -97.5t32.5 -98t89.5 -36zM102 113v60h376v-60h-376z" />
    <glyph glyph-name="guillemotright" unicode="&#xbb;" 
d="M108 57l-32 31l109 147l-109 147l32 31l162 -151v-54zM343 57l-32 31l109 147l-109 147l32 31l162 -151v-54z" />
    <glyph glyph-name="onequarter" unicode="&#xbc;" 
d="M25 354v59h88v135l-69 -39l-29 44l118 83h49v-223h87v-59h-244zM381 364l-35 31l183 239l56 -48zM456 0v57h-172v48l139 171h79l-130 -160h84v41l69 32v-73h52v-59h-52v-57h-69zM91 -4l-56 48l204 222l35 -31z" />
    <glyph glyph-name="onehalf" unicode="&#xbd;" 
d="M25 354v59h88v135l-69 -39l-29 44l118 83h49v-223h87v-59h-244zM361 364l-35 31l183 239l56 -48zM323 0v49q0 48 22.5 74.5t71.5 39.5l45 12q30 8 30 26q0 28 -50 28q-47 0 -91 -28l-26 55q57 32 119 32q117 0 117 -87q0 -35 -20 -54.5t-63 -30.5l-46 -12
q-39 -10 -40 -45h169v-59h-238zM71 -4l-56 48l204 222l35 -31z" />
    <glyph glyph-name="threequarters" unicode="&#xbe;" 
d="M18 342l-2 59q101 0 139 9t38 33q0 13 -12.5 18t-47.5 5h-65v55h48q68 0 68 31t-53 31q-52 0 -89 -23l-25 55q51 27 115 27q58 0 89 -20t31 -57q0 -41 -41 -57v-2q51 -13 51 -65q0 -54 -55.5 -76.5t-188.5 -22.5zM371 364l-35 31l183 239l56 -48zM456 0v57h-172v48
l139 171h79l-130 -160h84v41l69 32v-73h52v-59h-52v-57h-69zM81 -4l-56 48l204 222l35 -31z" />
    <glyph glyph-name="questiondown" unicode="&#xbf;" 
d="M329 482q29 0 49 -20t20 -49t-20 -49t-49 -20t-49 20t-20 49t20 49t49 20zM365 252q9 -36 9 -64q0 -88 -85 -109l-55 -14q-48 -12 -67.5 -31.5t-19.5 -56.5q0 -99 140 -99q108 0 192 68l38 -59q-99 -79 -227 -79q-106 0 -162 43t-56 126q0 63 33 100t104 55l55 14
q43 10 43 53q0 22 -7 53h65z" />
    <glyph glyph-name="Agrave" unicode="&#xc0;" 
d="M333 719l-170 111l47 63l156 -129zM29 0l217 650h88l217 -650h-78l-59 180h-252l-59 -180h-74zM185 250h206l-103 314z" />
    <glyph glyph-name="Aacute" unicode="&#xc1;" 
d="M246 719l-33 45l156 129l47 -63zM29 0l217 650h88l217 -650h-78l-59 180h-252l-59 -180h-74zM185 250h206l-103 314z" />
    <glyph glyph-name="Acircumflex" unicode="&#xc2;" 
d="M154 719l-33 45l154 126h28l154 -126l-33 -45l-135 96zM29 0l217 650h88l217 -650h-78l-59 180h-252l-59 -180h-74zM185 250h206l-103 314z" />
    <glyph glyph-name="Atilde" unicode="&#xc3;" 
d="M179 737l-55 10q27 117 105 117q38 0 81 -32q29 -21 44 -21q33 0 47 61l54 -10q-25 -117 -104 -117q-36 0 -81 32q-29 21 -44 21q-33 0 -47 -61zM29 0l217 650h88l217 -650h-78l-59 180h-252l-59 -180h-74zM185 250h206l-103 314z" />
    <glyph glyph-name="Adieresis" unicode="&#xc4;" 
d="M182 737q-28 0 -47 19t-19 47t19 47t47 19t47 -19t19 -47t-19 -47t-47 -19zM398 737q-28 0 -47 19t-19 47t19 47t47 19t47 -19t19 -47t-19 -47t-47 -19zM29 0l217 650h88l217 -650h-78l-59 180h-252l-59 -180h-74zM185 250h206l-103 314z" />
    <glyph glyph-name="Aring" unicode="&#xc5;" 
d="M290 690q-47 0 -79.5 32.5t-32.5 80.5t32.5 80.5t79.5 32.5t79.5 -32.5t32.5 -80.5t-32.5 -80.5t-79.5 -32.5zM290 747q23 0 37 15.5t14 40.5t-14 40.5t-37 15.5t-37 -15.5t-14 -40.5t14 -40.5t37 -15.5zM29 0l217 650h88l217 -650h-78l-59 180h-252l-59 -180h-74z
M185 250h206l-103 314z" />
    <glyph glyph-name="AE" unicode="&#xc6;" 
d="M4 0l245 650h317v-69h-200v-216h171v-68h-171v-228h200v-69h-271v154h-161l-56 -154h-74zM160 223h135v358h-3z" />
    <glyph glyph-name="Ccedilla" unicode="&#xc7;" 
d="M328 -70q93 0 93 -69q0 -83 -118 -83q-53 0 -102 21l14 50q41 -19 89 -19q55 0 55 33q0 14 -11 20t-38 6h-53l36 101q-110 14 -168 99t-58 236q0 164 68 250.5t197 86.5q99 0 176 -64l-40 -61q-61 54 -136 54q-189 0 -189 -266t189 -266q83 0 151 68l43 -58
q-81 -78 -185 -81l-21 -58h8z" />
    <glyph glyph-name="Egrave" unicode="&#xc8;" 
d="M352 719l-170 111l47 63l156 -129zM108 0v650h402v-70h-328v-214h280v-70h-280v-226h328v-70h-402z" />
    <glyph glyph-name="Eacute" unicode="&#xc9;" 
d="M265 719l-33 45l156 129l47 -63zM108 0v650h402v-70h-328v-214h280v-70h-280v-226h328v-70h-402z" />
    <glyph glyph-name="Ecircumflex" unicode="&#xca;" 
d="M173 719l-33 45l154 126h28l154 -126l-33 -45l-135 96zM108 0v650h402v-70h-328v-214h280v-70h-280v-226h328v-70h-402z" />
    <glyph glyph-name="Edieresis" unicode="&#xcb;" 
d="M201 737q-28 0 -47 19t-19 47t19 47t47 19t47 -19t19 -47t-19 -47t-47 -19zM417 737q-28 0 -47 19t-19 47t19 47t47 19t47 -19t19 -47t-19 -47t-47 -19zM108 0v650h402v-70h-328v-214h280v-70h-280v-226h328v-70h-402z" />
    <glyph glyph-name="Igrave" unicode="&#xcc;" 
d="M333 719l-170 111l47 63l156 -129zM82 0v70h171v510h-171v70h416v-70h-171v-510h171v-70h-416z" />
    <glyph glyph-name="Iacute" unicode="&#xcd;" 
d="M246 719l-33 45l156 129l47 -63zM82 0v70h171v510h-171v70h416v-70h-171v-510h171v-70h-416z" />
    <glyph glyph-name="Icircumflex" unicode="&#xce;" 
d="M154 719l-33 45l154 126h28l154 -126l-33 -45l-135 96zM82 0v70h171v510h-171v70h416v-70h-171v-510h171v-70h-416z" />
    <glyph glyph-name="Idieresis" unicode="&#xcf;" 
d="M182 737q-28 0 -47 19t-19 47t19 47t47 19t47 -19t19 -47t-19 -47t-47 -19zM398 737q-28 0 -47 19t-19 47t19 47t47 19t47 -19t19 -47t-19 -47t-47 -19zM82 0v70h171v510h-171v70h416v-70h-171v-510h171v-70h-416z" />
    <glyph glyph-name="Eth" unicode="&#xd0;" 
d="M267 650q283 0 283 -325t-279 -325h-164v294h-93v62h93v294h160zM261 70q110 0 161.5 61.5t51.5 193.5t-51.5 193.5t-161.5 61.5h-80v-224h145v-62h-145v-224h80z" />
    <glyph glyph-name="Ntilde" unicode="&#xd1;" 
d="M179 737l-55 10q27 117 105 117q38 0 81 -32q29 -21 44 -21q33 0 47 61l54 -10q-25 -117 -104 -117q-36 0 -81 32q-29 21 -44 21q-33 0 -47 -61zM75 0v650h94l266 -514v514h70v-650h-76l-284 549v-549h-70z" />
    <glyph glyph-name="Ograve" unicode="&#xd2;" 
d="M333 719l-170 111l47 63l156 -129zM290 -12q-120 0 -181.5 85.5t-61.5 251.5t61.5 251.5t181.5 85.5t181.5 -85.5t61.5 -251.5t-61.5 -251.5t-181.5 -85.5zM290 59q167 0 167 266t-167 266t-167 -266t167 -266z" />
    <glyph glyph-name="Oacute" unicode="&#xd3;" 
d="M246 719l-33 45l156 129l47 -63zM290 -12q-120 0 -181.5 85.5t-61.5 251.5t61.5 251.5t181.5 85.5t181.5 -85.5t61.5 -251.5t-61.5 -251.5t-181.5 -85.5zM290 59q167 0 167 266t-167 266t-167 -266t167 -266z" />
    <glyph glyph-name="Ocircumflex" unicode="&#xd4;" 
d="M154 719l-33 45l154 126h28l154 -126l-33 -45l-135 96zM290 -12q-120 0 -181.5 85.5t-61.5 251.5t61.5 251.5t181.5 85.5t181.5 -85.5t61.5 -251.5t-61.5 -251.5t-181.5 -85.5zM290 59q167 0 167 266t-167 266t-167 -266t167 -266z" />
    <glyph glyph-name="Otilde" unicode="&#xd5;" 
d="M179 737l-55 10q27 117 105 117q38 0 81 -32q29 -21 44 -21q33 0 47 61l54 -10q-25 -117 -104 -117q-36 0 -81 32q-29 21 -44 21q-33 0 -47 -61zM290 -12q-120 0 -181.5 85.5t-61.5 251.5t61.5 251.5t181.5 85.5t181.5 -85.5t61.5 -251.5t-61.5 -251.5t-181.5 -85.5z
M290 59q167 0 167 266t-167 266t-167 -266t167 -266z" />
    <glyph glyph-name="Odieresis" unicode="&#xd6;" 
d="M182 737q-28 0 -47 19t-19 47t19 47t47 19t47 -19t19 -47t-19 -47t-47 -19zM398 737q-28 0 -47 19t-19 47t19 47t47 19t47 -19t19 -47t-19 -47t-47 -19zM290 -12q-120 0 -181.5 85.5t-61.5 251.5t61.5 251.5t181.5 85.5t181.5 -85.5t61.5 -251.5t-61.5 -251.5
t-181.5 -85.5zM290 59q167 0 167 266t-167 266t-167 -266t167 -266z" />
    <glyph glyph-name="multiply" unicode="&#xd7;" 
d="M124 62l-47 47l166 166l-166 166l47 47l166 -166l166 166l47 -47l-166 -166l166 -166l-47 -47l-166 166z" />
    <glyph glyph-name="Oslash" unicode="&#xd8;" 
d="M560 645l-71 -97q44 -83 44 -223q0 -166 -61.5 -251.5t-181.5 -85.5q-102 0 -161 61l-59 -81l-50 37l71 97q-44 83 -44 223q0 166 61.5 251.5t181.5 85.5q102 0 161 -61l59 81zM123 325q0 -93 19 -151l264 364q-41 53 -116 53q-167 0 -167 -266zM457 325q0 93 -19 151
l-264 -364q41 -53 116 -53q167 0 167 266z" />
    <glyph glyph-name="Ugrave" unicode="&#xd9;" 
d="M333 719l-170 111l47 63l156 -129zM290 -12q-103 0 -159 55.5t-56 157.5v449h74v-439q0 -152 142 -152t142 152v439h72v-449q0 -102 -56 -157.5t-159 -55.5z" />
    <glyph glyph-name="Uacute" unicode="&#xda;" 
d="M246 719l-33 45l156 129l47 -63zM290 -12q-103 0 -159 55.5t-56 157.5v449h74v-439q0 -152 142 -152t142 152v439h72v-449q0 -102 -56 -157.5t-159 -55.5z" />
    <glyph glyph-name="Ucircumflex" unicode="&#xdb;" 
d="M154 719l-33 45l154 126h28l154 -126l-33 -45l-135 96zM290 -12q-103 0 -159 55.5t-56 157.5v449h74v-439q0 -152 142 -152t142 152v439h72v-449q0 -102 -56 -157.5t-159 -55.5z" />
    <glyph glyph-name="Udieresis" unicode="&#xdc;" 
d="M182 737q-28 0 -47 19t-19 47t19 47t47 19t47 -19t19 -47t-19 -47t-47 -19zM398 737q-28 0 -47 19t-19 47t19 47t47 19t47 -19t19 -47t-19 -47t-47 -19zM290 -12q-103 0 -159 55.5t-56 157.5v449h74v-439q0 -152 142 -152t142 152v439h72v-449q0 -102 -56 -157.5
t-159 -55.5z" />
    <glyph glyph-name="Yacute" unicode="&#xdd;" 
d="M246 719l-33 45l156 129l47 -63zM253 0v280l-219 370h87l171 -297l173 297h81l-219 -370v-280h-74z" />
    <glyph glyph-name="Thorn" unicode="&#xde;" 
d="M90 0v650h74v-113h162q201 0 201 -186t-201 -186h-162v-165h-74zM164 235h152q72 0 103.5 27t31.5 89t-31.5 89t-103.5 27h-152v-232z" />
    <glyph glyph-name="germandbls" unicode="&#xdf;" 
d="M371 -12q-74 0 -137 36l25 64q56 -32 109 -32q96 0 96 74q0 31 -17.5 50t-51.5 38q-49 27 -76.5 58t-27.5 82q0 33 9.5 57.5t33.5 61.5q37 57 37 90q0 39 -28.5 63t-78.5 24q-116 0 -116 -133v-521h-72v534q0 88 51 138t140 50q82 0 130 -42.5t48 -115.5q0 -50 -43 -115
q-22 -34 -29.5 -50t-7.5 -36q0 -25 17.5 -43t51.5 -37q24 -13 39 -24t32 -29t25 -42.5t8 -55.5q0 -70 -43 -107t-124 -37z" />
    <glyph glyph-name="agrave" unicode="&#xe0;" 
d="M320 554l-161 147l59 52l144 -163zM246 -12q-86 0 -133 39t-47 110q0 137 176 137h180v20q0 65 -30.5 92.5t-103.5 27.5q-94 0 -170 -41l-23 63q86 46 196 46q106 0 154.5 -42.5t48.5 -134.5v-305h-54l-9 50q-81 -62 -185 -62zM256 56q94 0 166 54v100h-182
q-100 0 -100 -73q0 -81 116 -81z" />
    <glyph glyph-name="aacute" unicode="&#xe1;" 
d="M251 554l-42 36l144 163l59 -52zM246 -12q-86 0 -133 39t-47 110q0 137 176 137h180v20q0 65 -30.5 92.5t-103.5 27.5q-94 0 -170 -41l-23 63q86 46 196 46q106 0 154.5 -42.5t48.5 -134.5v-305h-54l-9 50q-81 -62 -185 -62zM256 56q94 0 166 54v100h-182
q-100 0 -100 -73q0 -81 116 -81z" />
    <glyph glyph-name="acircumflex" unicode="&#xe2;" 
d="M159 554l-42 36l154 163h28l154 -163l-42 -36l-126 115zM246 -12q-86 0 -133 39t-47 110q0 137 176 137h180v20q0 65 -30.5 92.5t-103.5 27.5q-94 0 -170 -41l-23 63q86 46 196 46q106 0 154.5 -42.5t48.5 -134.5v-305h-54l-9 50q-81 -62 -185 -62zM256 56q94 0 166 54
v100h-182q-100 0 -100 -73q0 -81 116 -81z" />
    <glyph glyph-name="atilde" unicode="&#xe3;" 
d="M174 576l-54 10q25 132 105 132q39 0 81 -40q28 -26 44 -26q34 0 48 76l54 -10q-25 -132 -105 -132q-39 0 -81 40q-28 26 -44 26q-34 0 -48 -76zM246 -12q-86 0 -133 39t-47 110q0 137 176 137h180v20q0 65 -30.5 92.5t-103.5 27.5q-94 0 -170 -41l-23 63q86 46 196 46
q106 0 154.5 -42.5t48.5 -134.5v-305h-54l-9 50q-81 -62 -185 -62zM256 56q94 0 166 54v100h-182q-100 0 -100 -73q0 -81 116 -81z" />
    <glyph glyph-name="adieresis" unicode="&#xe4;" 
d="M178 587q-28 0 -47 19t-19 47t19 47t47 19t47 -19t19 -47t-19 -47t-47 -19zM394 587q-28 0 -47 19t-19 47t19 47t47 19t47 -19t19 -47t-19 -47t-47 -19zM246 -12q-86 0 -133 39t-47 110q0 137 176 137h180v20q0 65 -30.5 92.5t-103.5 27.5q-94 0 -170 -41l-23 63
q86 46 196 46q106 0 154.5 -42.5t48.5 -134.5v-305h-54l-9 50q-81 -62 -185 -62zM256 56q94 0 166 54v100h-182q-100 0 -100 -73q0 -81 116 -81z" />
    <glyph glyph-name="aring" unicode="&#xe5;" 
d="M286 540q-47 0 -79.5 32.5t-32.5 80.5t32.5 80.5t79.5 32.5t79.5 -32.5t32.5 -80.5t-32.5 -80.5t-79.5 -32.5zM286 597q23 0 37 15.5t14 40.5t-14 40.5t-37 15.5t-37 -15.5t-14 -40.5t14 -40.5t37 -15.5zM246 -12q-86 0 -133 39t-47 110q0 137 176 137h180v20
q0 65 -30.5 92.5t-103.5 27.5q-94 0 -170 -41l-23 63q86 46 196 46q106 0 154.5 -42.5t48.5 -134.5v-305h-54l-9 50q-81 -62 -185 -62zM256 56q94 0 166 54v100h-182q-100 0 -100 -73q0 -81 116 -81z" />
    <glyph glyph-name="ae" unicode="&#xe6;" 
d="M156 -12q-65 0 -103.5 39t-38.5 105q0 69 43.5 105t126.5 36h59v16q0 127 -93 127q-53 0 -99 -34l-30 59q59 41 136 41q98 0 126 -79h2q36 79 124 79q74 0 113.5 -59.5t39.5 -171.5q0 -19 -2 -40h-247q4 -82 31.5 -119.5t85.5 -37.5q56 0 104 34l29 -59q-59 -41 -135 -41
q-94 0 -140 64q-54 -64 -132 -64zM314 273h179q-6 143 -89 143q-81 0 -90 -143zM168 54q53 0 94 48q-16 43 -19 109h-61q-97 0 -97 -80q0 -37 21.5 -57t61.5 -20z" />
    <glyph glyph-name="ccedilla" unicode="&#xe7;" 
d="M324 -70q93 0 93 -69q0 -83 -118 -83q-53 0 -102 21l14 50q41 -19 89 -19q55 0 55 33q0 14 -11 20t-38 6h-53l36 101q-99 11 -155 75.5t-56 169.5q0 115 67 181t183 66q93 0 172 -49l-28 -60q-67 41 -144 41q-84 0 -130 -46.5t-46 -132.5t46 -132.5t130 -46.5
q81 0 157 49l30 -58q-81 -56 -178 -59l-21 -58h8z" />
    <glyph glyph-name="egrave" unicode="&#xe8;" 
d="M331 554l-161 147l59 52l144 -163zM317 -12q-121 0 -190.5 66t-69.5 181q0 113 65.5 180t174.5 67q105 0 166 -62.5t61 -168.5q0 -27 -2 -41h-390q7 -74 55 -114t132 -40t159 49l31 -59q-87 -58 -192 -58zM134 274h317q-7 66 -47.5 103t-107.5 37t-109.5 -37t-52.5 -103z
" />
    <glyph glyph-name="eacute" unicode="&#xe9;" 
d="M262 554l-42 36l144 163l59 -52zM317 -12q-121 0 -190.5 66t-69.5 181q0 113 65.5 180t174.5 67q105 0 166 -62.5t61 -168.5q0 -27 -2 -41h-390q7 -74 55 -114t132 -40t159 49l31 -59q-87 -58 -192 -58zM134 274h317q-7 66 -47.5 103t-107.5 37t-109.5 -37t-52.5 -103z
" />
    <glyph glyph-name="ecircumflex" unicode="&#xea;" 
d="M170 554l-42 36l154 163h28l154 -163l-42 -36l-126 115zM317 -12q-121 0 -190.5 66t-69.5 181q0 113 65.5 180t174.5 67q105 0 166 -62.5t61 -168.5q0 -27 -2 -41h-390q7 -74 55 -114t132 -40t159 49l31 -59q-87 -58 -192 -58zM134 274h317q-7 66 -47.5 103t-107.5 37
t-109.5 -37t-52.5 -103z" />
    <glyph glyph-name="edieresis" unicode="&#xeb;" 
d="M189 587q-28 0 -47 19t-19 47t19 47t47 19t47 -19t19 -47t-19 -47t-47 -19zM405 587q-28 0 -47 19t-19 47t19 47t47 19t47 -19t19 -47t-19 -47t-47 -19zM317 -12q-121 0 -190.5 66t-69.5 181q0 113 65.5 180t174.5 67q105 0 166 -62.5t61 -168.5q0 -27 -2 -41h-390
q7 -74 55 -114t132 -40t159 49l31 -59q-87 -58 -192 -58zM134 274h317q-7 66 -47.5 103t-107.5 37t-109.5 -37t-52.5 -103z" />
    <glyph glyph-name="igrave" unicode="&#xec;" 
d="M314 554l-161 147l59 52l144 -163zM254 0v404h-200v66h272v-404h200v-66h-272z" />
    <glyph glyph-name="iacute" unicode="&#xed;" 
d="M245 554l-42 36l144 163l59 -52zM254 0v404h-200v66h272v-404h200v-66h-272z" />
    <glyph glyph-name="icircumflex" unicode="&#xee;" 
d="M153 554l-42 36l154 163h28l154 -163l-42 -36l-126 115zM254 0v404h-200v66h272v-404h200v-66h-272z" />
    <glyph glyph-name="idieresis" unicode="&#xef;" 
d="M172 587q-28 0 -47 19t-19 47t19 47t47 19t47 -19t19 -47t-19 -47t-47 -19zM388 587q-28 0 -47 19t-19 47t19 47t47 19t47 -19t19 -47t-19 -47t-47 -19zM254 0v404h-200v66h272v-404h200v-66h-272z" />
    <glyph glyph-name="eth" unicode="&#xf0;" 
d="M282 -12q-106 0 -169.5 62t-63.5 162q0 99 63.5 160t165.5 61q99 0 160 -65h2q-25 105 -97 177l-198 -82l-22 58l173 64q-74 53 -171 72l18 65q129 -27 225 -109l106 47l22 -58l-85 -31q114 -127 114 -305q0 -132 -65.5 -205t-177.5 -73zM284 56q167 0 167 209v10
q-33 49 -70.5 70t-90.5 21q-80 0 -123.5 -40.5t-43.5 -112.5q0 -73 43 -115t118 -42z" />
    <glyph glyph-name="ntilde" unicode="&#xf1;" 
d="M188 576l-54 10q25 132 105 132q39 0 81 -40q28 -26 44 -26q34 0 48 76l54 -10q-25 -132 -105 -132q-39 0 -81 40q-28 26 -44 26q-34 0 -48 -76zM89 0v470h54l8 -50q82 62 178 62q168 0 168 -177v-305h-72v294q0 63 -26 91.5t-82 28.5q-84 0 -156 -53v-361h-72z" />
    <glyph glyph-name="ograve" unicode="&#xf2;" 
d="M324 554l-161 147l59 52l144 -163zM290 -12q-107 0 -172.5 68t-65.5 179t65.5 179t172.5 68t172.5 -68t65.5 -179t-65.5 -179t-172.5 -68zM290 56q76 0 120 48t44 131t-44 131t-120 48t-120 -48t-44 -131t44 -131t120 -48z" />
    <glyph glyph-name="oacute" unicode="&#xf3;" 
d="M255 554l-42 36l144 163l59 -52zM290 -12q-107 0 -172.5 68t-65.5 179t65.5 179t172.5 68t172.5 -68t65.5 -179t-65.5 -179t-172.5 -68zM290 56q76 0 120 48t44 131t-44 131t-120 48t-120 -48t-44 -131t44 -131t120 -48z" />
    <glyph glyph-name="ocircumflex" unicode="&#xf4;" 
d="M163 554l-42 36l154 163h28l154 -163l-42 -36l-126 115zM290 -12q-107 0 -172.5 68t-65.5 179t65.5 179t172.5 68t172.5 -68t65.5 -179t-65.5 -179t-172.5 -68zM290 56q76 0 120 48t44 131t-44 131t-120 48t-120 -48t-44 -131t44 -131t120 -48z" />
    <glyph glyph-name="otilde" unicode="&#xf5;" 
d="M178 576l-54 10q25 132 105 132q39 0 81 -40q28 -26 44 -26q34 0 48 76l54 -10q-25 -132 -105 -132q-39 0 -81 40q-28 26 -44 26q-34 0 -48 -76zM290 -12q-107 0 -172.5 68t-65.5 179t65.5 179t172.5 68t172.5 -68t65.5 -179t-65.5 -179t-172.5 -68zM290 56q76 0 120 48
t44 131t-44 131t-120 48t-120 -48t-44 -131t44 -131t120 -48z" />
    <glyph glyph-name="odieresis" unicode="&#xf6;" 
d="M182 587q-28 0 -47 19t-19 47t19 47t47 19t47 -19t19 -47t-19 -47t-47 -19zM398 587q-28 0 -47 19t-19 47t19 47t47 19t47 -19t19 -47t-19 -47t-47 -19zM290 -12q-107 0 -172.5 68t-65.5 179t65.5 179t172.5 68t172.5 -68t65.5 -179t-65.5 -179t-172.5 -68zM290 56
q76 0 120 48t44 131t-44 131t-120 48t-120 -48t-44 -131t44 -131t120 -48z" />
    <glyph glyph-name="divide" unicode="&#xf7;" 
d="M290 414q-26 0 -44.5 18.5t-18.5 44.5t18.5 44.5t44.5 18.5t44.5 -18.5t18.5 -44.5t-18.5 -44.5t-44.5 -18.5zM50 242v66h480v-66h-480zM290 10q-26 0 -44.5 18.5t-18.5 45.5q0 25 18.5 43.5t44.5 18.5t44.5 -18.5t18.5 -43.5q0 -27 -18.5 -45.5t-44.5 -18.5z" />
    <glyph glyph-name="oslash" unicode="&#xf8;" 
d="M537 438l-52 -52q43 -61 43 -151q0 -111 -65.5 -179t-172.5 -68q-90 0 -153 50l-50 -50l-44 44l52 52q-43 61 -43 151q0 111 65.5 179t172.5 68q90 0 153 -50l50 50zM126 235q0 -59 21 -99l246 246q-41 32 -103 32q-76 0 -120 -48t-44 -131zM454 235q0 59 -21 99
l-246 -246q41 -32 103 -32q76 0 120 48t44 131z" />
    <glyph glyph-name="ugrave" unicode="&#xf9;" 
d="M324 554l-161 147l59 52l144 -163zM251 -12q-168 0 -168 177v305h72v-294q0 -63 26 -91.5t82 -28.5q84 0 156 53v361h72v-470h-54l-8 50q-82 -62 -178 -62z" />
    <glyph glyph-name="uacute" unicode="&#xfa;" 
d="M255 554l-42 36l144 163l59 -52zM251 -12q-168 0 -168 177v305h72v-294q0 -63 26 -91.5t82 -28.5q84 0 156 53v361h72v-470h-54l-8 50q-82 -62 -178 -62z" />
    <glyph glyph-name="ucircumflex" unicode="&#xfb;" 
d="M163 554l-42 36l154 163h28l154 -163l-42 -36l-126 115zM251 -12q-168 0 -168 177v305h72v-294q0 -63 26 -91.5t82 -28.5q84 0 156 53v361h72v-470h-54l-8 50q-82 -62 -178 -62z" />
    <glyph glyph-name="udieresis" unicode="&#xfc;" 
d="M182 587q-28 0 -47 19t-19 47t19 47t47 19t47 -19t19 -47t-19 -47t-47 -19zM398 587q-28 0 -47 19t-19 47t19 47t47 19t47 -19t19 -47t-19 -47t-47 -19zM251 -12q-168 0 -168 177v305h72v-294q0 -63 26 -91.5t82 -28.5q84 0 156 53v361h72v-470h-54l-8 50
q-82 -62 -178 -62z" />
    <glyph glyph-name="yacute" unicode="&#xfd;" 
d="M254 554l-42 36l144 163l59 -52zM128 -222q-66 0 -117 31l26 61q41 -24 87 -24q43 0 68.5 21.5t47.5 77.5l18 45l-201 480h79l159 -387l154 387h74l-221 -555q-30 -76 -68.5 -106.5t-105.5 -30.5z" />
    <glyph glyph-name="thorn" unicode="&#xfe;" 
d="M81 -210v920h72v-283q78 55 163 55q94 0 150 -67t56 -180t-56 -180t-150 -67q-85 0 -163 55v-253h-72zM304 56q67 0 105.5 48t38.5 131t-38.5 131t-105.5 48q-80 0 -151 -53v-252q71 -53 151 -53z" />
    <glyph glyph-name="ydieresis" unicode="&#xff;" 
d="M181 587q-28 0 -47 19t-19 47t19 47t47 19t47 -19t19 -47t-19 -47t-47 -19zM397 587q-28 0 -47 19t-19 47t19 47t47 19t47 -19t19 -47t-19 -47t-47 -19zM128 -222q-66 0 -117 31l26 61q41 -24 87 -24q43 0 68.5 21.5t47.5 77.5l18 45l-201 480h79l159 -387l154 387h74
l-221 -555q-30 -76 -68.5 -106.5t-105.5 -30.5z" />
    <glyph glyph-name="Amacron" unicode="&#x100;" 
d="M155 770v66h270v-66h-270zM29 0l217 650h88l217 -650h-78l-59 180h-252l-59 -180h-74zM185 250h206l-103 314z" />
    <glyph glyph-name="amacron" unicode="&#x101;" 
d="M151 620v66h270v-66h-270zM246 -12q-86 0 -133 39t-47 110q0 137 176 137h180v20q0 65 -30.5 92.5t-103.5 27.5q-94 0 -170 -41l-23 63q86 46 196 46q106 0 154.5 -42.5t48.5 -134.5v-305h-54l-9 50q-81 -62 -185 -62zM256 56q94 0 166 54v100h-182q-100 0 -100 -73
q0 -81 116 -81z" />
    <glyph glyph-name="Abreve" unicode="&#x102;" 
d="M290 734q-70 0 -108 39t-47 99h60q4 -32 30 -51.5t65 -19.5t65 19.5t30 51.5h60q-9 -60 -47 -99t-108 -39zM29 0l217 650h88l217 -650h-78l-59 180h-252l-59 -180h-74zM185 250h206l-103 314z" />
    <glyph glyph-name="abreve" unicode="&#x103;" 
d="M286 574q-73 0 -107.5 40.5t-47.5 117.5h60q15 -91 95 -91t95 91h60q-13 -77 -47.5 -117.5t-107.5 -40.5zM246 -12q-86 0 -133 39t-47 110q0 137 176 137h180v20q0 65 -30.5 92.5t-103.5 27.5q-94 0 -170 -41l-23 63q86 46 196 46q106 0 154.5 -42.5t48.5 -134.5v-305
h-54l-9 50q-81 -62 -185 -62zM256 56q94 0 166 54v100h-182q-100 0 -100 -73q0 -81 116 -81z" />
    <glyph glyph-name="Aogonek" unicode="&#x104;" 
d="M482 -159q26 0 48 15l16 -59q-30 -19 -69 -19q-45 0 -72 24t-27 66q0 66 90 146l-54 166h-252l-59 -180h-74l217 650h88l217 -650h-37q-76 -69 -76 -116q0 -43 44 -43zM185 250h206l-103 314z" />
    <glyph glyph-name="aogonek" unicode="&#x105;" 
d="M473 0q-81 -58 -81 -116q0 -20 11 -31.5t30 -11.5q22 0 45 15l16 -60q-30 -18 -66 -18q-43 0 -69.5 24t-26.5 66q0 82 104 152l-5 30q-81 -62 -185 -62q-86 0 -133 39t-47 110q0 137 176 137h180v20q0 65 -30.5 92.5t-103.5 27.5q-94 0 -170 -41l-23 63q86 46 196 46
q106 0 154.5 -42.5t48.5 -134.5v-305h-21zM422 110v100h-182q-100 0 -100 -73q0 -81 116 -81q94 0 166 54z" />
    <glyph glyph-name="Cacute" unicode="&#x106;" 
d="M267 719l-33 45l156 129l47 -63zM332 -12q-129 0 -197 86.5t-68 250.5t68 250.5t197 86.5q99 0 176 -64l-40 -61q-61 54 -136 54q-189 0 -189 -266t189 -266q83 0 151 68l43 -58q-84 -81 -194 -81z" />
    <glyph glyph-name="cacute" unicode="&#x107;" 
d="M267 554l-42 36l144 163l59 -52zM328 -12q-116 0 -183 66t-67 181t67 181t183 66q93 0 172 -49l-28 -60q-67 41 -144 41q-84 0 -130 -46.5t-46 -132.5t46 -132.5t130 -46.5q81 0 157 49l30 -58q-84 -59 -187 -59z" />
    <glyph glyph-name="Ccircumflex" unicode="&#x108;" 
d="M175 719l-33 45l154 126h28l154 -126l-33 -45l-135 96zM332 -12q-129 0 -197 86.5t-68 250.5t68 250.5t197 86.5q99 0 176 -64l-40 -61q-61 54 -136 54q-189 0 -189 -266t189 -266q83 0 151 68l43 -58q-84 -81 -194 -81z" />
    <glyph glyph-name="ccircumflex" unicode="&#x109;" 
d="M175 554l-42 36l154 163h28l154 -163l-42 -36l-126 115zM328 -12q-116 0 -183 66t-67 181t67 181t183 66q93 0 172 -49l-28 -60q-67 41 -144 41q-84 0 -130 -46.5t-46 -132.5t46 -132.5t130 -46.5q81 0 157 49l30 -58q-84 -59 -187 -59z" />
    <glyph glyph-name="Cdotaccent" unicode="&#x10a;" 
d="M311 734q-29 0 -49 20t-20 49t20 49t49 20t49 -20t20 -49t-20 -49t-49 -20zM332 -12q-129 0 -197 86.5t-68 250.5t68 250.5t197 86.5q99 0 176 -64l-40 -61q-61 54 -136 54q-189 0 -189 -266t189 -266q83 0 151 68l43 -58q-84 -81 -194 -81z" />
    <glyph glyph-name="cdotaccent" unicode="&#x10b;" 
d="M302 584q-28 0 -48.5 20t-20.5 49t20.5 49t48.5 20t48.5 -20t20.5 -49t-20.5 -49t-48.5 -20zM328 -12q-116 0 -183 66t-67 181t67 181t183 66q93 0 172 -49l-28 -60q-67 41 -144 41q-84 0 -130 -46.5t-46 -132.5t46 -132.5t130 -46.5q81 0 157 49l30 -58
q-84 -59 -187 -59z" />
    <glyph glyph-name="Ccaron" unicode="&#x10c;" 
d="M296 719l-154 126l33 45l135 -96l135 96l33 -45l-154 -126h-28zM332 -12q-129 0 -197 86.5t-68 250.5t68 250.5t197 86.5q99 0 176 -64l-40 -61q-61 54 -136 54q-189 0 -189 -266t189 -266q83 0 151 68l43 -58q-84 -81 -194 -81z" />
    <glyph glyph-name="ccaron" unicode="&#x10d;" 
d="M287 554l-154 163l42 36l126 -115l126 115l42 -36l-154 -163h-28zM328 -12q-116 0 -183 66t-67 181t67 181t183 66q93 0 172 -49l-28 -60q-67 41 -144 41q-84 0 -130 -46.5t-46 -132.5t46 -132.5t130 -46.5q81 0 157 49l30 -58q-84 -59 -187 -59z" />
    <glyph glyph-name="Dcaron" unicode="&#x10e;" 
d="M245 719l-154 126l33 45l135 -96l135 96l33 -45l-154 -126h-28zM82 0v650h160q283 0 283 -325t-279 -325h-164zM156 70h80q110 0 161.5 61.5t51.5 193.5t-51.5 193.5t-161.5 61.5h-80v-510z" />
    <glyph glyph-name="dcaron" unicode="&#x10f;" 
d="M568 524l-42 28q46 50 46 116q0 23 -4 42l85 12q0 -58 -17 -105t-68 -93zM264 -12q-94 0 -150 67t-56 180t56 180t150 67q85 0 163 -55v283h72v-710h-54l-8 50q-82 -62 -173 -62zM276 56q80 0 151 53v252q-71 53 -151 53q-67 0 -105.5 -48t-38.5 -131t38.5 -131
t105.5 -48z" />
    <glyph glyph-name="Dcroat" unicode="&#x110;" 
d="M267 650q283 0 283 -325t-279 -325h-164v294h-93v62h93v294h160zM261 70q110 0 161.5 61.5t51.5 193.5t-51.5 193.5t-161.5 61.5h-80v-224h145v-62h-145v-224h80z" />
    <glyph glyph-name="dcroat" unicode="&#x111;" 
d="M264 -12q-93 0 -149.5 63.5t-56.5 163.5t56.5 163.5t149.5 63.5q85 0 163 -55v153h-165v62h165v108h72v-108h91v-62h-91v-540h-54l-8 50q-82 -62 -173 -62zM276 56q80 0 151 53v212q-71 53 -151 53q-66 0 -105 -44.5t-39 -114.5t39 -114.5t105 -44.5z" />
    <glyph glyph-name="Emacron" unicode="&#x112;" 
d="M174 770v66h270v-66h-270zM108 0v650h402v-70h-328v-214h280v-70h-280v-226h328v-70h-402z" />
    <glyph glyph-name="emacron" unicode="&#x113;" 
d="M162 620v66h270v-66h-270zM317 -12q-121 0 -190.5 66t-69.5 181q0 113 65.5 180t174.5 67q105 0 166 -62.5t61 -168.5q0 -27 -2 -41h-390q7 -74 55 -114t132 -40t159 49l31 -59q-87 -58 -192 -58zM134 274h317q-7 66 -47.5 103t-107.5 37t-109.5 -37t-52.5 -103z" />
    <glyph glyph-name="Ebreve" unicode="&#x114;" 
d="M309 734q-70 0 -108 39t-47 99h60q4 -32 30 -51.5t65 -19.5t65 19.5t30 51.5h60q-9 -60 -47 -99t-108 -39zM108 0v650h402v-70h-328v-214h280v-70h-280v-226h328v-70h-402z" />
    <glyph glyph-name="ebreve" unicode="&#x115;" 
d="M297 574q-73 0 -107.5 40.5t-47.5 117.5h60q15 -91 95 -91t95 91h60q-13 -77 -47.5 -117.5t-107.5 -40.5zM317 -12q-121 0 -190.5 66t-69.5 181q0 113 65.5 180t174.5 67q105 0 166 -62.5t61 -168.5q0 -27 -2 -41h-390q7 -74 55 -114t132 -40t159 49l31 -59
q-87 -58 -192 -58zM134 274h317q-7 66 -47.5 103t-107.5 37t-109.5 -37t-52.5 -103z" />
    <glyph glyph-name="Edotaccent" unicode="&#x116;" 
d="M309 734q-29 0 -49 20t-20 49t20 49t49 20t49 -20t20 -49t-20 -49t-49 -20zM108 0v650h402v-70h-328v-214h280v-70h-280v-226h328v-70h-402z" />
    <glyph glyph-name="edotaccent" unicode="&#x117;" 
d="M297 584q-29 0 -49 20t-20 49t20 49t49 20t49 -20t20 -49t-20 -49t-49 -20zM317 -12q-121 0 -190.5 66t-69.5 181q0 113 65.5 180t174.5 67q105 0 166 -62.5t61 -168.5q0 -27 -2 -41h-390q7 -74 55 -114t132 -40t159 49l31 -59q-87 -58 -192 -58zM134 274h317
q-7 66 -47.5 103t-107.5 37t-109.5 -37t-52.5 -103z" />
    <glyph glyph-name="Eogonek" unicode="&#x118;" 
d="M510 580h-328v-214h280v-70h-280v-226h328v-70h-32q-76 -69 -76 -116q0 -43 44 -43q26 0 48 15l16 -59q-30 -19 -69 -19q-45 0 -72 24t-27 66q0 61 75 132h-309v650h402v-70z" />
    <glyph glyph-name="eogonek" unicode="&#x119;" 
d="M524 251q0 -27 -2 -41h-390q7 -74 55 -114t132 -40t159 49l31 -59q-25 -15 -29 -17q-98 -78 -98 -145q0 -43 44 -43q26 0 48 15l16 -59q-30 -19 -69 -19q-45 0 -72 24t-27 66q0 62 60 126q-32 -6 -65 -6q-121 0 -190.5 66t-69.5 181q0 113 65.5 180t174.5 67
q105 0 166 -62.5t61 -168.5zM134 274h317q-7 66 -47.5 103t-107.5 37t-109.5 -37t-52.5 -103z" />
    <glyph glyph-name="Ecaron" unicode="&#x11a;" 
d="M294 719l-154 126l33 45l135 -96l135 96l33 -45l-154 -126h-28zM108 0v650h402v-70h-328v-214h280v-70h-280v-226h328v-70h-402z" />
    <glyph glyph-name="ecaron" unicode="&#x11b;" 
d="M282 554l-154 163l42 36l126 -115l126 115l42 -36l-154 -163h-28zM317 -12q-121 0 -190.5 66t-69.5 181q0 113 65.5 180t174.5 67q105 0 166 -62.5t61 -168.5q0 -27 -2 -41h-390q7 -74 55 -114t132 -40t159 49l31 -59q-87 -58 -192 -58zM134 274h317q-7 66 -47.5 103
t-107.5 37t-109.5 -37t-52.5 -103z" />
    <glyph glyph-name="Gcircumflex" unicode="&#x11c;" 
d="M154 719l-33 45l154 126h28l154 -126l-33 -45l-135 96zM305 -12q-118 0 -183.5 89t-65.5 248q0 164 68 250.5t197 86.5q99 0 176 -64l-40 -61q-61 54 -136 54q-189 0 -189 -266t184 -266q71 0 124 50v179h-133v70h207v-358h-47l-8 51q-66 -63 -154 -63z" />
    <glyph glyph-name="gcircumflex" unicode="&#x11d;" 
d="M151 554l-42 36l154 163h28l154 -163l-42 -36l-126 115zM275 -222q-104 0 -190 46l26 63q74 -41 162 -41q154 0 154 140v67q-78 -55 -163 -55q-94 0 -150 66.5t-56 175.5t56 175.5t150 66.5q91 0 173 -62l8 50h54v-493q0 -95 -57 -147t-167 -52zM276 66q80 0 151 53v242
q-71 53 -151 53q-67 0 -105.5 -47.5t-38.5 -126.5t38.5 -126.5t105.5 -47.5z" />
    <glyph glyph-name="Gbreve" unicode="&#x11e;" 
d="M290 734q-70 0 -108 39t-47 99h60q4 -32 30 -51.5t65 -19.5t65 19.5t30 51.5h60q-9 -60 -47 -99t-108 -39zM305 -12q-118 0 -183.5 89t-65.5 248q0 164 68 250.5t197 86.5q99 0 176 -64l-40 -61q-61 54 -136 54q-189 0 -189 -266t184 -266q71 0 124 50v179h-133v70h207
v-358h-47l-8 51q-66 -63 -154 -63z" />
    <glyph glyph-name="gbreve" unicode="&#x11f;" 
d="M278 574q-73 0 -107.5 40.5t-47.5 117.5h60q15 -91 95 -91t95 91h60q-13 -77 -47.5 -117.5t-107.5 -40.5zM275 -222q-104 0 -190 46l26 63q74 -41 162 -41q154 0 154 140v67q-78 -55 -163 -55q-94 0 -150 66.5t-56 175.5t56 175.5t150 66.5q91 0 173 -62l8 50h54v-493
q0 -95 -57 -147t-167 -52zM276 66q80 0 151 53v242q-71 53 -151 53q-67 0 -105.5 -47.5t-38.5 -126.5t38.5 -126.5t105.5 -47.5z" />
    <glyph glyph-name="Gdotaccent" unicode="&#x120;" 
d="M290 734q-28 0 -48.5 20t-20.5 49t20.5 49t48.5 20t48.5 -20t20.5 -49t-20.5 -49t-48.5 -20zM305 -12q-118 0 -183.5 89t-65.5 248q0 164 68 250.5t197 86.5q99 0 176 -64l-40 -61q-61 54 -136 54q-189 0 -189 -266t184 -266q71 0 124 50v179h-133v70h207v-358h-47l-8 51
q-66 -63 -154 -63z" />
    <glyph glyph-name="gdotaccent" unicode="&#x121;" 
d="M278 584q-28 0 -48.5 20t-20.5 49t20.5 49t48.5 20t48.5 -20t20.5 -49t-20.5 -49t-48.5 -20zM275 -222q-104 0 -190 46l26 63q74 -41 162 -41q154 0 154 140v67q-78 -55 -163 -55q-94 0 -150 66.5t-56 175.5t56 175.5t150 66.5q91 0 173 -62l8 50h54v-493q0 -95 -57 -147
t-167 -52zM276 66q80 0 151 53v242q-71 53 -151 53q-67 0 -105.5 -47.5t-38.5 -126.5t38.5 -126.5t105.5 -47.5z" />
    <glyph glyph-name="Gcommaaccent" unicode="&#x122;" 
d="M305 -12q-118 0 -183.5 89t-65.5 248q0 164 68 250.5t197 86.5q99 0 176 -64l-40 -61q-61 54 -136 54q-189 0 -189 -266t184 -266q71 0 124 50v179h-133v70h207v-358h-47l-8 51q-66 -63 -154 -63zM228 -293l-2 39q44 1 64.5 14t26.5 41q-11 -4 -23 -4q-26 0 -40.5 15
t-14.5 38q0 24 18.5 40t46.5 16q29 0 49 -19t20 -56q0 -49 -35.5 -86t-109.5 -38z" />
    <glyph glyph-name="gcommaaccent" unicode="&#x123;" 
d="M283 663q26 0 40.5 -15t14.5 -38q0 -24 -18.5 -40t-46.5 -16q-29 0 -49 19t-20 56q0 49 35.5 86t109.5 38l2 -39q-44 -1 -64.5 -14t-26.5 -41q11 4 23 4zM275 -222q-104 0 -190 46l26 63q74 -41 162 -41q154 0 154 140v67q-78 -55 -163 -55q-94 0 -150 66.5t-56 175.5
t56 175.5t150 66.5q91 0 173 -62l8 50h54v-493q0 -95 -57 -147t-167 -52zM276 66q80 0 151 53v242q-71 53 -151 53q-67 0 -105.5 -47.5t-38.5 -126.5t38.5 -126.5t105.5 -47.5z" />
    <glyph glyph-name="Hcircumflex" unicode="&#x124;" 
d="M154 719l-33 45l154 126h28l154 -126l-33 -45l-135 96zM75 0v650h74v-284h282v284h74v-650h-74v296h-282v-296h-74z" />
    <glyph glyph-name="hcircumflex" unicode="&#x125;" 
d="M-11 749l-33 45l154 126h28l154 -126l-33 -45l-135 96zM89 0v710h72v-283q76 55 168 55q168 0 168 -177v-305h-72v294q0 63 -26 91.5t-82 28.5q-84 0 -156 -53v-361h-72z" />
    <glyph glyph-name="Hbar" unicode="&#x126;" 
d="M75 0v461h-45v64h45v125h74v-125h282v125h74v-125h45v-64h-45v-461h-74v266h-282v-266h-74zM149 336h282v125h-282v-125z" />
    <glyph glyph-name="hbar" unicode="&#x127;" 
d="M89 0v540h-99v62h99v108h72v-108h157v-62h-157v-153q76 55 168 55q168 0 168 -177v-265h-72v254q0 63 -26 91.5t-82 28.5q-84 0 -156 -53v-321h-72z" />
    <glyph glyph-name="Itilde" unicode="&#x128;" 
d="M179 737l-55 10q27 117 105 117q38 0 81 -32q29 -21 44 -21q33 0 47 61l54 -10q-25 -117 -104 -117q-36 0 -81 32q-29 21 -44 21q-33 0 -47 -61zM82 0v70h171v510h-171v70h416v-70h-171v-510h171v-70h-416z" />
    <glyph glyph-name="itilde" unicode="&#x129;" 
d="M168 576l-54 10q25 132 105 132q39 0 81 -40q28 -26 44 -26q34 0 48 76l54 -10q-25 -132 -105 -132q-39 0 -81 40q-28 26 -44 26q-34 0 -48 -76zM254 0v404h-200v66h272v-404h200v-66h-272z" />
    <glyph glyph-name="Imacron" unicode="&#x12a;" 
d="M155 770v66h270v-66h-270zM82 0v70h171v510h-171v70h416v-70h-171v-510h171v-70h-416z" />
    <glyph glyph-name="imacron" unicode="&#x12b;" 
d="M145 620v66h270v-66h-270zM254 0v404h-200v66h272v-404h200v-66h-272z" />
    <glyph glyph-name="Ibreve" unicode="&#x12c;" 
d="M290 734q-70 0 -108 39t-47 99h60q4 -32 30 -51.5t65 -19.5t65 19.5t30 51.5h60q-9 -60 -47 -99t-108 -39zM82 0v70h171v510h-171v70h416v-70h-171v-510h171v-70h-416z" />
    <glyph glyph-name="ibreve" unicode="&#x12d;" 
d="M280 574q-73 0 -107.5 40.5t-47.5 117.5h60q15 -91 95 -91t95 91h60q-13 -77 -47.5 -117.5t-107.5 -40.5zM254 0v404h-200v66h272v-404h200v-66h-272z" />
    <glyph glyph-name="Iogonek" unicode="&#x12e;" 
d="M498 580h-171v-510h171v-70h-183q-38 -58 -38 -110q0 -49 44 -49q25 0 48 15l16 -59q-30 -19 -69 -19q-45 0 -72 26.5t-27 72.5q0 58 45 123h-180v70h171v510h-171v70h416v-70z" />
    <glyph glyph-name="iogonek" unicode="&#x12f;" 
d="M280 584q-28 0 -48.5 20t-20.5 49t20.5 49t48.5 20t48.5 -20t20.5 -49t-20.5 -49t-48.5 -20zM526 0h-199q-38 -58 -38 -110q0 -49 44 -49q25 0 48 15l16 -59q-30 -19 -69 -19q-45 0 -72 26.5t-27 72.5q0 58 45 123h-20v404h-200v66h272v-404h200v-66z" />
    <glyph glyph-name="Idotaccent" unicode="&#x130;" 
d="M290 734q-28 0 -48.5 20t-20.5 49t20.5 49t48.5 20t48.5 -20t20.5 -49t-20.5 -49t-48.5 -20zM82 0v70h171v510h-171v70h416v-70h-171v-510h171v-70h-416z" />
    <glyph glyph-name="dotlessi" unicode="&#x131;" 
d="M254 0v404h-200v66h272v-404h200v-66h-272z" />
    <glyph glyph-name="Jcircumflex" unicode="&#x134;" 
d="M190 719l-33 45l154 126h28l154 -126l-33 -45l-135 96zM266 -12q-116 0 -201 79l43 58q67 -66 155 -66q67 0 104 36.5t37 104.5v380h-229v70h303v-457q0 -98 -55 -151.5t-157 -53.5z" />
    <glyph glyph-name="jcircumflex" unicode="&#x135;" 
d="M232 554l-42 36l154 163h28l154 -163l-42 -36l-126 115zM219 -222q-93 0 -170 45l25 63q65 -40 139 -40q58 0 89 31.5t31 90.5v436h-199v66h271v-513q0 -86 -48.5 -132.5t-137.5 -46.5z" />
    <glyph glyph-name="Kcommaaccent" unicode="&#x136;" 
d="M81 0v650h74v-336l294 336h93l-228 -257l233 -393h-86l-198 334l-108 -121v-213h-74zM233 -293l-2 39q44 1 64.5 14t26.5 41q-11 -4 -23 -4q-26 0 -40.5 15t-14.5 38q0 24 18.5 40t46.5 16q29 0 49 -19t20 -56q0 -49 -35.5 -86t-109.5 -38z" />
    <glyph glyph-name="kcommaaccent" unicode="&#x137;" 
d="M97 0v710h72v-480l268 240h98l-206 -183l211 -287h-90l-176 239l-105 -94v-145h-72zM236 -293l-2 39q44 1 64.5 14t26.5 41q-11 -4 -23 -4q-26 0 -40.5 15t-14.5 38q0 24 18.5 40t46.5 16q29 0 49 -19t20 -56q0 -49 -35.5 -86t-109.5 -38z" />
    <glyph glyph-name="kgreenlandic" unicode="&#x138;" 
d="M97 0v470h72v-240l268 240h98l-206 -183l211 -287h-90l-176 239l-105 -94v-145h-72z" />
    <glyph glyph-name="Lacute" unicode="&#x139;" 
d="M105 719l-33 45l156 129l47 -63zM112 0v650h74v-580h328v-70h-402z" />
    <glyph glyph-name="lacute" unicode="&#x13a;" 
d="M223 749l-33 45l156 129l47 -63zM406 -12q-175 0 -175 177v479h-200v66h272v-534q0 -63 26 -91.5t82 -28.5q62 0 118 30l20 -64q-65 -34 -143 -34z" />
    <glyph glyph-name="Lcommaaccent" unicode="&#x13b;" 
d="M112 0v650h74v-580h328v-70h-402zM241 -293l-2 39q44 1 64.5 14t26.5 41q-11 -4 -23 -4q-26 0 -40.5 15t-14.5 38q0 24 18.5 40t46.5 16q29 0 49 -19t20 -56q0 -49 -35.5 -86t-109.5 -38z" />
    <glyph glyph-name="lcommaaccent" unicode="&#x13c;" 
d="M406 -12q-175 0 -175 177v479h-200v66h272v-534q0 -63 26 -91.5t82 -28.5q62 0 118 30l20 -64q-65 -34 -143 -34zM228 -293l-2 39q44 1 64.5 14t26.5 41q-11 -4 -23 -4q-26 0 -40.5 15t-14.5 38q0 24 18.5 40t46.5 16q29 0 49 -19t20 -56q0 -49 -35.5 -86t-109.5 -38z
" />
    <glyph glyph-name="Lcaron" unicode="&#x13d;" 
d="M284 464l-42 28q46 50 46 116q0 23 -4 42l85 12q0 -58 -17 -105t-68 -93zM112 0v650h74v-580h328v-70h-402z" />
    <glyph glyph-name="lcaron" unicode="&#x13e;" 
d="M391 524l-42 28q46 50 46 116q0 23 -4 42l85 12q0 -58 -17 -105t-68 -93zM406 -12q-175 0 -175 177v479h-200v66h272v-534q0 -63 26 -91.5t82 -28.5q62 0 118 30l20 -64q-65 -34 -143 -34z" />
    <glyph glyph-name="Ldot" unicode="&#x13f;" 
d="M112 0v650h74v-580h328v-70h-402zM434 285q-31 0 -53 22t-22 53q0 30 22 52.5t53 22.5t53 -22.5t22 -52.5q0 -31 -22 -53t-53 -22z" />
    <glyph glyph-name="ldot" unicode="&#x140;" 
d="M406 -12q-175 0 -175 177v479h-200v66h272v-534q0 -63 26 -91.5t82 -28.5q62 0 118 30l20 -64q-65 -34 -143 -34zM557 275q-31 0 -53 22t-22 53q0 30 22 52.5t53 22.5t53 -22.5t22 -52.5q0 -31 -22 -53t-53 -22z" />
    <glyph glyph-name="Lslash" unicode="&#x141;" 
d="M205 70h328v-70h-402v214l-50 -29l-35 62l85 49v354h74v-311l187 108l35 -62l-222 -128v-187z" />
    <glyph glyph-name="lslash" unicode="&#x142;" 
d="M529 86l20 -64q-65 -34 -143 -34q-175 0 -175 177v121l-149 -105l-40 59l189 133v271h-200v66h272v-287l153 108l40 -59l-193 -136v-160q0 -63 26 -91.5t82 -28.5q62 0 118 30z" />
    <glyph glyph-name="Nacute" unicode="&#x143;" 
d="M246 719l-33 45l156 129l47 -63zM75 0v650h94l266 -514v514h70v-650h-76l-284 549v-549h-70z" />
    <glyph glyph-name="nacute" unicode="&#x144;" 
d="M265 554l-42 36l144 163l59 -52zM89 0v470h54l8 -50q82 62 178 62q168 0 168 -177v-305h-72v294q0 63 -26 91.5t-82 28.5q-84 0 -156 -53v-361h-72z" />
    <glyph glyph-name="Ncommaaccent" unicode="&#x145;" 
d="M75 0v650h94l266 -514v514h70v-650h-76l-284 549v-549h-70zM218 -293l-2 39q44 1 64.5 14t26.5 41q-11 -4 -23 -4q-26 0 -40.5 15t-14.5 38q0 24 18.5 40t46.5 16q29 0 49 -19t20 -56q0 -49 -35.5 -86t-109.5 -38z" />
    <glyph glyph-name="ncommaaccent" unicode="&#x146;" 
d="M89 0v470h54l8 -50q82 62 178 62q168 0 168 -177v-305h-72v294q0 63 -26 91.5t-82 28.5q-84 0 -156 -53v-361h-72zM228 -293l-2 39q44 1 64.5 14t26.5 41q-11 -4 -23 -4q-26 0 -40.5 15t-14.5 38q0 24 18.5 40t46.5 16q29 0 49 -19t20 -56q0 -49 -35.5 -86t-109.5 -38z
" />
    <glyph glyph-name="Ncaron" unicode="&#x147;" 
d="M275 719l-154 126l33 45l135 -96l135 96l33 -45l-154 -126h-28zM75 0v650h94l266 -514v514h70v-650h-76l-284 549v-549h-70z" />
    <glyph glyph-name="ncaron" unicode="&#x148;" 
d="M285 554l-154 163l42 36l126 -115l126 115l42 -36l-154 -163h-28zM89 0v470h54l8 -50q82 62 178 62q168 0 168 -177v-305h-72v294q0 63 -26 91.5t-82 28.5q-84 0 -156 -53v-361h-72z" />
    <glyph glyph-name="napostrophe" unicode="&#x149;" 
d="M-17 523l-2 39q44 1 64.5 14t26.5 41q-11 -4 -23 -4q-26 0 -40.5 15t-14.5 38q0 24 18.5 40t46.5 16q29 0 49 -19t20 -56q0 -49 -35.5 -86t-109.5 -38zM89 0v470h54l8 -50q82 62 178 62q168 0 168 -177v-305h-72v294q0 63 -26 91.5t-82 28.5q-84 0 -156 -53v-361h-72z
" />
    <glyph glyph-name="Eng" unicode="&#x14a;" 
d="M342 -222q-60 0 -109 31l26 66q38 -26 82 -26q48 0 69 30.5t21 102.5v14l-286 553v-549h-70v650h94l266 -514v514h70v-683q0 -93 -41.5 -141t-121.5 -48z" />
    <glyph glyph-name="eng" unicode="&#x14b;" 
d="M339 -222q-54 0 -97 25l24 64q31 -20 72 -20q47 0 67 29.5t20 99.5v318q0 63 -26 91.5t-82 28.5q-84 0 -156 -53v-361h-72v470h54l8 -50q82 62 178 62q168 0 168 -177v-344q0 -90 -40.5 -136.5t-117.5 -46.5z" />
    <glyph glyph-name="Omacron" unicode="&#x14c;" 
d="M155 770v66h270v-66h-270zM290 -12q-120 0 -181.5 85.5t-61.5 251.5t61.5 251.5t181.5 85.5t181.5 -85.5t61.5 -251.5t-61.5 -251.5t-181.5 -85.5zM290 59q167 0 167 266t-167 266t-167 -266t167 -266z" />
    <glyph glyph-name="omacron" unicode="&#x14d;" 
d="M155 620v66h270v-66h-270zM290 -12q-107 0 -172.5 68t-65.5 179t65.5 179t172.5 68t172.5 -68t65.5 -179t-65.5 -179t-172.5 -68zM290 56q76 0 120 48t44 131t-44 131t-120 48t-120 -48t-44 -131t44 -131t120 -48z" />
    <glyph glyph-name="Obreve" unicode="&#x14e;" 
d="M290 734q-70 0 -108 39t-47 99h60q4 -32 30 -51.5t65 -19.5t65 19.5t30 51.5h60q-9 -60 -47 -99t-108 -39zM290 -12q-120 0 -181.5 85.5t-61.5 251.5t61.5 251.5t181.5 85.5t181.5 -85.5t61.5 -251.5t-61.5 -251.5t-181.5 -85.5zM290 59q167 0 167 266t-167 266
t-167 -266t167 -266z" />
    <glyph glyph-name="obreve" unicode="&#x14f;" 
d="M290 574q-73 0 -107.5 40.5t-47.5 117.5h60q15 -91 95 -91t95 91h60q-13 -77 -47.5 -117.5t-107.5 -40.5zM290 -12q-107 0 -172.5 68t-65.5 179t65.5 179t172.5 68t172.5 -68t65.5 -179t-65.5 -179t-172.5 -68zM290 56q76 0 120 48t44 131t-44 131t-120 48t-120 -48
t-44 -131t44 -131t120 -48z" />
    <glyph glyph-name="Ohungarumlaut" unicode="&#x150;" 
d="M155 720l-37 41l123 125l52 -58zM373 720l-37 41l123 125l52 -58zM290 -12q-120 0 -181.5 85.5t-61.5 251.5t61.5 251.5t181.5 85.5t181.5 -85.5t61.5 -251.5t-61.5 -251.5t-181.5 -85.5zM290 59q167 0 167 266t-167 266t-167 -266t167 -266z" />
    <glyph glyph-name="ohungarumlaut" unicode="&#x151;" 
d="M151 554l-42 36l144 163l59 -52zM359 554l-42 36l144 163l59 -52zM290 -12q-107 0 -172.5 68t-65.5 179t65.5 179t172.5 68t172.5 -68t65.5 -179t-65.5 -179t-172.5 -68zM290 56q76 0 120 48t44 131t-44 131t-120 48t-120 -48t-44 -131t44 -131t120 -48z" />
    <glyph glyph-name="OE" unicode="&#x152;" 
d="M256 0q-111 0 -168 82t-57 243t58.5 243t170.5 82h300v-69h-200v-216h171v-68h-171v-228h200v-69h-304zM266 69h22v512h-22q-78 0 -119 -59t-41 -197t41 -197t119 -59z" />
    <glyph glyph-name="oe" unicode="&#x153;" 
d="M167 -12q-157 0 -157 247t157 247q84 0 120 -79h2q39 79 124 79q78 0 118.5 -59.5t40.5 -171.5q0 -19 -2 -40h-247q4 -82 31.5 -119.5t85.5 -37.5q56 0 104 34l29 -59q-59 -41 -138 -41q-104 0 -145 80h-2q-36 -80 -121 -80zM167 54q45 0 65.5 43t20.5 138t-20.5 138
t-65.5 43t-65.5 -43t-20.5 -138t20.5 -138t65.5 -43zM324 273h179q-6 143 -89 143q-81 0 -90 -143z" />
    <glyph glyph-name="Racute" unicode="&#x154;" 
d="M232 719l-33 45l156 129l47 -63zM87 0v650h231q196 0 196 -181q0 -159 -154 -179l173 -290h-86l-170 288h-116v-288h-74zM161 358h148q69 0 99 26t30 85t-30 85t-99 26h-148v-222z" />
    <glyph glyph-name="racute" unicode="&#x155;" 
d="M257 554l-42 36l144 163l59 -52zM124 0v470h58l10 -82q82 94 201 94q66 0 106 -28l-27 -65q-37 24 -85 24q-113 0 -191 -107v-306h-72z" />
    <glyph glyph-name="Rcommaaccent" unicode="&#x156;" 
d="M87 0v650h231q196 0 196 -181q0 -159 -154 -179l173 -290h-86l-170 288h-116v-288h-74zM161 358h148q69 0 99 26t30 85t-30 85t-99 26h-148v-222zM229 -293l-2 39q44 1 64.5 14t26.5 41q-11 -4 -23 -4q-26 0 -40.5 15t-14.5 38q0 24 18.5 40t46.5 16q29 0 49 -19t20 -56
q0 -49 -35.5 -86t-109.5 -38z" />
    <glyph glyph-name="rcommaaccent" unicode="&#x157;" 
d="M124 0v470h58l10 -82q82 94 201 94q66 0 106 -28l-27 -65q-37 24 -85 24q-113 0 -191 -107v-306h-72zM88 -293l-2 39q44 1 64.5 14t26.5 41q-11 -4 -23 -4q-26 0 -40.5 15t-14.5 38q0 24 18.5 40t46.5 16q29 0 49 -19t20 -56q0 -49 -35.5 -86t-109.5 -38z" />
    <glyph glyph-name="Rcaron" unicode="&#x158;" 
d="M261 719l-154 126l33 45l135 -96l135 96l33 -45l-154 -126h-28zM87 0v650h231q196 0 196 -181q0 -159 -154 -179l173 -290h-86l-170 288h-116v-288h-74zM161 358h148q69 0 99 26t30 85t-30 85t-99 26h-148v-222z" />
    <glyph glyph-name="rcaron" unicode="&#x159;" 
d="M277 554l-154 163l42 36l126 -115l126 115l42 -36l-154 -163h-28zM124 0v470h58l10 -82q82 94 201 94q66 0 106 -28l-27 -65q-37 24 -85 24q-113 0 -191 -107v-306h-72z" />
    <glyph glyph-name="Sacute" unicode="&#x15a;" 
d="M241 719l-33 45l156 129l47 -63zM281 -12q-137 0 -226 84l41 59q75 -72 187 -72q74 0 113 31.5t39 91.5q0 45 -22.5 69.5t-74.5 36.5l-105 24q-151 34 -151 167q0 85 58.5 134t159.5 49q115 0 201 -68l-38 -60q-72 57 -165 57q-67 0 -104 -28.5t-37 -80.5q0 -41 23 -64
t74 -35l105 -24q77 -17 114 -59t37 -115q0 -93 -60 -145t-169 -52z" />
    <glyph glyph-name="sacute" unicode="&#x15b;" 
d="M250 554l-42 36l144 163l59 -52zM289 -12q-123 0 -220 58l29 61q88 -51 194 -51q135 0 135 78q0 29 -18 42.5t-63 19.5l-114 16q-74 11 -107 39.5t-33 84.5q0 70 51.5 108t144.5 38q105 0 198 -48l-26 -62q-79 42 -174 42q-121 0 -121 -73q0 -28 18 -41t63 -19l114 -16
q74 -11 107 -40t33 -86q0 -73 -54.5 -112t-156.5 -39z" />
    <glyph glyph-name="Scircumflex" unicode="&#x15c;" 
d="M149 719l-33 45l154 126h28l154 -126l-33 -45l-135 96zM281 -12q-137 0 -226 84l41 59q75 -72 187 -72q74 0 113 31.5t39 91.5q0 45 -22.5 69.5t-74.5 36.5l-105 24q-151 34 -151 167q0 85 58.5 134t159.5 49q115 0 201 -68l-38 -60q-72 57 -165 57q-67 0 -104 -28.5
t-37 -80.5q0 -41 23 -64t74 -35l105 -24q77 -17 114 -59t37 -115q0 -93 -60 -145t-169 -52z" />
    <glyph glyph-name="scircumflex" unicode="&#x15d;" 
d="M158 554l-42 36l154 163h28l154 -163l-42 -36l-126 115zM289 -12q-123 0 -220 58l29 61q88 -51 194 -51q135 0 135 78q0 29 -18 42.5t-63 19.5l-114 16q-74 11 -107 39.5t-33 84.5q0 70 51.5 108t144.5 38q105 0 198 -48l-26 -62q-79 42 -174 42q-121 0 -121 -73
q0 -28 18 -41t63 -19l114 -16q74 -11 107 -40t33 -86q0 -73 -54.5 -112t-156.5 -39z" />
    <glyph glyph-name="Scedilla" unicode="&#x15e;" 
d="M510 185q0 -86 -51 -137t-145 -59l-21 -59h8q93 0 93 -69q0 -83 -118 -83q-53 0 -102 21l14 50q41 -19 89 -19q55 0 55 33q0 14 -11 20t-38 6h-53l35 99q-128 5 -210 84l41 59q75 -72 187 -72q74 0 113 31.5t39 91.5q0 45 -22.5 69.5t-74.5 36.5l-105 24
q-151 34 -151 167q0 85 58.5 134t159.5 49q115 0 201 -68l-38 -60q-72 57 -165 57q-67 0 -104 -28.5t-37 -80.5q0 -41 23 -64t74 -35l105 -24q77 -17 114 -59t37 -115z" />
    <glyph glyph-name="scedilla" unicode="&#x15f;" 
d="M500 139q0 -68 -47.5 -107t-137.5 -43l-21 -59h8q93 0 93 -69q0 -83 -118 -83q-53 0 -102 21l14 50q41 -19 89 -19q55 0 55 33q0 14 -11 20t-38 6h-53l35 100q-109 5 -197 57l29 61q88 -51 194 -51q135 0 135 78q0 29 -18 42.5t-63 19.5l-114 16q-74 11 -107 39.5
t-33 84.5q0 70 51.5 108t144.5 38q105 0 198 -48l-26 -62q-79 42 -174 42q-121 0 -121 -73q0 -28 18 -41t63 -19l114 -16q74 -11 107 -40t33 -86z" />
    <glyph glyph-name="Scaron" unicode="&#x160;" 
d="M270 719l-154 126l33 45l135 -96l135 96l33 -45l-154 -126h-28zM281 -12q-137 0 -226 84l41 59q75 -72 187 -72q74 0 113 31.5t39 91.5q0 45 -22.5 69.5t-74.5 36.5l-105 24q-151 34 -151 167q0 85 58.5 134t159.5 49q115 0 201 -68l-38 -60q-72 57 -165 57
q-67 0 -104 -28.5t-37 -80.5q0 -41 23 -64t74 -35l105 -24q77 -17 114 -59t37 -115q0 -93 -60 -145t-169 -52z" />
    <glyph glyph-name="scaron" unicode="&#x161;" 
d="M270 554l-154 163l42 36l126 -115l126 115l42 -36l-154 -163h-28zM289 -12q-123 0 -220 58l29 61q88 -51 194 -51q135 0 135 78q0 29 -18 42.5t-63 19.5l-114 16q-74 11 -107 39.5t-33 84.5q0 70 51.5 108t144.5 38q105 0 198 -48l-26 -62q-79 42 -174 42
q-121 0 -121 -73q0 -28 18 -41t63 -19l114 -16q74 -11 107 -40t33 -86q0 -73 -54.5 -112t-156.5 -39z" />
    <glyph glyph-name="uni0162" unicode="&#x162;" 
d="M327 0h-8l-25 -70h8q93 0 93 -69q0 -83 -118 -83q-53 0 -102 21l14 50q41 -19 89 -19q55 0 55 33q0 14 -11 20t-38 6h-53l39 111h-17v580h-216v70h506v-70h-216v-580z" />
    <glyph glyph-name="uni0163" unicode="&#x163;" 
d="M342 -70q93 0 93 -69q0 -83 -118 -83q-53 0 -102 21l14 50q41 -19 89 -19q55 0 55 33q0 14 -11 20t-38 6h-53l38 109q-102 30 -102 167v239h-155v66h155v152l72 40v-192h200v-66h-200v-228q0 -63 26 -91.5t82 -28.5q62 0 118 30l20 -64q-65 -34 -143 -34q-18 0 -27 1
l-21 -59h8z" />
    <glyph glyph-name="Tcaron" unicode="&#x164;" 
d="M275 719l-154 126l33 45l135 -96l135 96l33 -45l-154 -126h-28zM253 0v580h-216v70h506v-70h-216v-580h-74z" />
    <glyph glyph-name="tcaron" unicode="&#x165;" 
d="M367 524l-42 28q46 50 46 116q0 23 -4 42l85 12q0 -58 -17 -105t-68 -93zM382 -12q-175 0 -175 177v239h-155v66h155v152l72 40v-192h200v-66h-200v-228q0 -63 26 -91.5t82 -28.5q62 0 118 30l20 -64q-65 -34 -143 -34z" />
    <glyph glyph-name="Tbar" unicode="&#x166;" 
d="M543 580h-216v-222h155v-62h-155v-296h-74v296h-157v62h157v222h-216v70h506v-70z" />
    <glyph glyph-name="tbar" unicode="&#x167;" 
d="M505 86l20 -64q-65 -34 -143 -34q-175 0 -175 177v49h-138v62h138v128h-155v66h155v152l72 40v-192h200v-66h-200v-128h176v-62h-176v-38q0 -63 26 -91.5t82 -28.5q62 0 118 30z" />
    <glyph glyph-name="Utilde" unicode="&#x168;" 
d="M179 737l-55 10q27 117 105 117q38 0 81 -32q29 -21 44 -21q33 0 47 61l54 -10q-25 -117 -104 -117q-36 0 -81 32q-29 21 -44 21q-33 0 -47 -61zM290 -12q-103 0 -159 55.5t-56 157.5v449h74v-439q0 -152 142 -152t142 152v439h72v-449q0 -102 -56 -157.5t-159 -55.5z
" />
    <glyph glyph-name="utilde" unicode="&#x169;" 
d="M178 576l-54 10q25 132 105 132q39 0 81 -40q28 -26 44 -26q34 0 48 76l54 -10q-25 -132 -105 -132q-39 0 -81 40q-28 26 -44 26q-34 0 -48 -76zM251 -12q-168 0 -168 177v305h72v-294q0 -63 26 -91.5t82 -28.5q84 0 156 53v361h72v-470h-54l-8 50q-82 -62 -178 -62z" />
    <glyph glyph-name="Umacron" unicode="&#x16a;" 
d="M155 770v66h270v-66h-270zM290 -12q-103 0 -159 55.5t-56 157.5v449h74v-439q0 -152 142 -152t142 152v439h72v-449q0 -102 -56 -157.5t-159 -55.5z" />
    <glyph glyph-name="umacron" unicode="&#x16b;" 
d="M155 620v66h270v-66h-270zM251 -12q-168 0 -168 177v305h72v-294q0 -63 26 -91.5t82 -28.5q84 0 156 53v361h72v-470h-54l-8 50q-82 -62 -178 -62z" />
    <glyph glyph-name="Ubreve" unicode="&#x16c;" 
d="M290 734q-70 0 -108 39t-47 99h60q4 -32 30 -51.5t65 -19.5t65 19.5t30 51.5h60q-9 -60 -47 -99t-108 -39zM290 -12q-103 0 -159 55.5t-56 157.5v449h74v-439q0 -152 142 -152t142 152v439h72v-449q0 -102 -56 -157.5t-159 -55.5z" />
    <glyph glyph-name="ubreve" unicode="&#x16d;" 
d="M290 574q-73 0 -107.5 40.5t-47.5 117.5h60q15 -91 95 -91t95 91h60q-13 -77 -47.5 -117.5t-107.5 -40.5zM251 -12q-168 0 -168 177v305h72v-294q0 -63 26 -91.5t82 -28.5q84 0 156 53v361h72v-470h-54l-8 50q-82 -62 -178 -62z" />
    <glyph glyph-name="Uring" unicode="&#x16e;" 
d="M290 690q-47 0 -79.5 32.5t-32.5 80.5t32.5 80.5t79.5 32.5t79.5 -32.5t32.5 -80.5t-32.5 -80.5t-79.5 -32.5zM290 747q23 0 37 15.5t14 40.5t-14 40.5t-37 15.5t-37 -15.5t-14 -40.5t14 -40.5t37 -15.5zM290 -12q-103 0 -159 55.5t-56 157.5v449h74v-439
q0 -152 142 -152t142 152v439h72v-449q0 -102 -56 -157.5t-159 -55.5z" />
    <glyph glyph-name="uring" unicode="&#x16f;" 
d="M290 540q-47 0 -79.5 32.5t-32.5 80.5t32.5 80.5t79.5 32.5t79.5 -32.5t32.5 -80.5t-32.5 -80.5t-79.5 -32.5zM290 597q23 0 37 15.5t14 40.5t-14 40.5t-37 15.5t-37 -15.5t-14 -40.5t14 -40.5t37 -15.5zM251 -12q-168 0 -168 177v305h72v-294q0 -63 26 -91.5t82 -28.5
q84 0 156 53v361h72v-470h-54l-8 50q-82 -62 -178 -62z" />
    <glyph glyph-name="Uhungarumlaut" unicode="&#x170;" 
d="M155 720l-37 41l123 125l52 -58zM373 720l-37 41l123 125l52 -58zM290 -12q-103 0 -159 55.5t-56 157.5v449h74v-439q0 -152 142 -152t142 152v439h72v-449q0 -102 -56 -157.5t-159 -55.5z" />
    <glyph glyph-name="uhungarumlaut" unicode="&#x171;" 
d="M151 554l-42 36l144 163l59 -52zM359 554l-42 36l144 163l59 -52zM251 -12q-168 0 -168 177v305h72v-294q0 -63 26 -91.5t82 -28.5q84 0 156 53v361h72v-470h-54l-8 50q-82 -62 -178 -62z" />
    <glyph glyph-name="Uogonek" unicode="&#x172;" 
d="M433 650h72v-449q0 -149 -113 -195q-93 -56 -93 -122q0 -43 44 -43q25 0 48 15l16 -59q-30 -19 -69 -19q-45 0 -72 24t-27 66q0 63 66 120h-15q-103 0 -159 55.5t-56 157.5v449h74v-439q0 -152 142 -152t142 152v439z" />
    <glyph glyph-name="uogonek" unicode="&#x173;" 
d="M470 0q-81 -58 -81 -116q0 -20 11.5 -31.5t29.5 -11.5q22 0 45 15l16 -60q-30 -18 -66 -18q-43 0 -69.5 24t-26.5 66q0 82 105 152l-5 30q-82 -62 -178 -62q-168 0 -168 177v305h72v-294q0 -63 26 -91.5t82 -28.5q84 0 156 53v361h72v-470h-21z" />
    <glyph glyph-name="Wcircumflex" unicode="&#x174;" 
d="M154 719l-33 45l154 126h28l154 -126l-33 -45l-135 96zM112 0l-103 650h73l82 -532l90 463h76l90 -463l82 532h69l-103 -650h-86l-91 469l-91 -469h-88z" />
    <glyph glyph-name="wcircumflex" unicode="&#x175;" 
d="M163 554l-42 36l154 163h28l154 -163l-42 -36l-126 115zM124 0l-109 470h71l86 -382l85 333h70l85 -333l86 382h67l-109 -470h-82l-83 329l-84 -329h-83z" />
    <glyph glyph-name="Ycircumflex" unicode="&#x176;" 
d="M154 719l-33 45l154 126h28l154 -126l-33 -45l-135 96zM253 0v280l-219 370h87l171 -297l173 297h81l-219 -370v-280h-74z" />
    <glyph glyph-name="ycircumflex" unicode="&#x177;" 
d="M162 554l-42 36l154 163h28l154 -163l-42 -36l-126 115zM128 -222q-66 0 -117 31l26 61q41 -24 87 -24q43 0 68.5 21.5t47.5 77.5l18 45l-201 480h79l159 -387l154 387h74l-221 -555q-30 -76 -68.5 -106.5t-105.5 -30.5z" />
    <glyph glyph-name="Ydieresis" unicode="&#x178;" 
d="M182 737q-28 0 -47 19t-19 47t19 47t47 19t47 -19t19 -47t-19 -47t-47 -19zM398 737q-28 0 -47 19t-19 47t19 47t47 19t47 -19t19 -47t-19 -47t-47 -19zM253 0v280l-219 370h87l171 -297l173 297h81l-219 -370v-280h-74z" />
    <glyph glyph-name="Zacute" unicode="&#x179;" 
d="M253 719l-33 45l156 129l47 -63zM72 0v58l339 522h-323v70h418v-58l-338 -522h338v-70h-434z" />
    <glyph glyph-name="zacute" unicode="&#x17a;" 
d="M259 554l-42 36l144 163l59 -52zM81 0v56l311 348h-301v66h406v-56l-311 -348h311v-66h-416z" />
    <glyph glyph-name="Zdotaccent" unicode="&#x17b;" 
d="M297 734q-29 0 -49 20t-20 49t20 49t49 20t49 -20t20 -49t-20 -49t-49 -20zM72 0v58l339 522h-323v70h418v-58l-338 -522h338v-70h-434z" />
    <glyph glyph-name="zdotaccent" unicode="&#x17c;" 
d="M294 584q-28 0 -48.5 20t-20.5 49t20.5 49t48.5 20t48.5 -20t20.5 -49t-20.5 -49t-48.5 -20zM81 0v56l311 348h-301v66h406v-56l-311 -348h311v-66h-416z" />
    <glyph glyph-name="Zcaron" unicode="&#x17d;" 
d="M282 719l-154 126l33 45l135 -96l135 96l33 -45l-154 -126h-28zM72 0v58l339 522h-323v70h418v-58l-338 -522h338v-70h-434z" />
    <glyph glyph-name="zcaron" unicode="&#x17e;" 
d="M279 554l-154 163l42 36l126 -115l126 115l42 -36l-154 -163h-28zM81 0v56l311 348h-301v66h406v-56l-311 -348h311v-66h-416z" />
    <glyph glyph-name="florin" unicode="&#x192;" 
d="M154 -94q-56 0 -108 21l18 68q44 -19 87 -19q50 0 74 28.5t24 89.5v223h-169v68h169v80q0 177 169 177q56 0 108 -21l-18 -68q-44 19 -87 19q-50 0 -74 -28.5t-24 -89.5v-69h169v-68h-169v-234q0 -177 -169 -177z" />
    <glyph glyph-name="AEacute" unicode="&#x1fc;" 
d="M264 719l-33 45l156 129l47 -63zM4 0l245 650h317v-69h-200v-216h171v-68h-171v-228h200v-69h-271v154h-161l-56 -154h-74zM160 223h135v358h-3z" />
    <glyph glyph-name="aeacute" unicode="&#x1fd;" 
d="M255 554l-42 36l144 163l59 -52zM156 -12q-65 0 -103.5 39t-38.5 105q0 69 43.5 105t126.5 36h59v16q0 127 -93 127q-53 0 -99 -34l-30 59q59 41 136 41q98 0 126 -79h2q36 79 124 79q74 0 113.5 -59.5t39.5 -171.5q0 -19 -2 -40h-247q4 -82 31.5 -119.5t85.5 -37.5
q56 0 104 34l29 -59q-59 -41 -135 -41q-94 0 -140 64q-54 -64 -132 -64zM314 273h179q-6 143 -89 143q-81 0 -90 -143zM168 54q53 0 94 48q-16 43 -19 109h-61q-97 0 -97 -80q0 -37 21.5 -57t61.5 -20z" />
    <glyph glyph-name="Oslashacute" unicode="&#x1fe;" 
d="M416 830l-170 -111l-33 45l156 129zM560 645l-71 -97q44 -83 44 -223q0 -166 -61.5 -251.5t-181.5 -85.5q-102 0 -161 61l-59 -81l-50 37l71 97q-44 83 -44 223q0 166 61.5 251.5t181.5 85.5q102 0 161 -61l59 81zM123 325q0 -93 19 -151l264 364q-41 53 -116 53
q-167 0 -167 -266zM457 325q0 93 -19 151l-264 -364q41 -53 116 -53q167 0 167 266z" />
    <glyph glyph-name="oslashacute" unicode="&#x1ff;" 
d="M416 701l-161 -147l-42 36l144 163zM537 438l-52 -52q43 -61 43 -151q0 -111 -65.5 -179t-172.5 -68q-90 0 -153 50l-50 -50l-44 44l52 52q-43 61 -43 151q0 111 65.5 179t172.5 68q90 0 153 -50l50 50zM126 235q0 -59 21 -99l246 246q-41 32 -103 32q-76 0 -120 -48
t-44 -131zM454 235q0 59 -21 99l-246 -246q41 -32 103 -32q76 0 120 48t44 131z" />
    <glyph glyph-name="Scommaaccent" unicode="&#x218;" 
d="M281 -12q-137 0 -226 84l41 59q75 -72 187 -72q74 0 113 31.5t39 91.5q0 45 -22.5 69.5t-74.5 36.5l-105 24q-151 34 -151 167q0 85 58.5 134t159.5 49q115 0 201 -68l-38 -60q-72 57 -165 57q-67 0 -104 -28.5t-37 -80.5q0 -41 23 -64t74 -35l105 -24q77 -17 114 -59
t37 -115q0 -93 -60 -145t-169 -52zM217 -293l-2 39q44 1 64.5 14t26.5 41q-11 -4 -23 -4q-26 0 -40.5 15t-14.5 38q0 24 18.5 40t46.5 16q29 0 49 -19t20 -56q0 -49 -35.5 -86t-109.5 -38z" />
    <glyph glyph-name="scommaaccent" unicode="&#x219;" 
d="M289 -12q-123 0 -220 58l29 61q88 -51 194 -51q135 0 135 78q0 29 -18 42.5t-63 19.5l-114 16q-74 11 -107 39.5t-33 84.5q0 70 51.5 108t144.5 38q105 0 198 -48l-26 -62q-79 42 -174 42q-121 0 -121 -73q0 -28 18 -41t63 -19l114 -16q74 -11 107 -40t33 -86
q0 -73 -54.5 -112t-156.5 -39zM218 -293l-2 39q44 1 64.5 14t26.5 41q-11 -4 -23 -4q-26 0 -40.5 15t-14.5 38q0 24 18.5 40t46.5 16q29 0 49 -19t20 -56q0 -49 -35.5 -86t-109.5 -38z" />
    <glyph glyph-name="uni021A" unicode="&#x21a;" 
d="M253 0v580h-216v70h506v-70h-216v-580h-74zM218 -293l-2 39q44 1 64.5 14t26.5 41q-11 -4 -23 -4q-26 0 -40.5 15t-14.5 38q0 24 18.5 40t46.5 16q29 0 49 -19t20 -56q0 -49 -35.5 -86t-109.5 -38z" />
    <glyph glyph-name="uni021B" unicode="&#x21b;" 
d="M382 -12q-175 0 -175 177v239h-155v66h155v152l72 40v-192h200v-66h-200v-228q0 -63 26 -91.5t82 -28.5q62 0 118 30l20 -64q-65 -34 -143 -34zM258 -293l-2 39q44 1 64.5 14t26.5 41q-11 -4 -23 -4q-26 0 -40.5 15t-14.5 38q0 24 18.5 40t46.5 16q29 0 49 -19t20 -56
q0 -49 -35.5 -86t-109.5 -38z" />
    <glyph glyph-name="uni0237" unicode="&#x237;" 
d="M219 -222q-93 0 -170 45l25 63q65 -40 139 -40q58 0 89 31.5t31 90.5v436h-199v66h271v-513q0 -86 -48.5 -132.5t-137.5 -46.5z" />
    <glyph glyph-name="uni02BC" unicode="&#x2bc;" 
d="M219 523l-2 39q44 1 64.5 14t26.5 41q-11 -4 -23 -4q-26 0 -40.5 15t-14.5 38q0 24 18.5 40t46.5 16q29 0 49 -19t20 -56q0 -49 -35.5 -86t-109.5 -38z" />
    <glyph glyph-name="circumflex" unicode="&#x2c6;" 
d="M164 554l-42 36l154 163h28l154 -163l-42 -36l-126 115z" />
    <glyph glyph-name="caron" unicode="&#x2c7;" 
d="M276 554l-154 163l42 36l126 -115l126 115l42 -36l-154 -163h-28z" />
    <glyph glyph-name="uni02C9" unicode="&#x2c9;" 
d="M155 620v66h270v-66h-270z" />
    <glyph glyph-name="breve" unicode="&#x2d8;" 
d="M290 574q-73 0 -107.5 40.5t-47.5 117.5h60q15 -91 95 -91t95 91h60q-13 -77 -47.5 -117.5t-107.5 -40.5z" />
    <glyph glyph-name="dotaccent" unicode="&#x2d9;" 
d="M290 584q-28 0 -48.5 20t-20.5 49t20.5 49t48.5 20t48.5 -20t20.5 -49t-20.5 -49t-48.5 -20z" />
    <glyph glyph-name="ring" unicode="&#x2da;" 
d="M290 540q-47 0 -79.5 32.5t-32.5 80.5t32.5 80.5t79.5 32.5t79.5 -32.5t32.5 -80.5t-32.5 -80.5t-79.5 -32.5zM290 597q23 0 37 15.5t14 40.5t-14 40.5t-37 15.5t-37 -15.5t-14 -40.5t14 -40.5t37 -15.5z" />
    <glyph glyph-name="ogonek" unicode="&#x2db;" 
d="M305 -222q-45 0 -72 24t-27 66q0 67 93 148l43 -16q-76 -69 -76 -116q0 -43 44 -43q26 0 48 15l16 -59q-30 -19 -69 -19z" />
    <glyph glyph-name="tilde" unicode="&#x2dc;" 
d="M178 576l-54 10q25 132 105 132q39 0 81 -40q28 -26 44 -26q34 0 48 76l54 -10q-25 -132 -105 -132q-39 0 -81 40q-28 26 -44 26q-34 0 -48 -76z" />
    <glyph glyph-name="hungarumlaut" unicode="&#x2dd;" 
d="M152 554l-42 36l144 163l59 -52zM360 554l-42 36l144 163l59 -52z" />
    <glyph glyph-name="gravecomb" unicode="&#x300;" horiz-adv-x="0" 
d="M-255 554l-161 147l59 52l144 -163z" />
    <glyph glyph-name="acutecomb" unicode="&#x301;" horiz-adv-x="0" 
d="M-325 554l-42 36l144 163l59 -52z" />
    <glyph glyph-name="uni0302" unicode="&#x302;" horiz-adv-x="0" 
d="M-416 554l-42 36l154 163h28l154 -163l-42 -36l-126 115z" />
    <glyph glyph-name="tildecomb" unicode="&#x303;" horiz-adv-x="0" 
d="M-402 576l-54 10q25 132 105 132q39 0 81 -40q28 -26 44 -26q34 0 48 76l54 -10q-25 -132 -105 -132q-39 0 -81 40q-28 26 -44 26q-34 0 -48 -76z" />
    <glyph glyph-name="uni0304" unicode="&#x304;" horiz-adv-x="0" 
d="M-425 620v66h270v-66h-270z" />
    <glyph glyph-name="uni0306" unicode="&#x306;" horiz-adv-x="0" 
d="M-290 574q-73 0 -107.5 40.5t-47.5 117.5h60q15 -91 95 -91t95 91h60q-13 -77 -47.5 -117.5t-107.5 -40.5z" />
    <glyph glyph-name="uni0307" unicode="&#x307;" horiz-adv-x="0" 
d="M-290 584q-28 0 -48.5 20t-20.5 49t20.5 49t48.5 20t48.5 -20t20.5 -49t-20.5 -49t-48.5 -20z" />
    <glyph glyph-name="uni0308" unicode="&#x308;" horiz-adv-x="0" 
d="M-398 587q-28 0 -47 19t-19 47t19 47t47 19t47 -19t19 -47t-19 -47t-47 -19zM-182 587q-28 0 -47 19t-19 47t19 47t47 19t47 -19t19 -47t-19 -47t-47 -19z" />
    <glyph glyph-name="uni030A" unicode="&#x30a;" horiz-adv-x="0" 
d="M-290 540q-47 0 -79.5 32.5t-32.5 80.5t32.5 80.5t79.5 32.5t79.5 -32.5t32.5 -80.5t-32.5 -80.5t-79.5 -32.5zM-290 597q23 0 37 15.5t14 40.5t-14 40.5t-37 15.5t-37 -15.5t-14 -40.5t14 -40.5t37 -15.5z" />
    <glyph glyph-name="uni030B" unicode="&#x30b;" horiz-adv-x="0" 
d="M-428 554l-42 36l144 163l59 -52zM-220 554l-42 36l144 163l59 -52z" />
    <glyph glyph-name="uni030C" unicode="&#x30c;" horiz-adv-x="0" 
d="M-304 554l-154 163l42 36l126 -115l126 115l42 -36l-154 -163h-28z" />
    <glyph glyph-name="uni0312" unicode="&#x312;" horiz-adv-x="0" 
d="M-284 663q26 0 40.5 -15t14.5 -38q0 -24 -18.5 -40t-46.5 -16q-29 0 -49 19t-20 56q0 49 35.5 86t109.5 38l2 -39q-44 -1 -64.5 -14t-26.5 -41q11 4 23 4z" />
    <glyph glyph-name="uni0326" unicode="&#x326;" horiz-adv-x="0" 
d="M-361 -293l-2 39q44 1 64.5 14t26.5 41q-11 -4 -23 -4q-26 0 -40.5 15t-14.5 38q0 24 18.5 40t46.5 16q29 0 49 -19t20 -56q0 -49 -35.5 -86t-109.5 -38z" />
    <glyph glyph-name="uni0327" unicode="&#x327;" horiz-adv-x="0" 
d="M-303 -222q-53 0 -102 21l14 50q41 -19 89 -19q55 0 55 33q0 14 -11 20t-38 6h-53l39 111h49l-25 -70h8q93 0 93 -69q0 -83 -118 -83z" />
    <glyph glyph-name="uni0328" unicode="&#x328;" horiz-adv-x="0" 
d="M-275 -222q-45 0 -72 24t-27 66q0 67 93 148l43 -16q-76 -69 -76 -116q0 -43 44 -43q26 0 48 15l16 -59q-30 -19 -69 -19z" />
    <glyph glyph-name="uni0335" unicode="&#x335;" horiz-adv-x="0" 
d="M-483 244v62h386v-62h-386z" />
    <glyph glyph-name="uni0336" unicode="&#x336;" horiz-adv-x="0" 
d="M-550 243v64h520v-64h-520z" />
    <glyph glyph-name="uni0337" unicode="&#x337;" horiz-adv-x="0" 
d="M-493 -12l-44 44l450 450l44 -44z" />
    <glyph glyph-name="uni0338" unicode="&#x338;" horiz-adv-x="0" 
d="M-510 -32l-50 37l490 677l50 -37z" />
    <glyph glyph-name="uni0394" unicode="&#x394;" 
d="M29 0l217 650h88l217 -650h-522zM126 70h324l-162 493z" />
    <glyph glyph-name="uni03A9" unicode="&#x3a9;" 
d="M36 0v70h149v20q-139 127 -139 300q0 125 66 198.5t178 73.5t178 -73.5t66 -198.5q0 -173 -139 -300v-20h149v-70h-214v119q128 107 128 262q0 97 -45 153.5t-123 56.5t-123 -56.5t-45 -153.5q0 -155 128 -262v-119h-214z" />
    <glyph glyph-name="uni03BC" unicode="&#x3bc;" 
d="M86 -210v680h72v-294q0 -63 26 -91.5t82 -28.5q84 0 156 53v361h72v-470h-54l-8 50q-82 -62 -178 -62q-76 0 -110 46l14 -193v-51h-72z" />
    <glyph glyph-name="pi" unicode="&#x3c0;" 
d="M153 -12l-82 12q56 113 56 344v60q-60 0 -96 -12v66q44 12 107 12h316q48 0 83 12v-66q-41 -12 -100 -12v-308q0 -22 10.5 -31t34.5 -9q26 0 47 11l14 -64q-37 -15 -75 -15q-103 0 -103 98v318h-166v-60q0 -228 -46 -356z" />
    <glyph glyph-name="Wgrave" unicode="&#x1e80;" 
d="M333 719l-170 111l47 63l156 -129zM112 0l-103 650h73l82 -532l90 463h76l90 -463l82 532h69l-103 -650h-86l-91 469l-91 -469h-88z" />
    <glyph glyph-name="wgrave" unicode="&#x1e81;" 
d="M324 554l-161 147l59 52l144 -163zM124 0l-109 470h71l86 -382l85 333h70l85 -333l86 382h67l-109 -470h-82l-83 329l-84 -329h-83z" />
    <glyph glyph-name="Wacute" unicode="&#x1e82;" 
d="M246 719l-33 45l156 129l47 -63zM112 0l-103 650h73l82 -532l90 463h76l90 -463l82 532h69l-103 -650h-86l-91 469l-91 -469h-88z" />
    <glyph glyph-name="wacute" unicode="&#x1e83;" 
d="M255 554l-42 36l144 163l59 -52zM124 0l-109 470h71l86 -382l85 333h70l85 -333l86 382h67l-109 -470h-82l-83 329l-84 -329h-83z" />
    <glyph glyph-name="Wdieresis" unicode="&#x1e84;" 
d="M182 737q-28 0 -47 19t-19 47t19 47t47 19t47 -19t19 -47t-19 -47t-47 -19zM398 737q-28 0 -47 19t-19 47t19 47t47 19t47 -19t19 -47t-19 -47t-47 -19zM112 0l-103 650h73l82 -532l90 463h76l90 -463l82 532h69l-103 -650h-86l-91 469l-91 -469h-88z" />
    <glyph glyph-name="wdieresis" unicode="&#x1e85;" 
d="M182 587q-28 0 -47 19t-19 47t19 47t47 19t47 -19t19 -47t-19 -47t-47 -19zM398 587q-28 0 -47 19t-19 47t19 47t47 19t47 -19t19 -47t-19 -47t-47 -19zM124 0l-109 470h71l86 -382l85 333h70l85 -333l86 382h67l-109 -470h-82l-83 329l-84 -329h-83z" />
    <glyph glyph-name="uni1E9E" unicode="&#x1e9e;" 
d="M361 -12q-76 0 -140 32l26 68q50 -29 108 -29q51 0 78.5 22.5t27.5 63.5q0 30 -15 47t-55 44q-32 22 -49 36.5t-33 46t-16 72.5q0 61 30 104t86 64v2q-57 30 -123 30q-76 0 -111 -38.5t-35 -121.5v-431h-74v451q0 100 58.5 155.5t163.5 55.5q113 0 206 -74l-21 -69
q-104 -28 -104 -120q0 -37 15 -56t55 -46q53 -36 75.5 -66t22.5 -85q0 -76 -45 -117t-131 -41z" />
    <glyph glyph-name="Ygrave" unicode="&#x1ef2;" 
d="M333 719l-170 111l47 63l156 -129zM253 0v280l-219 370h87l171 -297l173 297h81l-219 -370v-280h-74z" />
    <glyph glyph-name="ygrave" unicode="&#x1ef3;" 
d="M323 554l-161 147l59 52l144 -163zM128 -222q-66 0 -117 31l26 61q41 -24 87 -24q43 0 68.5 21.5t47.5 77.5l18 45l-201 480h79l159 -387l154 387h74l-221 -555q-30 -76 -68.5 -106.5t-105.5 -30.5z" />
    <glyph glyph-name="uni2002" unicode="&#x2002;" 
 />
    <glyph glyph-name="uni2003" unicode="&#x2003;" 
 />
    <glyph glyph-name="uni2008" unicode="&#x2008;" 
 />
    <glyph glyph-name="endash" unicode="&#x2013;" 
d="M60 242v66h460v-66h-460z" />
    <glyph glyph-name="emdash" unicode="&#x2014;" 
d="M0 242v66h580v-66h-580z" />
    <glyph glyph-name="uni2016" unicode="&#x2016;" 
d="M155 -120v770h70v-770h-70zM355 -120v770h70v-770h-70z" />
    <glyph glyph-name="quoteleft" unicode="&#x2018;" 
d="M377 662l12 -49q-99 -25 -115 -135q10 2 15 2q28 0 47.5 -20.5t19.5 -50.5q0 -31 -20.5 -52.5t-52.5 -21.5q-34 0 -55.5 23.5t-21.5 75.5q0 73 44 139.5t127 88.5z" />
    <glyph glyph-name="quoteright" unicode="&#x2019;" 
d="M205 335l-12 49q99 25 115 135q-10 -2 -15 -2q-28 0 -47.5 20.5t-19.5 50.5q0 31 20.5 52.5t52.5 21.5q34 0 55.5 -23.5t21.5 -75.5q0 -73 -44 -139.5t-127 -88.5z" />
    <glyph glyph-name="quotesinglbase" unicode="&#x201a;" 
d="M194 -189l-12 49q99 25 115 135q-10 -2 -15 -2q-28 0 -47.5 20.5t-19.5 50.5q0 31 20.5 52.5t52.5 21.5q34 0 55.5 -23.5t21.5 -75.5q0 -73 -44 -139.5t-127 -88.5z" />
    <glyph glyph-name="quotedblleft" unicode="&#x201c;" 
d="M254 662l12 -49q-99 -25 -115 -135q10 2 15 2q28 0 47.5 -20.5t19.5 -50.5q0 -31 -20.5 -52.5t-52.5 -21.5q-34 0 -55.5 23.5t-21.5 75.5q0 73 44 139.5t127 88.5zM500 662l12 -49q-99 -25 -115 -135q10 2 15 2q28 0 47.5 -20.5t19.5 -50.5q0 -31 -20.5 -52.5
t-52.5 -21.5q-34 0 -55.5 23.5t-21.5 75.5q0 73 44 139.5t127 88.5z" />
    <glyph glyph-name="quotedblright" unicode="&#x201d;" 
d="M82 335l-12 49q99 25 115 135q-10 -2 -15 -2q-28 0 -47.5 20.5t-19.5 50.5q0 31 20.5 52.5t52.5 21.5q34 0 55.5 -23.5t21.5 -75.5q0 -73 -44 -139.5t-127 -88.5zM328 335l-12 49q99 25 115 135q-10 -2 -15 -2q-28 0 -47.5 20.5t-19.5 50.5q0 31 20.5 52.5t52.5 21.5
q34 0 55.5 -23.5t21.5 -75.5q0 -73 -44 -139.5t-127 -88.5z" />
    <glyph glyph-name="quotedblbase" unicode="&#x201e;" 
d="M71 -189l-12 49q99 25 115 135q-10 -2 -15 -2q-28 0 -47.5 20.5t-19.5 50.5q0 31 20.5 52.5t52.5 21.5q34 0 55.5 -23.5t21.5 -75.5q0 -73 -44 -139.5t-127 -88.5zM317 -189l-12 49q99 25 115 135q-10 -2 -15 -2q-28 0 -47.5 20.5t-19.5 50.5q0 31 20.5 52.5t52.5 21.5
q34 0 55.5 -23.5t21.5 -75.5q0 -73 -44 -139.5t-127 -88.5z" />
    <glyph glyph-name="dagger" unicode="&#x2020;" 
d="M252 -120l8 500l-205 -6v72l205 -6l-8 210h76l-8 -210l205 6v-72l-205 6l8 -500h-76z" />
    <glyph glyph-name="daggerdbl" unicode="&#x2021;" 
d="M252 -120l8 185l-205 -6v72l205 -6l-8 140l8 140l-205 -6v72l205 -6l-8 185h76l-8 -185l205 6v-72l-205 6l8 -140l-8 -140l205 6v-72l-205 6l8 -185h-76z" />
    <glyph glyph-name="bullet" unicode="&#x2022;" 
d="M290 145q-56 0 -95.5 39.5t-39.5 95.5q0 54 40 94.5t95 40.5t95 -40.5t40 -94.5q0 -56 -39.5 -95.5t-95.5 -39.5z" />
    <glyph glyph-name="ellipsis" unicode="&#x2026;" 
d="M97 -12q-26 0 -44 18t-18 44q0 24 18.5 42.5t43.5 18.5t43 -18.5t18 -42.5q0 -26 -17.5 -44t-43.5 -18zM291 -12q-26 0 -44 18t-18 44q0 24 18.5 42.5t43.5 18.5t43 -18.5t18 -42.5q0 -26 -17.5 -44t-43.5 -18zM484 -12q-26 0 -44 18t-18 44q0 24 18.5 42.5t43.5 18.5
t43 -18.5t18 -42.5q0 -26 -17.5 -44t-43.5 -18z" />
    <glyph glyph-name="perthousand" unicode="&#x2030;" 
d="M165 388q-53 0 -84.5 35t-31.5 92t31.5 92t84.5 35t84.5 -35t31.5 -92t-31.5 -92t-84.5 -35zM165 436q28 0 43 21t15 58t-15 58t-43 21t-43 -21t-15 -58t15 -58t43 -21zM51 258l-10 39l485 147l15 -63zM165 -12q-53 0 -84.5 35t-31.5 92t31.5 92t84.5 35t84.5 -35
t31.5 -92t-31.5 -92t-84.5 -35zM435 -12q-53 0 -84.5 35t-31.5 92t31.5 92t84.5 35t84.5 -35t31.5 -92t-31.5 -92t-84.5 -35zM165 36q28 0 43 21t15 58t-15 58t-43 21t-43 -21t-15 -58t15 -58t43 -21zM435 36q28 0 43 21t15 58t-15 58t-43 21t-43 -21t-15 -58t15 -58t43 -21
z" />
    <glyph glyph-name="guilsinglleft" unicode="&#x2039;" 
d="M388 57l-224 151v54l224 151l26 -36l-155 -142l155 -142z" />
    <glyph glyph-name="guilsinglright" unicode="&#x203a;" 
d="M192 57l-26 36l155 142l-155 142l26 36l224 -151v-54z" />
    <glyph glyph-name="fraction" unicode="&#x2044;" 
d="M361 364l-35 31l183 239l56 -48zM71 -4l-56 48l204 222l35 -31z" />
    <glyph glyph-name="uni2070" unicode="&#x2070;" 
d="M290 294q-96 0 -146.5 61t-50.5 176t50.5 176t146.5 61t146.5 -61t50.5 -176t-50.5 -176t-146.5 -61zM174 453l206 211q-32 38 -90 38q-125 0 -125 -171q0 -45 9 -78zM290 360q125 0 125 171q0 45 -9 78l-206 -210q32 -39 90 -39z" />
    <glyph glyph-name="uni2074" unicode="&#x2074;" 
d="M342 306v100h-266v55l213 295h78l-204 -285h179v130l72 41v-171h92v-65h-92v-100h-72z" />
    <glyph glyph-name="uni2075" unicode="&#x2075;" 
d="M113 294l-2 65q152 0 218 22t66 73q0 60 -91 60q-67 0 -120 -28l-56 21l30 249h289v-65h-232l-16 -138q52 26 120 26q72 0 110 -32.5t38 -92.5q0 -85 -82.5 -122t-271.5 -38z" />
    <glyph glyph-name="uni2076" unicode="&#x2076;" 
d="M298 294q-91 0 -142.5 55t-51.5 154q0 127 85.5 195t252.5 70l4 -65q-249 -6 -268 -160h2q56 53 136 53q75 0 119.5 -40t44.5 -105q0 -71 -50 -114t-132 -43zM299 360q50 0 79.5 24.5t29.5 64.5q0 37 -28 59.5t-77 22.5q-78 0 -126 -57q5 -54 36.5 -84t85.5 -30z" />
    <glyph glyph-name="uni2077" unicode="&#x2077;" 
d="M183 306q54 226 207 385h-285v65h369v-70q-165 -158 -209 -380h-82z" />
    <glyph glyph-name="uni2078" unicode="&#x2078;" 
d="M290 294q-92 0 -144 34.5t-52 96.5q0 71 87 114v2q-67 33 -67 100q0 59 47.5 93t128.5 34t128.5 -33.5t47.5 -90.5q0 -64 -68 -102v-2q88 -31 88 -110q0 -65 -51.5 -100.5t-144.5 -35.5zM324 563q70 29 70 76q0 63 -104 63q-49 0 -76.5 -15.5t-27.5 -43.5q0 -37 64 -57z
M290 360q56 0 90 18.5t34 50.5q0 40 -63 58l-96 29q-46 -19 -67.5 -39t-21.5 -47q0 -34 32.5 -52t91.5 -18z" />
    <glyph glyph-name="uni2079" unicode="&#x2079;" 
d="M138 294l-4 65q249 6 268 160h-2q-56 -53 -136 -53q-75 0 -119.5 40t-44.5 105q0 71 50 114t132 43q91 0 142.5 -55t51.5 -154q0 -127 -85.5 -195t-252.5 -70zM277 531q78 0 126 57q-5 54 -36.5 84t-85.5 30q-50 0 -79.5 -24.5t-29.5 -64.5q0 -37 28 -59.5t77 -22.5z" />
    <glyph glyph-name="uni2080" unicode="&#x2080;" 
d="M290 -138q-96 0 -146.5 61t-50.5 176t50.5 176t146.5 61t146.5 -61t50.5 -176t-50.5 -176t-146.5 -61zM174 21l206 211q-32 38 -90 38q-125 0 -125 -171q0 -45 9 -78zM290 -72q125 0 125 171q0 45 -9 78l-206 -210q32 -39 90 -39z" />
    <glyph glyph-name="uni2081" unicode="&#x2081;" 
d="M109 -126v65h151v286l-128 -70l-29 48l180 127h49v-391h151v-65h-374z" />
    <glyph glyph-name="uni2082" unicode="&#x2082;" 
d="M111 -126v53q0 85 35 130.5t116 64.5l66 16q69 16 69 63q0 69 -107 69q-81 0 -144 -47l-36 56q77 57 178 57q87 0 134 -35.5t47 -101.5q0 -50 -29.5 -81t-94.5 -47l-64 -16q-53 -14 -74 -38.5t-24 -77.5h286v-65h-358z" />
    <glyph glyph-name="uni2083" unicode="&#x2083;" 
d="M108 -138l-2 65q157 0 224.5 20.5t67.5 68.5q0 28 -24.5 41t-78.5 13h-107v64h69q122 0 122 70q0 66 -104 66q-78 0 -139 -40l-33 58q73 48 174 48q84 0 129 -31.5t45 -89.5q0 -70 -67 -97v-2q86 -18 86 -103q0 -82 -83 -116.5t-279 -34.5z" />
    <glyph glyph-name="uni2084" unicode="&#x2084;" 
d="M342 -126v100h-266v55l213 295h78l-204 -285h179v130l72 41v-171h92v-65h-92v-100h-72z" />
    <glyph glyph-name="uni2085" unicode="&#x2085;" 
d="M113 -138l-2 65q152 0 218 22t66 73q0 60 -91 60q-67 0 -120 -28l-56 21l30 249h289v-65h-232l-16 -138q52 26 120 26q72 0 110 -32.5t38 -92.5q0 -85 -82.5 -122t-271.5 -38z" />
    <glyph glyph-name="uni2086" unicode="&#x2086;" 
d="M298 -138q-91 0 -142.5 55t-51.5 154q0 127 85.5 195t252.5 70l4 -65q-249 -6 -268 -160h2q56 53 136 53q75 0 119.5 -40t44.5 -105q0 -71 -50 -114t-132 -43zM299 -72q50 0 79.5 24.5t29.5 64.5q0 37 -28 59.5t-77 22.5q-78 0 -126 -57q5 -54 36.5 -84t85.5 -30z" />
    <glyph glyph-name="uni2087" unicode="&#x2087;" 
d="M183 -126q54 226 207 385h-285v65h369v-70q-165 -158 -209 -380h-82z" />
    <glyph glyph-name="uni2088" unicode="&#x2088;" 
d="M290 -138q-92 0 -144 34.5t-52 96.5q0 71 87 114v2q-67 33 -67 100q0 59 47.5 93t128.5 34t128.5 -33.5t47.5 -90.5q0 -64 -68 -102v-2q88 -31 88 -110q0 -65 -51.5 -100.5t-144.5 -35.5zM324 131q70 29 70 76q0 63 -104 63q-49 0 -76.5 -15.5t-27.5 -43.5q0 -37 64 -57z
M290 -72q56 0 90 18.5t34 50.5q0 40 -63 58l-96 29q-46 -19 -67.5 -39t-21.5 -47q0 -34 32.5 -52t91.5 -18z" />
    <glyph glyph-name="uni2089" unicode="&#x2089;" 
d="M138 -138l-4 65q249 6 268 160h-2q-56 -53 -136 -53q-75 0 -119.5 40t-44.5 105q0 71 50 114t132 43q91 0 142.5 -55t51.5 -154q0 -127 -85.5 -195t-252.5 -70zM277 99q78 0 126 57q-5 54 -36.5 84t-85.5 30q-50 0 -79.5 -24.5t-29.5 -64.5q0 -37 28 -59.5t77 -22.5z" />
    <glyph glyph-name="Euro" unicode="&#x20ac;" 
d="M366 -12q-99 0 -161 54t-83 157h-77v64h68v104h-68v64h77q21 103 83 157t161 54q86 0 151 -48l-23 -72q-57 50 -128 50q-132 0 -168 -141h267l-20 -64h-257v-104h223l-20 -64h-193q36 -141 168 -141q71 0 128 50l39 -60q-73 -60 -167 -60z" />
    <glyph glyph-name="uni20B9" unicode="&#x20b9;" 
d="M353 0l-286 263v37h123q137 0 153 101h-294l36 64h258q-16 101 -153 101h-141l36 64h454l-36 -64h-138q47 -36 54 -101h120l-36 -64h-86q-20 -158 -220 -158l266 -243h-110z" />
    <glyph glyph-name="uni20BF" unicode="&#x20bf;" 
d="M161 -82l8 102h-83v590h82l-7 102h70l-7 -102h93l-7 102h70l-8 -106q133 -20 133 -148q0 -103 -89 -132v-2q107 -29 107 -141q0 -142 -151 -160l8 -105h-70l8 102h-95l8 -102h-70zM160 353h132q29 0 50 3t43 12t33.5 30t11.5 52q0 30 -11 49.5t-31.5 28t-38.5 11t-44 2.5
h-145v-188zM160 89h157q59 0 94.5 20t35.5 77q0 58 -38.5 78.5t-104.5 20.5h-144v-196z" />
    <glyph glyph-name="uni2113" unicode="&#x2113;" 
d="M489 97l22 -65q-73 -44 -164 -44t-134.5 43.5t-43.5 133.5v12q-49 -20 -98 -35l-17 63q67 22 115 43v276q0 97 44 147.5t128 50.5q80 0 123 -46t43 -131q0 -205 -266 -336v-33q0 -63 26 -91.5t83 -28.5q73 0 139 41zM241 524v-241q194 107 194 262q0 109 -94 109
q-100 0 -100 -130z" />
    <glyph glyph-name="uni2116" unicode="&#x2116;" 
d="M39 0v630h85l112 -464v464h57v-630h-69l-129 538v-538h-56zM467 132q-52 0 -79.5 37.5t-27.5 107.5t27.5 107.5t79.5 37.5q106 0 106 -145t-106 -145zM467 186q50 0 50 91t-50 91t-50 -91t50 -91zM370 0v54h191v-54h-191z" />
    <glyph glyph-name="uni2117" unicode="&#x2117;" 
d="M290 18q-124 0 -198 83.5t-74 223.5t74 223.5t198 83.5t198 -83.5t74 -223.5t-74 -223.5t-198 -83.5zM290 70q100 0 158 68t58 187t-58 187t-158 68t-158 -68t-58 -187t58 -187t158 -68zM189 166v319h126q52 0 80 -26t28 -76t-28 -76t-80 -26h-71v-115h-55zM244 333h66
q31 0 44.5 12t13.5 38t-13.5 38t-44.5 12h-66v-100z" />
    <glyph glyph-name="uni2120" unicode="&#x2120;" 
d="M124 356q-58 0 -102 35l23 41q36 -30 80 -30q27 0 42.5 12t15.5 32q0 29 -39 38l-47 11q-70 16 -70 79q0 41 27.5 64.5t74.5 23.5q52 0 90 -28l-23 -41q-28 23 -67 23q-54 0 -54 -39q0 -29 39 -38l47 -11q70 -16 70 -79q0 -44 -28.5 -68.5t-78.5 -24.5zM289 355v295h64
l59 -163l59 163h64v-295h-47v235l-64 -175h-26l-64 175v-235h-45z" />
    <glyph glyph-name="trademark" unicode="&#x2122;" 
d="M96 355v249h-81v46h210v-46h-81v-249h-48zM283 355v295h64l59 -163l59 163h64v-295h-47v235l-64 -175h-26l-64 175v-235h-45z" />
    <glyph glyph-name="uni2126" unicode="&#x2126;" 
d="M36 0v70h149v20q-139 127 -139 300q0 125 66 198.5t178 73.5t178 -73.5t66 -198.5q0 -173 -139 -300v-20h149v-70h-214v119q128 107 128 262q0 97 -45 153.5t-123 56.5t-123 -56.5t-45 -153.5q0 -155 128 -262v-119h-214z" />
    <glyph glyph-name="estimated" unicode="&#x212e;" 
d="M298 -12q-125 0 -197.5 96.5t-72.5 240.5t72 240.5t195 96.5t194.5 -96t71.5 -241v-19h-422q-6 0 -6 -6v-152q0 -17 4 -24q22 -41 63 -68.5t99 -27.5q57 0 95.5 26.5t53.5 65.5h65q-22 -60 -80.5 -96t-134.5 -36zM140 346h309q7 0 7 6v150q0 16 -4 24q-13 32 -54 64
t-104 32q-58 0 -99 -28.5t-58 -67.5q-4 -8 -4 -24v-150q0 -6 7 -6z" />
    <glyph glyph-name="uni2153" unicode="&#x2153;" 
d="M25 354v59h88v135l-69 -39l-29 44l118 83h49v-223h87v-59h-244zM361 364l-35 31l183 239l56 -48zM318 -12l-2 59q101 0 139 9t38 33q0 13 -12.5 18t-47.5 5h-65v55h48q68 0 68 31t-53 31q-52 0 -89 -23l-25 55q51 27 115 27q58 0 89 -20t31 -57q0 -41 -41 -57v-2
q51 -13 51 -65q0 -54 -55.5 -76.5t-188.5 -22.5zM71 -4l-56 48l204 222l35 -31z" />
    <glyph glyph-name="uni2154" unicode="&#x2154;" 
d="M23 354v49q0 48 22.5 74.5t71.5 39.5l45 12q30 8 30 26q0 28 -50 28q-47 0 -91 -28l-26 55q57 32 119 32q117 0 117 -87q0 -35 -20 -54.5t-63 -30.5l-46 -12q-39 -10 -40 -45h169v-59h-238zM361 364l-35 31l183 239l56 -48zM318 -12l-2 59q101 0 139 9t38 33
q0 13 -12.5 18t-47.5 5h-65v55h48q68 0 68 31t-53 31q-52 0 -89 -23l-25 55q51 27 115 27q58 0 89 -20t31 -57q0 -41 -41 -57v-2q51 -13 51 -65q0 -54 -55.5 -76.5t-188.5 -22.5zM71 -4l-56 48l204 222l35 -31z" />
    <glyph glyph-name="uni2155" unicode="&#x2155;" 
d="M25 354v59h88v135l-69 -39l-29 44l118 83h49v-223h87v-59h-244zM366 364l-35 31l183 239l56 -48zM322 -12l-2 59q98 0 134 9t36 32q0 25 -43 25q-34 0 -68 -14l-54 15l18 162h204v-59h-147l-7 -63q32 17 70 17q96 0 96 -81q0 -55 -55 -78.5t-182 -23.5zM76 -4l-56 48
l204 222l35 -31z" />
    <glyph glyph-name="uni2156" unicode="&#x2156;" 
d="M23 354v49q0 48 22.5 74.5t71.5 39.5l45 12q30 8 30 26q0 28 -50 28q-47 0 -91 -28l-26 55q57 32 119 32q117 0 117 -87q0 -35 -20 -54.5t-63 -30.5l-46 -12q-39 -10 -40 -45h169v-59h-238zM361 364l-35 31l183 239l56 -48zM322 -12l-2 59q98 0 134 9t36 32q0 25 -43 25
q-34 0 -68 -14l-54 15l18 162h204v-59h-147l-7 -63q32 17 70 17q96 0 96 -81q0 -55 -55 -78.5t-182 -23.5zM71 -4l-56 48l204 222l35 -31z" />
    <glyph glyph-name="uni2157" unicode="&#x2157;" 
d="M18 342l-2 59q101 0 139 9t38 33q0 13 -12.5 18t-47.5 5h-65v55h48q68 0 68 31t-53 31q-52 0 -89 -23l-25 55q51 27 115 27q58 0 89 -20t31 -57q0 -41 -41 -57v-2q51 -13 51 -65q0 -54 -55.5 -76.5t-188.5 -22.5zM361 364l-35 31l183 239l56 -48zM322 -12l-2 59
q98 0 134 9t36 32q0 25 -43 25q-34 0 -68 -14l-54 15l18 162h204v-59h-147l-7 -63q32 17 70 17q96 0 96 -81q0 -55 -55 -78.5t-182 -23.5zM71 -4l-56 48l204 222l35 -31z" />
    <glyph glyph-name="uni2158" unicode="&#x2158;" 
d="M376 364l-35 31l183 239l56 -48zM176 354v57h-172v48l139 171h79l-130 -160h84v41l69 32v-73h52v-59h-52v-57h-69zM322 -12l-2 59q98 0 134 9t36 32q0 25 -43 25q-34 0 -68 -14l-54 15l18 162h204v-59h-147l-7 -63q32 17 70 17q96 0 96 -81q0 -55 -55 -78.5t-182 -23.5z
M86 -4l-56 48l204 222l35 -31z" />
    <glyph glyph-name="uni2159" unicode="&#x2159;" 
d="M25 354v59h88v135l-69 -39l-29 44l118 83h49v-223h87v-59h-244zM381 364l-35 31l183 239l56 -48zM440 -12q-62 0 -95 33.5t-33 95.5q0 80 57.5 125.5t166.5 45.5l4 -59q-149 -1 -158 -85h2q32 29 79 29q45 0 70.5 -23.5t25.5 -64.5q0 -44 -32 -70.5t-87 -26.5zM91 -4
l-56 48l204 222l35 -31zM441 46q49 0 49 38q0 32 -47 32q-36 0 -61 -21q8 -49 59 -49z" />
    <glyph glyph-name="uni215A" unicode="&#x215a;" 
d="M371 364l-35 31l183 239l56 -48zM22 342l-2 59q98 0 134 9t36 32q0 25 -43 25q-34 0 -68 -14l-54 15l18 162h204v-59h-147l-7 -63q32 17 70 17q96 0 96 -81q0 -55 -55 -78.5t-182 -23.5zM440 -12q-62 0 -95 33.5t-33 95.5q0 80 57.5 125.5t166.5 45.5l4 -59
q-149 -1 -158 -85h2q32 29 79 29q45 0 70.5 -23.5t25.5 -64.5q0 -44 -32 -70.5t-87 -26.5zM81 -4l-56 48l204 222l35 -31zM441 46q49 0 49 38q0 32 -47 32q-36 0 -61 -21q8 -49 59 -49z" />
    <glyph glyph-name="oneeighth" unicode="&#x215b;" 
d="M25 354v59h88v135l-69 -39l-29 44l118 83h49v-223h87v-59h-244zM366 364l-35 31l183 239l56 -48zM440 -12q-59 0 -94.5 23.5t-35.5 62.5q0 40 48 62v2q-39 20 -39 63q0 42 32 64.5t89 22.5q55 0 88 -21.5t33 -57.5t-41 -56v-2q50 -20 50 -69q0 -45 -35.5 -69.5
t-94.5 -24.5zM76 -4l-56 48l204 222l35 -31zM465 165q28 13 28 34q0 31 -54 31q-52 0 -52 -30q0 -12 10 -18t36 -11zM441 46q60 0 60 34q0 23 -42 32l-47 9q-33 -13 -33 -41q0 -34 62 -34z" />
    <glyph glyph-name="threeeighths" unicode="&#x215c;" 
d="M18 342l-2 59q101 0 139 9t38 33q0 13 -12.5 18t-47.5 5h-65v55h48q68 0 68 31t-53 31q-52 0 -89 -23l-25 55q51 27 115 27q58 0 89 -20t31 -57q0 -41 -41 -57v-2q51 -13 51 -65q0 -54 -55.5 -76.5t-188.5 -22.5zM361 364l-35 31l183 239l56 -48zM440 -12
q-59 0 -94.5 23.5t-35.5 62.5q0 40 48 62v2q-39 20 -39 63q0 42 32 64.5t89 22.5q55 0 88 -21.5t33 -57.5t-41 -56v-2q50 -20 50 -69q0 -45 -35.5 -69.5t-94.5 -24.5zM71 -4l-56 48l204 222l35 -31zM465 165q28 13 28 34q0 31 -54 31q-52 0 -52 -30q0 -12 10 -18t36 -11z
M441 46q60 0 60 34q0 23 -42 32l-47 9q-33 -13 -33 -41q0 -34 62 -34z" />
    <glyph glyph-name="fiveeighths" unicode="&#x215d;" 
d="M361 364l-35 31l183 239l56 -48zM22 342l-2 59q98 0 134 9t36 32q0 25 -43 25q-34 0 -68 -14l-54 15l18 162h204v-59h-147l-7 -63q32 17 70 17q96 0 96 -81q0 -55 -55 -78.5t-182 -23.5zM440 -12q-59 0 -94.5 23.5t-35.5 62.5q0 40 48 62v2q-39 20 -39 63q0 42 32 64.5
t89 22.5q55 0 88 -21.5t33 -57.5t-41 -56v-2q50 -20 50 -69q0 -45 -35.5 -69.5t-94.5 -24.5zM71 -4l-56 48l204 222l35 -31zM465 165q28 13 28 34q0 31 -54 31q-52 0 -52 -30q0 -12 10 -18t36 -11zM441 46q60 0 60 34q0 23 -42 32l-47 9q-33 -13 -33 -41q0 -34 62 -34z" />
    <glyph glyph-name="seveneighths" unicode="&#x215e;" 
d="M341 364l-35 31l183 239l56 -48zM61 354q31 131 116 217h-157v59h241v-60q-100 -87 -124 -216h-76zM440 -12q-59 0 -94.5 23.5t-35.5 62.5q0 40 48 62v2q-39 20 -39 63q0 42 32 64.5t89 22.5q55 0 88 -21.5t33 -57.5t-41 -56v-2q50 -20 50 -69q0 -45 -35.5 -69.5
t-94.5 -24.5zM51 -4l-56 48l204 222l35 -31zM465 165q28 13 28 34q0 31 -54 31q-52 0 -52 -30q0 -12 10 -18t36 -11zM441 46q60 0 60 34q0 23 -42 32l-47 9q-33 -13 -33 -41q0 -34 62 -34z" />
    <glyph glyph-name="arrowleft" unicode="&#x2190;" 
d="M248 50l-230 230l230 230l41 -41l-160 -160h429v-58h-429l160 -160z" />
    <glyph glyph-name="arrowup" unicode="&#x2191;" 
d="M261 10v429l-160 -160l-41 41l230 230l230 -230l-41 -41l-160 160v-429h-58z" />
    <glyph glyph-name="arrowright" unicode="&#x2192;" 
d="M332 50l-41 41l160 160h-429v58h429l-160 160l41 41l230 -230z" />
    <glyph glyph-name="arrowdown" unicode="&#x2193;" 
d="M290 10l-230 230l41 41l160 -160v429h58v-429l160 160l41 -41z" />
    <glyph glyph-name="arrowboth" unicode="&#x2194;" 
d="M173 74l-153 218l153 218l47 -34l-109 -155h358l-109 155l47 34l153 -218l-153 -218l-47 34l109 155h-358l109 -155z" />
    <glyph glyph-name="arrowupdn" unicode="&#x2195;" 
d="M290 12l-218 153l34 47l155 -109v378l-155 -109l-34 47l218 153l218 -153l-34 -47l-155 109v-378l155 109l34 -47z" />
    <glyph glyph-name="uni2196" unicode="&#x2196;" 
d="M468 69l-303 303v-226h-58v325h325v-58h-226l303 -303z" />
    <glyph glyph-name="uni2197" unicode="&#x2197;" 
d="M112 69l-41 41l303 303h-226v58h325v-325h-58v226z" />
    <glyph glyph-name="uni2198" unicode="&#x2198;" 
d="M148 69v58h226l-303 303l41 41l303 -303v226h58v-325h-325z" />
    <glyph glyph-name="uni2199" unicode="&#x2199;" 
d="M107 69v325h58v-226l303 303l41 -41l-303 -303h226v-58h-325z" />
    <glyph glyph-name="partialdiff" unicode="&#x2202;" 
d="M253 -12q-92 0 -148.5 56t-56.5 146q0 91 57.5 148t150.5 57q109 0 189 -77h2q2 32 2 51q0 223 -146 223q-73 0 -122 -58l-53 53q70 75 177 75q109 0 166 -78t57 -222q0 -171 -75.5 -272.5t-199.5 -101.5zM252 58q66 0 115 49.5t69 138.5q-66 80 -166 80
q-67 0 -107 -37.5t-40 -99.5q0 -59 36 -95t93 -36z" />
    <glyph glyph-name="emptyset" unicode="&#x2205;" 
d="M72 22l-55 55l66 56q-50 69 -50 162q0 114 73 189t184 75q95 0 163 -56l55 65l55 -55l-66 -56q50 -69 50 -162q0 -114 -73 -189t-184 -75q-95 0 -163 56zM137 185l266 266q-47 38 -113 38q-80 0 -131 -54.5t-51 -139.5q0 -63 29 -110zM290 101q80 0 131 54.5t51 139.5
q0 63 -29 110l-266 -266q48 -38 113 -38z" />
    <glyph glyph-name="uni2206" unicode="&#x2206;" 
d="M29 0l217 650h88l217 -650h-522zM126 70h324l-162 493z" />
    <glyph glyph-name="product" unicode="&#x220f;" 
d="M75 -180v830h430v-830h-74v760h-282v-760h-74z" />
    <glyph glyph-name="summation" unicode="&#x2211;" 
d="M74 -180v61l239 354l-239 354v61h434v-70h-341l232 -345l-232 -345h341v-70h-434z" />
    <glyph glyph-name="minus" unicode="&#x2212;" 
d="M50 242v66h480v-66h-480z" />
    <glyph glyph-name="uni2215" unicode="&#x2215;" 
d="M5 0l488 630h82l-488 -630h-82z" />
    <glyph glyph-name="uni2219" unicode="&#x2219;" 
d="M290 200q-31 0 -53 22t-22 53q0 30 22 52.5t53 22.5t53 -22.5t22 -52.5q0 -31 -22 -53t-53 -22z" />
    <glyph glyph-name="radical" unicode="&#x221a;" 
d="M252 -180l-113 422h-87v66h142l103 -382l179 784h68l-204 -890h-88z" />
    <glyph glyph-name="infinity" unicode="&#x221e;" 
d="M153 132q-67 0 -101.5 46t-34.5 118t34.5 117t99.5 45q85 0 136 -91h2q50 91 138 91q67 0 101.5 -46t34.5 -118t-34.5 -117t-99.5 -45q-85 0 -136 91h-2q-50 -91 -138 -91zM157 198q30 0 51.5 25t48.5 85q-15 25 -26 40.5t-31 29.5t-43 14q-32 0 -51 -25.5t-19 -70.5
q0 -46 19 -72t51 -26zM423 198q32 0 51 25.5t19 70.5q0 46 -19 72t-51 26q-30 0 -51.5 -25t-48.5 -85q15 -25 26 -40.5t31 -29.5t43 -14z" />
    <glyph glyph-name="integral" unicode="&#x222b;" 
d="M155 -192q-66 0 -118 33l25 66q41 -28 92 -28q53 0 76 30.5t23 102.5v521q0 93 44 141t128 48q66 0 118 -33l-25 -66q-41 28 -92 28q-53 0 -76 -30.5t-23 -102.5v-521q0 -93 -44 -141t-128 -48z" />
    <glyph glyph-name="approxequal" unicode="&#x2248;" 
d="M126 315l-66 3q10 173 128 173q25 0 49.5 -10t38 -20t35.5 -29q53 -45 83 -45q29 0 43 26t17 82l66 -3q-10 -173 -128 -173q-25 0 -49.5 10t-38 20t-35.5 29q-53 45 -83 45q-29 0 -43 -26t-17 -82zM126 55l-66 3q10 173 128 173q25 0 49.5 -10t38 -20t35.5 -29
q53 -45 83 -45q29 0 43 26t17 82l66 -3q-10 -173 -128 -173q-25 0 -49.5 10t-38 20t-35.5 29q-53 45 -83 45q-29 0 -43 -26t-17 -82z" />
    <glyph glyph-name="notequal" unicode="&#x2260;" 
d="M102 26l67 111h-109v66h148l87 144h-235v66h275l67 112h76l-67 -112h109v-66h-149l-87 -144h236v-66h-275l-67 -111h-76z" />
    <glyph glyph-name="lessequal" unicode="&#x2264;" 
d="M496 132l-420 189v60l420 189v-73l-325 -146l325 -146v-73zM76 0v66h420v-66h-420z" />
    <glyph glyph-name="greaterequal" unicode="&#x2265;" 
d="M84 132v73l325 146l-325 146v73l420 -189v-60zM84 0v66h420v-66h-420z" />
    <glyph glyph-name="lozenge" unicode="&#x25ca;" 
d="M258 -10l-189 325l189 325h64l189 -325l-189 -325h-64zM290 61l146 254l-146 254l-146 -254z" />
    <glyph glyph-name="uniE0FF" unicode="&#xe0ff;" 
 />
    <glyph glyph-name="uniEFFD" unicode="&#xeffd;" 
 />
    <glyph glyph-name="uniF000" unicode="&#xf000;" 
 />
    <glyph glyph-name="uniF8FF" unicode="&#xf8ff;" 
d="M65 334v126h126v-126h-126zM227 280v18h-18v90h36v36h-36v36h18v-18h36v-18h18v18h-18v18h36v-18h18v18h18v-36h18v-18h-18v-36h-18v-18h-18v54h-36v-18h18v-36h-18v18h-36v-54h18v36h18v-18h18v18h18v-36h-36v-36h-36zM353 424v36h18v-36h-18zM389 334v126h126v-126
h-126zM83 352h90v90h-90v-90zM407 352h90v90h-90v-90zM101 370v54h54v-54h-54zM425 370v54h54v-54h-54zM317 316v36h18v-36h-18zM353 334v18h18v-18h-18zM83 262v18h-18v36h54v-18h-18v-18h18v-18h-36zM137 280v18h18v18h36v-18h-18v-18h-36zM335 262v54h18v-18h18v-18h-18
v-18h-18zM371 244v36h18v18h-18v18h72v-18h-18v-18h18v18h18v-18h18v-18h-18v-18h-36v18h-36v-18h-18zM497 262v18h-18v36h36v-54h-18zM173 262v18h18v18h18v-36h-36zM299 280v18h18v-18h-18zM263 262v18h18v-18h-18zM119 244v18h18v-18h-18zM137 226v18h18v18h18v-18h36
v-18h-72zM227 208v54h18v-54h-18zM317 244v18h18v-18h-18zM65 208v36h18v-36h-18zM299 10v18h18v18h-18v-18h-36v18h18v36h-18v-18h-18v36h54v18h18v-36h-18v-18h36v54h18v18h-18v18h-18v-18h-18v36h18v18h18v-18h18v18h-18v36h54v18h36v-36h54v-18h-54v-18h18v-36h18v-18
h-18v-18h18v-18h36v-18h18v-18h-36v18h-36v-36h-36v-18h-18v18h-18v-18h-18v36h-18v-36h-36zM263 172v18h18v36h-18v18h36v-18h18v-36h-18v-18h-36zM497 190v18h-18v18h18v18h18v-54h-18zM137 154v18h-18v18h-18v18h18v18h18v-36h18v-36h-18zM209 136v18h-36v18h18v18h-36
v18h54v-36h18v-36h-18zM245 190v18h18v-18h-18zM65 172v18h36v-18h-36zM227 172v18h18v-18h-18zM371 172h18v18h-18v-18zM101 154v18h18v-18h-18zM245 154v18h18v-18h-18zM479 154v18h18v-18h-18zM371 100h54v54h-54v-54zM461 136v18h18v-18h-18zM497 82v18h-18v18h18v36h18
v-72h-18zM65 10v126h126v-126h-126zM209 100v18h18v18h18v-36h-36zM263 118v18h18v-18h-18zM389 118v18h18v-18h-18zM83 28h90v90h-90v-90zM101 46v54h54v-54h-54zM353 64h18v18h-18v-18zM389 46h36v36h-36v-36zM209 10v54h36v-36h18v-18h-54zM443 10v18h18v-18h-18zM497 10
v18h18v-18h-18z" />
    <glyph glyph-name="uni00A40301" 
d="M282 719l-33 45l156 129l47 -63zM266 -12q-116 0 -201 79l43 58q67 -66 155 -66q67 0 104 36.5t37 104.5v380h-229v70h303v-457q0 -98 -55 -151.5t-157 -53.5z" />
    <glyph glyph-name="i.loclTRK" 
d="M280 584q-28 0 -48.5 20t-20.5 49t20.5 49t48.5 20t48.5 -20t20.5 -49t-20.5 -49t-48.5 -20zM254 0v404h-200v66h272v-404h200v-66h-272z" />
    <glyph glyph-name="uni006A0301" 
d="M324 554l-42 36l144 163l59 -52zM219 -222q-93 0 -170 45l25 63q65 -40 139 -40q58 0 89 31.5t31 90.5v436h-199v66h271v-513q0 -86 -48.5 -132.5t-137.5 -46.5z" />
    <glyph glyph-name="zero.micro" 
d="M290 -12q-130 0 -130 150t130 150t130 -150t-130 -150zM225 104l111 110q-15 16 -46 16q-35 0 -51 -22t-16 -70q0 -14 2 -34zM290 46q35 0 51 22t16 70q0 14 -2 34l-111 -110q15 -16 46 -16z" />
    <glyph glyph-name="one.micro" 
d="M175 0v59h88v135l-69 -39l-29 44l118 83h49v-223h87v-59h-244z" />
    <glyph glyph-name="two.micro" 
d="M173 0v49q0 48 22.5 74.5t71.5 39.5l45 12q30 8 30 26q0 28 -50 28q-47 0 -91 -28l-26 55q57 32 119 32q117 0 117 -87q0 -35 -20 -54.5t-63 -30.5l-46 -12q-39 -10 -40 -45h169v-59h-238z" />
    <glyph glyph-name="three.micro" 
d="M168 -12l-2 59q101 0 139 9t38 33q0 13 -12.5 18t-47.5 5h-65v55h48q68 0 68 31t-53 31q-52 0 -89 -23l-25 55q51 27 115 27q58 0 89 -20t31 -57q0 -41 -41 -57v-2q51 -13 51 -65q0 -54 -55.5 -76.5t-188.5 -22.5z" />
    <glyph glyph-name="four.micro" 
d="M316 0v57h-172v48l139 171h79l-130 -160h84v41l69 32v-73h52v-59h-52v-57h-69z" />
    <glyph glyph-name="five.micro" 
d="M172 -12l-2 59q98 0 134 9t36 32q0 25 -43 25q-34 0 -68 -14l-54 15l18 162h204v-59h-147l-7 -63q32 17 70 17q96 0 96 -81q0 -55 -55 -78.5t-182 -23.5z" />
    <glyph glyph-name="six.micro" 
d="M290 -12q-62 0 -95 33.5t-33 95.5q0 80 57.5 125.5t166.5 45.5l4 -59q-149 -1 -158 -85h2q32 29 79 29q45 0 70.5 -23.5t25.5 -64.5q0 -44 -32 -70.5t-87 -26.5zM291 46q49 0 49 38q0 32 -47 32q-36 0 -61 -21q8 -49 59 -49z" />
    <glyph glyph-name="seven.micro" 
d="M211 0q31 131 116 217h-157v59h241v-60q-100 -87 -124 -216h-76z" />
    <glyph glyph-name="eight.micro" 
d="M290 -12q-59 0 -94.5 23.5t-35.5 62.5q0 40 48 62v2q-39 20 -39 63q0 42 32 64.5t89 22.5q55 0 88 -21.5t33 -57.5t-41 -56v-2q50 -20 50 -69q0 -45 -35.5 -69.5t-94.5 -24.5zM315 165q28 13 28 34q0 31 -54 31q-52 0 -52 -30q0 -12 10 -18t36 -11zM291 46q60 0 60 34
q0 23 -42 32l-47 9q-33 -13 -33 -41q0 -34 62 -34z" />
    <glyph glyph-name="nine.micro" 
d="M193 -12l-4 59q149 1 158 85h-2q-32 -29 -79 -29q-45 0 -70.5 23.5t-25.5 64.5q0 44 32 70.5t87 26.5q62 0 95 -33.5t33 -95.5q0 -80 -57.5 -125.5t-166.5 -45.5zM286 160q36 0 61 21q-8 49 -59 49q-49 0 -49 -38q0 -32 47 -32z" />
    <glyph glyph-name="zero.mini" 
d="M290 -12q-96 0 -146.5 61t-50.5 176t50.5 176t146.5 61t146.5 -61t50.5 -176t-50.5 -176t-146.5 -61zM174 147l206 211q-32 38 -90 38q-125 0 -125 -171q0 -45 9 -78zM290 54q125 0 125 171q0 45 -9 78l-206 -210q32 -39 90 -39z" />
    <glyph glyph-name="one.mini" 
d="M109 0v65h151v286l-128 -70l-29 48l180 127h49v-391h151v-65h-374z" />
    <glyph glyph-name="two.mini" 
d="M111 0v53q0 85 35 130.5t116 64.5l66 16q69 16 69 63q0 69 -107 69q-81 0 -144 -47l-36 56q77 57 178 57q87 0 134 -35.5t47 -101.5q0 -50 -29.5 -81t-94.5 -47l-64 -16q-53 -14 -74 -38.5t-24 -77.5h286v-65h-358z" />
    <glyph glyph-name="three.mini" 
d="M108 -12l-2 65q157 0 224.5 20.5t67.5 68.5q0 28 -24.5 41t-78.5 13h-107v64h69q122 0 122 70q0 66 -104 66q-78 0 -139 -40l-33 58q73 48 174 48q84 0 129 -31.5t45 -89.5q0 -70 -67 -97v-2q86 -18 86 -103q0 -82 -83 -116.5t-279 -34.5z" />
    <glyph glyph-name="four.mini" 
d="M342 0v100h-266v55l213 295h78l-204 -285h179v130l72 41v-171h92v-65h-92v-100h-72z" />
    <glyph glyph-name="five.mini" 
d="M113 -12l-2 65q152 0 218 22t66 73q0 60 -91 60q-67 0 -120 -28l-56 21l30 249h289v-65h-232l-16 -138q52 26 120 26q72 0 110 -32.5t38 -92.5q0 -85 -82.5 -122t-271.5 -38z" />
    <glyph glyph-name="six.mini" 
d="M298 -12q-91 0 -142.5 55t-51.5 154q0 127 85.5 195t252.5 70l4 -65q-249 -6 -268 -160h2q56 53 136 53q75 0 119.5 -40t44.5 -105q0 -71 -50 -114t-132 -43zM299 54q50 0 79.5 24.5t29.5 64.5q0 37 -28 59.5t-77 22.5q-78 0 -126 -57q5 -54 36.5 -84t85.5 -30z" />
    <glyph glyph-name="seven.mini" 
d="M183 0q54 226 207 385h-285v65h369v-70q-165 -158 -209 -380h-82z" />
    <glyph glyph-name="eight.mini" 
d="M290 -12q-92 0 -144 34.5t-52 96.5q0 71 87 114v2q-67 33 -67 100q0 59 47.5 93t128.5 34t128.5 -33.5t47.5 -90.5q0 -64 -68 -102v-2q88 -31 88 -110q0 -65 -51.5 -100.5t-144.5 -35.5zM324 257q70 29 70 76q0 63 -104 63q-49 0 -76.5 -15.5t-27.5 -43.5q0 -37 64 -57z
M290 54q56 0 90 18.5t34 50.5q0 40 -63 58l-96 29q-46 -19 -67.5 -39t-21.5 -47q0 -34 32.5 -52t91.5 -18z" />
    <glyph glyph-name="nine.mini" 
d="M138 -12l-4 65q249 6 268 160h-2q-56 -53 -136 -53q-75 0 -119.5 40t-44.5 105q0 71 50 114t132 43q91 0 142.5 -55t51.5 -154q0 -127 -85.5 -195t-252.5 -70zM277 225q78 0 126 57q-5 54 -36.5 84t-85.5 30q-50 0 -79.5 -24.5t-29.5 -64.5q0 -37 28 -59.5t77 -22.5z" />
    <glyph glyph-name="zero.putit" 
d="M290 -12q-79 0 -120.5 45.5t-41.5 131.5t41.5 131.5t120.5 45.5t120.5 -45.5t41.5 -131.5t-41.5 -131.5t-120.5 -45.5zM200 118l153 142q-23 21 -63 21q-94 0 -94 -116q0 -30 4 -47zM290 49q94 0 94 116q0 30 -4 47l-153 -142q23 -21 63 -21z" />
    <glyph glyph-name="one.putit" 
d="M144 0v61h116v182l-95 -48l-29 46l146 95h49v-275h116v-61h-303z" />
    <glyph glyph-name="two.putit" 
d="M145 0v49q0 61 27.5 93.5t91.5 47.5l54 13q47 11 47 39q0 39 -72 39q-65 0 -116 -35l-33 55q67 41 148 41q70 0 107.5 -26.5t37.5 -75.5q0 -40 -25 -63t-76 -35l-50 -12q-39 -9 -53.5 -23t-16.5 -46h221v-61h-292z" />
    <glyph glyph-name="three.putit" 
d="M140 -12l-1 61q126 0 178 12t52 42q0 18 -19 25.5t-66 7.5h-79v58h57q92 0 92 44q0 43 -76 43q-62 0 -113 -28l-27 54q63 35 142 35q71 0 108 -24t37 -68q0 -51 -52 -70v-2q67 -16 67 -78q0 -61 -68.5 -86.5t-231.5 -25.5z" />
    <glyph glyph-name="four.putit" 
d="M329 0v70h-218v52l175 208h82l-165 -199h126v60l71 41v-101h71v-61h-71v-70h-71z" />
    <glyph glyph-name="five.putit" 
d="M146 -12l-2 61q120 0 169 13t49 47q0 37 -62 37q-48 0 -89 -19l-55 17l24 186h237v-61h-181l-11 -83q43 19 90 19q117 0 117 -96q0 -65 -66.5 -93t-219.5 -28z" />
    <glyph glyph-name="six.putit" 
d="M291 -12q-74 0 -115.5 41t-41.5 114q0 96 71 147t207 52l4 -61q-191 -1 -208 -105h2q40 37 103 37q62 0 95 -28.5t33 -77.5q0 -54 -39.5 -86.5t-110.5 -32.5zM293 49q76 0 76 55q0 49 -70 49q-54 0 -92 -35q11 -69 86 -69z" />
    <glyph glyph-name="seven.putit" 
d="M198 0q42 162 153 269h-211v61h300v-65q-128 -105 -162 -265h-80z" />
    <glyph glyph-name="eight.putit" 
d="M290 -12q-74 0 -117 27.5t-43 74.5q0 51 60 79v2q-46 24 -46 74q0 44 39.5 70.5t106.5 26.5t106.5 -25.5t39.5 -68.5q0 -44 -46 -71v-2q60 -25 60 -80q0 -50 -43 -78.5t-117 -28.5zM312 196q52 14 52 46q0 39 -74 39t-74 -37q0 -14 11 -21.5t41 -15.5zM290 49
q41 0 64.5 12t23.5 34q0 14 -11.5 23t-40.5 16l-58 14q-66 -20 -66 -53q0 -46 88 -46z" />
    <glyph glyph-name="nine.putit" 
d="M168 -12l-4 61q191 1 208 105h-2q-40 -37 -103 -37q-62 0 -95 28.5t-33 77.5q0 54 39.5 86.5t110.5 32.5q74 0 115.5 -41t41.5 -114q0 -96 -71 -147t-207 -52zM281 177q54 0 92 35q-11 69 -86 69q-76 0 -76 -55q0 -49 70 -49z" />
    <glyph glyph-name="zero.dnom" 
d="M290 -12q-130 0 -130 150t130 150t130 -150t-130 -150zM225 104l111 110q-15 16 -46 16q-35 0 -51 -22t-16 -70q0 -14 2 -34zM290 46q35 0 51 22t16 70q0 14 -2 34l-111 -110q15 -16 46 -16z" />
    <glyph glyph-name="one.dnom" 
d="M175 0v59h88v135l-69 -39l-29 44l118 83h49v-223h87v-59h-244z" />
    <glyph glyph-name="two.dnom" 
d="M173 0v49q0 48 22.5 74.5t71.5 39.5l45 12q30 8 30 26q0 28 -50 28q-47 0 -91 -28l-26 55q57 32 119 32q117 0 117 -87q0 -35 -20 -54.5t-63 -30.5l-46 -12q-39 -10 -40 -45h169v-59h-238z" />
    <glyph glyph-name="three.dnom" 
d="M168 -12l-2 59q101 0 139 9t38 33q0 13 -12.5 18t-47.5 5h-65v55h48q68 0 68 31t-53 31q-52 0 -89 -23l-25 55q51 27 115 27q58 0 89 -20t31 -57q0 -41 -41 -57v-2q51 -13 51 -65q0 -54 -55.5 -76.5t-188.5 -22.5z" />
    <glyph glyph-name="four.dnom" 
d="M316 0v57h-172v48l139 171h79l-130 -160h84v41l69 32v-73h52v-59h-52v-57h-69z" />
    <glyph glyph-name="five.dnom" 
d="M172 -12l-2 59q98 0 134 9t36 32q0 25 -43 25q-34 0 -68 -14l-54 15l18 162h204v-59h-147l-7 -63q32 17 70 17q96 0 96 -81q0 -55 -55 -78.5t-182 -23.5z" />
    <glyph glyph-name="six.dnom" 
d="M290 -12q-62 0 -95 33.5t-33 95.5q0 80 57.5 125.5t166.5 45.5l4 -59q-149 -1 -158 -85h2q32 29 79 29q45 0 70.5 -23.5t25.5 -64.5q0 -44 -32 -70.5t-87 -26.5zM291 46q49 0 49 38q0 32 -47 32q-36 0 -61 -21q8 -49 59 -49z" />
    <glyph glyph-name="seven.dnom" 
d="M211 0q31 131 116 217h-157v59h241v-60q-100 -87 -124 -216h-76z" />
    <glyph glyph-name="eight.dnom" 
d="M290 -12q-59 0 -94.5 23.5t-35.5 62.5q0 40 48 62v2q-39 20 -39 63q0 42 32 64.5t89 22.5q55 0 88 -21.5t33 -57.5t-41 -56v-2q50 -20 50 -69q0 -45 -35.5 -69.5t-94.5 -24.5zM315 165q28 13 28 34q0 31 -54 31q-52 0 -52 -30q0 -12 10 -18t36 -11zM291 46q60 0 60 34
q0 23 -42 32l-47 9q-33 -13 -33 -41q0 -34 62 -34z" />
    <glyph glyph-name="nine.dnom" 
d="M193 -12l-4 59q149 1 158 85h-2q-32 -29 -79 -29q-45 0 -70.5 23.5t-25.5 64.5q0 44 32 70.5t87 26.5q62 0 95 -33.5t33 -95.5q0 -80 -57.5 -125.5t-166.5 -45.5zM286 160q36 0 61 21q-8 49 -59 49q-49 0 -49 -38q0 -32 47 -32z" />
    <glyph glyph-name="zero.numr" 
d="M290 342q-130 0 -130 150t130 150t130 -150t-130 -150zM225 458l111 110q-15 16 -46 16q-35 0 -51 -22t-16 -70q0 -14 2 -34zM290 400q35 0 51 22t16 70q0 14 -2 34l-111 -110q15 -16 46 -16z" />
    <glyph glyph-name="one.numr" 
d="M175 354v59h88v135l-69 -39l-29 44l118 83h49v-223h87v-59h-244z" />
    <glyph glyph-name="two.numr" 
d="M173 354v49q0 48 22.5 74.5t71.5 39.5l45 12q30 8 30 26q0 28 -50 28q-47 0 -91 -28l-26 55q57 32 119 32q117 0 117 -87q0 -35 -20 -54.5t-63 -30.5l-46 -12q-39 -10 -40 -45h169v-59h-238z" />
    <glyph glyph-name="three.numr" 
d="M168 342l-2 59q101 0 139 9t38 33q0 13 -12.5 18t-47.5 5h-65v55h48q68 0 68 31t-53 31q-52 0 -89 -23l-25 55q51 27 115 27q58 0 89 -20t31 -57q0 -41 -41 -57v-2q51 -13 51 -65q0 -54 -55.5 -76.5t-188.5 -22.5z" />
    <glyph glyph-name="four.numr" 
d="M316 354v57h-172v48l139 171h79l-130 -160h84v41l69 32v-73h52v-59h-52v-57h-69z" />
    <glyph glyph-name="five.numr" 
d="M172 342l-2 59q98 0 134 9t36 32q0 25 -43 25q-34 0 -68 -14l-54 15l18 162h204v-59h-147l-7 -63q32 17 70 17q96 0 96 -81q0 -55 -55 -78.5t-182 -23.5z" />
    <glyph glyph-name="six.numr" 
d="M290 342q-62 0 -95 33.5t-33 95.5q0 80 57.5 125.5t166.5 45.5l4 -59q-149 -1 -158 -85h2q32 29 79 29q45 0 70.5 -23.5t25.5 -64.5q0 -44 -32 -70.5t-87 -26.5zM291 400q49 0 49 38q0 32 -47 32q-36 0 -61 -21q8 -49 59 -49z" />
    <glyph glyph-name="seven.numr" 
d="M211 354q31 131 116 217h-157v59h241v-60q-100 -87 -124 -216h-76z" />
    <glyph glyph-name="eight.numr" 
d="M290 342q-59 0 -94.5 23.5t-35.5 62.5q0 40 48 62v2q-39 20 -39 63q0 42 32 64.5t89 22.5q55 0 88 -21.5t33 -57.5t-41 -56v-2q50 -20 50 -69q0 -45 -35.5 -69.5t-94.5 -24.5zM315 519q28 13 28 34q0 31 -54 31q-52 0 -52 -30q0 -12 10 -18t36 -11zM291 400q60 0 60 34
q0 23 -42 32l-47 9q-33 -13 -33 -41q0 -34 62 -34z" />
    <glyph glyph-name="nine.numr" 
d="M193 342l-4 59q149 1 158 85h-2q-32 -29 -79 -29q-45 0 -70.5 23.5t-25.5 64.5q0 44 32 70.5t87 26.5q62 0 95 -33.5t33 -95.5q0 -80 -57.5 -125.5t-166.5 -45.5zM286 514q36 0 61 21q-8 49 -59 49q-49 0 -49 -38q0 -32 47 -32z" />
    <glyph glyph-name="zero.dnom.alt" 
d="M290 -12q-79 0 -120.5 45.5t-41.5 131.5t41.5 131.5t120.5 45.5t120.5 -45.5t41.5 -131.5t-41.5 -131.5t-120.5 -45.5zM200 118l153 142q-23 21 -63 21q-94 0 -94 -116q0 -30 4 -47zM290 49q94 0 94 116q0 30 -4 47l-153 -142q23 -21 63 -21z" />
    <glyph glyph-name="one.dnom.alt" 
d="M144 0v61h116v182l-95 -48l-29 46l146 95h49v-275h116v-61h-303z" />
    <glyph glyph-name="two.dnom.alt" 
d="M145 0v49q0 61 27.5 93.5t91.5 47.5l54 13q47 11 47 39q0 39 -72 39q-65 0 -116 -35l-33 55q67 41 148 41q70 0 107.5 -26.5t37.5 -75.5q0 -40 -25 -63t-76 -35l-50 -12q-39 -9 -53.5 -23t-16.5 -46h221v-61h-292z" />
    <glyph glyph-name="three.dnom.alt" 
d="M140 -12l-1 61q126 0 178 12t52 42q0 18 -19 25.5t-66 7.5h-79v58h57q92 0 92 44q0 43 -76 43q-62 0 -113 -28l-27 54q63 35 142 35q71 0 108 -24t37 -68q0 -51 -52 -70v-2q67 -16 67 -78q0 -61 -68.5 -86.5t-231.5 -25.5z" />
    <glyph glyph-name="four.dnom.alt" 
d="M329 0v70h-218v52l175 208h82l-165 -199h126v60l71 41v-101h71v-61h-71v-70h-71z" />
    <glyph glyph-name="five.dnom.alt" 
d="M146 -12l-2 61q120 0 169 13t49 47q0 37 -62 37q-48 0 -89 -19l-55 17l24 186h237v-61h-181l-11 -83q43 19 90 19q117 0 117 -96q0 -65 -66.5 -93t-219.5 -28z" />
    <glyph glyph-name="six.dnom.alt" 
d="M291 -12q-74 0 -115.5 41t-41.5 114q0 96 71 147t207 52l4 -61q-191 -1 -208 -105h2q40 37 103 37q62 0 95 -28.5t33 -77.5q0 -54 -39.5 -86.5t-110.5 -32.5zM293 49q76 0 76 55q0 49 -70 49q-54 0 -92 -35q11 -69 86 -69z" />
    <glyph glyph-name="seven.dnom.alt" 
d="M198 0q42 162 153 269h-211v61h300v-65q-128 -105 -162 -265h-80z" />
    <glyph glyph-name="eight.dnom.alt" 
d="M290 -12q-74 0 -117 27.5t-43 74.5q0 51 60 79v2q-46 24 -46 74q0 44 39.5 70.5t106.5 26.5t106.5 -25.5t39.5 -68.5q0 -44 -46 -71v-2q60 -25 60 -80q0 -50 -43 -78.5t-117 -28.5zM312 196q52 14 52 46q0 39 -74 39t-74 -37q0 -14 11 -21.5t41 -15.5zM290 49
q41 0 64.5 12t23.5 34q0 14 -11.5 23t-40.5 16l-58 14q-66 -20 -66 -53q0 -46 88 -46z" />
    <glyph glyph-name="nine.dnom.alt" 
d="M168 -12l-4 61q191 1 208 105h-2q-40 -37 -103 -37q-62 0 -95 28.5t-33 77.5q0 54 39.5 86.5t110.5 32.5q74 0 115.5 -41t41.5 -114q0 -96 -71 -147t-207 -52zM281 177q54 0 92 35q-11 69 -86 69q-76 0 -76 -55q0 -49 70 -49z" />
    <glyph glyph-name="zero.numr.alt" 
d="M290 288q-79 0 -120.5 45.5t-41.5 131.5t41.5 131.5t120.5 45.5t120.5 -45.5t41.5 -131.5t-41.5 -131.5t-120.5 -45.5zM200 418l153 142q-23 21 -63 21q-94 0 -94 -116q0 -30 4 -47zM290 349q94 0 94 116q0 30 -4 47l-153 -142q23 -21 63 -21z" />
    <glyph glyph-name="one.numr.alt" 
d="M144 300v61h116v182l-95 -48l-29 46l146 95h49v-275h116v-61h-303z" />
    <glyph glyph-name="two.numr.alt" 
d="M145 300v49q0 61 27.5 93.5t91.5 47.5l54 13q47 11 47 39q0 39 -72 39q-65 0 -116 -35l-33 55q67 41 148 41q70 0 107.5 -26.5t37.5 -75.5q0 -40 -25 -63t-76 -35l-50 -12q-39 -9 -53.5 -23t-16.5 -46h221v-61h-292z" />
    <glyph glyph-name="three.numr.alt" 
d="M140 288l-1 61q126 0 178 12t52 42q0 18 -19 25.5t-66 7.5h-79v58h57q92 0 92 44q0 43 -76 43q-62 0 -113 -28l-27 54q63 35 142 35q71 0 108 -24t37 -68q0 -51 -52 -70v-2q67 -16 67 -78q0 -61 -68.5 -86.5t-231.5 -25.5z" />
    <glyph glyph-name="four.numr.alt" 
d="M329 300v70h-218v52l175 208h82l-165 -199h126v60l71 41v-101h71v-61h-71v-70h-71z" />
    <glyph glyph-name="five.numr.alt" 
d="M146 288l-2 61q120 0 169 13t49 47q0 37 -62 37q-48 0 -89 -19l-55 17l24 186h237v-61h-181l-11 -83q43 19 90 19q117 0 117 -96q0 -65 -66.5 -93t-219.5 -28z" />
    <glyph glyph-name="six.numr.alt" 
d="M291 288q-74 0 -115.5 41t-41.5 114q0 96 71 147t207 52l4 -61q-191 -1 -208 -105h2q40 37 103 37q62 0 95 -28.5t33 -77.5q0 -54 -39.5 -86.5t-110.5 -32.5zM293 349q76 0 76 55q0 49 -70 49q-54 0 -92 -35q11 -69 86 -69z" />
    <glyph glyph-name="seven.numr.alt" 
d="M198 300q42 162 153 269h-211v61h300v-65q-128 -105 -162 -265h-80z" />
    <glyph glyph-name="eight.numr.alt" 
d="M290 288q-74 0 -117 27.5t-43 74.5q0 51 60 79v2q-46 24 -46 74q0 44 39.5 70.5t106.5 26.5t106.5 -25.5t39.5 -68.5q0 -44 -46 -71v-2q60 -25 60 -80q0 -50 -43 -78.5t-117 -28.5zM312 496q52 14 52 46q0 39 -74 39t-74 -37q0 -14 11 -21.5t41 -15.5zM290 349
q41 0 64.5 12t23.5 34q0 15 -11.5 23.5t-40.5 15.5l-58 14q-66 -20 -66 -53q0 -46 88 -46z" />
    <glyph glyph-name="nine.numr.alt" 
d="M168 288l-4 61q191 1 208 105h-2q-40 -37 -103 -37q-62 0 -95 28.5t-33 77.5q0 54 39.5 86.5t110.5 32.5q74 0 115.5 -41t41.5 -114q0 -96 -71 -147t-207 -52zM281 477q54 0 92 35q-11 69 -86 69q-76 0 -76 -55q0 -49 70 -49z" />
    <glyph glyph-name="periodcentered.case" 
d="M290 250q-31 0 -53 22t-22 53q0 30 22 52.5t53 22.5t53 -22.5t22 -52.5q0 -31 -22 -53t-53 -22z" />
    <glyph glyph-name="bullet.case" 
d="M290 190q-56 0 -95.5 39.5t-39.5 95.5q0 54 40 94.5t95 40.5t95 -40.5t40 -94.5q0 -56 -39.5 -95.5t-95.5 -39.5z" />
    <glyph glyph-name="exclamdown.case" 
d="M290 662q28 0 48.5 -20t20.5 -49t-20.5 -49t-48.5 -20t-48.5 20t-20.5 49t20.5 49t48.5 20zM298 432l55 -388v-44h-126v44l55 388h16z" />
    <glyph glyph-name="questiondown.case" 
d="M329 662q29 0 49 -20t20 -49t-20 -49t-49 -20t-49 20t-20 49t20 49t49 20zM365 432q9 -36 9 -64q0 -88 -85 -109l-55 -14q-48 -12 -67.5 -31.5t-19.5 -56.5q0 -99 140 -99q108 0 192 68l38 -59q-99 -79 -227 -79q-106 0 -162 43t-56 126q0 63 33 100t104 55l55 14
q43 10 43 53q0 22 -7 53h65z" />
    <glyph glyph-name="braceleft.case" 
d="M425 -135q-100 0 -146.5 44t-46.5 135q0 35 5 73q5 37 5 66q0 59 -23.5 85t-77.5 26h-55v62h55q54 0 77.5 26t23.5 85q0 29 -5 66q-5 38 -5 73q0 91 46.5 135t146.5 44h66v-62h-47q-73 0 -106.5 -29t-33.5 -93q0 -28 5 -65q5 -38 5 -70q0 -114 -88 -139v-4
q88 -25 88 -139q0 -32 -5 -70q-5 -37 -5 -65q0 -64 33.5 -93t106.5 -29h47v-62h-66z" />
    <glyph glyph-name="braceright.case" 
d="M89 -135v62h47q73 0 106.5 29t33.5 93q0 28 -5 65q-5 38 -5 70q0 114 88 139v4q-88 25 -88 139q0 32 5 70q5 37 5 65q0 64 -33.5 93t-106.5 29h-47v62h66q100 0 146.5 -44t46.5 -135q0 -35 -5 -73q-5 -37 -5 -66q0 -59 23.5 -85t77.5 -26h55v-62h-55q-54 0 -77.5 -26
t-23.5 -85q0 -29 5 -66q5 -38 5 -73q0 -91 -46.5 -135t-146.5 -44h-66z" />
    <glyph glyph-name="bracketleft.case" 
d="M154 -135v920h315v-62h-243v-796h243v-62h-315z" />
    <glyph glyph-name="bracketright.case" 
d="M111 -135v62h243v796h-243v62h315v-920h-315z" />
    <glyph glyph-name="parenleft.case" 
d="M453 -147q-149 37 -235 163t-86 309t86 309t235 163v-63q-117 -36 -182 -143t-65 -266t65 -266t182 -143v-63z" />
    <glyph glyph-name="parenright.case" 
d="M127 -147v63q117 36 182 143t65 266t-65 266t-182 143v63q149 -37 235 -163t86 -309t-86 -309t-235 -163z" />
    <glyph glyph-name="emdash.case" 
d="M0 292v66h580v-66h-580z" />
    <glyph glyph-name="endash.case" 
d="M60 292v66h460v-66h-460z" />
    <glyph glyph-name="hyphen.case" 
d="M90 292v66h400v-66h-400z" />
    <glyph glyph-name="uni00AD.case" 
d="M90 292v66h400v-66h-400z" />
    <glyph glyph-name="guillemotleft.case" 
d="M237 147l-162 151v54l162 151l32 -31l-109 -147l109 -147zM472 147l-162 151v54l162 151l32 -31l-109 -147l109 -147z" />
    <glyph glyph-name="guillemotright.case" 
d="M108 147l-32 31l109 147l-109 147l32 31l162 -151v-54zM343 147l-32 31l109 147l-109 147l32 31l162 -151v-54z" />
    <glyph glyph-name="guilsinglleft.case" 
d="M388 147l-224 151v54l224 151l26 -36l-155 -142l155 -142z" />
    <glyph glyph-name="guilsinglright.case" 
d="M192 147l-26 36l155 142l-155 142l26 36l224 -151v-54z" />
    <glyph glyph-name="at.case" 
d="M322 -29q-142 0 -217.5 92t-75.5 261t75.5 262t217.5 93q108 0 164 -54.5t56 -156.5v-282h-53l-9 53q-65 -65 -147 -65q-68 0 -107 39t-39 104q0 70 45 106.5t122 36.5h117v8q0 145 -148 145q-107 0 -164 -75t-57 -213q0 -140 59 -214t164 -74q77 0 142 42l25 -61
q-75 -47 -170 -47zM345 242q72 0 126 56v101h-109q-102 0 -102 -82q0 -75 85 -75z" />
    <glyph glyph-name="bar.case" 
d="M254 -175v1000h72v-1000h-72z" />
    <glyph glyph-name="brokenbar.case" 
d="M254 475v350h72v-350h-72zM254 -175v350h72v-350h-72z" />
    <glyph glyph-name="caroncomb.alt" horiz-adv-x="0" 
d="M-311 524l-42 28q46 50 46 116q0 23 -4 42l85 12q0 -58 -17 -105t-68 -93z" />
    <glyph glyph-name="uni0308.case" horiz-adv-x="0" 
d="M-398 737q-28 0 -47 19t-19 47t19 47t47 19t47 -19t19 -47t-19 -47t-47 -19zM-182 737q-28 0 -47 19t-19 47t19 47t47 19t47 -19t19 -47t-19 -47t-47 -19z" />
    <glyph glyph-name="uni0307.case" horiz-adv-x="0" 
d="M-290 734q-28 0 -48.5 20t-20.5 49t20.5 49t48.5 20t48.5 -20t20.5 -49t-20.5 -49t-48.5 -20z" />
    <glyph glyph-name="gravecomb.case" horiz-adv-x="0" 
d="M-246 719l-170 111l47 63l156 -129z" />
    <glyph glyph-name="acutecomb.case" horiz-adv-x="0" 
d="M-334 719l-33 45l156 129l47 -63z" />
    <glyph glyph-name="uni030B.case" horiz-adv-x="0" 
d="M-424 720l-37 41l123 125l52 -58zM-206 720l-37 41l123 125l52 -58z" />
    <glyph glyph-name="uni0302.case" horiz-adv-x="0" 
d="M-425 719l-33 45l154 126h28l154 -126l-33 -45l-135 96z" />
    <glyph glyph-name="uni030C.case" horiz-adv-x="0" 
d="M-304 719l-154 126l33 45l135 -96l135 96l33 -45l-154 -126h-28z" />
    <glyph glyph-name="uni0306.case" horiz-adv-x="0" 
d="M-290 734q-70 0 -108 39t-47 99h60q4 -32 30 -51.5t65 -19.5t65 19.5t30 51.5h60q-9 -60 -47 -99t-108 -39z" />
    <glyph glyph-name="uni030A.case" horiz-adv-x="0" 
d="M-290 690q-47 0 -79.5 32.5t-32.5 80.5t32.5 80.5t79.5 32.5t79.5 -32.5t32.5 -80.5t-32.5 -80.5t-79.5 -32.5zM-290 747q23 0 37 15.5t14 40.5t-14 40.5t-37 15.5t-37 -15.5t-14 -40.5t14 -40.5t37 -15.5z" />
    <glyph glyph-name="tildecomb.case" horiz-adv-x="0" 
d="M-400 737l-55 10q27 117 105 117q38 0 81 -32q29 -21 44 -21q33 0 47 61l54 -10q-25 -117 -104 -117q-36 0 -81 32q-29 21 -44 21q-33 0 -47 -61z" />
    <glyph glyph-name="uni0304.case" horiz-adv-x="0" 
d="M-425 770v66h270v-66h-270z" />
    <glyph glyph-name="caron.alt" 
d="M269 524l-42 28q46 50 46 116q0 23 -4 42l85 12q0 -58 -17 -105t-68 -93z" />
    <glyph glyph-name="NULL" 
 />
  </font>
</defs>
</svg>
