<?xml version="1.0" encoding="UTF-8"?>
<svg xmlns="http://www.w3.org/2000/svg" width="37.063" height="27.82" viewBox="0 0 37.063 27.82">
  <defs>
    <style>
      .cls-1 {
        fill: #1e62aa;
        fill-rule: evenodd;
      }
    </style>
  </defs>
  <path id="Quotation" class="cls-1" d="M492.306,3011.28c0.206-6.01,3.4-10.92,9.358-14a22.033,22.033,0,0,1,7.122-2.18c0.139-.02.279-0.03,0.419-0.04a0.81,0.81,0,0,1,.4,1.52c-0.4.22-.817,0.39-1.216,0.61a11.493,11.493,0,0,0-3.582,2.77,5.223,5.223,0,0,0-1.194,2.49,3.194,3.194,0,0,0,.557,2.61,2.772,2.772,0,0,0,1.178.87,5.385,5.385,0,0,1,2.848,2.05c3.846,5.44,1.5,13.33-5.442,14.72-4.153.84-8.025-1.47-9.617-5.71A15.613,15.613,0,0,1,492.306,3011.28Zm19.337,0.06c0.179-5.87,3.217-10.71,8.936-13.85a21.394,21.394,0,0,1,7.586-2.38,1.406,1.406,0,0,1,.948.2,0.776,0.776,0,0,1-.215,1.29c-0.646.35-1.313,0.66-1.946,1.03a9.818,9.818,0,0,0-2.955,2.52,4.539,4.539,0,0,0-1.07,3.39,2.662,2.662,0,0,0,2.014,2.5,4.69,4.69,0,0,1,2.532,1.86c3.849,5.29,1.718,13.33-5.34,14.79-4.24.88-8.181-1.52-9.728-5.87A15.547,15.547,0,0,1,511.643,3011.34Z" transform="translate(-492.312 -2995.06)"/>
</svg>
