<?xml version="1.0" standalone="no"?>
<!DOCTYPE svg PUBLIC "-//W3C//DTD SVG 1.1//EN" "http://www.w3.org/Graphics/SVG/1.1/DTD/svg11.dtd" >
<svg xmlns="http://www.w3.org/2000/svg" xmlns:xlink="http://www.w3.org/1999/xlink" version="1.1">
<metadata>
Created by FontForge 20190801 at Wed Feb 27 04:52:22 2019
 By www-data
</metadata>
<defs>
<font id="AUTHENTICSans90" horiz-adv-x="578" >
  <font-face 
    font-family="AUTHENTICSans90"
    font-weight="400"
    font-stretch="normal"
    units-per-em="1000"
    panose-1="0 0 0 0 0 0 0 0 0 0"
    ascent="776"
    descent="-224"
    x-height="540"
    cap-height="752"
    bbox="-68 -239 914 976"
    underline-thickness="0"
    underline-position="0"
    unicode-range="U+0020-1F12F"
  />
<missing-glyph horiz-adv-x="500" 
d="M50 -224v980h400v-980h-400zM100 -174h300v880h-300v-880z" />
    <glyph glyph-name=".notdef" horiz-adv-x="500" 
d="M50 -224v980h400v-980h-400zM100 -174h300v880h-300v-880z" />
    <glyph glyph-name=".null" horiz-adv-x="0" 
 />
    <glyph glyph-name="nonmarkingreturn" horiz-adv-x="333" 
 />
    <glyph glyph-name="space" unicode=" " horiz-adv-x="300" 
 />
    <glyph glyph-name="exclam" unicode="!" horiz-adv-x="328" 
d="M134 197l-24 535h108l-24 -535h-60zM165 -12q-28 0 -48 20t-20 48t20 48t48 20t48 -20t20 -48t-20 -48t-48 -20z" />
    <glyph glyph-name="quotedbl" unicode="&#x22;" horiz-adv-x="318" 
d="M50 484l-10 268h86l-10 -268h-66zM202 484l-10 268h86l-10 -268h-66z" />
    <glyph glyph-name="numbersign" unicode="#" horiz-adv-x="753" 
d="M163 0l33 221h-135l10 74h136l26 169h-142l11 75h141q1 4 15 100.5t19 117.5h76l-33 -218h147l33 218h77l-34 -218h149l-13 -75h-147l-25 -169h153l-10 -74h-154l-34 -221h-77l35 221h-147l-35 -221h-75zM282 295h148l26 169h-147z" />
    <glyph glyph-name="dollar" unicode="$" horiz-adv-x="649" 
d="M281 -119v102q-95 12 -150 69.5t-65 154.5l82 18q14 -131 133 -153v274q-196 70 -196 212q0 79 52.5 127t143.5 56v85h88v-86q166 -21 196 -197l-82 -20q-17 109 -114 129v-241q118 -41 165.5 -94.5t47.5 -127.5q0 -87 -57.5 -143t-155.5 -64v-101h-88zM281 442v213
q-53 -5 -82.5 -29.5t-29.5 -66.5q0 -36 25.5 -63.5t86.5 -53.5zM369 71q58 7 93.5 39t35.5 79q0 40 -30 71t-99 58v-247z" />
    <glyph glyph-name="percent" unicode="%" horiz-adv-x="926" 
d="M231 361q-79 0 -127 55t-48 138t48 138t127 55t127 -55t48 -138t-48 -138t-127 -55zM258 -12l-69 43l470 716l68 -43zM231 442q44 0 70 32t26 80t-26 80t-70 32t-70 -32t-26 -80t26 -80t70 -32zM698 -12q-79 0 -127 55t-48 138t48 138t127 55t127 -55t48 -138t-48 -138
t-127 -55zM698 69q44 0 70 32t26 80t-26 80t-70 32t-70 -32t-26 -80t26 -80t70 -32z" />
    <glyph glyph-name="ampersand" unicode="&#x26;" horiz-adv-x="752" 
d="M297 -15q-104 0 -170 57.5t-66 149.5q0 65 38 116t124 113q-76 116 -76 193q0 69 49 114.5t125 45.5q75 0 126 -45t51 -114q0 -55 -39 -105t-120 -108q67 -93 179 -192q48 77 52 195h82q-7 -153 -68 -255q40 -35 122 -96l-73 -46q-24 17 -101 80q-108 -103 -235 -103z
M290 468q123 79 123 147q0 34 -25 55t-65 21q-41 0 -65.5 -22.5t-24.5 -60.5q0 -58 57 -140zM295 71q94 0 169 77q-95 85 -194 206q-126 -89 -126 -164q0 -51 42.5 -85t108.5 -34z" />
    <glyph glyph-name="quotesingle" unicode="'" horiz-adv-x="166" 
d="M50 484l-10 268h86l-10 -268h-66z" />
    <glyph glyph-name="parenleft" unicode="(" horiz-adv-x="358" 
d="M252 -203q-183 205 -183 508q0 300 183 510l63 -26q-153 -213 -153 -484t153 -483z" />
    <glyph glyph-name="parenright" unicode=")" horiz-adv-x="359" 
d="M106 -203l-63 25q155 211 155 483t-155 484l63 26q184 -209 184 -510q0 -302 -184 -508z" />
    <glyph glyph-name="asterisk" unicode="*" horiz-adv-x="587" 
d="M216 377l-71 51l95 121l-147 31l26 82l139 -52l-10 147h91l-9 -147l138 52l26 -82l-146 -31l94 -121l-71 -51l-77 132z" />
    <glyph glyph-name="plus" unicode="+" horiz-adv-x="714" 
d="M322 65v258h-261v74h261v258h69v-258h262v-74h-262v-258h-69z" />
    <glyph glyph-name="comma" unicode="," horiz-adv-x="334" 
d="M143 -145l-30 42q66 38 69 94q-33 -10 -60 10.5t-27 53.5q0 28 20.5 48t48.5 20t51 -22.5t23 -78.5q0 -103 -95 -167z" />
    <glyph glyph-name="hyphen" unicode="-" horiz-adv-x="394" 
d="M75 298v78h244v-78h-244z" />
    <glyph glyph-name="period" unicode="." horiz-adv-x="329" 
d="M165 -12q-28 0 -48 20t-20 48t20 48t48 20t48 -20t20 -48t-20 -48t-48 -20z" />
    <glyph glyph-name="slash" unicode="/" horiz-adv-x="440" 
d="M104 -81l-72 16l315 870l70 -16z" />
    <glyph glyph-name="zero" unicode="0" horiz-adv-x="599" 
d="M299 -14q-126 0 -190 97t-64 280q0 185 64 282t190 97t190 -97t64 -282q0 -183 -64 -280t-190 -97zM299 72q77 0 120 72.5t43 218.5q0 293 -163 293t-163 -293q0 -146 43 -218.5t120 -72.5z" />
    <glyph glyph-name="one" unicode="1" horiz-adv-x="428" 
d="M235 0v577q-33 -36 -95 -55t-117 -17v84q95 1 154 48t70 108h76v-745h-88z" />
    <glyph glyph-name="two" unicode="2" horiz-adv-x="596" 
d="M35 0q8 94 62.5 173.5t175.5 171.5q89 68 122 112t33 90q0 57 -38.5 87.5t-103.5 30.5q-74 0 -116 -40.5t-46 -117.5l-90 17q12 106 79.5 167t176.5 61t170 -59t61 -148q0 -59 -39 -116.5t-147 -140.5q-89 -67 -128 -109.5t-58 -86.5h377v-92h-491z" />
    <glyph glyph-name="three" unicode="3" horiz-adv-x="584" 
d="M289 -14q-211 0 -258 207l93 17q27 -141 164 -141q71 0 115 35t44 99q0 61 -41 100t-113 39h-74v84h77q58 0 90 34.5t32 87.5q0 54 -33.5 83.5t-93.5 29.5q-65 0 -104 -35t-47 -91l-91 15q17 92 76.5 144.5t160.5 52.5q104 0 163.5 -54.5t59.5 -141.5q0 -109 -96 -161
q60 -24 93.5 -72t33.5 -117q0 -100 -70 -157.5t-181 -57.5z" />
    <glyph glyph-name="four" unicode="4" horiz-adv-x="595" 
d="M364 0v175h-337v93l341 473h84v-481h98v-85h-98v-175h-88zM124 260h240v330z" />
    <glyph glyph-name="five" unicode="5" horiz-adv-x="625" 
d="M304 -14q-188 0 -245 181l89 21q43 -115 156 -115q76 0 123 48t47 125q0 76 -44.5 121.5t-116.5 45.5q-46 0 -84.5 -21.5t-57.5 -56.5l-84 31l24 371h410v-85h-331l-15 -198q67 47 149 47q106 0 174 -71t68 -183q0 -116 -71.5 -188.5t-190.5 -72.5z" />
    <glyph glyph-name="six" unicode="6" horiz-adv-x="609" 
d="M314 -14q-123 0 -188.5 92.5t-65.5 276.5q0 191 68.5 291.5t196.5 100.5q170 0 224 -169l-85 -19q-37 102 -135 102q-44 0 -78 -21.5t-54.5 -60.5t-32.5 -87t-16 -107q65 90 179 90q108 0 174 -66.5t66 -171.5q0 -107 -69.5 -179t-183.5 -72zM322 73q67 0 109.5 44.5
t42.5 114.5q0 68 -40 110.5t-107 42.5q-62 0 -106.5 -36t-57.5 -84q0 -89 44 -140.5t115 -51.5z" />
    <glyph glyph-name="seven" unicode="7" horiz-adv-x="592" 
d="M178 0q13 208 71.5 360.5t179.5 295.5h-389v85h503v-78q-67 -80 -108 -138.5t-78.5 -137t-57 -171.5t-26.5 -216h-95z" />
    <glyph glyph-name="eight" unicode="8" horiz-adv-x="628" 
d="M314 -12q-112 0 -182.5 61.5t-70.5 158.5q0 118 120 191q-98 60 -98 158q0 82 64.5 135.5t166.5 53.5t166.5 -53.5t64.5 -135.5q0 -100 -98 -158q120 -72 120 -191q0 -97 -70.5 -158.5t-182.5 -61.5zM314 439q59 0 99 33t40 82q0 46 -38.5 76t-100.5 30t-100.5 -30
t-38.5 -76q0 -49 40 -82t99 -33zM314 75q74 0 118 36t44 97q0 64 -45.5 105.5t-116.5 41.5q-70 0 -116 -41.5t-46 -105.5q0 -61 44 -97t118 -36z" />
    <glyph glyph-name="nine" unicode="9" horiz-adv-x="625" 
d="M299 -12q-171 0 -223 169l85 19q37 -102 134 -102q86 0 129.5 76t51.5 200q-70 -99 -182 -99q-105 0 -170.5 69t-65.5 175q0 110 69.5 182t183.5 72q122 0 188 -92.5t66 -276.5q0 -191 -69 -291.5t-197 -100.5zM300 341q61 0 104.5 38.5t57.5 90.5q-1 89 -44.5 140.5
t-114.5 51.5q-67 0 -109.5 -44.5t-42.5 -114.5q0 -69 41 -115.5t108 -46.5z" />
    <glyph glyph-name="colon" unicode=":" horiz-adv-x="329" 
d="M165 365q-28 0 -48 20t-20 48t20 48t48 20t48 -20t20 -48t-20 -48t-48 -20zM165 -12q-28 0 -48 20t-20 48t20 48t48 20t48 -20t20 -48t-20 -48t-48 -20z" />
    <glyph glyph-name="semicolon" unicode=";" horiz-adv-x="331" 
d="M165 365q-28 0 -48 20t-20 48t20 48t48 20t48 -20t20 -48t-20 -48t-48 -20zM143 -145l-30 42q66 38 69 94q-33 -10 -60 10.5t-27 53.5q0 28 20.5 48t48.5 20t51 -22.5t23 -78.5q0 -103 -95 -167z" />
    <glyph glyph-name="less" unicode="&#x3c;" horiz-adv-x="703" 
d="M566 50l-454 277v49l454 277l24 -69l-390 -233l390 -232z" />
    <glyph glyph-name="equal" unicode="=" horiz-adv-x="734" 
d="M121 430v75h493v-75h-493zM121 216v73h493v-73h-493z" />
    <glyph glyph-name="greater" unicode="&#x3e;" horiz-adv-x="703" 
d="M137 50l-24 68l392 232l-392 234l24 69l454 -277v-49z" />
    <glyph glyph-name="question" unicode="?" horiz-adv-x="544" 
d="M209 210q-4 60 13.5 108t46 79t58 57t50.5 56t21 63q0 42 -31.5 69t-89.5 27q-64 0 -99 -35.5t-37 -97.5h-85q2 98 62.5 156.5t162.5 58.5q98 0 152.5 -50.5t54.5 -128.5q0 -46 -20.5 -82.5t-48.5 -62t-55.5 -53t-44.5 -69t-12 -95.5h-98zM260 -12q-28 0 -48 20t-20 48
t20 48t48 20t48 -20t20 -48t-20 -48t-48 -20z" />
    <glyph glyph-name="at" unicode="@" horiz-adv-x="874" 
d="M450 -12q-170 0 -279.5 104t-109.5 263q0 164 114 273.5t286 109.5q152 0 252 -89t100 -222q0 -109 -68 -193t-158 -84q-76 0 -91 61q-57 -56 -127 -56q-64 0 -104.5 43.5t-40.5 115.5q0 99 72 183t162 84q73 0 112 -66l14 43h71l-78 -262q-20 -67 30 -67t91 61t41 136
q0 101 -80.5 172t-200.5 71q-137 0 -230 -91t-93 -226q0 -129 88 -212t226 -83q148 0 243 99l52 -42q-48 -59 -124 -92.5t-170 -33.5zM376 231q55 0 105.5 63t50.5 131q0 37 -19.5 57.5t-52.5 20.5q-57 0 -105.5 -57t-48.5 -126q0 -41 19.5 -65t50.5 -24z" />
    <glyph glyph-name="A" unicode="A" horiz-adv-x="707" 
d="M7 0l294 752h106l292 -752h-96l-84 217h-331l-83 -217h-98zM224 305h259l-128 338z" />
    <glyph glyph-name="B" unicode="B" horiz-adv-x="674" 
d="M63 0v752h305q109 0 169.5 -49.5t60.5 -138.5q0 -114 -95 -166q61 -21 94 -68t33 -112q0 -97 -71.5 -157.5t-186.5 -60.5h-309zM153 439h188q77 0 122.5 32.5t45.5 87.5q0 49 -38.5 76.5t-106.5 27.5h-211v-224zM153 90h212q81 0 127 34t45 94q1 62 -48 98t-134 36h-202
v-262z" />
    <glyph glyph-name="C" unicode="C" horiz-adv-x="798" 
d="M409 -19q-163 0 -267 107.5t-104 277.5q0 173 109 288.5t273 115.5q112 0 199 -56.5t131 -158.5l-95 -21q-35 69 -96.5 106.5t-140.5 37.5q-124 0 -203.5 -87t-79.5 -221q0 -131 76.5 -214.5t196.5 -83.5q88 0 155.5 47t100.5 130l90 -20q-44 -119 -133 -183.5
t-212 -64.5z" />
    <glyph glyph-name="D" unicode="D" horiz-adv-x="728" 
d="M63 0v752h265q172 0 264.5 -99t92.5 -273q0 -172 -93 -276t-264 -104h-265zM153 89h158q136 0 209 74t73 217q0 283 -282 283h-158v-574z" />
    <glyph glyph-name="E" unicode="E" horiz-adv-x="639" 
d="M63 0v752h524v-89h-434v-232h401v-89h-401v-252h443v-90h-533z" />
    <glyph glyph-name="F" unicode="F" horiz-adv-x="604" 
d="M63 0v752h518v-89h-428v-232h380v-89h-380v-342h-90z" />
    <glyph glyph-name="G" unicode="G" horiz-adv-x="757" 
d="M371 -19q-148 0 -240.5 108t-92.5 278q0 111 40.5 202t121 146t187.5 55q110 0 188.5 -57.5t115.5 -159.5l-89 -20q-29 72 -85.5 109t-129.5 37q-118 0 -187 -88t-69 -224t70 -216t175 -80q97 0 162.5 68t70.5 172h-211v89h301v-400h-79l-10 98q-38 -55 -100.5 -86
t-138.5 -31z" />
    <glyph glyph-name="H" unicode="H" horiz-adv-x="716" 
d="M63 0v752h90v-324h410v324h90v-752h-90v340h-410v-340h-90z" />
    <glyph glyph-name="I" unicode="I" horiz-adv-x="249" 
d="M78 0v752h92v-752h-92z" />
    <glyph glyph-name="J" unicode="J" horiz-adv-x="548" 
d="M248 -19q-96 0 -157 53t-73 151l90 10q9 -61 45.5 -92.5t95.5 -31.5q67 0 106.5 40t39.5 114v527h90v-527q0 -114 -64.5 -179t-172.5 -65z" />
    <glyph glyph-name="K" unicode="K" horiz-adv-x="699" 
d="M63 0v752h91v-367l388 367h121l-312 -296l343 -456h-114l-295 392l-131 -123v-269h-91z" />
    <glyph glyph-name="L" unicode="L" horiz-adv-x="612" 
d="M63 0v752h91v-662h433v-90h-524z" />
    <glyph glyph-name="M" unicode="M" horiz-adv-x="846" 
d="M63 0v752h114l248 -624l244 624h114v-752h-90v578l-226 -578h-84l-230 578v-578h-90z" />
    <glyph glyph-name="N" unicode="N" horiz-adv-x="710" 
d="M63 0v752h96l397 -594v594h90v-752h-95l-398 597v-597h-90z" />
    <glyph glyph-name="O" unicode="O" horiz-adv-x="812" 
d="M408 -19q-162 0 -266 111t-104 281t102.5 283.5t267.5 113.5q164 0 265.5 -113.5t101.5 -283.5t-103 -281t-264 -111zM408 70q118 0 194.5 85t76.5 219q0 133 -74.5 219.5t-196.5 86.5t-197 -86.5t-75 -219.5t77 -218.5t195 -85.5z" />
    <glyph glyph-name="P" unicode="P" horiz-adv-x="641" 
d="M63 0v752h305q108 0 174.5 -60.5t66.5 -153.5q0 -94 -66.5 -155t-174.5 -61h-214v-322h-91zM154 411h213q68 0 108.5 34.5t40.5 92.5t-40.5 91.5t-108.5 33.5h-213v-252z" />
    <glyph glyph-name="Q" unicode="Q" horiz-adv-x="812" 
d="M408 -19q-162 0 -266 111t-104 281t102.5 283.5t267.5 113.5q164 0 265.5 -113.5t101.5 -283.5q0 -166 -98 -275q50 -50 87 -91l-64 -63q-29 31 -91 95q-89 -58 -201 -58zM408 70q74 0 133 35q-73 68 -89 82l63 63q47 -42 95 -86q69 85 69 210q0 133 -74.5 219.5
t-196.5 86.5t-197 -86.5t-75 -219.5t77 -218.5t195 -85.5z" />
    <glyph glyph-name="R" unicode="R" horiz-adv-x="678" 
d="M63 0v752h312q108 0 174.5 -60.5t66.5 -155.5q0 -64 -33.5 -113.5t-95.5 -74.5q33 -19 52 -56t26 -76.5t25 -101t45 -114.5h-102q-15 29 -28 76t-23 87t-24.5 78.5t-41.5 60.5t-65 22h-198v-324h-90zM153 413h220q67 0 109 35.5t42 91.5t-41 89.5t-110 33.5h-220v-250z
" />
    <glyph glyph-name="S" unicode="S" horiz-adv-x="663" 
d="M342 -19q-124 0 -199.5 60t-94.5 174l90 18q27 -162 199 -162q82 0 133.5 35t51.5 91q0 49 -47.5 85t-155.5 67q-130 37 -190 93t-60 135q0 89 68.5 141t186.5 52q229 0 276 -204l-93 -20q-30 135 -185 135q-74 0 -116.5 -27.5t-42.5 -75.5q0 -46 44 -79t150 -66
q138 -42 198 -98.5t60 -137.5q0 -98 -74.5 -157t-198.5 -59z" />
    <glyph glyph-name="T" unicode="T" horiz-adv-x="626" 
d="M268 0v663h-258v89h606v-89h-258v-663h-90z" />
    <glyph glyph-name="U" unicode="U" horiz-adv-x="712" 
d="M353 -19q-138 0 -214 78t-76 225v468h91v-468q0 -104 51 -158.5t148 -54.5q99 0 151.5 54t52.5 158v469h91v-469q0 -145 -78 -223.5t-217 -78.5z" />
    <glyph glyph-name="V" unicode="V" horiz-adv-x="639" 
d="M283 0l-273 752h98l212 -598l211 598h98l-271 -752h-75z" />
    <glyph glyph-name="W" unicode="W" horiz-adv-x="924" 
d="M210 0l-200 752h95l148 -591l166 591h86l169 -588l146 588h94l-200 -752h-82l-168 596l-172 -596h-82z" />
    <glyph glyph-name="X" unicode="X" horiz-adv-x="665" 
d="M10 0l268 389l-249 363h108l198 -287l193 287h109l-250 -364l268 -388h-110l-210 312l-214 -312h-111z" />
    <glyph glyph-name="Y" unicode="Y" horiz-adv-x="666" 
d="M288 0v326l-283 426h106l222 -340l226 340h101l-281 -426v-326h-91z" />
    <glyph glyph-name="Z" unicode="Z" horiz-adv-x="661" 
d="M48 0v61l437 602h-431v89h559v-67l-435 -595h435v-90h-565z" />
    <glyph glyph-name="bracketleft" unicode="[" horiz-adv-x="319" 
d="M78 -153v1004h204v-71h-130v-861h130v-72h-204z" />
    <glyph glyph-name="bracketright" unicode="]" horiz-adv-x="322" 
d="M40 -153v72h129v861h-129v71h205v-1004h-205z" />
    <glyph glyph-name="underscore" unicode="_" horiz-adv-x="562" 
d="M26 -110v75h511v-75h-511z" />
    <glyph glyph-name="grave" unicode="`" horiz-adv-x="249" 
d="M182 583l-152 127l63 63l126 -153z" />
    <glyph glyph-name="a" unicode="a" horiz-adv-x="559" 
d="M229 -12q-82 0 -133 42t-51 110q0 110 136 152q23 7 64 18.5t60.5 18t42.5 17t32.5 23t9.5 28.5q0 29 -29.5 47.5t-77.5 18.5q-102 0 -132 -81l-85 28q20 66 77 102.5t142 36.5q96 0 149.5 -48t53.5 -139v-252q0 -22 16 -32t37 -1v-79q-20 -10 -43 -10q-31 0 -54.5 17.5
t-33.5 46.5q-79 -64 -181 -64zM233 75q47 0 93 20t73 52v137q-40 -23 -93 -40.5t-87 -25.5t-58.5 -26t-24.5 -47q0 -33 27 -51.5t70 -18.5z" />
    <glyph glyph-name="b" unicode="b" 
d="M312 -12q-98 0 -159 82v-70h-92v756h92v-284q65 78 160 78q101 0 165.5 -80.5t64.5 -200.5t-64 -200.5t-167 -80.5zM303 77q66 0 107 55t41 135q0 81 -41 135.5t-105 54.5q-66 0 -109 -57t-43 -138q0 -79 42.5 -132t107.5 -53z" />
    <glyph glyph-name="c" unicode="c" horiz-adv-x="531" 
d="M277 -12q-111 0 -176.5 82.5t-65.5 200.5q0 121 67.5 199.5t173.5 78.5q77 0 134 -43t83 -119l-87 -22q-18 48 -52 71.5t-76 23.5q-67 0 -109 -54.5t-42 -134.5q0 -81 42.5 -137.5t106.5 -56.5q46 0 80 32t52 87l88 -21q-23 -92 -81 -139.5t-138 -47.5z" />
    <glyph glyph-name="d" unicode="d" horiz-adv-x="577" 
d="M264 -12q-102 0 -166 80.5t-64 198.5q0 121 65.5 201.5t164.5 80.5q94 0 160 -79v286h92v-756h-92v70q-61 -82 -160 -82zM275 77q65 0 107 53t42 132q0 81 -43 137.5t-109 56.5q-64 0 -105 -54t-41 -135t41 -135.5t108 -54.5z" />
    <glyph glyph-name="e" unicode="e" horiz-adv-x="545" 
d="M280 -12q-112 0 -178.5 79.5t-66.5 202.5t66.5 201t175.5 78q104 0 168 -73.5t64 -189.5v-39h-381q5 -75 46 -123t106 -48q100 0 147 102l74 -37q-67 -153 -221 -153zM132 331h282q-8 59 -44.5 95t-92.5 36q-57 0 -96 -36.5t-49 -94.5z" />
    <glyph glyph-name="f" unicode="f" horiz-adv-x="367" 
d="M130 0v444h-99v86h99v106q0 129 134 129q37 0 76 -9v-81q-27 4 -52 4q-41 0 -55 -13t-14 -44v-92h116v-86h-116v-444h-89z" />
    <glyph glyph-name="g" unicode="g" horiz-adv-x="569" 
d="M276 -233q-158 0 -221 147l84 33q42 -92 138 -92q62 0 101.5 41.5t39.5 108.5v76q-60 -75 -152 -75q-101 0 -166 78t-65 194t64.5 193.5t167.5 77.5q91 0 152 -70v61h90v-533q0 -113 -65.5 -176.5t-167.5 -63.5zM274 95q61 0 102.5 52.5t41.5 131.5t-40.5 130.5
t-103.5 51.5q-62 0 -104.5 -53t-42.5 -128q0 -78 42.5 -131.5t104.5 -53.5z" />
    <glyph glyph-name="h" unicode="h" 
d="M59 1v755h91v-284q76 77 182 77q87 0 135.5 -51.5t48.5 -149.5v-347h-90v340q0 62 -29.5 91t-79.5 29q-60 0 -106 -35.5t-61 -89.5v-335h-91z" />
    <glyph glyph-name="i" unicode="i" horiz-adv-x="245" 
d="M123 641q-26 0 -44.5 18.5t-18.5 44.5t18.5 44.5t44.5 18.5t44 -18.5t18 -44.5t-18 -44.5t-44 -18.5zM78 0v540h90v-540h-90z" />
    <glyph glyph-name="j" unicode="j" horiz-adv-x="314" 
d="M191 641q-26 0 -44 18.5t-18 44.5t18 44.5t44 18.5q27 0 45 -18.5t18 -44.5t-18 -44.5t-45 -18.5zM96 -233q-35 0 -68 11v92q32 -8 50 -8q36 0 52 18.5t16 58.5v601h90v-615q0 -158 -140 -158z" />
    <glyph glyph-name="k" unicode="k" horiz-adv-x="525" 
d="M61 0v756h91v-439l227 223h119l-200 -198l215 -342h-101l-176 279l-84 -83v-196h-91z" />
    <glyph glyph-name="l" unicode="l" horiz-adv-x="222" 
d="M66 0v756h90v-756h-90z" />
    <glyph glyph-name="m" unicode="m" horiz-adv-x="874" 
d="M61 0v540h91v-67q67 76 156 76q94 0 149 -93q73 93 179 93q80 0 127.5 -51.5t47.5 -138.5v-359h-90v345q0 57 -23 87t-67 30q-49 0 -93 -34t-56 -82v-346h-90v343q0 56 -25 87.5t-68 31.5q-47 0 -91 -35.5t-56 -83.5v-343h-91z" />
    <glyph glyph-name="n" unicode="n" 
d="M61 0v540h91v-67q76 76 182 76q87 0 135.5 -51.5t48.5 -148.5v-349h-90v342q0 120 -109 120q-60 0 -106 -35t-61 -90v-337h-91z" />
    <glyph glyph-name="o" unicode="o" horiz-adv-x="609" 
d="M304 -12q-117 0 -196.5 80t-79.5 200t79.5 200.5t196.5 80.5t196.5 -80.5t79.5 -200.5t-79.5 -200t-196.5 -80zM304 75q76 0 129 56t53 137t-53 136.5t-129 55.5t-129 -55.5t-53 -136.5t53 -137t129 -56z" />
    <glyph glyph-name="p" unicode="p" horiz-adv-x="586" 
d="M61 -224v764h92v-73q59 82 162 82q105 0 170.5 -80t65.5 -200t-66.5 -200.5t-169.5 -80.5q-96 0 -162 79v-291h-92zM306 81q64 0 107.5 54.5t43.5 135.5q0 80 -42.5 134.5t-109.5 54.5t-109.5 -53.5t-42.5 -129.5q0 -78 43.5 -137t109.5 -59z" />
    <glyph glyph-name="q" unicode="q" horiz-adv-x="585" 
d="M435 -224v291q-68 -79 -163 -79q-104 0 -170.5 80.5t-66.5 200.5t66 200t171 80q101 0 163 -82v73h90v-764h-90zM278 81q69 0 112.5 58t43.5 136t-42.5 131.5t-110.5 53.5t-110.5 -54.5t-42.5 -134.5q0 -81 42.5 -135.5t107.5 -54.5z" />
    <glyph glyph-name="r" unicode="r" horiz-adv-x="346" 
d="M61 0v540h90v-69q33 43 75.5 60t104.5 13v-103q-86 5 -133 -36.5t-47 -120.5v-284h-90z" />
    <glyph glyph-name="s" unicode="s" horiz-adv-x="514" 
d="M261 -12q-89 0 -148 41t-79 117l87 22q31 -94 143 -94q51 0 83.5 19.5t32.5 49.5q0 54 -139 90q-101 30 -147.5 71t-46.5 99q0 68 55 107.5t144 38.5q159 0 213 -138l-87 -25q-19 40 -48.5 57.5t-78.5 17.5q-48 0 -76.5 -16t-28.5 -44q0 -27 31 -47t101 -38
q103 -28 151.5 -69t48.5 -102q0 -72 -58.5 -115t-152.5 -42z" />
    <glyph glyph-name="t" unicode="t" horiz-adv-x="370" 
d="M263 -12q-72 0 -103.5 30.5t-31.5 100.5v334h-88v87h88v151h90v-151h107v-87h-107v-321q0 -31 12.5 -42.5t36.5 -11.5h63v-86q-40 -4 -67 -4z" />
    <glyph glyph-name="u" unicode="u" 
d="M244 -12q-88 0 -135.5 51t-47.5 147v354h91v-352q0 -56 30 -84t74 -28q56 0 104.5 40t67.5 99v325h90v-540h-90v73q-71 -85 -184 -85z" />
    <glyph glyph-name="v" unicode="v" horiz-adv-x="528" 
d="M226 0l-211 540h97l153 -406l153 406h95l-210 -540h-77z" />
    <glyph glyph-name="w" unicode="w" horiz-adv-x="794" 
d="M193 0l-173 540h94l117 -400l120 400h91l121 -400l116 400h95l-173 -540h-76l-127 413l-129 -413h-76z" />
    <glyph glyph-name="x" unicode="x" horiz-adv-x="564" 
d="M18 0l211 276l-196 264h112l139 -190l138 190h110l-194 -264l209 -276h-111l-152 203l-154 -203h-112z" />
    <glyph glyph-name="y" unicode="y" horiz-adv-x="505" 
d="M53 -233v93q53 0 77 13t39 53l40 102l-194 512h97l145 -382l137 382h96l-238 -647q-28 -77 -69 -102.5t-130 -23.5z" />
    <glyph glyph-name="z" unicode="z" horiz-adv-x="504" 
d="M43 0v67l291 381h-287v92h414v-73l-288 -377h288v-90h-418z" />
    <glyph glyph-name="braceleft" unicode="{" horiz-adv-x="344" 
d="M251 -163q-102 0 -102 108v277q0 77 -62 77h-21v86h21q62 0 62 77v277q0 108 102 108q31 0 68 -9v-78q-56 9 -73.5 -1t-17.5 -43v-262q0 -37 -18.5 -67t-47.5 -45q29 -15 47.5 -45t18.5 -67v-262q0 -33 17.5 -43t73.5 -1v-78q-37 -9 -68 -9z" />
    <glyph glyph-name="bar" unicode="|" horiz-adv-x="235" 
d="M82 -204v1020h70v-1020h-70z" />
    <glyph glyph-name="braceright" unicode="}" horiz-adv-x="345" 
d="M93 -163q-31 0 -68 9v78q56 -9 73.5 1t17.5 43v262q0 37 18.5 67t47.5 45q-29 15 -47.5 45t-18.5 67v262q0 33 -17.5 43t-73.5 1v78q37 9 68 9q102 0 102 -108v-277q0 -77 62 -77h21v-86h-21q-62 0 -62 -77v-277q0 -108 -102 -108z" />
    <glyph glyph-name="asciitilde" unicode="~" horiz-adv-x="640" 
d="M125 246l-74 30q18 76 59.5 120t103.5 44q37 0 68 -17.5t49 -38t42.5 -38t50.5 -17.5q34 0 58 25.5t32 67.5l76 -25q-16 -78 -57.5 -120.5t-100.5 -42.5q-36 0 -67 17.5t-49 38t-43.5 38t-51.5 17.5q-36 0 -61 -28.5t-35 -70.5z" />
    <glyph glyph-name="exclamdown" unicode="&#xa1;" horiz-adv-x="328" 
d="M163 549q28 0 48 -20t20 -48t-20 -48t-48 -20t-48 20t-20 48t20 48t48 20zM194 340l24 -535h-108l24 535h60z" />
    <glyph glyph-name="dieresis" unicode="&#xa8;" horiz-adv-x="385" 
d="M93 645q-26 0 -44.5 18t-18.5 44q0 27 18.5 45t44.5 18t44 -18t18 -45q0 -26 -18 -44t-44 -18zM293 645q-26 0 -44.5 18t-18.5 44q0 27 18.5 45t44.5 18t44 -18t18 -45q0 -26 -18 -44t-44 -18z" />
    <glyph glyph-name="copyright" unicode="&#xa9;" horiz-adv-x="866" 
d="M433 -19q-163 0 -279 116t-116 279q0 162 116 278t279 116t279 -116t116 -278q0 -163 -116 -279t-279 -116zM433 47q135 0 231.5 96.5t96.5 232.5q0 135 -96.5 231.5t-231.5 96.5t-231.5 -96.5t-96.5 -231.5q0 -136 96.5 -232.5t231.5 -96.5zM432 151q-85 0 -136.5 62
t-51.5 162q0 101 54 163t140 62q62 0 108 -34t65 -95l-70 -18q-26 76 -100 76q-53 0 -88 -42.5t-35 -108.5q0 -65 35 -110.5t85 -45.5q37 0 65.5 25.5t39.5 70.5l70 -17q-17 -69 -65 -109.5t-116 -40.5z" />
    <glyph glyph-name="acute" unicode="&#xb4;" horiz-adv-x="249" 
d="M67 583l-37 37l126 153l63 -63z" />
    <glyph glyph-name="cedilla" unicode="&#xb8;" horiz-adv-x="251" 
d="M103 -237q-35 0 -73 11v58q33 -10 63 -10q57 0 57 33q0 22 -29 32.5t-76 5.5v109h67v-50q51 0 79 -25t28 -70q0 -43 -30 -68.5t-86 -25.5z" />
    <glyph glyph-name="questiondown" unicode="&#xbf;" horiz-adv-x="544" 
d="M284 549q28 0 48 -20t20 -48t-20 -48t-48 -20t-48 20t-20 48t20 48t48 20zM335 327q4 -60 -13.5 -108t-46 -79t-58 -57t-50.5 -56t-21 -63q0 -42 31.5 -69t89.5 -27q64 0 99 35.5t37 97.5h85q-2 -98 -62.5 -156.5t-162.5 -58.5q-98 0 -152.5 50.5t-54.5 128.5
q0 46 20.5 82.5t48.5 62t55.5 53t44.5 69t12 95.5h98z" />
    <glyph glyph-name="Agrave" unicode="&#xc0;" horiz-adv-x="707" 
d="M366 786l-152 127l63 63l126 -153zM7 0l294 752h106l292 -752h-96l-84 217h-331l-83 -217h-98zM224 305h259l-128 338z" />
    <glyph glyph-name="Aacute" unicode="&#xc1;" horiz-adv-x="707" 
d="M352 786l-37 37l126 153l63 -63zM7 0l294 752h106l292 -752h-96l-84 217h-331l-83 -217h-98zM224 305h259l-128 338z" />
    <glyph glyph-name="Atilde" unicode="&#xc3;" horiz-adv-x="707" 
d="M427 816q-36 0 -75.5 25t-58.5 25q-21 0 -34.5 -13.5t-13.5 -33.5h-83q0 54 35 89t87 35q37 0 78 -25t60 -25q20 0 32.5 13t12.5 34h78q0 -53 -34 -88.5t-84 -35.5zM7 0l294 752h106l292 -752h-96l-84 217h-331l-83 -217h-98zM224 305h259l-128 338z" />
    <glyph glyph-name="Adieresis" unicode="&#xc4;" horiz-adv-x="707" 
d="M250 790q-26 0 -44.5 18t-18.5 44q0 27 18.5 45t44.5 18t44 -18t18 -45q0 -26 -18 -44t-44 -18zM450 790q-26 0 -44.5 18t-18.5 44q0 27 18.5 45t44.5 18t44 -18t18 -45q0 -26 -18 -44t-44 -18zM7 0l294 752h106l292 -752h-96l-84 217h-331l-83 -217h-98zM224 305h259
l-128 338z" />
    <glyph glyph-name="Ccedilla" unicode="&#xc7;" horiz-adv-x="798" 
d="M418 -239q-35 0 -73 11v58q33 -10 63 -10q57 0 57 33q0 22 -29 32.5t-76 5.5v93q-144 17 -233 121t-89 261q0 173 109 288.5t273 115.5q112 0 199 -56.5t131 -158.5l-95 -21q-35 69 -96.5 106.5t-140.5 37.5q-124 0 -203.5 -87t-79.5 -221q0 -131 76.5 -214.5
t196.5 -83.5q88 0 155.5 47t100.5 130l90 -20q-42 -114 -126.5 -178.5t-200.5 -69.5v-31q51 0 79 -25t28 -70q0 -43 -30 -68.5t-86 -25.5z" />
    <glyph glyph-name="Egrave" unicode="&#xc8;" horiz-adv-x="639" 
d="M353 786l-152 127l63 63l126 -153zM63 0v752h524v-89h-434v-232h401v-89h-401v-252h443v-90h-533z" />
    <glyph glyph-name="Eacute" unicode="&#xc9;" horiz-adv-x="639" 
d="M302 786l-37 37l126 153l63 -63zM63 0v752h524v-89h-434v-232h401v-89h-401v-252h443v-90h-533z" />
    <glyph glyph-name="Edieresis" unicode="&#xcb;" horiz-adv-x="639" 
d="M217 790q-26 0 -44.5 18t-18.5 44q0 27 18.5 45t44.5 18t44 -18t18 -45q0 -26 -18 -44t-44 -18zM417 790q-26 0 -44.5 18t-18.5 44q0 27 18.5 45t44.5 18t44 -18t18 -45q0 -26 -18 -44t-44 -18zM63 0v752h524v-89h-434v-232h401v-89h-401v-252h443v-90h-533z" />
    <glyph glyph-name="Igrave" unicode="&#xcc;" horiz-adv-x="254" 
d="M135 786l-152 127l63 63l126 -153zM78 0v752h92v-752h-92z" />
    <glyph glyph-name="Iacute" unicode="&#xcd;" horiz-adv-x="246" 
d="M125 786l-37 37l126 153l63 -63zM78 0v752h92v-752h-92z" />
    <glyph glyph-name="Idieresis" unicode="&#xcf;" horiz-adv-x="250" 
d="M21 790q-26 0 -44.5 18t-18.5 44q0 27 18.5 45t44.5 18t44 -18t18 -45q0 -26 -18 -44t-44 -18zM221 790q-26 0 -44.5 18t-18.5 44q0 27 18.5 45t44.5 18t44 -18t18 -45q0 -26 -18 -44t-44 -18zM78 0v752h92v-752h-92z" />
    <glyph glyph-name="Ntilde" unicode="&#xd1;" horiz-adv-x="696" 
d="M416 816q-36 0 -75.5 25t-58.5 25q-21 0 -34.5 -13.5t-13.5 -33.5h-83q0 54 35 89t87 35q37 0 78 -25t60 -25q20 0 32.5 13t12.5 34h78q0 -53 -34 -88.5t-84 -35.5zM49 0v752h96l397 -594v594h90v-752h-95l-398 597v-597h-90z" />
    <glyph glyph-name="Ograve" unicode="&#xd2;" horiz-adv-x="812" 
d="M418 786l-152 127l63 63l126 -153zM408 -19q-162 0 -266 111t-104 281t102.5 283.5t267.5 113.5q164 0 265.5 -113.5t101.5 -283.5t-103 -281t-264 -111zM408 70q118 0 194.5 85t76.5 219q0 133 -74.5 219.5t-196.5 86.5t-197 -86.5t-75 -219.5t77 -218.5t195 -85.5z" />
    <glyph glyph-name="Oacute" unicode="&#xd3;" horiz-adv-x="812" 
d="M392 786l-37 37l126 153l63 -63zM408 -19q-162 0 -266 111t-104 281t102.5 283.5t267.5 113.5q164 0 265.5 -113.5t101.5 -283.5t-103 -281t-264 -111zM408 70q118 0 194.5 85t76.5 219q0 133 -74.5 219.5t-196.5 86.5t-197 -86.5t-75 -219.5t77 -218.5t195 -85.5z" />
    <glyph glyph-name="Otilde" unicode="&#xd5;" horiz-adv-x="812" 
d="M471 816q-36 0 -75.5 25t-58.5 25q-21 0 -34.5 -13.5t-13.5 -33.5h-83q0 54 35 89t87 35q37 0 78 -25t60 -25q20 0 32.5 13t12.5 34h78q0 -53 -34 -88.5t-84 -35.5zM408 -19q-162 0 -266 111t-104 281t102.5 283.5t267.5 113.5q164 0 265.5 -113.5t101.5 -283.5
t-103 -281t-264 -111zM408 70q118 0 194.5 85t76.5 219q0 133 -74.5 219.5t-196.5 86.5t-197 -86.5t-75 -219.5t77 -218.5t195 -85.5z" />
    <glyph glyph-name="Odieresis" unicode="&#xd6;" horiz-adv-x="812" 
d="M303 790q-26 0 -44.5 18t-18.5 44q0 27 18.5 45t44.5 18t44 -18t18 -45q0 -26 -18 -44t-44 -18zM503 790q-26 0 -44.5 18t-18.5 44q0 27 18.5 45t44.5 18t44 -18t18 -45q0 -26 -18 -44t-44 -18zM408 -19q-162 0 -266 111t-104 281t102.5 283.5t267.5 113.5
q164 0 265.5 -113.5t101.5 -283.5t-103 -281t-264 -111zM408 70q118 0 194.5 85t76.5 219q0 133 -74.5 219.5t-196.5 86.5t-197 -86.5t-75 -219.5t77 -218.5t195 -85.5z" />
    <glyph glyph-name="Oslash" unicode="&#xd8;" horiz-adv-x="807" 
d="M88 0l-60 59l76 76q-69 102 -69 238q0 170 102.5 283.5t267.5 113.5q144 0 243 -91l71 71l60 -59l-76 -76q69 -105 69 -242q0 -170 -103 -281t-264 -111q-145 0 -245 91zM133 374q0 -93 41 -169l408 408q-72 67 -177 67q-122 0 -197 -86.5t-75 -219.5zM405 70
q118 0 194.5 85t76.5 219q0 97 -42 172l-407 -407q72 -69 178 -69z" />
    <glyph glyph-name="Ugrave" unicode="&#xd9;" horiz-adv-x="712" 
d="M378 786l-152 127l63 63l126 -153zM353 -19q-138 0 -214 78t-76 225v468h91v-468q0 -104 51 -158.5t148 -54.5q99 0 151.5 54t52.5 158v469h91v-469q0 -145 -78 -223.5t-217 -78.5z" />
    <glyph glyph-name="Uacute" unicode="&#xda;" horiz-adv-x="712" 
d="M327 786l-37 37l126 153l63 -63zM353 -19q-138 0 -214 78t-76 225v468h91v-468q0 -104 51 -158.5t148 -54.5q99 0 151.5 54t52.5 158v469h91v-469q0 -145 -78 -223.5t-217 -78.5z" />
    <glyph glyph-name="Udieresis" unicode="&#xdc;" horiz-adv-x="712" 
d="M243 790q-26 0 -44.5 18t-18.5 44q0 27 18.5 45t44.5 18t44 -18t18 -45q0 -26 -18 -44t-44 -18zM443 790q-26 0 -44.5 18t-18.5 44q0 27 18.5 45t44.5 18t44 -18t18 -45q0 -26 -18 -44t-44 -18zM353 -19q-138 0 -214 78t-76 225v468h91v-468q0 -104 51 -158.5t148 -54.5
q99 0 151.5 54t52.5 158v469h91v-469q0 -145 -78 -223.5t-217 -78.5z" />
    <glyph glyph-name="Yacute" unicode="&#xdd;" horiz-adv-x="670" 
d="M332 786l-37 37l126 153l63 -63zM291 0v326l-283 426h106l222 -340l226 340h101l-281 -426v-326h-91z" />
    <glyph glyph-name="agrave" unicode="&#xe0;" horiz-adv-x="561" 
d="M309 583l-152 127l63 63l126 -153zM230 -12q-82 0 -133 42t-51 110q0 110 136 152q23 7 64 18.5t60.5 18t42.5 17t32.5 23t9.5 28.5q0 29 -29.5 47.5t-77.5 18.5q-102 0 -132 -81l-85 28q20 66 77 102.5t142 36.5q96 0 149.5 -48t53.5 -139v-252q0 -22 16 -32t37 -1v-79
q-20 -10 -43 -10q-31 0 -54.5 17.5t-33.5 46.5q-79 -64 -181 -64zM234 75q47 0 93 20t73 52v137q-40 -23 -93 -40.5t-87 -25.5t-58.5 -26t-24.5 -47q0 -33 27 -51.5t70 -18.5z" />
    <glyph glyph-name="aacute" unicode="&#xe1;" horiz-adv-x="561" 
d="M257 583l-37 37l126 153l63 -63zM230 -12q-82 0 -133 42t-51 110q0 110 136 152q23 7 64 18.5t60.5 18t42.5 17t32.5 23t9.5 28.5q0 29 -29.5 47.5t-77.5 18.5q-102 0 -132 -81l-85 28q20 66 77 102.5t142 36.5q96 0 149.5 -48t53.5 -139v-252q0 -22 16 -32t37 -1v-79
q-20 -10 -43 -10q-31 0 -54.5 17.5t-33.5 46.5q-79 -64 -181 -64zM234 75q47 0 93 20t73 52v137q-40 -23 -93 -40.5t-87 -25.5t-58.5 -26t-24.5 -47q0 -33 27 -51.5t70 -18.5z" />
    <glyph glyph-name="atilde" unicode="&#xe3;" horiz-adv-x="561" 
d="M360 630q-36 0 -75.5 25t-58.5 25q-21 0 -34.5 -13.5t-13.5 -33.5h-83q0 54 35 89t87 35q37 0 78 -25t60 -25q20 0 32.5 13t12.5 34h78q0 -53 -34 -88.5t-84 -35.5zM230 -12q-82 0 -133 42t-51 110q0 110 136 152q23 7 64 18.5t60.5 18t42.5 17t32.5 23t9.5 28.5
q0 29 -29.5 47.5t-77.5 18.5q-102 0 -132 -81l-85 28q20 66 77 102.5t142 36.5q96 0 149.5 -48t53.5 -139v-252q0 -22 16 -32t37 -1v-79q-20 -10 -43 -10q-31 0 -54.5 17.5t-33.5 46.5q-79 -64 -181 -64zM234 75q47 0 93 20t73 52v137q-40 -23 -93 -40.5t-87 -25.5
t-58.5 -26t-24.5 -47q0 -33 27 -51.5t70 -18.5z" />
    <glyph glyph-name="adieresis" unicode="&#xe4;" horiz-adv-x="561" 
d="M172 645q-26 0 -44.5 18t-18.5 44q0 27 18.5 45t44.5 18t44 -18t18 -45q0 -26 -18 -44t-44 -18zM372 645q-26 0 -44.5 18t-18.5 44q0 27 18.5 45t44.5 18t44 -18t18 -45q0 -26 -18 -44t-44 -18zM230 -12q-82 0 -133 42t-51 110q0 110 136 152q23 7 64 18.5t60.5 18
t42.5 17t32.5 23t9.5 28.5q0 29 -29.5 47.5t-77.5 18.5q-102 0 -132 -81l-85 28q20 66 77 102.5t142 36.5q96 0 149.5 -48t53.5 -139v-252q0 -22 16 -32t37 -1v-79q-20 -10 -43 -10q-31 0 -54.5 17.5t-33.5 46.5q-79 -64 -181 -64zM234 75q47 0 93 20t73 52v137
q-40 -23 -93 -40.5t-87 -25.5t-58.5 -26t-24.5 -47q0 -33 27 -51.5t70 -18.5z" />
    <glyph glyph-name="ccedilla" unicode="&#xe7;" horiz-adv-x="531" 
d="M278 -237q-35 0 -73 11v58q33 -10 63 -10q57 0 57 33q0 22 -29 32.5t-76 5.5v102q-87 20 -136 97.5t-49 178.5q0 121 67.5 199.5t173.5 78.5q77 0 134 -43t83 -119l-87 -22q-18 48 -52 71.5t-76 23.5q-67 0 -109 -54.5t-42 -134.5q0 -81 42.5 -137.5t106.5 -56.5
q46 0 80 32t52 87l88 -21q-23 -89 -78 -136.5t-131 -50.5v-36q51 0 79 -25t28 -70q0 -43 -30 -68.5t-86 -25.5z" />
    <glyph glyph-name="egrave" unicode="&#xe8;" horiz-adv-x="545" 
d="M306 583l-152 127l63 63l126 -153zM280 -12q-112 0 -178.5 79.5t-66.5 202.5t66.5 201t175.5 78q104 0 168 -73.5t64 -189.5v-39h-381q5 -75 46 -123t106 -48q100 0 147 102l74 -37q-67 -153 -221 -153zM132 331h282q-8 59 -44.5 95t-92.5 36q-57 0 -96 -36.5t-49 -94.5z
" />
    <glyph glyph-name="eacute" unicode="&#xe9;" horiz-adv-x="545" 
d="M240 583l-37 37l126 153l63 -63zM280 -12q-112 0 -178.5 79.5t-66.5 202.5t66.5 201t175.5 78q104 0 168 -73.5t64 -189.5v-39h-381q5 -75 46 -123t106 -48q100 0 147 102l74 -37q-67 -153 -221 -153zM132 331h282q-8 59 -44.5 95t-92.5 36q-57 0 -96 -36.5t-49 -94.5z
" />
    <glyph glyph-name="edieresis" unicode="&#xeb;" horiz-adv-x="545" 
d="M169 645q-26 0 -44.5 18t-18.5 44q0 27 18.5 45t44.5 18t44 -18t18 -45q0 -26 -18 -44t-44 -18zM369 645q-26 0 -44.5 18t-18.5 44q0 27 18.5 45t44.5 18t44 -18t18 -45q0 -26 -18 -44t-44 -18zM280 -12q-112 0 -178.5 79.5t-66.5 202.5t66.5 201t175.5 78
q104 0 168 -73.5t64 -189.5v-39h-381q5 -75 46 -123t106 -48q100 0 147 102l74 -37q-67 -153 -221 -153zM132 331h282q-8 59 -44.5 95t-92.5 36q-57 0 -96 -36.5t-49 -94.5z" />
    <glyph glyph-name="igrave" unicode="&#xec;" horiz-adv-x="256" 
d="M139 583l-152 127l63 63l126 -153zM78 0v540h90v-540h-90z" />
    <glyph glyph-name="iacute" unicode="&#xed;" horiz-adv-x="243" 
d="M121 583l-37 37l126 153l63 -63zM78 0v540h90v-540h-90z" />
    <glyph glyph-name="idieresis" unicode="&#xef;" horiz-adv-x="247" 
d="M20 645q-26 0 -44.5 18t-18.5 44q0 27 18.5 45t44.5 18t44 -18t18 -45q0 -26 -18 -44t-44 -18zM220 645q-26 0 -44.5 18t-18.5 44q0 27 18.5 45t44.5 18t44 -18t18 -45q0 -26 -18 -44t-44 -18zM78 0v540h90v-540h-90z" />
    <glyph glyph-name="ntilde" unicode="&#xf1;" horiz-adv-x="579" 
d="M365 630q-36 0 -75.5 25t-58.5 25q-21 0 -34.5 -13.5t-13.5 -33.5h-83q0 54 35 89t87 35q37 0 78 -25t60 -25q20 0 32.5 13t12.5 34h78q0 -53 -34 -88.5t-84 -35.5zM62 0v540h91v-67q76 76 182 76q87 0 135.5 -51.5t48.5 -148.5v-349h-90v342q0 120 -109 120
q-60 0 -106 -35t-61 -90v-337h-91z" />
    <glyph glyph-name="ograve" unicode="&#xf2;" horiz-adv-x="609" 
d="M329 583l-152 127l63 63l126 -153zM304 -12q-117 0 -196.5 80t-79.5 200t79.5 200.5t196.5 80.5t196.5 -80.5t79.5 -200.5t-79.5 -200t-196.5 -80zM304 75q76 0 129 56t53 137t-53 136.5t-129 55.5t-129 -55.5t-53 -136.5t53 -137t129 -56z" />
    <glyph glyph-name="oacute" unicode="&#xf3;" horiz-adv-x="609" 
d="M281 583l-37 37l126 153l63 -63zM304 -12q-117 0 -196.5 80t-79.5 200t79.5 200.5t196.5 80.5t196.5 -80.5t79.5 -200.5t-79.5 -200t-196.5 -80zM304 75q76 0 129 56t53 137t-53 136.5t-129 55.5t-129 -55.5t-53 -136.5t53 -137t129 -56z" />
    <glyph glyph-name="otilde" unicode="&#xf5;" horiz-adv-x="609" 
d="M367 630q-36 0 -75.5 25t-58.5 25q-21 0 -34.5 -13.5t-13.5 -33.5h-83q0 54 35 89t87 35q37 0 78 -25t60 -25q20 0 32.5 13t12.5 34h78q0 -53 -34 -88.5t-84 -35.5zM304 -12q-117 0 -196.5 80t-79.5 200t79.5 200.5t196.5 80.5t196.5 -80.5t79.5 -200.5t-79.5 -200
t-196.5 -80zM304 75q76 0 129 56t53 137t-53 136.5t-129 55.5t-129 -55.5t-53 -136.5t53 -137t129 -56z" />
    <glyph glyph-name="odieresis" unicode="&#xf6;" horiz-adv-x="609" 
d="M192 645q-26 0 -44.5 18t-18.5 44q0 27 18.5 45t44.5 18t44 -18t18 -45q0 -26 -18 -44t-44 -18zM392 645q-26 0 -44.5 18t-18.5 44q0 27 18.5 45t44.5 18t44 -18t18 -45q0 -26 -18 -44t-44 -18zM304 -12q-117 0 -196.5 80t-79.5 200t79.5 200.5t196.5 80.5t196.5 -80.5
t79.5 -200.5t-79.5 -200t-196.5 -80zM304 75q76 0 129 56t53 137t-53 136.5t-129 55.5t-129 -55.5t-53 -136.5t53 -137t129 -56z" />
    <glyph glyph-name="oslash" unicode="&#xf8;" horiz-adv-x="609" 
d="M77 -9l-60 61l57 57q-46 70 -46 159q0 120 79.5 200.5t196.5 80.5q89 0 160 -49l56 56l61 -61l-55 -55q54 -75 54 -172q0 -120 -79.5 -200t-196.5 -80q-98 0 -172 58zM122 268q0 -50 20 -90l256 255q-44 27 -94 27q-76 0 -129 -55.5t-53 -136.5zM304 75q76 0 129 56
t53 137q0 57 -28 104l-261 -261q47 -36 107 -36z" />
    <glyph glyph-name="ugrave" unicode="&#xf9;" 
d="M331 583l-152 127l63 63l126 -153zM244 -12q-88 0 -135.5 51t-47.5 147v354h91v-352q0 -56 30 -84t74 -28q56 0 104.5 40t67.5 99v325h90v-540h-90v73q-71 -85 -184 -85z" />
    <glyph glyph-name="uacute" unicode="&#xfa;" 
d="M254 583l-37 37l126 153l63 -63zM244 -12q-88 0 -135.5 51t-47.5 147v354h91v-352q0 -56 30 -84t74 -28q56 0 104.5 40t67.5 99v325h90v-540h-90v73q-71 -85 -184 -85z" />
    <glyph glyph-name="udieresis" unicode="&#xfc;" 
d="M186 645q-26 0 -44.5 18t-18.5 44q0 27 18.5 45t44.5 18t44 -18t18 -45q0 -26 -18 -44t-44 -18zM386 645q-26 0 -44.5 18t-18.5 44q0 27 18.5 45t44.5 18t44 -18t18 -45q0 -26 -18 -44t-44 -18zM244 -12q-88 0 -135.5 51t-47.5 147v354h91v-352q0 -56 30 -84t74 -28
q56 0 104.5 40t67.5 99v325h90v-540h-90v73q-71 -85 -184 -85z" />
    <glyph glyph-name="yacute" unicode="&#xfd;" horiz-adv-x="505" 
d="M244 583l-37 37l126 153l63 -63zM53 -233v93q53 0 77 13t39 53l40 102l-194 512h97l145 -382l137 382h96l-238 -647q-28 -77 -69 -102.5t-130 -23.5z" />
    <glyph glyph-name="ydieresis" unicode="&#xff;" horiz-adv-x="505" 
d="M145 645q-26 0 -44.5 18t-18.5 44q0 27 18.5 45t44.5 18t44 -18t18 -45q0 -26 -18 -44t-44 -18zM345 645q-26 0 -44.5 18t-18.5 44q0 27 18.5 45t44.5 18t44 -18t18 -45q0 -26 -18 -44t-44 -18zM53 -233v93q53 0 77 13t39 53l40 102l-194 512h97l145 -382l137 382h96
l-238 -647q-28 -77 -69 -102.5t-130 -23.5z" />
    <glyph glyph-name="Itilde" unicode="&#x128;" horiz-adv-x="249" 
d="M198 816q-36 0 -75.5 25t-58.5 25q-21 0 -34.5 -13.5t-13.5 -33.5h-83q0 54 35 89t87 35q37 0 78 -25t60 -25q20 0 32.5 13t12.5 34h78q0 -53 -34 -88.5t-84 -35.5zM78 0v752h92v-752h-92z" />
    <glyph glyph-name="itilde" unicode="&#x129;" horiz-adv-x="246" 
d="M197 630q-36 0 -75.5 25t-58.5 25q-21 0 -34.5 -13.5t-13.5 -33.5h-83q0 54 35 89t87 35q37 0 78 -25t60 -25q20 0 32.5 13t12.5 34h78q0 -53 -34 -88.5t-84 -35.5zM78 0v540h90v-540h-90z" />
    <glyph glyph-name="dotlessi" unicode="&#x131;" horiz-adv-x="246" 
d="M78 0v540h90v-540h-90z" />
    <glyph glyph-name="IJ" unicode="&#x132;" horiz-adv-x="779" 
d="M78 0v752h92v-752h-92zM494 -19q-96 0 -157 53t-73 151l90 10q9 -61 45.5 -92.5t95.5 -31.5q67 0 106.5 40t39.5 114v527h90v-527q0 -114 -64.5 -179t-172.5 -65z" />
    <glyph glyph-name="ij" unicode="&#x133;" horiz-adv-x="499" 
d="M123 641q-26 0 -44.5 18.5t-18.5 44.5t18.5 44.5t44.5 18.5t44 -18.5t18 -44.5t-18 -44.5t-44 -18.5zM376 641q-26 0 -44 18.5t-18 44.5t18 44.5t44 18.5q27 0 45 -18.5t18 -44.5t-18 -44.5t-45 -18.5zM78 0v540h90v-540h-90zM281 -233q-35 0 -68 11v92q32 -8 50 -8
q36 0 52 18.5t16 58.5v601h90v-615q0 -158 -140 -158z" />
    <glyph glyph-name="Nacute" unicode="&#x143;" horiz-adv-x="710" 
d="M334 786l-37 37l126 153l63 -63zM63 0v752h96l397 -594v594h90v-752h-95l-398 597v-597h-90z" />
    <glyph glyph-name="nacute" unicode="&#x144;" 
d="M254 583l-37 37l126 153l63 -63zM61 0v540h91v-67q76 76 182 76q87 0 135.5 -51.5t48.5 -148.5v-349h-90v342q0 120 -109 120q-60 0 -106 -35t-61 -90v-337h-91z" />
    <glyph glyph-name="Utilde" unicode="&#x168;" horiz-adv-x="712" 
d="M420 816q-36 0 -75.5 25t-58.5 25q-21 0 -34.5 -13.5t-13.5 -33.5h-83q0 54 35 89t87 35q37 0 78 -25t60 -25q20 0 32.5 13t12.5 34h78q0 -53 -34 -88.5t-84 -35.5zM353 -19q-138 0 -214 78t-76 225v468h91v-468q0 -104 51 -158.5t148 -54.5q99 0 151.5 54t52.5 158v469
h91v-469q0 -145 -78 -223.5t-217 -78.5z" />
    <glyph glyph-name="utilde" unicode="&#x169;" 
d="M363 630q-36 0 -75.5 25t-58.5 25q-21 0 -34.5 -13.5t-13.5 -33.5h-83q0 54 35 89t87 35q37 0 78 -25t60 -25q20 0 32.5 13t12.5 34h78q0 -53 -34 -88.5t-84 -35.5zM244 -12q-88 0 -135.5 51t-47.5 147v354h91v-352q0 -56 30 -84t74 -28q56 0 104.5 40t67.5 99v325h90
v-540h-90v73q-71 -85 -184 -85z" />
    <glyph glyph-name="Ydieresis" unicode="&#x178;" horiz-adv-x="670" 
d="M227 790q-26 0 -44.5 18t-18.5 44q0 27 18.5 45t44.5 18t44 -18t18 -45q0 -26 -18 -44t-44 -18zM427 790q-26 0 -44.5 18t-18.5 44q0 27 18.5 45t44.5 18t44 -18t18 -45q0 -26 -18 -44t-44 -18zM291 0v326l-283 426h106l222 -340l226 340h101l-281 -426v-326h-91z" />
    <glyph glyph-name="dotlessj" unicode="&#x237;" horiz-adv-x="314" 
d="M96 -233q-35 0 -68 11v92q32 -8 50 -8q36 0 52 18.5t16 58.5v601h90v-615q0 -158 -140 -158z" />
    <glyph glyph-name="tilde" unicode="&#x2dc;" horiz-adv-x="443" 
d="M295 630q-36 0 -75.5 25t-58.5 25q-21 0 -34.5 -13.5t-13.5 -33.5h-83q0 54 35 89t87 35q37 0 78 -25t60 -25q20 0 32.5 13t12.5 34h78q0 -53 -34 -88.5t-84 -35.5z" />
    <glyph glyph-name="Ygrave" unicode="&#x1ef2;" horiz-adv-x="670" 
d="M337 786l-152 127l63 63l126 -153zM291 0v326l-283 426h106l222 -340l226 340h101l-281 -426v-326h-91z" />
    <glyph glyph-name="ygrave" unicode="&#x1ef3;" horiz-adv-x="505" 
d="M275 583l-152 127l63 63l126 -153zM53 -233v93q53 0 77 13t39 53l40 102l-194 512h97l145 -382l137 382h96l-238 -647q-28 -77 -69 -102.5t-130 -23.5z" />
    <glyph glyph-name="endash" unicode="&#x2013;" horiz-adv-x="626" 
d="M75 299v77h476v-77h-476z" />
    <glyph glyph-name="emdash" unicode="&#x2014;" horiz-adv-x="983" 
d="M75 299v77h833v-77h-833z" />
    <glyph glyph-name="quoteleft" unicode="&#x2018;" horiz-adv-x="213" 
d="M135 771l30 -42q-66 -38 -69 -94q33 10 60 -10.5t27 -53.5q0 -28 -20.5 -48t-48.5 -20t-51 22.5t-23 78.5q0 103 95 167z" />
    <glyph glyph-name="quoteright" unicode="&#x2019;" horiz-adv-x="213" 
d="M78 506l-30 42q66 38 69 94q-33 -10 -60 10.5t-27 53.5q0 28 20.5 48t48.5 20q29 0 51.5 -23t22.5 -78q0 -103 -95 -167z" />
    <glyph glyph-name="quotedblleft" unicode="&#x201c;" horiz-adv-x="401" 
d="M323 771l30 -42q-66 -38 -69 -94q33 10 60 -10.5t27 -53.5q0 -28 -20.5 -48t-48.5 -20t-51 22.5t-23 78.5q0 103 95 167zM136 771l30 -42q-66 -38 -69 -94q33 10 60 -10.5t27 -53.5q0 -28 -20.5 -48t-48.5 -20q-29 0 -51.5 22.5t-22.5 78.5q0 103 95 167z" />
    <glyph glyph-name="quotedblright" unicode="&#x201d;" horiz-adv-x="401" 
d="M78 506l-30 42q66 38 69 94q-33 -10 -60 10.5t-27 53.5q0 28 20.5 48t48.5 20q29 0 51.5 -23t22.5 -78q0 -103 -95 -167zM265 506l-30 42q66 38 69 94q-33 -10 -60 10.5t-27 53.5q0 28 20.5 48t48.5 20t51 -23t23 -78q0 -103 -95 -167z" />
    <glyph glyph-name="bullet" unicode="&#x2022;" horiz-adv-x="423" 
d="M211 200q-50 0 -85 35t-35 84q0 50 35 85.5t85 35.5t85 -35.5t35 -85.5q0 -49 -35 -84t-85 -35z" />
    <glyph glyph-name="ellipsis" unicode="&#x2026;" horiz-adv-x="723" 
d="M113 -12q-28 0 -48 20t-20 48t20 48t48 20t48 -20t20 -48t-20 -48t-48 -20zM361 -12q-28 0 -48 20t-20 48t20 48t48 20t48 -20t20 -48t-20 -48t-48 -20zM609 -12q-28 0 -48 20t-20 48t20 48t48 20t48 -20t20 -48t-20 -48t-48 -20z" />
    <glyph glyph-name="copyleft" unicode="&#x1f12f;" horiz-adv-x="866" 
d="M433 -19q-163 0 -279 116t-116 279q0 162 116 278t279 116t279 -116t116 -278q0 -163 -116 -279t-279 -116zM433 47q135 0 231.5 96.5t96.5 232.5q0 135 -96.5 231.5t-231.5 96.5t-231.5 -96.5t-96.5 -231.5q0 -136 96.5 -232.5t231.5 -96.5zM434 151q-68 0 -116 40.5
t-65 109.5l70 17q11 -45 39.5 -70.5t65.5 -25.5q50 0 85 45.5t35 110.5q0 66 -35 108.5t-88 42.5q-74 0 -100 -76l-70 18q19 61 65 95t108 34q86 0 140 -62t54 -163q0 -100 -51.5 -162t-136.5 -62z" />
  </font>
</defs>
</svg>
