<?xml version="1.0" standalone="no"?>
<!DOCTYPE svg PUBLIC "-//W3C//DTD SVG 1.1//EN" "http://www.w3.org/Graphics/SVG/1.1/DTD/svg11.dtd" >
<svg xmlns="http://www.w3.org/2000/svg" xmlns:xlink="http://www.w3.org/1999/xlink" version="1.1">
<metadata>
Created by FontForge 20190801 at Wed Feb 27 04:54:32 2019
 By www-data
</metadata>
<defs>
<font id="AUTHENTICSans60" horiz-adv-x="548" >
  <font-face 
    font-family="AUTHENTICSans60"
    font-weight="300"
    font-stretch="normal"
    units-per-em="1000"
    panose-1="0 0 0 0 0 0 0 0 0 0"
    ascent="776"
    descent="-224"
    x-height="540"
    cap-height="752"
    bbox="-68 -233.604 908 957"
    underline-thickness="0"
    underline-position="0"
    unicode-range="U+0020-1F12F"
  />
<missing-glyph horiz-adv-x="500" 
d="M50 -224v980h400v-980h-400zM100 -174h300v880h-300v-880z" />
    <glyph glyph-name=".notdef" horiz-adv-x="500" 
d="M50 -224v980h400v-980h-400zM100 -174h300v880h-300v-880z" />
    <glyph glyph-name=".null" horiz-adv-x="0" 
 />
    <glyph glyph-name="nonmarkingreturn" horiz-adv-x="333" 
 />
    <glyph glyph-name="space" unicode=" " horiz-adv-x="300" 
 />
    <glyph glyph-name="exclam" unicode="!" horiz-adv-x="298" 
d="M133 182l-21 550h72l-21 -550h-30zM150 -12q-22 0 -37.5 15.5t-15.5 37.5t15.5 37.5t37.5 15.5t37.5 -15.5t15.5 -37.5t-15.5 -37.5t-37.5 -15.5z" />
    <glyph glyph-name="quotedbl" unicode="&#x22;" horiz-adv-x="258" 
d="M50 484l-10 268h56l-10 -268h-36zM172 484l-10 268h56l-10 -268h-36z" />
    <glyph glyph-name="numbersign" unicode="#" horiz-adv-x="749" 
d="M174 0l38 251h-151l6 44h151l31 199h-158l7 45h156q3 18 14.5 99t19.5 119h46l-33 -218h177l33 218h47l-34 -218h164l-9 -45h-161l-30 -199h168l-6 -44h-168l-39 -251h-47l40 251h-177l-40 -251h-45zM263 295h178l31 199h-177z" />
    <glyph glyph-name="dollar" unicode="$" horiz-adv-x="637" 
d="M290 -119v102q-94 10 -151.5 67t-72.5 157l56 9q10 -76 53.5 -121t114.5 -53v315q-104 35 -152 86t-48 120q0 78 54 126t146 53v84h63v-85q171 -20 205 -195l-56 -12q-24 131 -149 149v-282q119 -39 168 -90.5t49 -125.5q0 -88 -58.5 -142.5t-158.5 -60.5v-101h-63z
M290 423v262q-67 -5 -104.5 -35.5t-37.5 -82.5q0 -45 33.5 -79.5t108.5 -64.5zM353 42q72 7 116 46t44 96q0 50 -38 86.5t-122 66.5v-295z" />
    <glyph glyph-name="percent" unicode="%" horiz-adv-x="896" 
d="M231 361q-79 0 -127 55t-48 138t48 138t127 55t127 -55t48 -138t-48 -138t-127 -55zM226 -12l-43 26l475 733l43 -26zM231 417q56 0 89.5 39.5t33.5 97.5t-33.5 97.5t-89.5 39.5t-89.5 -39.5t-33.5 -97.5t33.5 -97.5t89.5 -39.5zM668 -12q-79 0 -127 55t-48 138t48 138
t127 55t127 -55t48 -138t-48 -138t-127 -55zM668 44q56 0 89.5 39.5t33.5 97.5t-33.5 97.5t-89.5 39.5t-89.5 -39.5t-33.5 -97.5t33.5 -97.5t89.5 -39.5z" />
    <glyph glyph-name="ampersand" unicode="&#x26;" horiz-adv-x="739" 
d="M292 -15q-103 0 -167 56t-64 146q0 62 38.5 113.5t139.5 125.5q-77 117 -77 194q0 68 44.5 111t114.5 43q71 0 117 -41.5t46 -106.5q0 -50 -36.5 -99.5t-126.5 -113.5q68 -105 198 -221q47 75 51 213h52q-5 -155 -58 -257q37 -36 129 -104l-55 -26q-26 19 -106 84
q-112 -117 -240 -117zM287 462q141 88 141 170q0 39 -29 62.5t-75 23.5q-48 0 -76 -25.5t-28 -68.5q0 -65 67 -162zM287 41q112 0 201 103q-97 84 -219 234q-81 -56 -118 -103t-37 -94q0 -59 50 -99.5t123 -40.5z" />
    <glyph glyph-name="quotesingle" unicode="'" horiz-adv-x="136" 
d="M50 484l-10 268h56l-10 -268h-36z" />
    <glyph glyph-name="parenleft" unicode="(" horiz-adv-x="328" 
d="M252 -203q-183 205 -183 508q0 300 183 510l33 -26q-153 -213 -153 -484t153 -483z" />
    <glyph glyph-name="parenright" unicode=")" horiz-adv-x="329" 
d="M76 -203l-33 25q155 211 155 483t-155 484l33 26q184 -209 184 -510q0 -302 -184 -508z" />
    <glyph glyph-name="asterisk" unicode="*" horiz-adv-x="576" 
d="M196 390l-44 31l106 140l-163 36l16 51l157 -54l-7 163h54l-6 -163l156 54l16 -51l-162 -36l105 -140l-44 -31l-92 145z" />
    <glyph glyph-name="plus" unicode="+" horiz-adv-x="714" 
d="M337 65v273h-276v44h276v273h39v-273h277v-44h-277v-273h-39z" />
    <glyph glyph-name="comma" unicode="," horiz-adv-x="303" 
d="M125 -135l-16 28q27 15 46 41.5t17 57.5q-28 -12 -52.5 5t-24.5 44q0 21 15.5 36.5t37.5 15.5q38 0 51 -31q8 -18 8 -47q0 -92 -82 -150z" />
    <glyph glyph-name="hyphen" unicode="-" horiz-adv-x="394" 
d="M75 313v48h244v-48h-244z" />
    <glyph glyph-name="period" unicode="." horiz-adv-x="299" 
d="M150 -12q-22 0 -37.5 15.5t-15.5 37.5t15.5 37.5t37.5 15.5t37.5 -15.5t15.5 -37.5t-15.5 -37.5t-37.5 -15.5z" />
    <glyph glyph-name="slash" unicode="/" horiz-adv-x="412" 
d="M76 -74l-44 9l315 870l42 -9z" />
    <glyph glyph-name="zero" unicode="0" horiz-adv-x="599" 
d="M299 -14q-126 0 -190 97t-64 280q0 185 64 282t190 97t190 -97t64 -282q0 -183 -64 -280t-190 -97zM299 42q91 0 142 80t51 241q0 323 -193 323t-193 -323q0 -161 51 -241t142 -80z" />
    <glyph glyph-name="one" unicode="1" horiz-adv-x="420" 
d="M247 0v616q-31 -39 -101.5 -60.5t-125.5 -16.5v50q106 -1 169 48.5t70 107.5h46v-745h-58z" />
    <glyph glyph-name="two" unicode="2" horiz-adv-x="596" 
d="M31 0q7 90 68 165t200 180q87 67 121 112.5t34 97.5q0 66 -47 103t-126 37q-87 0 -136.5 -46t-54.5 -134l-60 9q12 106 79.5 167t176.5 61t170 -58.5t61 -143.5q0 -60 -41.5 -116t-159.5 -146q-108 -82 -151.5 -130t-62.5 -96h420v-62h-491z" />
    <glyph glyph-name="three" unicode="3" horiz-adv-x="584" 
d="M293 -14q-211 0 -258 207l63 13q32 -167 195 -167q83 0 135.5 40.5t52.5 115.5q0 70 -48.5 116t-135.5 46h-74v54h77q73 0 112.5 42t39.5 107q0 64 -39.5 97.5t-112.5 33.5q-83 0 -129 -42.5t-56 -110.5l-62 12q17 90 75.5 143.5t161.5 53.5q104 0 163.5 -53.5
t59.5 -136.5q0 -110 -111 -167q142 -57 142 -194q0 -98 -71 -154t-180 -56z" />
    <glyph glyph-name="four" unicode="4" horiz-adv-x="593" 
d="M372 0v190h-352v78l341 473h69v-496h113v-55h-113v-190h-58zM77 245h295v407z" />
    <glyph glyph-name="five" unicode="5" horiz-adv-x="639" 
d="M309 -14q-186 0 -243 181l59 14q50 -138 182 -138q91 0 147.5 57t56.5 149q0 88 -51.5 141t-136.5 53q-51 0 -96.5 -22.5t-64.5 -57.5l-67 15l23 359h410v-55h-359l-18 -245q72 64 180 64q106 0 174 -71t68 -183q0 -117 -73 -189t-191 -72z" />
    <glyph glyph-name="six" unicode="6" horiz-adv-x="603" 
d="M309 -14q-116 0 -179 91t-63 278q0 194 65 293t187 99q88 0 143 -45.5t79 -123.5l-56 -11q-45 124 -161 124q-186 0 -203 -326q68 110 196 110q112 0 177 -67t65 -171t-68.5 -177.5t-181.5 -73.5zM318 43q79 0 128.5 53t49.5 136q0 80 -46.5 131.5t-123.5 51.5
q-78 0 -130 -46.5t-58 -100.5q-3 -105 47 -165t133 -60z" />
    <glyph glyph-name="seven" unicode="7" horiz-adv-x="611" 
d="M208 0q14 224 77.5 383.5t193.5 302.5h-439v55h503v-66q-67 -80 -108.5 -140t-78.5 -139.5t-56.5 -175t-26.5 -220.5h-65z" />
    <glyph glyph-name="eight" unicode="8" horiz-adv-x="639" 
d="M320 -12q-112 0 -182.5 59.5t-70.5 153.5q0 117 135 198q-113 69 -113 166q0 79 64.5 130t166.5 51t166.5 -51t64.5 -130q0 -98 -113 -166q135 -81 135 -198q0 -94 -70.5 -153.5t-182.5 -59.5zM320 424q70 0 119.5 41t49.5 100q0 55 -46.5 90t-122.5 35t-122.5 -35
t-46.5 -90q0 -59 49.5 -100t119.5 -41zM320 45q88 0 140 40.5t52 111.5q0 75 -54.5 124t-137.5 49t-137.5 -49t-54.5 -124q0 -71 52 -111.5t140 -40.5z" />
    <glyph glyph-name="nine" unicode="9" horiz-adv-x="626" 
d="M307 -12q-88 0 -143 45.5t-79 123.5l56 12q44 -125 161 -125q186 0 203 326q-77 -124 -201 -124q-108 0 -172.5 70.5t-64.5 177.5t68.5 181t181.5 74q116 0 179 -91t63 -278q0 -194 -65 -293t-187 -99zM303 306q76 0 127 51t58 110q3 105 -47 165t-133 60
q-79 0 -128.5 -53t-49.5 -136q0 -82 47.5 -139.5t125.5 -57.5z" />
    <glyph glyph-name="colon" unicode=":" horiz-adv-x="299" 
d="M150 365q-22 0 -37.5 15.5t-15.5 37.5t15.5 37.5t37.5 15.5t37.5 -15.5t15.5 -37.5t-15.5 -37.5t-37.5 -15.5zM150 -12q-22 0 -37.5 15.5t-15.5 37.5t15.5 37.5t37.5 15.5t37.5 -15.5t15.5 -37.5t-15.5 -37.5t-37.5 -15.5z" />
    <glyph glyph-name="semicolon" unicode=";" horiz-adv-x="300" 
d="M150 365q-22 0 -37.5 15.5t-15.5 37.5t15.5 37.5t37.5 15.5t37.5 -15.5t15.5 -37.5t-15.5 -37.5t-37.5 -15.5zM125 -135l-16 28q27 15 46 41.5t17 57.5q-28 -12 -52.5 5t-24.5 44q0 21 15.5 36.5t37.5 15.5q38 0 51 -31q8 -18 8 -47q0 -92 -82 -150z" />
    <glyph glyph-name="less" unicode="&#x3c;" horiz-adv-x="692" 
d="M566 50l-454 277v49l454 277l13 -39l-431 -263l431 -262z" />
    <glyph glyph-name="equal" unicode="=" horiz-adv-x="734" 
d="M121 445v45h493v-45h-493zM121 231v43h493v-43h-493z" />
    <glyph glyph-name="greater" unicode="&#x3e;" horiz-adv-x="692" 
d="M126 50l-13 37l434 262l-434 265l13 39l454 -277v-49z" />
    <glyph glyph-name="question" unicode="?" horiz-adv-x="529" 
d="M217 210q-4 60 14.5 108t48 79.5t60 58.5t52 59t21.5 67q0 49 -37 83t-107 34q-74 0 -115 -43t-43 -120h-55q2 98 60.5 156.5t157.5 58.5q93 0 146 -50t53 -127q0 -46 -21 -83t-50 -63t-58 -53.5t-46.5 -69t-12.5 -95.5h-68zM254 -12q-22 0 -37.5 15.5t-15.5 37.5
t15.5 37.5t37.5 15.5t37.5 -15.5t15.5 -37.5t-15.5 -37.5t-37.5 -15.5z" />
    <glyph glyph-name="at" unicode="@" horiz-adv-x="829" 
d="M425 14q-156 0 -260 97t-104 244q0 155 108 258t270 103q144 0 236.5 -84.5t92.5 -214.5q0 -104 -60 -185.5t-134 -81.5q-31 0 -52.5 18t-22.5 57q-63 -70 -144 -70q-67 0 -106.5 43t-39.5 114q0 103 76.5 186t169.5 83q78 0 125 -82l19 59h41l-89 -298
q-8 -26 -0.5 -43.5t30.5 -17.5q49 0 96 68t47 152q0 108 -82 183t-206 75q-140 0 -235.5 -93.5t-95.5 -231.5q0 -130 90.5 -214.5t229.5 -84.5q145 0 245 103l28 -21q-101 -121 -273 -121zM354 201q69 0 132 75t63 157q0 46 -26 73t-71 27q-74 0 -132.5 -66.5t-58.5 -149.5
q0 -52 25.5 -84t67.5 -32z" />
    <glyph glyph-name="A" unicode="A" horiz-adv-x="677" 
d="M7 0l294 752h76l292 -752h-66l-91 232h-349l-88 -232h-68zM189 290h298l-147 389z" />
    <glyph glyph-name="B" unicode="B" horiz-adv-x="659" 
d="M63 0v752h305q101 0 158 -48t57 -134q0 -116 -105 -172q137 -46 137 -185q0 -96 -68.5 -154.5t-180.5 -58.5h-303zM123 424h215q83 0 134.5 40.5t51.5 105.5q0 57 -41 90t-111 33h-249v-269zM123 60h233q89 0 143 41t53 108q1 71 -57.5 114.5t-153.5 43.5h-218v-307z" />
    <glyph glyph-name="C" unicode="C" horiz-adv-x="798" 
d="M409 -19q-163 0 -267 107.5t-104 277.5q0 173 109 288.5t273 115.5q112 0 199 -56.5t131 -158.5l-65 -6q-37 74 -107.5 116.5t-159.5 42.5q-137 0 -225 -95.5t-88 -242.5q0 -145 85 -236.5t218 -91.5q98 0 173.5 53.5t112.5 146.5l60 -13q-44 -119 -133 -183.5
t-212 -64.5z" />
    <glyph glyph-name="D" unicode="D" horiz-adv-x="728" 
d="M63 0v752h265q172 0 264.5 -99t92.5 -273q0 -172 -93 -276t-264 -104h-265zM123 59h188q151 0 231.5 81.5t80.5 239.5q0 313 -312 313h-188v-634z" />
    <glyph glyph-name="E" unicode="E" horiz-adv-x="639" 
d="M63 0v752h524v-59h-464v-277h431v-59h-431v-297h473v-60h-533z" />
    <glyph glyph-name="F" unicode="F" horiz-adv-x="604" 
d="M63 0v752h518v-59h-458v-277h410v-59h-410v-357h-60z" />
    <glyph glyph-name="G" unicode="G" horiz-adv-x="757" 
d="M373 -19q-149 0 -242 107.5t-93 278.5q0 111 40.5 202t121 146t187.5 55q110 0 188.5 -57.5t115.5 -159.5l-59 -12q-33 83 -97.5 125.5t-148.5 42.5q-132 0 -208.5 -96.5t-76.5 -245.5q0 -150 78.5 -238t194.5 -88q119 0 195 86.5t71 209.5h-242v59h301v-396h-51l-10 117
q-39 -63 -109 -99.5t-156 -36.5z" />
    <glyph glyph-name="H" unicode="H" horiz-adv-x="716" 
d="M63 0v752h60v-339h470v339h60v-752h-60v355h-470v-355h-60z" />
    <glyph glyph-name="I" unicode="I" horiz-adv-x="219" 
d="M78 0v752h62v-752h-62z" />
    <glyph glyph-name="J" unicode="J" horiz-adv-x="518" 
d="M233 -19q-91 0 -147.5 50t-67.5 139l62 6q8 -64 48.5 -99.5t105.5 -35.5q75 0 118 45t43 124v542h60v-544q0 -105 -59.5 -166t-162.5 -61z" />
    <glyph glyph-name="K" unicode="K" horiz-adv-x="677" 
d="M63 0v752h61v-413l437 413h77l-311 -294l345 -458h-77l-312 415l-159 -150v-265h-61z" />
    <glyph glyph-name="L" unicode="L" horiz-adv-x="612" 
d="M63 0v752h61v-692h463v-60h-524z" />
    <glyph glyph-name="M" unicode="M" horiz-adv-x="846" 
d="M63 0v752h99l263 -662l259 662h99v-752h-60v693l-271 -693h-54l-275 691v-691h-60z" />
    <glyph glyph-name="N" unicode="N" horiz-adv-x="703" 
d="M63 0v752h74l442 -654v654h60v-752h-73l-443 658v-658h-60z" />
    <glyph glyph-name="O" unicode="O" horiz-adv-x="812" 
d="M408 -19q-162 0 -266 111t-104 281t102.5 283.5t267.5 113.5q164 0 265.5 -113.5t101.5 -283.5t-103 -281t-264 -111zM408 40q131 0 216 93.5t85 240.5q0 146 -83 241t-218 95t-218.5 -95t-83.5 -241t85.5 -240t216.5 -94z" />
    <glyph glyph-name="P" unicode="P" horiz-adv-x="641" 
d="M63 0v752h305q107 0 174 -57t67 -149t-67.5 -150.5t-173.5 -58.5h-244v-337h-61zM124 396h243q81 0 130 41t49 109t-48 107.5t-131 39.5h-243v-297z" />
    <glyph glyph-name="Q" unicode="Q" horiz-adv-x="812" 
d="M408 -19q-162 0 -266 111t-104 281t102.5 283.5t267.5 113.5q164 0 265.5 -113.5t101.5 -283.5q0 -176 -109 -287q51 -51 96 -100l-46 -44q-67 71 -99 102q-91 -63 -209 -63zM408 40q91 0 164 48q-24 23 -85 78l44 44q49 -43 89 -80q89 94 89 244q0 146 -83 241t-218 95
t-218.5 -95t-83.5 -241t85.5 -240t216.5 -94z" />
    <glyph glyph-name="R" unicode="R" horiz-adv-x="678" 
d="M63 0v752h312q106 0 173.5 -60.5t67.5 -155.5q0 -65 -33.5 -114t-95.5 -74q33 -19 52 -56t26 -76.5t25 -101t45 -114.5h-70q-19 38 -35.5 103.5t-27.5 109t-41 77.5t-79 34h-259v-324h-60zM123 383h250q80 0 130.5 44t50.5 113t-49.5 111t-131.5 42h-250v-310z" />
    <glyph glyph-name="S" unicode="S" horiz-adv-x="649" 
d="M335 -19q-121 0 -194.5 60t-92.5 174l61 10q14 -89 70.5 -136t150.5 -47q92 0 150 42t58 108q0 57 -52 97.5t-170 74.5q-126 36 -183.5 90t-57.5 130q0 86 65.5 136t177.5 50q111 0 180 -52.5t89 -151.5l-60 -13q-32 158 -209 158q-84 0 -132 -32.5t-48 -90.5
q0 -55 49 -94.5t162 -73.5q138 -41 195 -95t57 -132q0 -97 -72.5 -154.5t-193.5 -57.5z" />
    <glyph glyph-name="T" unicode="T" horiz-adv-x="626" 
d="M283 0v693h-273v59h606v-59h-273v-693h-60z" />
    <glyph glyph-name="U" unicode="U" horiz-adv-x="712" 
d="M353 -19q-140 0 -215 79t-75 227v465h61v-463q0 -121 59 -184.5t170 -63.5q114 0 174 63t60 184v464h61v-466q0 -146 -77 -225.5t-218 -79.5z" />
    <glyph glyph-name="V" unicode="V" horiz-adv-x="629" 
d="M283 0l-273 752h68l237 -669l236 669h68l-271 -752h-65z" />
    <glyph glyph-name="W" unicode="W" horiz-adv-x="917" 
d="M210 0l-200 752h65l167 -669l189 669h56l191 -665l165 665h64l-200 -752h-63l-183 648l-187 -648h-64z" />
    <glyph glyph-name="X" unicode="X" horiz-adv-x="628" 
d="M10 0l268 389l-249 363h71l216 -315l212 315h72l-250 -364l268 -388h-73l-229 340l-232 -340h-74z" />
    <glyph glyph-name="Y" unicode="Y" horiz-adv-x="657" 
d="M298 0v310l-293 442h74l250 -383l254 383h68l-292 -443v-309h-61z" />
    <glyph glyph-name="Z" unicode="Z" horiz-adv-x="661" 
d="M48 0v48l486 645h-480v59h559v-54l-484 -638h484v-60h-565z" />
    <glyph glyph-name="bracketleft" unicode="[" horiz-adv-x="289" 
d="M78 -153v1004h174v-41h-130v-921h130v-42h-174z" />
    <glyph glyph-name="bracketright" unicode="]" horiz-adv-x="292" 
d="M40 -153v42h129v921h-129v41h175v-1004h-175z" />
    <glyph glyph-name="underscore" unicode="_" horiz-adv-x="562" 
d="M26 -80v45h511v-45h-511z" />
    <glyph glyph-name="grave" unicode="`" horiz-adv-x="237" 
d="M185 575l-155 131l48 48l129 -157z" />
    <glyph glyph-name="a" unicode="a" horiz-adv-x="545" 
d="M221 -12q-79 0 -128.5 41.5t-49.5 109.5q0 102 136 150q24 8 62.5 18.5t63 18.5t50 19t38.5 26.5t13 36.5q0 36 -37 59.5t-96 23.5q-56 0 -94.5 -22t-53.5 -63l-59 16q16 61 71 94t138 33q95 0 147 -44.5t52 -133.5v-286q0 -22 16 -31.5t37 -0.5v-55q-16 -10 -35 -10
q-29 0 -50.5 20.5t-26.5 52.5q-90 -73 -194 -73zM220 54q53 0 108 25.5t87 63.5v168q-45 -28 -106.5 -49t-102 -31t-70.5 -32t-30 -58q0 -40 32 -63.5t82 -23.5z" />
    <glyph glyph-name="b" unicode="b" horiz-adv-x="571" 
d="M303 -12q-109 0 -180 95v-83h-62v756h62v-302q74 96 182 96q103 0 167 -80.5t64 -200.5q0 -119 -63.5 -200t-169.5 -81zM299 47q78 0 126.5 63.5t48.5 156.5q0 92 -48.5 156t-123.5 64q-78 0 -128.5 -67t-50.5 -160q0 -91 49.5 -152t126.5 -61z" />
    <glyph glyph-name="c" unicode="c" horiz-adv-x="524" 
d="M272 -12q-110 0 -173.5 85t-63.5 198q0 121 67 199.5t173 78.5q75 0 130.5 -41t80.5 -113l-57 -15q-21 56 -62.5 83t-90.5 27q-80 0 -129.5 -63.5t-49.5 -155.5t50 -158t124 -66q54 0 94 37t63 102l61 -13q-24 -91 -81.5 -138t-135.5 -47z" />
    <glyph glyph-name="d" unicode="d" horiz-adv-x="570" 
d="M265 -12q-104 0 -167.5 80.5t-63.5 197.5q0 120 65.5 201.5t165.5 81.5q105 0 182 -97v304h62v-756h-62v83q-72 -95 -182 -95zM271 47q77 0 126.5 61t49.5 152q0 92 -50.5 159t-129.5 67q-76 0 -123.5 -63t-47.5 -156t48 -156.5t127 -63.5z" />
    <glyph glyph-name="e" unicode="e" horiz-adv-x="530" 
d="M269 -12q-107 0 -170.5 81t-63.5 201q0 122 64.5 200.5t170.5 78.5q99 0 161.5 -70.5t62.5 -177.5v-37h-396q0 -93 46.5 -155.5t124.5 -62.5q111 0 162 126l54 -17q-28 -82 -84.5 -124.5t-131.5 -42.5zM101 331h328q-9 73 -51.5 117t-108.5 44q-69 0 -113.5 -45.5
t-54.5 -115.5z" />
    <glyph glyph-name="f" unicode="f" horiz-adv-x="367" 
d="M145 0v474h-114v56h114v112q0 123 121 123q35 0 74 -9v-50q-33 3 -57 3q-47 0 -63 -12.5t-16 -44.5v-122h131v-56h-131v-474h-59z" />
    <glyph glyph-name="g" unicode="g" horiz-adv-x="558" 
d="M272 -233q-150 0 -214 146l57 20q21 -52 62 -80t94 -28q73 0 119 49.5t46 130.5v81q-70 -91 -169 -91q-102 0 -167 80t-65 198q0 117 65 196.5t170 79.5q99 0 168 -77v68h60v-533q0 -114 -63 -177t-163 -63zM270 53q70 0 119 63t49 157q0 95 -47.5 156.5t-120.5 61.5
t-123 -63t-50 -153q0 -92 50.5 -157t122.5 -65z" />
    <glyph glyph-name="h" unicode="h" 
d="M59 1v755h61v-289q81 82 195 82q171 0 171 -194v-354h-60v364q0 127 -118 127q-72 0 -122.5 -39.5t-65.5 -93.5v-358h-61z" />
    <glyph glyph-name="i" unicode="i" horiz-adv-x="218" 
d="M109 655q-20 0 -34.5 14.5t-14.5 34.5q0 21 14.5 35t34.5 14q21 0 35 -14t14 -35q0 -20 -14 -34.5t-35 -14.5zM79 0v540h60v-540h-60z" />
    <glyph glyph-name="j" unicode="j" horiz-adv-x="274" 
d="M165 655q-20 0 -34.5 14.5t-14.5 34.5q0 21 14.5 35t34.5 14q21 0 35 -14t14 -35q0 -20 -14 -34.5t-35 -14.5zM63 -233q-13 0 -35 2v63q20 -2 31 -2q41 0 58.5 19t17.5 60v631h60v-634q0 -139 -132 -139z" />
    <glyph glyph-name="k" unicode="k" horiz-adv-x="495" 
d="M61 0v756h61v-482l269 266h77l-200 -198l215 -342h-66l-190 301l-105 -102v-199h-61z" />
    <glyph glyph-name="l" unicode="l" horiz-adv-x="192" 
d="M66 0v756h60v-756h-60z" />
    <glyph glyph-name="m" unicode="m" horiz-adv-x="837" 
d="M61 0v540h61v-73q74 82 167 82t150 -91q77 91 178 91q74 0 116.5 -50.5t42.5 -139.5v-359h-60v375q0 117 -98 117q-56 0 -107 -35t-62 -81v-376h-60v373q0 56 -27 87.5t-74 31.5q-53 0 -104 -37t-62 -83v-372h-61z" />
    <glyph glyph-name="n" unicode="n" 
d="M61 0v540h61v-72q78 81 195 81q171 0 171 -192v-357h-60v367q0 127 -118 127q-72 0 -122.5 -39.5t-65.5 -94.5v-360h-61z" />
    <glyph glyph-name="o" unicode="o" horiz-adv-x="609" 
d="M304 -12q-117 0 -196.5 80t-79.5 200t79.5 200.5t196.5 80.5t196.5 -80.5t79.5 -200.5t-79.5 -200t-196.5 -80zM304 45q88 0 150 64.5t62 158.5t-62 158t-150 64t-150 -64t-62 -158t62 -158.5t150 -64.5z" />
    <glyph glyph-name="p" unicode="p" horiz-adv-x="582" 
d="M61 -224v764h62v-85q70 94 185 94q108 0 173.5 -80.5t65.5 -199.5t-67 -200t-172 -81q-109 0 -185 97v-309h-62zM304 51q75 0 127 63.5t52 156.5q0 92 -50.5 155.5t-130.5 63.5q-79 0 -129 -61.5t-50 -147.5q0 -89 51.5 -159.5t129.5 -70.5z" />
    <glyph glyph-name="q" unicode="q" horiz-adv-x="582" 
d="M462 -224v309q-79 -97 -186 -97t-174 81t-67 200t66.5 199.5t174.5 80.5q113 0 186 -94v85h60v-764h-60zM276 51q82 0 134 69t52 158t-50.5 150.5t-131.5 61.5t-131.5 -63.5t-50.5 -155.5q0 -94 50.5 -157t127.5 -63z" />
    <glyph glyph-name="r" unicode="r" horiz-adv-x="316" 
d="M61 0v540h60v-66q34 43 75 59t105 11v-68q-83 7 -131.5 -35t-48.5 -120v-321h-60z" />
    <glyph glyph-name="s" unicode="s" horiz-adv-x="500" 
d="M254 -12q-88 0 -144.5 42t-74.5 119l65 10q31 -106 157 -106q64 0 103.5 25t39.5 63q0 68 -157 103q-103 26 -149 65.5t-46 97.5q0 67 53 104.5t138 36.5q147 0 200 -126l-62 -17q-22 42 -54 60t-85 18q-58 0 -92 -19.5t-34 -53.5q0 -66 152 -100q200 -46 200 -166
q0 -71 -59 -114t-151 -42z" />
    <glyph glyph-name="t" unicode="t" horiz-adv-x="340" 
d="M233 -12q-56 0 -80.5 23t-24.5 78v394h-88v57h88v151h60v-151h107v-57h-107v-396q0 -39 49 -39h63v-56q-40 -4 -67 -4z" />
    <glyph glyph-name="u" unicode="u" 
d="M233 -12q-172 0 -172 181v371h61v-382q0 -60 32 -87t79 -27q66 0 121 47t74 107v342h60v-540h-60v81q-71 -93 -195 -93z" />
    <glyph glyph-name="v" unicode="v" horiz-adv-x="512" 
d="M226 0l-211 540h67l175 -465l175 465h65l-210 -540h-61z" />
    <glyph glyph-name="w" unicode="w" horiz-adv-x="779" 
d="M193 0l-173 540h64l136 -465l139 465h60l140 -465l135 465h65l-173 -540h-54l-141 460l-144 -460h-54z" />
    <glyph glyph-name="x" unicode="x" horiz-adv-x="527" 
d="M18 0l213 278l-194 262h71l157 -216l157 216h69l-192 -262l211 -278h-70l-175 233l-176 -233h-71z" />
    <glyph glyph-name="y" unicode="y" horiz-adv-x="494" 
d="M70 -233v64q47 -2 68 10.5t37 53.5l43 108l-203 537h67l170 -448l161 448h66l-244 -666q-24 -66 -59.5 -88.5t-105.5 -18.5z" />
    <glyph glyph-name="z" unicode="z" horiz-adv-x="504" 
d="M43 0v43l335 435h-331v62h414v-49l-332 -431h332v-60h-418z" />
    <glyph glyph-name="braceleft" unicode="{" horiz-adv-x="314" 
d="M244 -163q-95 0 -95 93v292q0 77 -62 77h-21v86h21q62 0 62 77v292q0 93 95 93q7 0 45 -9v-48q-56 9 -73.5 -1t-17.5 -43v-292q0 -37 -18.5 -67t-47.5 -45q29 -15 47.5 -45t18.5 -67v-292q0 -33 17.5 -43t73.5 -1v-48q-38 -9 -45 -9z" />
    <glyph glyph-name="bar" unicode="|" horiz-adv-x="205" 
d="M82 -204v1020h40v-1020h-40z" />
    <glyph glyph-name="braceright" unicode="}" horiz-adv-x="315" 
d="M71 -163q-8 0 -46 9v48q56 -9 73.5 1t17.5 43v292q0 37 18.5 67t47.5 45q-29 15 -47.5 45t-18.5 67v292q0 33 -17.5 43t-73.5 1v48q38 9 46 9q94 0 94 -93v-292q0 -77 62 -77h21v-86h-21q-62 0 -62 -77v-292q0 -93 -94 -93z" />
    <glyph glyph-name="asciitilde" unicode="~" horiz-adv-x="670" 
d="M118 251l-57 19q15 79 56.5 127.5t106.5 48.5q34 0 62 -14.5t47.5 -35t37 -40.5t39 -34.5t45.5 -14.5q37 0 62.5 30.5t32.5 80.5l59 -12q-11 -81 -53 -127.5t-102 -46.5q-39 0 -72.5 22t-53.5 48t-48 48t-57 22q-40 0 -67 -35t-38 -86z" />
    <glyph glyph-name="exclamdown" unicode="&#xa1;" horiz-adv-x="298" 
d="M148 549q22 0 37.5 -15.5t15.5 -37.5t-15.5 -37.5t-37.5 -15.5t-37.5 15.5t-15.5 37.5t15.5 37.5t37.5 15.5zM165 355l21 -550h-72l21 550h30z" />
    <glyph glyph-name="dieresis" unicode="&#xa8;" horiz-adv-x="343" 
d="M79 655q-20 0 -34.5 14.5t-14.5 34.5q0 21 14.5 35t34.5 14q21 0 35 -14t14 -35q0 -20 -14 -34.5t-35 -14.5zM264 655q-20 0 -34.5 14.5t-14.5 34.5q0 21 14.5 35t34.5 14q21 0 35 -14t14 -35q0 -20 -14 -34.5t-35 -14.5z" />
    <glyph glyph-name="copyright" unicode="&#xa9;" horiz-adv-x="866" 
d="M433 -19q-163 0 -279 116t-116 279q0 162 116 278t279 116t279 -116t116 -278q0 -163 -116 -279t-279 -116zM433 20q146 0 250.5 104.5t104.5 251.5q0 146 -104.5 250.5t-250.5 104.5t-250.5 -104.5t-104.5 -250.5q0 -147 104.5 -251.5t250.5 -104.5zM433 151
q-85 0 -135.5 62t-50.5 162q0 102 53.5 163.5t138.5 61.5q61 0 107 -34t65 -95l-42 -7q-13 43 -47.5 68t-79.5 25q-66 0 -109 -51t-43 -128t43 -130.5t106 -53.5q47 0 83.5 31t48.5 82l42 -6q-17 -71 -65 -110.5t-115 -39.5z" />
    <glyph glyph-name="acute" unicode="&#xb4;" horiz-adv-x="237" 
d="M52 575l-22 22l129 157l48 -48z" />
    <glyph glyph-name="cedilla" unicode="&#xb8;" horiz-adv-x="225" 
d="M93 -208q-29 0 -63 8v36q33 -10 63 -10q57 0 57 34q0 24 -29 34t-76 3v90h37v-46q52 2 81.5 -19t29.5 -61q0 -34 -27.5 -51.5t-72.5 -17.5z" />
    <glyph glyph-name="questiondown" unicode="&#xbf;" horiz-adv-x="529" 
d="M275 549q22 0 37.5 -15.5t15.5 -37.5t-15.5 -37.5t-37.5 -15.5t-37.5 15.5t-15.5 37.5t15.5 37.5t37.5 15.5zM312 327q4 -60 -14.5 -108t-48 -79.5t-60 -58.5t-52 -59t-21.5 -67q0 -49 37 -83t107 -34q74 0 115 43t43 120h55q-2 -98 -60.5 -156.5t-157.5 -58.5
q-93 0 -146 50t-53 127q0 46 21 83t50 63t58 53.5t46.5 69t12.5 95.5h68z" />
    <glyph glyph-name="Agrave" unicode="&#xc0;" horiz-adv-x="677" 
d="M356 778l-155 131l48 48l129 -157zM7 0l294 752h76l292 -752h-66l-91 232h-349l-88 -232h-68zM189 290h298l-147 389z" />
    <glyph glyph-name="Aacute" unicode="&#xc1;" horiz-adv-x="677" 
d="M335 778l-22 22l129 157l48 -48zM7 0l294 752h76l292 -752h-66l-91 232h-349l-88 -232h-68zM189 290h298l-147 389z" />
    <glyph glyph-name="Atilde" unicode="&#xc3;" horiz-adv-x="677" 
d="M413 831q-36 0 -78.5 25t-64.5 25q-23 0 -39 -13.5t-16 -33.5h-53q0 41 29.5 67.5t76.5 26.5q37 0 81 -25t67 -25t37 13t14 34h48q0 -41 -28.5 -67.5t-73.5 -26.5zM7 0l294 752h76l292 -752h-66l-91 232h-349l-88 -232h-68zM189 290h298l-147 389z" />
    <glyph glyph-name="Adieresis" unicode="&#xc4;" horiz-adv-x="677" 
d="M240 800q-20 0 -34.5 14.5t-14.5 34.5q0 21 14.5 35t34.5 14q21 0 35 -14t14 -35q0 -20 -14 -34.5t-35 -14.5zM425 800q-20 0 -34.5 14.5t-14.5 34.5q0 21 14.5 35t34.5 14q21 0 35 -14t14 -35q0 -20 -14 -34.5t-35 -14.5zM7 0l294 752h76l292 -752h-66l-91 232h-349
l-88 -232h-68zM189 290h298l-147 389z" />
    <glyph glyph-name="Ccedilla" unicode="&#xc7;" horiz-adv-x="798" 
d="M409 -19h-2v-40q52 2 81.5 -19t29.5 -61q0 -34 -27.5 -51.5t-72.5 -17.5q-29 0 -63 8v36q33 -10 63 -10q57 0 57 34q0 24 -29 34t-76 3v86q-148 14 -240 119t-92 264q0 173 109 288.5t273 115.5q112 0 199 -56.5t131 -158.5l-65 -6q-37 74 -107.5 116.5t-159.5 42.5
q-137 0 -225 -95.5t-88 -242.5q0 -145 85 -236.5t218 -91.5q98 0 173.5 53.5t112.5 146.5l60 -13q-44 -119 -133 -183.5t-212 -64.5z" />
    <glyph glyph-name="Egrave" unicode="&#xc8;" horiz-adv-x="639" 
d="M356 778l-155 131l48 48l129 -157zM63 0v752h524v-59h-464v-277h431v-59h-431v-297h473v-60h-533z" />
    <glyph glyph-name="Eacute" unicode="&#xc9;" horiz-adv-x="639" 
d="M287 778l-22 22l129 157l48 -48zM63 0v752h524v-59h-464v-277h431v-59h-431v-297h473v-60h-533z" />
    <glyph glyph-name="Edieresis" unicode="&#xcb;" horiz-adv-x="639" 
d="M218 800q-20 0 -34.5 14.5t-14.5 34.5q0 21 14.5 35t34.5 14q21 0 35 -14t14 -35q0 -20 -14 -34.5t-35 -14.5zM403 800q-20 0 -34.5 14.5t-14.5 34.5q0 21 14.5 35t34.5 14q21 0 35 -14t14 -35q0 -20 -14 -34.5t-35 -14.5zM63 0v752h524v-59h-464v-277h431v-59h-431v-297
h473v-60h-533z" />
    <glyph glyph-name="Igrave" unicode="&#xcc;" horiz-adv-x="227" 
d="M126 778l-155 131l48 48l129 -157zM78 0v752h62v-752h-62z" />
    <glyph glyph-name="Iacute" unicode="&#xcd;" horiz-adv-x="234" 
d="M110 778l-22 22l129 157l48 -48zM78 0v752h62v-752h-62z" />
    <glyph glyph-name="Idieresis" unicode="&#xcf;" horiz-adv-x="208" 
d="M11 800q-20 0 -34.5 14.5t-14.5 34.5q0 21 14.5 35t34.5 14q21 0 35 -14t14 -35q0 -20 -14 -34.5t-35 -14.5zM196 800q-20 0 -34.5 14.5t-14.5 34.5q0 21 14.5 35t34.5 14q21 0 35 -14t14 -35q0 -20 -14 -34.5t-35 -14.5zM78 0v752h62v-752h-62z" />
    <glyph glyph-name="Ntilde" unicode="&#xd1;" horiz-adv-x="682" 
d="M405 831q-36 0 -78.5 25t-64.5 25q-23 0 -39 -13.5t-16 -33.5h-53q0 41 29.5 67.5t76.5 26.5q37 0 81 -25t67 -25t37 13t14 34h48q0 -41 -28.5 -67.5t-73.5 -26.5zM42 0v752h74l442 -654v654h60v-752h-73l-443 658v-658h-60z" />
    <glyph glyph-name="Ograve" unicode="&#xd2;" horiz-adv-x="812" 
d="M421 778l-155 131l48 48l129 -157zM408 -19q-162 0 -266 111t-104 281t102.5 283.5t267.5 113.5q164 0 265.5 -113.5t101.5 -283.5t-103 -281t-264 -111zM408 40q131 0 216 93.5t85 240.5q0 146 -83 241t-218 95t-218.5 -95t-83.5 -241t85.5 -240t216.5 -94z" />
    <glyph glyph-name="Oacute" unicode="&#xd3;" horiz-adv-x="812" 
d="M384 778l-22 22l129 157l48 -48zM408 -19q-162 0 -266 111t-104 281t102.5 283.5t267.5 113.5q164 0 265.5 -113.5t101.5 -283.5t-103 -281t-264 -111zM408 40q131 0 216 93.5t85 240.5q0 146 -83 241t-218 95t-218.5 -95t-83.5 -241t85.5 -240t216.5 -94z" />
    <glyph glyph-name="Otilde" unicode="&#xd5;" horiz-adv-x="812" 
d="M468 831q-36 0 -78.5 25t-64.5 25q-23 0 -39 -13.5t-16 -33.5h-53q0 41 29.5 67.5t76.5 26.5q37 0 81 -25t67 -25t37 13t14 34h48q0 -41 -28.5 -67.5t-73.5 -26.5zM408 -19q-162 0 -266 111t-104 281t102.5 283.5t267.5 113.5q164 0 265.5 -113.5t101.5 -283.5t-103 -281
t-264 -111zM408 40q131 0 216 93.5t85 240.5q0 146 -83 241t-218 95t-218.5 -95t-83.5 -241t85.5 -240t216.5 -94z" />
    <glyph glyph-name="Odieresis" unicode="&#xd6;" horiz-adv-x="812" 
d="M308 800q-20 0 -34.5 14.5t-14.5 34.5q0 21 14.5 35t34.5 14q21 0 35 -14t14 -35q0 -20 -14 -34.5t-35 -14.5zM493 800q-20 0 -34.5 14.5t-14.5 34.5q0 21 14.5 35t34.5 14q21 0 35 -14t14 -35q0 -20 -14 -34.5t-35 -14.5zM408 -19q-162 0 -266 111t-104 281t102.5 283.5
t267.5 113.5q164 0 265.5 -113.5t101.5 -283.5t-103 -281t-264 -111zM408 40q131 0 216 93.5t85 240.5q0 146 -83 241t-218 95t-218.5 -95t-83.5 -241t85.5 -240t216.5 -94z" />
    <glyph glyph-name="Oslash" unicode="&#xd8;" horiz-adv-x="805" 
d="M78 8l-43 43l75 75q-76 104 -76 247q0 170 102.5 283.5t267.5 113.5q150 0 251 -99l71 71l43 -43l-74 -74q76 -105 76 -252q0 -170 -103 -281t-264 -111q-150 0 -254 99zM102 374q0 -115 55 -201l454 454q-83 83 -207 83q-135 0 -218.5 -95t-83.5 -241zM404 40
q131 0 216 93.5t85 240.5q0 118 -56 205l-454 -454q85 -85 209 -85z" />
    <glyph glyph-name="Ugrave" unicode="&#xd9;" horiz-adv-x="712" 
d="M381 778l-155 131l48 48l129 -157zM353 -19q-140 0 -215 79t-75 227v465h61v-463q0 -121 59 -184.5t170 -63.5q114 0 174 63t60 184v464h61v-466q0 -146 -77 -225.5t-218 -79.5z" />
    <glyph glyph-name="Uacute" unicode="&#xda;" horiz-adv-x="712" 
d="M312 778l-22 22l129 157l48 -48zM353 -19q-140 0 -215 79t-75 227v465h61v-463q0 -121 59 -184.5t170 -63.5q114 0 174 63t60 184v464h61v-466q0 -146 -77 -225.5t-218 -79.5z" />
    <glyph glyph-name="Udieresis" unicode="&#xdc;" horiz-adv-x="712" 
d="M244 800q-20 0 -34.5 14.5t-14.5 34.5q0 21 14.5 35t34.5 14q21 0 35 -14t14 -35q0 -20 -14 -34.5t-35 -14.5zM429 800q-20 0 -34.5 14.5t-14.5 34.5q0 21 14.5 35t34.5 14q21 0 35 -14t14 -35q0 -20 -14 -34.5t-35 -14.5zM353 -19q-140 0 -215 79t-75 227v465h61v-463
q0 -121 59 -184.5t170 -63.5q114 0 174 63t60 184v464h61v-466q0 -146 -77 -225.5t-218 -79.5z" />
    <glyph glyph-name="Yacute" unicode="&#xdd;" horiz-adv-x="657" 
d="M320 778l-22 22l129 157l48 -48zM298 0v310l-293 442h74l250 -383l254 383h68l-292 -443v-309h-61z" />
    <glyph glyph-name="agrave" unicode="&#xe0;" horiz-adv-x="547" 
d="M309 575l-155 131l48 48l129 -157zM223 -12q-79 0 -128.5 41.5t-49.5 109.5q0 102 136 150q24 8 62.5 18.5t63 18.5t50 19t38.5 26.5t13 36.5q0 36 -37 59.5t-96 23.5q-56 0 -94.5 -22t-53.5 -63l-59 16q16 61 71 94t138 33q95 0 147 -44.5t52 -133.5v-286
q0 -22 16 -31.5t37 -0.5v-55q-16 -10 -35 -10q-29 0 -50.5 20.5t-26.5 52.5q-90 -73 -194 -73zM222 54q53 0 108 25.5t87 63.5v168q-45 -28 -106.5 -49t-102 -31t-70.5 -32t-30 -58q0 -40 32 -63.5t82 -23.5z" />
    <glyph glyph-name="aacute" unicode="&#xe1;" horiz-adv-x="547" 
d="M239 575l-22 22l129 157l48 -48zM223 -12q-79 0 -128.5 41.5t-49.5 109.5q0 102 136 150q24 8 62.5 18.5t63 18.5t50 19t38.5 26.5t13 36.5q0 36 -37 59.5t-96 23.5q-56 0 -94.5 -22t-53.5 -63l-59 16q16 61 71 94t138 33q95 0 147 -44.5t52 -133.5v-286q0 -22 16 -31.5
t37 -0.5v-55q-16 -10 -35 -10q-29 0 -50.5 20.5t-26.5 52.5q-90 -73 -194 -73zM222 54q53 0 108 25.5t87 63.5v168q-45 -28 -106.5 -49t-102 -31t-70.5 -32t-30 -58q0 -40 32 -63.5t82 -23.5z" />
    <glyph glyph-name="atilde" unicode="&#xe3;" horiz-adv-x="547" 
d="M354 645q-36 0 -78.5 25t-64.5 25q-23 0 -39 -13.5t-16 -33.5h-53q0 41 29.5 67.5t76.5 26.5q37 0 81 -25t67 -25t37 13t14 34h48q0 -41 -28.5 -67.5t-73.5 -26.5zM223 -12q-79 0 -128.5 41.5t-49.5 109.5q0 102 136 150q24 8 62.5 18.5t63 18.5t50 19t38.5 26.5t13 36.5
q0 36 -37 59.5t-96 23.5q-56 0 -94.5 -22t-53.5 -63l-59 16q16 61 71 94t138 33q95 0 147 -44.5t52 -133.5v-286q0 -22 16 -31.5t37 -0.5v-55q-16 -10 -35 -10q-29 0 -50.5 20.5t-26.5 52.5q-90 -73 -194 -73zM222 54q53 0 108 25.5t87 63.5v168q-45 -28 -106.5 -49
t-102 -31t-70.5 -32t-30 -58q0 -40 32 -63.5t82 -23.5z" />
    <glyph glyph-name="adieresis" unicode="&#xe4;" horiz-adv-x="547" 
d="M161 655q-20 0 -34.5 14.5t-14.5 34.5q0 21 14.5 35t34.5 14q21 0 35 -14t14 -35q0 -20 -14 -34.5t-35 -14.5zM346 655q-20 0 -34.5 14.5t-14.5 34.5q0 21 14.5 35t34.5 14q21 0 35 -14t14 -35q0 -20 -14 -34.5t-35 -14.5zM223 -12q-79 0 -128.5 41.5t-49.5 109.5
q0 102 136 150q24 8 62.5 18.5t63 18.5t50 19t38.5 26.5t13 36.5q0 36 -37 59.5t-96 23.5q-56 0 -94.5 -22t-53.5 -63l-59 16q16 61 71 94t138 33q95 0 147 -44.5t52 -133.5v-286q0 -22 16 -31.5t37 -0.5v-55q-16 -10 -35 -10q-29 0 -50.5 20.5t-26.5 52.5q-90 -73 -194 -73
zM222 54q53 0 108 25.5t87 63.5v168q-45 -28 -106.5 -49t-102 -31t-70.5 -32t-30 -58q0 -40 32 -63.5t82 -23.5z" />
    <glyph glyph-name="ccedilla" unicode="&#xe7;" horiz-adv-x="524" 
d="M272 -12q-110 0 -173.5 85t-63.5 198q0 121 67 199.5t173 78.5q75 0 130.5 -41t80.5 -113l-57 -15q-21 56 -62.5 83t-90.5 27q-80 0 -129.5 -63.5t-49.5 -155.5t50 -158t124 -66q54 0 94 37t63 102l61 -13q-24 -91 -81.5 -138t-135.5 -47zM273 -208q-29 0 -63 8v36
q33 -10 63 -10q57 0 57 34q0 24 -29 34t-76 3v90h37v-46q52 2 81.5 -19t29.5 -61q0 -34 -27.5 -51.5t-72.5 -17.5z" />
    <glyph glyph-name="egrave" unicode="&#xe8;" horiz-adv-x="530" 
d="M307 575l-155 131l48 48l129 -157zM269 -12q-107 0 -170.5 81t-63.5 201q0 122 64.5 200.5t170.5 78.5q99 0 161.5 -70.5t62.5 -177.5v-37h-396q0 -93 46.5 -155.5t124.5 -62.5q111 0 162 126l54 -17q-28 -82 -84.5 -124.5t-131.5 -42.5zM101 331h328q-9 73 -51.5 117
t-108.5 44q-69 0 -113.5 -45.5t-54.5 -115.5z" />
    <glyph glyph-name="eacute" unicode="&#xe9;" horiz-adv-x="530" 
d="M222 575l-22 22l129 157l48 -48zM269 -12q-107 0 -170.5 81t-63.5 201q0 122 64.5 200.5t170.5 78.5q99 0 161.5 -70.5t62.5 -177.5v-37h-396q0 -93 46.5 -155.5t124.5 -62.5q111 0 162 126l54 -17q-28 -82 -84.5 -124.5t-131.5 -42.5zM101 331h328q-9 73 -51.5 117
t-108.5 44q-69 0 -113.5 -45.5t-54.5 -115.5z" />
    <glyph glyph-name="edieresis" unicode="&#xeb;" horiz-adv-x="530" 
d="M165 655q-20 0 -34.5 14.5t-14.5 34.5q0 21 14.5 35t34.5 14q21 0 35 -14t14 -35q0 -20 -14 -34.5t-35 -14.5zM350 655q-20 0 -34.5 14.5t-14.5 34.5q0 21 14.5 35t34.5 14q21 0 35 -14t14 -35q0 -20 -14 -34.5t-35 -14.5zM269 -12q-107 0 -170.5 81t-63.5 201
q0 122 64.5 200.5t170.5 78.5q99 0 161.5 -70.5t62.5 -177.5v-37h-396q0 -93 46.5 -155.5t124.5 -62.5q111 0 162 126l54 -17q-28 -82 -84.5 -124.5t-131.5 -42.5zM101 331h328q-9 73 -51.5 117t-108.5 44q-69 0 -113.5 -45.5t-54.5 -115.5z" />
    <glyph glyph-name="igrave" unicode="&#xec;" horiz-adv-x="231" 
d="M132 575l-155 131l48 48l129 -157zM78 0v540h60v-540h-60z" />
    <glyph glyph-name="iacute" unicode="&#xed;" horiz-adv-x="231" 
d="M104 575l-22 22l129 157l48 -48zM78 0v540h60v-540h-60z" />
    <glyph glyph-name="idieresis" unicode="&#xef;" horiz-adv-x="205" 
d="M10 655q-20 0 -34.5 14.5t-14.5 34.5q0 21 14.5 35t34.5 14q21 0 35 -14t14 -35q0 -20 -14 -34.5t-35 -14.5zM195 655q-20 0 -34.5 14.5t-14.5 34.5q0 21 14.5 35t34.5 14q21 0 35 -14t14 -35q0 -20 -14 -34.5t-35 -14.5zM78 0v540h60v-540h-60z" />
    <glyph glyph-name="ntilde" unicode="&#xf1;" 
d="M349 645q-36 0 -78.5 25t-64.5 25q-23 0 -39 -13.5t-16 -33.5h-53q0 41 29.5 67.5t76.5 26.5q37 0 81 -25t67 -25t37 13t14 34h48q0 -41 -28.5 -67.5t-73.5 -26.5zM61 0v540h61v-72q78 81 195 81q171 0 171 -192v-357h-60v367q0 127 -118 127q-72 0 -122.5 -39.5
t-65.5 -94.5v-360h-61z" />
    <glyph glyph-name="ograve" unicode="&#xf2;" horiz-adv-x="609" 
d="M332 575l-155 131l48 48l129 -157zM304 -12q-117 0 -196.5 80t-79.5 200t79.5 200.5t196.5 80.5t196.5 -80.5t79.5 -200.5t-79.5 -200t-196.5 -80zM304 45q88 0 150 64.5t62 158.5t-62 158t-150 64t-150 -64t-62 -158t62 -158.5t150 -64.5z" />
    <glyph glyph-name="oacute" unicode="&#xf3;" horiz-adv-x="609" 
d="M266 575l-22 22l129 157l48 -48zM304 -12q-117 0 -196.5 80t-79.5 200t79.5 200.5t196.5 80.5t196.5 -80.5t79.5 -200.5t-79.5 -200t-196.5 -80zM304 45q88 0 150 64.5t62 158.5t-62 158t-150 64t-150 -64t-62 -158t62 -158.5t150 -64.5z" />
    <glyph glyph-name="otilde" unicode="&#xf5;" horiz-adv-x="609" 
d="M363 645q-36 0 -78.5 25t-64.5 25q-23 0 -39 -13.5t-16 -33.5h-53q0 41 29.5 67.5t76.5 26.5q37 0 81 -25t67 -25t37 13t14 34h48q0 -41 -28.5 -67.5t-73.5 -26.5zM304 -12q-117 0 -196.5 80t-79.5 200t79.5 200.5t196.5 80.5t196.5 -80.5t79.5 -200.5t-79.5 -200
t-196.5 -80zM304 45q88 0 150 64.5t62 158.5t-62 158t-150 64t-150 -64t-62 -158t62 -158.5t150 -64.5z" />
    <glyph glyph-name="odieresis" unicode="&#xf6;" horiz-adv-x="609" 
d="M193 655q-20 0 -34.5 14.5t-14.5 34.5q0 21 14.5 35t34.5 14q21 0 35 -14t14 -35q0 -20 -14 -34.5t-35 -14.5zM378 655q-20 0 -34.5 14.5t-14.5 34.5q0 21 14.5 35t34.5 14q21 0 35 -14t14 -35q0 -20 -14 -34.5t-35 -14.5zM304 -12q-117 0 -196.5 80t-79.5 200
t79.5 200.5t196.5 80.5t196.5 -80.5t79.5 -200.5t-79.5 -200t-196.5 -80zM304 45q88 0 150 64.5t62 158.5t-62 158t-150 64t-150 -64t-62 -158t62 -158.5t150 -64.5z" />
    <glyph glyph-name="oslash" unicode="&#xf8;" horiz-adv-x="609" 
d="M69 0l-48 49l56 56q-49 71 -49 163q0 120 79.5 200.5t196.5 80.5q93 0 164 -52l56 56l49 -49l-55 -55q62 -76 62 -181q0 -120 -79.5 -200t-196.5 -80q-106 0 -181 66zM92 268q0 -64 31 -117l300 301q-54 38 -119 38q-88 0 -150 -64t-62 -158zM304 45q88 0 150 64.5
t62 158.5q0 77 -43 136l-307 -307q60 -52 138 -52z" />
    <glyph glyph-name="ugrave" unicode="&#xf9;" 
d="M318 575l-155 131l48 48l129 -157zM233 -12q-172 0 -172 181v371h61v-382q0 -60 32 -87t79 -27q66 0 121 47t74 107v342h60v-540h-60v81q-71 -93 -195 -93z" />
    <glyph glyph-name="uacute" unicode="&#xfa;" 
d="M232 575l-22 22l129 157l48 -48zM233 -12q-172 0 -172 181v371h61v-382q0 -60 32 -87t79 -27q66 0 121 47t74 107v342h60v-540h-60v81q-71 -93 -195 -93z" />
    <glyph glyph-name="udieresis" unicode="&#xfc;" 
d="M176 655q-20 0 -34.5 14.5t-14.5 34.5q0 21 14.5 35t34.5 14q21 0 35 -14t14 -35q0 -20 -14 -34.5t-35 -14.5zM361 655q-20 0 -34.5 14.5t-14.5 34.5q0 21 14.5 35t34.5 14q21 0 35 -14t14 -35q0 -20 -14 -34.5t-35 -14.5zM233 -12q-172 0 -172 181v371h61v-382
q0 -60 32 -87t79 -27q66 0 121 47t74 107v342h60v-540h-60v81q-71 -93 -195 -93z" />
    <glyph glyph-name="yacute" unicode="&#xfd;" horiz-adv-x="494" 
d="M232 575l-22 22l129 157l48 -48zM70 -233v64q47 -2 68 10.5t37 53.5l43 108l-203 537h67l170 -448l161 448h66l-244 -666q-24 -66 -59.5 -88.5t-105.5 -18.5z" />
    <glyph glyph-name="ydieresis" unicode="&#xff;" horiz-adv-x="494" 
d="M141 655q-20 0 -34.5 14.5t-14.5 34.5q0 21 14.5 35t34.5 14q21 0 35 -14t14 -35q0 -20 -14 -34.5t-35 -14.5zM326 655q-20 0 -34.5 14.5t-14.5 34.5q0 21 14.5 35t34.5 14q21 0 35 -14t14 -35q0 -20 -14 -34.5t-35 -14.5zM70 -233v64q47 -2 68 10.5t37 53.5l43 108
l-203 537h67l170 -448l161 448h66l-244 -666q-24 -66 -59.5 -88.5t-105.5 -18.5z" />
    <glyph glyph-name="Itilde" unicode="&#x128;" horiz-adv-x="219" 
d="M184 831q-36 0 -78.5 25t-64.5 25q-23 0 -39 -13.5t-16 -33.5h-53q0 41 29.5 67.5t76.5 26.5q37 0 81 -25t67 -25t37 13t14 34h48q0 -41 -28.5 -67.5t-73.5 -26.5zM78 0v752h62v-752h-62z" />
    <glyph glyph-name="itilde" unicode="&#x129;" horiz-adv-x="216" 
d="M183 645q-36 0 -78.5 25t-64.5 25q-23 0 -39 -13.5t-16 -33.5h-53q0 41 29.5 67.5t76.5 26.5q37 0 81 -25t67 -25t37 13t14 34h48q0 -41 -28.5 -67.5t-73.5 -26.5zM78 0v540h60v-540h-60z" />
    <glyph glyph-name="dotlessi" unicode="&#x131;" horiz-adv-x="216" 
d="M78 0v540h60v-540h-60z" />
    <glyph glyph-name="IJ" unicode="&#x132;" horiz-adv-x="742" 
d="M78 0v752h62v-752h-62zM472 -19q-91 0 -147.5 50t-67.5 139l62 6q8 -64 48.5 -99.5t105.5 -35.5q75 0 118 45t43 124v542h60v-544q0 -105 -59.5 -166t-162.5 -61z" />
    <glyph glyph-name="ij" unicode="&#x133;" horiz-adv-x="459" 
d="M109 655q-20 0 -34.5 14.5t-14.5 34.5q0 21 14.5 35t34.5 14q21 0 35 -14t14 -35q0 -20 -14 -34.5t-35 -14.5zM350 655q-20 0 -34.5 14.5t-14.5 34.5q0 21 14.5 35t34.5 14q21 0 35 -14t14 -35q0 -20 -14 -34.5t-35 -14.5zM79 0v540h60v-540h-60zM248 -233q-13 0 -35 2
v63q20 -2 31 -2q41 0 58.5 19t17.5 60v631h60v-634q0 -139 -132 -139z" />
    <glyph glyph-name="Nacute" unicode="&#x143;" horiz-adv-x="703" 
d="M325 778l-22 22l129 157l48 -48zM63 0v752h74l442 -654v654h60v-752h-73l-443 658v-658h-60z" />
    <glyph glyph-name="nacute" unicode="&#x144;" 
d="M232 575l-22 22l129 157l48 -48zM61 0v540h61v-72q78 81 195 81q171 0 171 -192v-357h-60v367q0 127 -118 127q-72 0 -122.5 -39.5t-65.5 -94.5v-360h-61z" />
    <glyph glyph-name="Utilde" unicode="&#x168;" horiz-adv-x="712" 
d="M417 831q-36 0 -78.5 25t-64.5 25q-23 0 -39 -13.5t-16 -33.5h-53q0 41 29.5 67.5t76.5 26.5q37 0 81 -25t67 -25t37 13t14 34h48q0 -41 -28.5 -67.5t-73.5 -26.5zM353 -19q-140 0 -215 79t-75 227v465h61v-463q0 -121 59 -184.5t170 -63.5q114 0 174 63t60 184v464h61
v-466q0 -146 -77 -225.5t-218 -79.5z" />
    <glyph glyph-name="utilde" unicode="&#x169;" 
d="M349 645q-36 0 -78.5 25t-64.5 25q-23 0 -39 -13.5t-16 -33.5h-53q0 41 29.5 67.5t76.5 26.5q37 0 81 -25t67 -25t37 13t14 34h48q0 -41 -28.5 -67.5t-73.5 -26.5zM233 -12q-172 0 -172 181v371h61v-382q0 -60 32 -87t79 -27q66 0 121 47t74 107v342h60v-540h-60v81
q-71 -93 -195 -93z" />
    <glyph glyph-name="Ydieresis" unicode="&#x178;" horiz-adv-x="657" 
d="M221 800q-20 0 -34.5 14.5t-14.5 34.5q0 21 14.5 35t34.5 14q21 0 35 -14t14 -35q0 -20 -14 -34.5t-35 -14.5zM406 800q-20 0 -34.5 14.5t-14.5 34.5q0 21 14.5 35t34.5 14q21 0 35 -14t14 -35q0 -20 -14 -34.5t-35 -14.5zM298 0v310l-293 442h74l250 -383l254 383h68
l-292 -443v-309h-61z" />
    <glyph glyph-name="dotlessj" unicode="&#x237;" horiz-adv-x="274" 
d="M63 -233q-13 0 -35 2v63q20 -2 31 -2q41 0 58.5 19t17.5 60v631h60v-634q0 -139 -132 -139z" />
    <glyph glyph-name="tilde" unicode="&#x2dc;" horiz-adv-x="413" 
d="M281 645q-36 0 -78.5 25t-64.5 25q-23 0 -39 -13.5t-16 -33.5h-53q0 41 29.5 67.5t76.5 26.5q37 0 81 -25t67 -25t37 13t14 34h48q0 -41 -28.5 -67.5t-73.5 -26.5z" />
    <glyph glyph-name="Ygrave" unicode="&#x1ef2;" horiz-adv-x="657" 
d="M335 778l-155 131l48 48l129 -157zM298 0v310l-293 442h74l250 -383l254 383h68l-292 -443v-309h-61z" />
    <glyph glyph-name="ygrave" unicode="&#x1ef3;" horiz-adv-x="494" 
d="M278 575l-155 131l48 48l129 -157zM70 -233v64q47 -2 68 10.5t37 53.5l43 108l-203 537h67l170 -448l161 448h66l-244 -666q-24 -66 -59.5 -88.5t-105.5 -18.5z" />
    <glyph glyph-name="endash" unicode="&#x2013;" horiz-adv-x="626" 
d="M75 314v47h476v-47h-476z" />
    <glyph glyph-name="emdash" unicode="&#x2014;" horiz-adv-x="983" 
d="M75 314v47h833v-47h-833z" />
    <glyph glyph-name="quoteleft" unicode="&#x2018;" horiz-adv-x="182" 
d="M122 761l16 -28q-27 -15 -46 -41.5t-17 -57.5q28 12 52.5 -5t24.5 -44q0 -21 -15.5 -36.5t-37.5 -15.5q-38 0 -51 31q-8 19 -8 47q0 92 82 150z" />
    <glyph glyph-name="quoteright" unicode="&#x2019;" horiz-adv-x="182" 
d="M60 516l-16 28q27 15 46 41.5t17 57.5q-28 -12 -52.5 5t-24.5 44q0 21 15.5 36.5t37.5 15.5q38 0 51 -31q8 -18 8 -47q0 -92 -82 -150z" />
    <glyph glyph-name="quotedblleft" unicode="&#x201c;" horiz-adv-x="347" 
d="M287 761l16 -28q-27 -15 -46 -41.5t-17 -57.5q28 12 52.5 -5t24.5 -44q0 -21 -15.5 -36.5t-37.5 -15.5q-38 0 -51 31q-8 18 -8 47q0 92 82 150zM122 761l16 -28q-27 -15 -46 -41.5t-17 -57.5q28 12 52.5 -5t24.5 -44q0 -21 -15.5 -36.5t-37.5 -15.5q-38 0 -51 31
q-8 19 -8 47q0 92 82 150z" />
    <glyph glyph-name="quotedblright" unicode="&#x201d;" horiz-adv-x="347" 
d="M60 516l-16 28q27 15 46 41.5t17 57.5q-28 -12 -52.5 5t-24.5 44q0 21 15.5 36.5t37.5 15.5q38 0 51 -31q8 -18 8 -47q0 -92 -82 -150zM225 516l-16 28q27 15 46 41.5t17 57.5q-28 -12 -52.5 5t-24.5 44q0 21 15.5 36.5t37.5 15.5q38 0 51 -31q8 -18 8 -47
q0 -92 -82 -150z" />
    <glyph glyph-name="bullet" unicode="&#x2022;" horiz-adv-x="423" 
d="M211 200q-50 0 -85 35t-35 84q0 50 35 85.5t85 35.5t85 -35.5t35 -85.5q0 -49 -35 -84t-85 -35z" />
    <glyph glyph-name="ellipsis" unicode="&#x2026;" horiz-adv-x="693" 
d="M98 -12q-22 0 -37.5 15.5t-15.5 37.5t15.5 37.5t37.5 15.5t37.5 -15.5t15.5 -37.5t-15.5 -37.5t-37.5 -15.5zM346 -12q-22 0 -37.5 15.5t-15.5 37.5t15.5 37.5t37.5 15.5t37.5 -15.5t15.5 -37.5t-15.5 -37.5t-37.5 -15.5zM594 -12q-22 0 -37.5 15.5t-15.5 37.5t15.5 37.5
t37.5 15.5t37.5 -15.5t15.5 -37.5t-15.5 -37.5t-37.5 -15.5z" />
    <glyph glyph-name="copyleft" unicode="&#x1f12f;" horiz-adv-x="866" 
d="M433 -19q-163 0 -279 116t-116 279q0 162 116 278t279 116t279 -116t116 -278q0 -163 -116 -279t-279 -116zM433 20q146 0 250.5 104.5t104.5 251.5q0 146 -104.5 250.5t-250.5 104.5t-250.5 -104.5t-104.5 -250.5q0 -147 104.5 -251.5t250.5 -104.5zM433 151
q-67 0 -115 39.5t-65 110.5l42 6q12 -51 48.5 -82t83.5 -31q63 0 106 53.5t43 130.5t-43 128t-109 51q-45 0 -79.5 -25t-47.5 -68l-42 7q19 61 65 95t107 34q85 0 138.5 -61.5t53.5 -163.5q0 -100 -50.5 -162t-135.5 -62z" />
  </font>
</defs>
</svg>
