<svg width="68" height="48" viewBox="0 0 68 48" fill="none" xmlns="http://www.w3.org/2000/svg">
<path fill-rule="evenodd" clip-rule="evenodd" d="M17.9655 10.0915C14.3642 12.1427 11.6285 15.1061 9.88542 18.5152C11.9556 17.5257 14.2789 16.9708 16.7336 16.9708C25.4189 16.9708 32.4597 23.9169 32.4597 32.4852C32.4597 41.0536 25.4189 47.9996 16.7336 47.9996C10.2158 47.9996 4.62405 44.0878 2.23909 38.5142L2.22422 38.5204C-3.25892 25.7456 1.64033 10.6512 14.1298 3.53745C17.5283 1.60177 21.1741 0.438983 24.8507 0L25.7725 7.51317C23.104 7.83178 20.4518 8.67534 17.9655 10.0915ZM53.5123 10.0915C49.9109 12.1428 47.1751 15.1065 45.432 18.5158C47.5022 17.5262 49.8257 16.9713 52.2805 16.9713C60.9658 16.9713 68.0066 23.9174 68.0066 32.4857C68.0066 41.0541 60.9658 48.0001 52.2805 48.0001C45.7625 48.0001 40.1706 44.0881 37.7858 38.5143L37.7711 38.5204C32.288 25.7456 37.1872 10.6512 49.6767 3.53745C53.0751 1.60177 56.721 0.438983 60.3976 0L61.3193 7.51317C58.6508 7.83178 55.9987 8.67534 53.5123 10.0915Z" fill="#FAB8C4"/>
</svg>
