<svg xmlns="http://www.w3.org/2000/svg" xmlns:xlink="http://www.w3.org/1999/xlink" width="183.777" height="88.986" viewBox="0 0 183.777 88.986">
  <defs>
    <clipPath id="clip-path">
      <rect id="Rectangle_34558" data-name="Rectangle 34558" width="183.777" height="88.986" fill="none"/>
    </clipPath>
  </defs>
  <g id="Group_90937" data-name="Group 90937" style="mix-blend-mode: multiply;isolation: isolate">
    <g id="Group_90934" data-name="Group 90934">
      <g id="Group_90933" data-name="Group 90933" clip-path="url(#clip-path)">
        <path id="Path_310169" data-name="Path 310169" d="M567.142,335.854H464.919a7.068,7.068,0,0,1-6.433-4.15,6.978,6.978,0,0,1,1.194-7.5l67.469-75.006a7.106,7.106,0,0,1,5.238-2.326H634.617a7.052,7.052,0,0,1,6.427,4.15,6.94,6.94,0,0,1-1.15,7.485L572.4,333.529a7.1,7.1,0,0,1-5.258,2.326m-34.755-85.8a3.736,3.736,0,0,0-2.837,1.26l-67.488,75.025a3.771,3.771,0,0,0-.644,4.069,3.845,3.845,0,0,0,3.5,2.251H567.142a3.913,3.913,0,0,0,2.875-1.273l67.468-75.012a3.734,3.734,0,0,0,.626-4.069l-.019-.019a3.809,3.809,0,0,0-3.476-2.232Z" transform="translate(-457.88 -246.868)" fill="#82c2e4"/>
      </g>
    </g>
  </g>
</svg>
