<svg xmlns="http://www.w3.org/2000/svg" width="222.562" height="143.5" viewBox="0 0 222.562 143.5">
  <g id="Group_98546" data-name="Group 98546" transform="translate(-151.132 -221.02)">
    <g id="Group_98544" data-name="Group 98544" transform="translate(288.019 312.685)">
      <path id="Path_312631" data-name="Path 312631" d="M675.88,515.041l-68.516,4.952-17.159,16.861,11.583,6.2Z" transform="translate(-590.206 -515.041)" fill="#ffc879"/>
      <path id="Path_312632" data-name="Path 312632" d="M701.45,515.041l-49.943,49.5-24.148-21.484Z" transform="translate(-615.776 -515.041)" fill="#fa8246"/>
      <path id="Path_312633" data-name="Path 312633" d="M684.577,515.041,623.55,566.876l-20.708-6.1,8.117-15.431Z" transform="translate(-598.903 -515.041)" fill="#ffa64c"/>
    </g>
    <g id="Group_98545" data-name="Group 98545" transform="translate(151.132 221.02)">
      <path id="Path_312634" data-name="Path 312634" d="M278.184,350.235c-11.045,3.78-22.542,6.837-34.277,7.116-10.526.25-21.121-1.865-29.989-7.738-7.582-5.022-13.924-12.488-16.478-21.322a28.244,28.244,0,0,1-.614-13.527c1.006-4.851,3.48-9.7,7.7-12.507,3.993-2.658,9.561-3.383,13.779-.813,3.58,2.181,5.324,6.407,5.31,10.484a14.274,14.274,0,0,1-5.681,11.246,20.991,20.991,0,0,1-13.2,4.157c-5.576-.1-10.951-2.119-15.769-4.812a68.38,68.38,0,0,1-12.37-8.958,75.376,75.376,0,0,1-17.509-23.527,72.641,72.641,0,0,1-7.011-29.889,75.035,75.035,0,0,1,6.316-31.509,73.291,73.291,0,0,1,3.508-6.916.468.468,0,0,0-.807-.472,75.536,75.536,0,0,0-9.735,31.715,73.9,73.9,0,0,0,4.575,32.064,76.234,76.234,0,0,0,16.328,25.644,73.977,73.977,0,0,0,11.639,9.807,44.9,44.9,0,0,0,15.489,7.147,24.4,24.4,0,0,0,14.765-1.173,16.964,16.964,0,0,0,9.506-9.435,14.929,14.929,0,0,0-.928-12.258,11.881,11.881,0,0,0-11.3-5.811,16.071,16.071,0,0,0-12.176,7.394,25.252,25.252,0,0,0-3.908,14.275c.128,9.4,4.906,18.135,11.557,24.56a45.709,45.709,0,0,0,11.856,8.268,49.637,49.637,0,0,0,15.393,4.368c12.015,1.522,24.214-.621,35.748-3.965,2.867-.831,5.709-1.745,8.533-2.711.566-.194.323-1.1-.249-.9Z" transform="translate(-151.132 -221.02)" fill="#b3b3b3"/>
    </g>
  </g>
</svg>
