<svg xmlns="http://www.w3.org/2000/svg" width="172.156" height="206.395" viewBox="0 0 172.156 206.395">
  <g id="Group_98543" data-name="Group 98543" transform="translate(-1645.891 -348.587)">
    <g id="Group_98541" data-name="Group 98541" transform="translate(1645.891 348.587)">
      <path id="Path_312627" data-name="Path 312627" d="M1645.891,382.057l53.708-33.47,21.922,3.251-5.265,10.9Z" transform="translate(-1645.891 -348.587)" fill="#ffc879"/>
      <path id="Path_312628" data-name="Path 312628" d="M1645.891,425.945l64.036,9.773,6.331-29.1Z" transform="translate(-1645.891 -392.475)" fill="#fa8246"/>
      <path id="Path_312629" data-name="Path 312629" d="M1645.891,432.033l73.558,5.5,12.111-15.775-14.413-7.089Z" transform="translate(-1645.891 -398.563)" fill="#ffa64c"/>
    </g>
    <g id="Group_98542" data-name="Group 98542" transform="translate(1703 359.881)">
      <path id="Path_312630" data-name="Path 312630" d="M1912.563,397.13c14.106-3.17,29.04-1.071,42.091,5a68.98,68.98,0,0,1,31.3,28.659c7.349,13.274,9.811,28.915,7.879,43.895A74.478,74.478,0,0,1,1975.1,515.53a79.972,79.972,0,0,1-38.286,22.672,83.374,83.374,0,0,1-22.518,2.784c-7.239-.106-14.88-.932-21.641-3.662a21.529,21.529,0,0,1-8.776-6.031,13.637,13.637,0,0,1-2.837-10.923c1.429-8.566,8.872-13.951,16.554-16.719,14.123-5.09,30.088-4.517,44.186.326a67.975,67.975,0,0,1,35.206,27.365c8.829,13.752,12.726,30.192,13.191,46.4.114,3.976.018,7.956-.261,11.923-.033.47.7.468.731,0,1.163-16.562-.892-33.655-7.738-48.892a70.9,70.9,0,0,0-13.531-20.262,68.232,68.232,0,0,0-18.255-13.376,70.9,70.9,0,0,0-44.051-6.727c-7.841,1.4-16.329,4.077-21.88,10.1-5.074,5.5-7.052,14.117-2.44,20.514,4.2,5.823,11.755,8.22,18.508,9.441a81.093,81.093,0,0,0,23,.8A83.537,83.537,0,0,0,1966.5,524.41a74.029,74.029,0,0,0,25.548-37.676,75.909,75.909,0,0,0-.728-45.638,67.746,67.746,0,0,0-26.9-34.353,69.9,69.9,0,0,0-41.609-11.75,61.953,61.953,0,0,0-10.443,1.43c-.459.1-.265.808.194.705Z" transform="translate(-1880.158 -394.913)" fill="#b3b3b3"/>
    </g>
  </g>
</svg>
