<svg width="43" height="42" viewBox="0 0 43 42" fill="none" xmlns="http://www.w3.org/2000/svg">
<path d="M5.78589 20.7798C5.78589 12.1089 12.8433 5.06665 21.4991 5.06665C30.1549 5.06665 37.2122 12.124 37.2122 20.7798C37.2122 29.4356 30.1549 36.493 21.4991 36.493C12.8433 36.493 5.78589 29.4356 5.78589 20.7798ZM6.37402 20.7798C6.37402 29.119 13.16 35.92 21.5142 35.92C29.8684 35.92 36.6543 29.1341 36.6543 20.7798C36.6543 12.4256 29.8684 5.63968 21.5142 5.63968C13.16 5.63968 6.37402 12.4256 6.37402 20.7798Z" fill="url(#paint0_linear_1484_10065)"/>
<path d="M0.719971 20.78C0.719971 9.31933 10.0393 0 21.5 0C32.9606 0 42.28 9.31933 42.28 20.78C42.28 32.2407 32.9606 41.56 21.5 41.56C10.0393 41.56 0.719971 32.2407 0.719971 20.78ZM1.48901 20.78C1.48901 31.8184 10.4615 40.7909 21.5 40.7909C32.5384 40.7909 41.5109 31.8184 41.5109 20.78C41.5109 9.74157 32.5384 0.769071 21.5 0.769071C10.4615 0.769071 1.48901 9.74157 1.48901 20.78Z" fill="url(#paint1_linear_1484_10065)"/>
<path d="M24.1137 31.8314C30.201 30.3947 33.9711 24.2952 32.5344 18.2079C31.0976 12.1205 24.9981 8.35047 18.9108 9.78721C12.8235 11.224 9.05338 17.3234 10.4901 23.4108C11.9269 29.4981 18.0264 33.2682 24.1137 31.8314Z" fill="url(#paint2_linear_1484_10065)"/>
<defs>
<linearGradient id="paint0_linear_1484_10065" x1="5.78589" y1="20.7798" x2="47.2519" y2="21.4298" gradientUnits="userSpaceOnUse">
<stop stop-color="#11152C"/>
<stop offset="1" stop-color="#145980"/>
</linearGradient>
<linearGradient id="paint1_linear_1484_10065" x1="0.719971" y1="20.78" x2="55.557" y2="21.6395" gradientUnits="userSpaceOnUse">
<stop stop-color="#11152C"/>
<stop offset="1" stop-color="#145980"/>
</linearGradient>
<linearGradient id="paint2_linear_1484_10065" x1="10.4901" y1="23.4108" x2="39.6844" y2="17.0016" gradientUnits="userSpaceOnUse">
<stop stop-color="#11152C"/>
<stop offset="1" stop-color="#145980"/>
</linearGradient>
</defs>
</svg>
