<svg width="17" height="17" viewBox="0 0 17 17" fill="none" xmlns="http://www.w3.org/2000/svg">
<path d="M12.1498 10.6918C11.7615 10.1976 11.8036 9.51187 12.1098 8.96299C12.53 8.20985 12.6358 7.45123 12.6358 6.3179C12.6358 2.82847 9.80732 0 6.3179 0C2.82847 0 0 2.82847 0 6.3179C0 9.80732 2.82847 12.6358 6.3179 12.6358C7.51928 12.6358 8.40701 12.5169 9.25598 12.0307C9.71854 11.7658 10.3149 11.7729 10.6918 12.1498L14.8269 16.2766C15.2273 16.6762 15.8758 16.6759 16.2759 16.2759C16.6759 15.8758 16.6762 15.2273 16.2766 14.8269L12.1498 10.6918ZM6.3179 10.6918C3.89766 10.6918 1.94397 8.73814 1.94397 6.3179C1.94397 3.89766 3.89766 1.94397 6.3179 1.94397C8.73814 1.94397 10.6918 3.89766 10.6918 6.3179C10.6918 8.73814 8.73814 10.6918 6.3179 10.6918Z" fill="black"/>
</svg>
